M48
;GenerationSoftware,Autodesk,EAGLE,9.6.2*%
;CreationDate,2022-12-22T12:04:25Z*%
FMAT,2
ICI,OFF
METRIC,TZ,000.000
T7C0.800
T6C0.813
T5C1.016
T4C1.200
T3C1.290
T2C1.320
T1C5.000
%
G90
M71
T1
X158750Y3810
X158750Y71120
X3810Y71120
X3810Y3810
T2
X21240Y53090
X9240Y53090
X9240Y40890
X21240Y40890
X42830Y53090
X30830Y53090
X30830Y40890
X42830Y40890
X64420Y53090
X52420Y53090
X52420Y40890
X138780Y40890
X138780Y53090
X150780Y53090
X64420Y40890
X86010Y53090
X74010Y53090
X74010Y40890
X150780Y40890
X86010Y40890
X107600Y53090
X95600Y53090
X95600Y40890
X129190Y40890
X107600Y40890
X129190Y53090
X117190Y53090
X117190Y40890
T3
X123190Y38890
X101600Y38890
X58420Y38890
X36830Y38890
X15240Y38890
X144780Y38890
X80010Y38890
T4
X20320Y63500
X15240Y63500
X10160Y63500
X41910Y63500
X36830Y63500
X31750Y63500
X63500Y63500
X58420Y63500
X53340Y63500
X85090Y63500
X80010Y63500
X74930Y63500
X106680Y63500
X101600Y63500
X96520Y63500
X128270Y63500
X123190Y63500
X118110Y63500
X149860Y63500
X144780Y63500
X139700Y63500
X151130Y10160
X151130Y5080
T5
X72390Y3810
X74930Y3810
X77470Y3810
X80010Y3810
X82550Y3810
X90170Y3810
X87630Y3810
X85090Y3810
T6
X143510Y29210
X146050Y29210
X121920Y29210
X124460Y29210
X100330Y29210
X102870Y29210
X78740Y29210
X19050Y34290
X35560Y29210
X38100Y29210
X13970Y29210
X16510Y29210
X140970Y34290
X148590Y34290
X119380Y34290
X127000Y34290
X97790Y34290
X105410Y34290
X76200Y34290
X83820Y34290
X54610Y34290
X62230Y34290
X33020Y34290
X81280Y29210
X57150Y29210
X59690Y29210
X11430Y34290
X40640Y34290
T7
X72390Y8890
X74930Y8890
X77470Y8890
X80010Y8890
X82550Y8890
X85090Y8890
X87630Y8890
X90170Y8890
X90170Y16510
X87630Y16510
X85090Y16510
X82550Y16510
X80010Y16510
X77470Y16510
X74930Y16510
X72390Y16510
M30