G04 EAGLE Gerber RS-274X export*
G75*
%MOMM*%
%FSLAX34Y34*%
%LPD*%
%INTop Copper*%
%IPPOS*%
%AMOC8*
5,1,8,0,0,1.08239X$1,22.5*%
G01*
%ADD10R,1.308000X1.308000*%
%ADD11C,1.308000*%
%ADD12C,1.800000*%
%ADD13C,1.524000*%
%ADD14P,1.814519X8X22.500000*%
%ADD15P,1.429621X8X22.500000*%
%ADD16R,1.980000X1.980000*%
%ADD17C,1.935000*%
%ADD18C,1.980000*%
%ADD19C,0.508000*%
%ADD20C,0.812800*%
%ADD21C,0.660400*%
%ADD22C,0.635000*%

G36*
X1557303Y10924D02*
X1557303Y10924D01*
X1557317Y10923D01*
X1557553Y10944D01*
X1557791Y10963D01*
X1557804Y10966D01*
X1557818Y10967D01*
X1558049Y11025D01*
X1558280Y11081D01*
X1558293Y11087D01*
X1558306Y11090D01*
X1558526Y11184D01*
X1558745Y11276D01*
X1558756Y11283D01*
X1558769Y11289D01*
X1558971Y11417D01*
X1559173Y11542D01*
X1559183Y11551D01*
X1559195Y11558D01*
X1559373Y11716D01*
X1559553Y11872D01*
X1559562Y11882D01*
X1559572Y11891D01*
X1559723Y12075D01*
X1559876Y12258D01*
X1559883Y12270D01*
X1559892Y12280D01*
X1560013Y12486D01*
X1560135Y12690D01*
X1560140Y12703D01*
X1560147Y12715D01*
X1560234Y12938D01*
X1560321Y13158D01*
X1560324Y13171D01*
X1560329Y13184D01*
X1560380Y13418D01*
X1560432Y13649D01*
X1560433Y13663D01*
X1560435Y13676D01*
X1560448Y13914D01*
X1560463Y14151D01*
X1560462Y14165D01*
X1560462Y14179D01*
X1560437Y14415D01*
X1560414Y14653D01*
X1560411Y14666D01*
X1560410Y14680D01*
X1560347Y14909D01*
X1560287Y15140D01*
X1560282Y15152D01*
X1560278Y15166D01*
X1560181Y15383D01*
X1560085Y15601D01*
X1560077Y15612D01*
X1560072Y15625D01*
X1559941Y15824D01*
X1559812Y16024D01*
X1559803Y16034D01*
X1559795Y16046D01*
X1559534Y16342D01*
X1559364Y16511D01*
X1554735Y24528D01*
X1552339Y33471D01*
X1552339Y42729D01*
X1554735Y51672D01*
X1559364Y59689D01*
X1565911Y66236D01*
X1573928Y70865D01*
X1582871Y73261D01*
X1592129Y73261D01*
X1601072Y70865D01*
X1609089Y66236D01*
X1609258Y66066D01*
X1609269Y66058D01*
X1609278Y66047D01*
X1609460Y65894D01*
X1609642Y65740D01*
X1609653Y65733D01*
X1609664Y65724D01*
X1609868Y65602D01*
X1610072Y65478D01*
X1610084Y65472D01*
X1610096Y65465D01*
X1610316Y65378D01*
X1610538Y65287D01*
X1610551Y65284D01*
X1610564Y65279D01*
X1610795Y65227D01*
X1611028Y65172D01*
X1611042Y65171D01*
X1611055Y65168D01*
X1611293Y65154D01*
X1611530Y65137D01*
X1611544Y65138D01*
X1611557Y65137D01*
X1611796Y65160D01*
X1612032Y65181D01*
X1612045Y65184D01*
X1612059Y65186D01*
X1612289Y65246D01*
X1612520Y65304D01*
X1612533Y65309D01*
X1612546Y65313D01*
X1612763Y65408D01*
X1612983Y65503D01*
X1612994Y65510D01*
X1613007Y65515D01*
X1613207Y65645D01*
X1613408Y65772D01*
X1613418Y65781D01*
X1613430Y65788D01*
X1613607Y65948D01*
X1613786Y66105D01*
X1613794Y66116D01*
X1613805Y66125D01*
X1613954Y66309D01*
X1614106Y66494D01*
X1614113Y66506D01*
X1614121Y66516D01*
X1614239Y66722D01*
X1614360Y66928D01*
X1614365Y66941D01*
X1614372Y66953D01*
X1614456Y67174D01*
X1614543Y67397D01*
X1614546Y67411D01*
X1614551Y67424D01*
X1614599Y67656D01*
X1614649Y67890D01*
X1614650Y67903D01*
X1614653Y67917D01*
X1614677Y68311D01*
X1614677Y680989D01*
X1614676Y681003D01*
X1614677Y681016D01*
X1614656Y681253D01*
X1614637Y681491D01*
X1614634Y681504D01*
X1614633Y681518D01*
X1614575Y681749D01*
X1614518Y681980D01*
X1614513Y681993D01*
X1614510Y682006D01*
X1614416Y682226D01*
X1614324Y682445D01*
X1614317Y682456D01*
X1614311Y682469D01*
X1614183Y682671D01*
X1614058Y682873D01*
X1614049Y682883D01*
X1614042Y682894D01*
X1613884Y683073D01*
X1613728Y683253D01*
X1613718Y683262D01*
X1613709Y683272D01*
X1613525Y683423D01*
X1613342Y683576D01*
X1613330Y683583D01*
X1613320Y683592D01*
X1613114Y683713D01*
X1612910Y683835D01*
X1612897Y683840D01*
X1612885Y683847D01*
X1612662Y683934D01*
X1612442Y684021D01*
X1612429Y684024D01*
X1612416Y684029D01*
X1612182Y684080D01*
X1611951Y684132D01*
X1611937Y684132D01*
X1611924Y684135D01*
X1611686Y684148D01*
X1611449Y684163D01*
X1611435Y684162D01*
X1611421Y684162D01*
X1611185Y684137D01*
X1610947Y684114D01*
X1610934Y684111D01*
X1610920Y684109D01*
X1610691Y684047D01*
X1610460Y683987D01*
X1610448Y683982D01*
X1610434Y683978D01*
X1610217Y683880D01*
X1609999Y683785D01*
X1609988Y683777D01*
X1609975Y683772D01*
X1609776Y683641D01*
X1609576Y683512D01*
X1609566Y683502D01*
X1609554Y683495D01*
X1609258Y683234D01*
X1609089Y683064D01*
X1601072Y678435D01*
X1592129Y676039D01*
X1582871Y676039D01*
X1575749Y677948D01*
X1575561Y677982D01*
X1575375Y678024D01*
X1575314Y678028D01*
X1575253Y678039D01*
X1575063Y678044D01*
X1574873Y678055D01*
X1574811Y678050D01*
X1574750Y678051D01*
X1574561Y678025D01*
X1574371Y678007D01*
X1574312Y677991D01*
X1574251Y677983D01*
X1574069Y677928D01*
X1573884Y677880D01*
X1573828Y677855D01*
X1573769Y677837D01*
X1573598Y677754D01*
X1573423Y677677D01*
X1573371Y677644D01*
X1573316Y677617D01*
X1573161Y677508D01*
X1573000Y677404D01*
X1572954Y677363D01*
X1572904Y677328D01*
X1572767Y677195D01*
X1572625Y677068D01*
X1572587Y677020D01*
X1572543Y676977D01*
X1572429Y676824D01*
X1572309Y676676D01*
X1572278Y676623D01*
X1572241Y676574D01*
X1572153Y676405D01*
X1572058Y676240D01*
X1572036Y676182D01*
X1572008Y676128D01*
X1571947Y675947D01*
X1571879Y675769D01*
X1571867Y675709D01*
X1571847Y675650D01*
X1571816Y675463D01*
X1571777Y675276D01*
X1571773Y675204D01*
X1571764Y675154D01*
X1571764Y675059D01*
X1571753Y674882D01*
X1571753Y366380D01*
X1570283Y362832D01*
X1554868Y347417D01*
X1551320Y345947D01*
X1503913Y345947D01*
X1503872Y345944D01*
X1503831Y345946D01*
X1503622Y345924D01*
X1503411Y345907D01*
X1503371Y345898D01*
X1503331Y345893D01*
X1503127Y345838D01*
X1502922Y345789D01*
X1502884Y345773D01*
X1502845Y345762D01*
X1502652Y345675D01*
X1502458Y345594D01*
X1502423Y345572D01*
X1502385Y345555D01*
X1502209Y345439D01*
X1502030Y345328D01*
X1501999Y345301D01*
X1501965Y345279D01*
X1501669Y345018D01*
X1496482Y339831D01*
X1496456Y339800D01*
X1496425Y339773D01*
X1496293Y339609D01*
X1496156Y339448D01*
X1496134Y339413D01*
X1496109Y339381D01*
X1496004Y339199D01*
X1495894Y339018D01*
X1495878Y338980D01*
X1495858Y338945D01*
X1495783Y338748D01*
X1495703Y338552D01*
X1495694Y338512D01*
X1495679Y338474D01*
X1495637Y338267D01*
X1495588Y338062D01*
X1495586Y338021D01*
X1495577Y337981D01*
X1495553Y337587D01*
X1495553Y150480D01*
X1494083Y146932D01*
X1490921Y143770D01*
X1489634Y142483D01*
X1489617Y142463D01*
X1489596Y142444D01*
X1489453Y142271D01*
X1489308Y142100D01*
X1489293Y142077D01*
X1489276Y142056D01*
X1489163Y141862D01*
X1489046Y141670D01*
X1489035Y141645D01*
X1489022Y141621D01*
X1488940Y141412D01*
X1488855Y141204D01*
X1488849Y141178D01*
X1488839Y141152D01*
X1488791Y140932D01*
X1488740Y140714D01*
X1488738Y140687D01*
X1488733Y140660D01*
X1488721Y140436D01*
X1488705Y140212D01*
X1488707Y140184D01*
X1488706Y140157D01*
X1488729Y139935D01*
X1488749Y139710D01*
X1488756Y139683D01*
X1488759Y139656D01*
X1488817Y139440D01*
X1488872Y139222D01*
X1488883Y139197D01*
X1488890Y139170D01*
X1488982Y138965D01*
X1489071Y138759D01*
X1489085Y138736D01*
X1489096Y138711D01*
X1489220Y138523D01*
X1489340Y138334D01*
X1489358Y138313D01*
X1489373Y138290D01*
X1489634Y137994D01*
X1516550Y111079D01*
X1516682Y110966D01*
X1516808Y110847D01*
X1516873Y110803D01*
X1516933Y110752D01*
X1517081Y110662D01*
X1517210Y110575D01*
X1520222Y107562D01*
X1521825Y103694D01*
X1521825Y99506D01*
X1520222Y95638D01*
X1517262Y92678D01*
X1513394Y91075D01*
X1509206Y91075D01*
X1505338Y92678D01*
X1502315Y95701D01*
X1502280Y95769D01*
X1502178Y95909D01*
X1502082Y96054D01*
X1502021Y96124D01*
X1501983Y96175D01*
X1501920Y96238D01*
X1501821Y96350D01*
X1463924Y134247D01*
X1444416Y153756D01*
X1444385Y153782D01*
X1444357Y153813D01*
X1444193Y153945D01*
X1444033Y154082D01*
X1443998Y154104D01*
X1443966Y154129D01*
X1443783Y154234D01*
X1443603Y154344D01*
X1443565Y154360D01*
X1443529Y154380D01*
X1443333Y154455D01*
X1443137Y154535D01*
X1443097Y154544D01*
X1443058Y154559D01*
X1442852Y154601D01*
X1442646Y154650D01*
X1442605Y154652D01*
X1442565Y154661D01*
X1442171Y154685D01*
X899628Y154685D01*
X895801Y156271D01*
X892871Y159201D01*
X891108Y163457D01*
X891102Y163469D01*
X891097Y163482D01*
X890987Y163694D01*
X890879Y163905D01*
X890871Y163916D01*
X890864Y163928D01*
X890722Y164120D01*
X890582Y164312D01*
X890572Y164321D01*
X890564Y164332D01*
X890393Y164499D01*
X890224Y164666D01*
X890213Y164674D01*
X890203Y164684D01*
X890009Y164821D01*
X889815Y164960D01*
X889803Y164966D01*
X889792Y164974D01*
X889578Y165078D01*
X889365Y165185D01*
X889352Y165189D01*
X889339Y165195D01*
X889111Y165265D01*
X888884Y165336D01*
X888871Y165338D01*
X888858Y165342D01*
X888619Y165375D01*
X888386Y165409D01*
X888373Y165409D01*
X888359Y165411D01*
X888119Y165406D01*
X887883Y165403D01*
X887869Y165400D01*
X887856Y165400D01*
X887621Y165357D01*
X887387Y165317D01*
X887374Y165312D01*
X887360Y165310D01*
X887135Y165231D01*
X886910Y165153D01*
X886898Y165147D01*
X886885Y165142D01*
X886676Y165029D01*
X886466Y164917D01*
X886455Y164908D01*
X886443Y164902D01*
X886253Y164756D01*
X886064Y164613D01*
X886055Y164603D01*
X886044Y164595D01*
X885880Y164420D01*
X885716Y164249D01*
X885708Y164238D01*
X885699Y164228D01*
X885565Y164031D01*
X885430Y163835D01*
X885424Y163823D01*
X885416Y163811D01*
X885243Y163457D01*
X883837Y160064D01*
X881336Y157563D01*
X878068Y156209D01*
X874532Y156209D01*
X871264Y157563D01*
X868763Y160064D01*
X867409Y163332D01*
X867409Y179568D01*
X868763Y182836D01*
X883964Y198037D01*
X887232Y199391D01*
X1417403Y199391D01*
X1417443Y199394D01*
X1417484Y199392D01*
X1417694Y199414D01*
X1417904Y199431D01*
X1417944Y199440D01*
X1417985Y199445D01*
X1418189Y199500D01*
X1418394Y199549D01*
X1418431Y199565D01*
X1418471Y199576D01*
X1418664Y199663D01*
X1418858Y199744D01*
X1418893Y199766D01*
X1418930Y199783D01*
X1419107Y199899D01*
X1419286Y200010D01*
X1419317Y200037D01*
X1419351Y200059D01*
X1419647Y200320D01*
X1450680Y231353D01*
X1450706Y231384D01*
X1450737Y231411D01*
X1450869Y231576D01*
X1451006Y231736D01*
X1451028Y231771D01*
X1451053Y231803D01*
X1451158Y231985D01*
X1451268Y232166D01*
X1451284Y232204D01*
X1451304Y232240D01*
X1451379Y232436D01*
X1451459Y232632D01*
X1451468Y232672D01*
X1451483Y232710D01*
X1451525Y232917D01*
X1451574Y233122D01*
X1451576Y233163D01*
X1451585Y233203D01*
X1451609Y233597D01*
X1451609Y285666D01*
X1451606Y285707D01*
X1451608Y285747D01*
X1451586Y285957D01*
X1451569Y286168D01*
X1451560Y286207D01*
X1451555Y286248D01*
X1451500Y286452D01*
X1451451Y286657D01*
X1451435Y286695D01*
X1451424Y286734D01*
X1451337Y286927D01*
X1451256Y287121D01*
X1451234Y287156D01*
X1451217Y287193D01*
X1451101Y287370D01*
X1450990Y287549D01*
X1450963Y287580D01*
X1450941Y287614D01*
X1450680Y287910D01*
X1450045Y288545D01*
X1450024Y288563D01*
X1450006Y288583D01*
X1449832Y288726D01*
X1449661Y288872D01*
X1449638Y288886D01*
X1449617Y288903D01*
X1449424Y289017D01*
X1449231Y289134D01*
X1449206Y289144D01*
X1449183Y289158D01*
X1448974Y289239D01*
X1448765Y289325D01*
X1448739Y289331D01*
X1448713Y289341D01*
X1448494Y289388D01*
X1448275Y289439D01*
X1448248Y289441D01*
X1448221Y289447D01*
X1447997Y289459D01*
X1447773Y289475D01*
X1447746Y289472D01*
X1447718Y289474D01*
X1447496Y289450D01*
X1447271Y289431D01*
X1447245Y289424D01*
X1447218Y289421D01*
X1447002Y289363D01*
X1446783Y289308D01*
X1446758Y289297D01*
X1446731Y289290D01*
X1446527Y289198D01*
X1446320Y289109D01*
X1446297Y289094D01*
X1446272Y289083D01*
X1446085Y288960D01*
X1445895Y288840D01*
X1445874Y288822D01*
X1445851Y288807D01*
X1445555Y288545D01*
X1439204Y282193D01*
X1430798Y282193D01*
X1430732Y282233D01*
X1430694Y282249D01*
X1430659Y282269D01*
X1430462Y282344D01*
X1430266Y282424D01*
X1430226Y282433D01*
X1430188Y282448D01*
X1429982Y282490D01*
X1429776Y282539D01*
X1429735Y282541D01*
X1429695Y282550D01*
X1429301Y282574D01*
X1420505Y282574D01*
X1417004Y284024D01*
X1401624Y299404D01*
X1400174Y302905D01*
X1400174Y344795D01*
X1401624Y348296D01*
X1404304Y350976D01*
X1407805Y352426D01*
X1411595Y352426D01*
X1415096Y350976D01*
X1417776Y348296D01*
X1419226Y344795D01*
X1419226Y310061D01*
X1419229Y310020D01*
X1419227Y309979D01*
X1419249Y309769D01*
X1419266Y309559D01*
X1419275Y309519D01*
X1419280Y309478D01*
X1419335Y309274D01*
X1419384Y309069D01*
X1419400Y309032D01*
X1419411Y308992D01*
X1419498Y308799D01*
X1419579Y308605D01*
X1419601Y308570D01*
X1419618Y308533D01*
X1419734Y308356D01*
X1419845Y308177D01*
X1419872Y308146D01*
X1419894Y308112D01*
X1420155Y307816D01*
X1425416Y302555D01*
X1425447Y302529D01*
X1425474Y302498D01*
X1425639Y302366D01*
X1425799Y302229D01*
X1425834Y302207D01*
X1425866Y302182D01*
X1426048Y302077D01*
X1426229Y301967D01*
X1426267Y301951D01*
X1426303Y301931D01*
X1426499Y301856D01*
X1426695Y301776D01*
X1426735Y301767D01*
X1426773Y301752D01*
X1426980Y301710D01*
X1427185Y301661D01*
X1427226Y301659D01*
X1427266Y301650D01*
X1427661Y301626D01*
X1429301Y301626D01*
X1429342Y301629D01*
X1429383Y301627D01*
X1429592Y301649D01*
X1429803Y301666D01*
X1429842Y301675D01*
X1429883Y301680D01*
X1430087Y301735D01*
X1430292Y301784D01*
X1430330Y301800D01*
X1430369Y301811D01*
X1430562Y301898D01*
X1430756Y301979D01*
X1430791Y302001D01*
X1430804Y302007D01*
X1439204Y302007D01*
X1445555Y295655D01*
X1445566Y295646D01*
X1445575Y295636D01*
X1445596Y295618D01*
X1445614Y295598D01*
X1445778Y295465D01*
X1445939Y295328D01*
X1445950Y295321D01*
X1445961Y295312D01*
X1445984Y295298D01*
X1446005Y295281D01*
X1446188Y295176D01*
X1446369Y295066D01*
X1446381Y295061D01*
X1446393Y295054D01*
X1446418Y295044D01*
X1446442Y295030D01*
X1446639Y294956D01*
X1446835Y294875D01*
X1446848Y294872D01*
X1446861Y294867D01*
X1446887Y294861D01*
X1446913Y294852D01*
X1447119Y294809D01*
X1447325Y294761D01*
X1447339Y294760D01*
X1447352Y294757D01*
X1447379Y294755D01*
X1447406Y294750D01*
X1447800Y294725D01*
X1447814Y294726D01*
X1447827Y294725D01*
X1447841Y294726D01*
X1447854Y294726D01*
X1448078Y294747D01*
X1448302Y294765D01*
X1448315Y294768D01*
X1448329Y294769D01*
X1448342Y294773D01*
X1448356Y294774D01*
X1448574Y294831D01*
X1448791Y294884D01*
X1448804Y294889D01*
X1448817Y294892D01*
X1448830Y294898D01*
X1448843Y294901D01*
X1449049Y294992D01*
X1449256Y295078D01*
X1449267Y295086D01*
X1449280Y295091D01*
X1449291Y295098D01*
X1449304Y295104D01*
X1449493Y295226D01*
X1449683Y295344D01*
X1449694Y295353D01*
X1449705Y295360D01*
X1449715Y295369D01*
X1449727Y295377D01*
X1449894Y295527D01*
X1450064Y295674D01*
X1450073Y295685D01*
X1450083Y295694D01*
X1450091Y295704D01*
X1450102Y295713D01*
X1450243Y295888D01*
X1450387Y296060D01*
X1450394Y296072D01*
X1450403Y296082D01*
X1450410Y296094D01*
X1450418Y296105D01*
X1450530Y296299D01*
X1450645Y296492D01*
X1450651Y296505D01*
X1450657Y296517D01*
X1450662Y296529D01*
X1450669Y296541D01*
X1450749Y296751D01*
X1450832Y296960D01*
X1450835Y296973D01*
X1450840Y296986D01*
X1450843Y296999D01*
X1450848Y297012D01*
X1450893Y297232D01*
X1450942Y297451D01*
X1450943Y297465D01*
X1450946Y297478D01*
X1450947Y297492D01*
X1450950Y297505D01*
X1450974Y297899D01*
X1450974Y330939D01*
X1450971Y330980D01*
X1450973Y331021D01*
X1450951Y331231D01*
X1450934Y331441D01*
X1450925Y331481D01*
X1450920Y331522D01*
X1450865Y331726D01*
X1450816Y331931D01*
X1450800Y331968D01*
X1450789Y332008D01*
X1450702Y332201D01*
X1450621Y332395D01*
X1450599Y332430D01*
X1450582Y332467D01*
X1450466Y332644D01*
X1450355Y332823D01*
X1450328Y332854D01*
X1450306Y332888D01*
X1450045Y333184D01*
X1386359Y396869D01*
X1386227Y396982D01*
X1386101Y397101D01*
X1386036Y397145D01*
X1385976Y397196D01*
X1385828Y397286D01*
X1385684Y397384D01*
X1385601Y397424D01*
X1385546Y397458D01*
X1385464Y397491D01*
X1385330Y397557D01*
X1381328Y399215D01*
X1378115Y402428D01*
X1376375Y406627D01*
X1376375Y411173D01*
X1378115Y415372D01*
X1381328Y418585D01*
X1385527Y420325D01*
X1390073Y420325D01*
X1394272Y418585D01*
X1397485Y415372D01*
X1399143Y411370D01*
X1399222Y411216D01*
X1399293Y411057D01*
X1399336Y410992D01*
X1399372Y410922D01*
X1399474Y410782D01*
X1399570Y410637D01*
X1399631Y410567D01*
X1399669Y410515D01*
X1399732Y410453D01*
X1399831Y410341D01*
X1465449Y344722D01*
X1468576Y341596D01*
X1470140Y337818D01*
X1470201Y337700D01*
X1470252Y337577D01*
X1470315Y337476D01*
X1470369Y337369D01*
X1470448Y337262D01*
X1470518Y337149D01*
X1470596Y337059D01*
X1470666Y336963D01*
X1470761Y336869D01*
X1470848Y336769D01*
X1470939Y336692D01*
X1471024Y336608D01*
X1471132Y336531D01*
X1471234Y336446D01*
X1471336Y336384D01*
X1471433Y336315D01*
X1471552Y336255D01*
X1471666Y336187D01*
X1471777Y336143D01*
X1471883Y336090D01*
X1472010Y336050D01*
X1472134Y336001D01*
X1472250Y335974D01*
X1472364Y335939D01*
X1472495Y335919D01*
X1472625Y335890D01*
X1472744Y335883D01*
X1472862Y335865D01*
X1472995Y335867D01*
X1473127Y335859D01*
X1473246Y335870D01*
X1473365Y335872D01*
X1473496Y335895D01*
X1473629Y335907D01*
X1473744Y335938D01*
X1473862Y335958D01*
X1473987Y336001D01*
X1474116Y336035D01*
X1474225Y336083D01*
X1474338Y336121D01*
X1474455Y336184D01*
X1474577Y336237D01*
X1474677Y336302D01*
X1474782Y336358D01*
X1474888Y336438D01*
X1475000Y336510D01*
X1475089Y336590D01*
X1475184Y336662D01*
X1475276Y336758D01*
X1475375Y336847D01*
X1475450Y336939D01*
X1475532Y337026D01*
X1475608Y337135D01*
X1475691Y337238D01*
X1475751Y337341D01*
X1475819Y337440D01*
X1475876Y337560D01*
X1475942Y337675D01*
X1475984Y337786D01*
X1476036Y337894D01*
X1476074Y338021D01*
X1476121Y338145D01*
X1476145Y338262D01*
X1476179Y338377D01*
X1476196Y338508D01*
X1476223Y338639D01*
X1476232Y338788D01*
X1476243Y338876D01*
X1476241Y338940D01*
X1476247Y339033D01*
X1476247Y344870D01*
X1476248Y344871D01*
X1476264Y344948D01*
X1476288Y345022D01*
X1476315Y345194D01*
X1476350Y345364D01*
X1476355Y345457D01*
X1476365Y345520D01*
X1476365Y345609D01*
X1476374Y345758D01*
X1476374Y388895D01*
X1477824Y392396D01*
X1495446Y410017D01*
X1495472Y410048D01*
X1495503Y410075D01*
X1495635Y410240D01*
X1495772Y410400D01*
X1495794Y410435D01*
X1495819Y410467D01*
X1495924Y410649D01*
X1496034Y410830D01*
X1496050Y410868D01*
X1496070Y410904D01*
X1496145Y411100D01*
X1496225Y411296D01*
X1496234Y411336D01*
X1496249Y411374D01*
X1496291Y411581D01*
X1496340Y411786D01*
X1496342Y411827D01*
X1496351Y411867D01*
X1496375Y412262D01*
X1496375Y419432D01*
X1497268Y420325D01*
X1518332Y420325D01*
X1519225Y419432D01*
X1519225Y398368D01*
X1518332Y397475D01*
X1511162Y397475D01*
X1511121Y397472D01*
X1511080Y397474D01*
X1510870Y397452D01*
X1510660Y397435D01*
X1510620Y397426D01*
X1510579Y397421D01*
X1510375Y397366D01*
X1510170Y397317D01*
X1510133Y397301D01*
X1510093Y397290D01*
X1509900Y397203D01*
X1509706Y397122D01*
X1509671Y397100D01*
X1509634Y397083D01*
X1509457Y396967D01*
X1509278Y396856D01*
X1509247Y396829D01*
X1509213Y396807D01*
X1508917Y396546D01*
X1496355Y383984D01*
X1496329Y383953D01*
X1496298Y383926D01*
X1496166Y383761D01*
X1496029Y383601D01*
X1496007Y383566D01*
X1495982Y383534D01*
X1495877Y383352D01*
X1495767Y383171D01*
X1495751Y383133D01*
X1495731Y383097D01*
X1495656Y382901D01*
X1495576Y382705D01*
X1495567Y382665D01*
X1495552Y382627D01*
X1495510Y382420D01*
X1495461Y382215D01*
X1495459Y382174D01*
X1495450Y382134D01*
X1495426Y381739D01*
X1495426Y368427D01*
X1495428Y368400D01*
X1495426Y368373D01*
X1495448Y368149D01*
X1495466Y367925D01*
X1495472Y367899D01*
X1495475Y367871D01*
X1495532Y367653D01*
X1495584Y367436D01*
X1495595Y367411D01*
X1495602Y367384D01*
X1495693Y367178D01*
X1495779Y366971D01*
X1495794Y366948D01*
X1495805Y366923D01*
X1495927Y366734D01*
X1496045Y366544D01*
X1496063Y366523D01*
X1496078Y366500D01*
X1496228Y366333D01*
X1496375Y366163D01*
X1496396Y366146D01*
X1496414Y366125D01*
X1496589Y365984D01*
X1496761Y365840D01*
X1496784Y365826D01*
X1496805Y365809D01*
X1497000Y365697D01*
X1497193Y365582D01*
X1497218Y365571D01*
X1497242Y365558D01*
X1497452Y365478D01*
X1497661Y365395D01*
X1497687Y365389D01*
X1497713Y365379D01*
X1497933Y365334D01*
X1498152Y365285D01*
X1498179Y365283D01*
X1498206Y365277D01*
X1498600Y365253D01*
X1544087Y365253D01*
X1544128Y365256D01*
X1544169Y365254D01*
X1544378Y365276D01*
X1544589Y365293D01*
X1544629Y365302D01*
X1544669Y365307D01*
X1544873Y365362D01*
X1545078Y365411D01*
X1545116Y365427D01*
X1545155Y365438D01*
X1545348Y365525D01*
X1545542Y365606D01*
X1545577Y365628D01*
X1545615Y365645D01*
X1545791Y365761D01*
X1545970Y365872D01*
X1546001Y365899D01*
X1546035Y365921D01*
X1546331Y366182D01*
X1551518Y371369D01*
X1551544Y371400D01*
X1551575Y371427D01*
X1551707Y371591D01*
X1551844Y371752D01*
X1551866Y371787D01*
X1551891Y371819D01*
X1551996Y372001D01*
X1552106Y372182D01*
X1552122Y372220D01*
X1552142Y372255D01*
X1552217Y372452D01*
X1552297Y372648D01*
X1552306Y372688D01*
X1552321Y372726D01*
X1552363Y372933D01*
X1552412Y373138D01*
X1552414Y373179D01*
X1552423Y373219D01*
X1552447Y373613D01*
X1552447Y667787D01*
X1552444Y667828D01*
X1552446Y667869D01*
X1552424Y668078D01*
X1552407Y668289D01*
X1552398Y668329D01*
X1552393Y668369D01*
X1552338Y668573D01*
X1552289Y668778D01*
X1552273Y668816D01*
X1552262Y668855D01*
X1552175Y669048D01*
X1552094Y669243D01*
X1552072Y669277D01*
X1552055Y669315D01*
X1551939Y669491D01*
X1551828Y669670D01*
X1551801Y669701D01*
X1551779Y669735D01*
X1551518Y670031D01*
X1520931Y700618D01*
X1520900Y700644D01*
X1520873Y700675D01*
X1520709Y700807D01*
X1520548Y700944D01*
X1520513Y700966D01*
X1520481Y700991D01*
X1520299Y701096D01*
X1520118Y701206D01*
X1520080Y701222D01*
X1520045Y701242D01*
X1519848Y701317D01*
X1519652Y701397D01*
X1519612Y701406D01*
X1519574Y701421D01*
X1519367Y701463D01*
X1519162Y701512D01*
X1519121Y701514D01*
X1519081Y701523D01*
X1518687Y701547D01*
X1364213Y701547D01*
X1364172Y701544D01*
X1364131Y701546D01*
X1363922Y701524D01*
X1363711Y701507D01*
X1363671Y701498D01*
X1363631Y701493D01*
X1363427Y701438D01*
X1363222Y701389D01*
X1363184Y701373D01*
X1363145Y701362D01*
X1362952Y701275D01*
X1362758Y701194D01*
X1362723Y701172D01*
X1362685Y701155D01*
X1362509Y701039D01*
X1362330Y700928D01*
X1362299Y700901D01*
X1362265Y700879D01*
X1361969Y700618D01*
X1331382Y670031D01*
X1331356Y670000D01*
X1331325Y669973D01*
X1331193Y669809D01*
X1331056Y669648D01*
X1331034Y669613D01*
X1331009Y669581D01*
X1330904Y669399D01*
X1330794Y669218D01*
X1330778Y669180D01*
X1330758Y669145D01*
X1330683Y668948D01*
X1330603Y668752D01*
X1330594Y668712D01*
X1330579Y668674D01*
X1330537Y668467D01*
X1330488Y668262D01*
X1330486Y668221D01*
X1330477Y668181D01*
X1330453Y667787D01*
X1330453Y435880D01*
X1328983Y432332D01*
X1304254Y407603D01*
X1304228Y407572D01*
X1304197Y407545D01*
X1304065Y407381D01*
X1303928Y407220D01*
X1303906Y407185D01*
X1303881Y407153D01*
X1303776Y406971D01*
X1303666Y406790D01*
X1303650Y406752D01*
X1303630Y406717D01*
X1303555Y406520D01*
X1303475Y406324D01*
X1303466Y406284D01*
X1303451Y406246D01*
X1303409Y406039D01*
X1303360Y405834D01*
X1303358Y405793D01*
X1303349Y405753D01*
X1303325Y405359D01*
X1303325Y398368D01*
X1302432Y397475D01*
X1295262Y397475D01*
X1295221Y397472D01*
X1295180Y397474D01*
X1294970Y397452D01*
X1294760Y397435D01*
X1294720Y397426D01*
X1294679Y397421D01*
X1294475Y397366D01*
X1294270Y397317D01*
X1294233Y397301D01*
X1294193Y397290D01*
X1294000Y397203D01*
X1293806Y397122D01*
X1293771Y397100D01*
X1293734Y397083D01*
X1293557Y396967D01*
X1293378Y396856D01*
X1293347Y396829D01*
X1293313Y396807D01*
X1293017Y396546D01*
X1280455Y383984D01*
X1280429Y383953D01*
X1280398Y383926D01*
X1280266Y383761D01*
X1280129Y383601D01*
X1280107Y383566D01*
X1280082Y383534D01*
X1279977Y383352D01*
X1279867Y383171D01*
X1279851Y383133D01*
X1279831Y383097D01*
X1279756Y382901D01*
X1279676Y382705D01*
X1279667Y382665D01*
X1279652Y382627D01*
X1279610Y382420D01*
X1279561Y382215D01*
X1279559Y382174D01*
X1279550Y382134D01*
X1279526Y381739D01*
X1279526Y341005D01*
X1278076Y337504D01*
X1275396Y334824D01*
X1271895Y333374D01*
X1268105Y333374D01*
X1264604Y334824D01*
X1261924Y337504D01*
X1260474Y341005D01*
X1260474Y388895D01*
X1261924Y392396D01*
X1279546Y410017D01*
X1279572Y410048D01*
X1279603Y410075D01*
X1279735Y410240D01*
X1279872Y410400D01*
X1279894Y410435D01*
X1279919Y410467D01*
X1280024Y410649D01*
X1280134Y410830D01*
X1280150Y410868D01*
X1280170Y410904D01*
X1280245Y411100D01*
X1280325Y411296D01*
X1280334Y411336D01*
X1280349Y411374D01*
X1280391Y411581D01*
X1280440Y411786D01*
X1280442Y411827D01*
X1280451Y411867D01*
X1280475Y412262D01*
X1280475Y419432D01*
X1281368Y420325D01*
X1288359Y420325D01*
X1288400Y420328D01*
X1288441Y420326D01*
X1288650Y420348D01*
X1288861Y420365D01*
X1288901Y420374D01*
X1288941Y420379D01*
X1289145Y420434D01*
X1289350Y420483D01*
X1289388Y420499D01*
X1289427Y420510D01*
X1289620Y420597D01*
X1289814Y420678D01*
X1289849Y420700D01*
X1289887Y420717D01*
X1290063Y420833D01*
X1290242Y420944D01*
X1290273Y420971D01*
X1290307Y420993D01*
X1290603Y421254D01*
X1310218Y440869D01*
X1310244Y440900D01*
X1310275Y440927D01*
X1310407Y441091D01*
X1310544Y441252D01*
X1310566Y441287D01*
X1310591Y441319D01*
X1310696Y441501D01*
X1310806Y441682D01*
X1310822Y441720D01*
X1310842Y441755D01*
X1310917Y441952D01*
X1310997Y442148D01*
X1311006Y442188D01*
X1311021Y442226D01*
X1311063Y442433D01*
X1311112Y442638D01*
X1311114Y442679D01*
X1311123Y442719D01*
X1311147Y443113D01*
X1311147Y675020D01*
X1312617Y678568D01*
X1315779Y681730D01*
X1330177Y696128D01*
X1330186Y696139D01*
X1330197Y696148D01*
X1330350Y696331D01*
X1330504Y696512D01*
X1330511Y696523D01*
X1330520Y696534D01*
X1330642Y696737D01*
X1330766Y696942D01*
X1330771Y696954D01*
X1330778Y696966D01*
X1330866Y697185D01*
X1330957Y697408D01*
X1330960Y697421D01*
X1330965Y697434D01*
X1331017Y697666D01*
X1331071Y697898D01*
X1331072Y697912D01*
X1331075Y697925D01*
X1331090Y698164D01*
X1331107Y698400D01*
X1331106Y698414D01*
X1331107Y698427D01*
X1331084Y698665D01*
X1331063Y698902D01*
X1331059Y698915D01*
X1331058Y698929D01*
X1330998Y699159D01*
X1330940Y699390D01*
X1330934Y699403D01*
X1330931Y699416D01*
X1330835Y699635D01*
X1330741Y699853D01*
X1330734Y699864D01*
X1330728Y699877D01*
X1330598Y700079D01*
X1330472Y700278D01*
X1330463Y700288D01*
X1330455Y700300D01*
X1330296Y700478D01*
X1330139Y700656D01*
X1330128Y700664D01*
X1330119Y700675D01*
X1329933Y700825D01*
X1329750Y700976D01*
X1329738Y700983D01*
X1329727Y700991D01*
X1329521Y701110D01*
X1329315Y701230D01*
X1329303Y701235D01*
X1329291Y701242D01*
X1329069Y701326D01*
X1328846Y701413D01*
X1328833Y701416D01*
X1328820Y701421D01*
X1328587Y701469D01*
X1328354Y701519D01*
X1328340Y701520D01*
X1328327Y701523D01*
X1327933Y701547D01*
X1148313Y701547D01*
X1148272Y701544D01*
X1148231Y701546D01*
X1148022Y701524D01*
X1147811Y701507D01*
X1147771Y701498D01*
X1147731Y701493D01*
X1147527Y701438D01*
X1147322Y701389D01*
X1147284Y701373D01*
X1147245Y701362D01*
X1147052Y701275D01*
X1146858Y701194D01*
X1146823Y701172D01*
X1146785Y701155D01*
X1146609Y701039D01*
X1146430Y700928D01*
X1146399Y700901D01*
X1146365Y700879D01*
X1146069Y700618D01*
X1115482Y670031D01*
X1115456Y670000D01*
X1115425Y669973D01*
X1115293Y669809D01*
X1115156Y669648D01*
X1115134Y669613D01*
X1115109Y669581D01*
X1115004Y669399D01*
X1114894Y669218D01*
X1114878Y669180D01*
X1114858Y669145D01*
X1114783Y668948D01*
X1114703Y668752D01*
X1114694Y668712D01*
X1114679Y668674D01*
X1114637Y668467D01*
X1114588Y668262D01*
X1114586Y668221D01*
X1114577Y668181D01*
X1114553Y667787D01*
X1114553Y435880D01*
X1113083Y432332D01*
X1088354Y407603D01*
X1088328Y407572D01*
X1088297Y407545D01*
X1088165Y407381D01*
X1088028Y407220D01*
X1088006Y407185D01*
X1087981Y407153D01*
X1087876Y406971D01*
X1087766Y406790D01*
X1087750Y406752D01*
X1087730Y406717D01*
X1087655Y406520D01*
X1087575Y406324D01*
X1087566Y406284D01*
X1087551Y406246D01*
X1087509Y406039D01*
X1087460Y405834D01*
X1087458Y405793D01*
X1087449Y405753D01*
X1087425Y405359D01*
X1087425Y398368D01*
X1086532Y397475D01*
X1079362Y397475D01*
X1079321Y397472D01*
X1079280Y397474D01*
X1079070Y397452D01*
X1078860Y397435D01*
X1078820Y397426D01*
X1078779Y397421D01*
X1078575Y397366D01*
X1078370Y397317D01*
X1078333Y397301D01*
X1078293Y397290D01*
X1078100Y397203D01*
X1077906Y397122D01*
X1077871Y397100D01*
X1077834Y397083D01*
X1077657Y396967D01*
X1077478Y396856D01*
X1077447Y396829D01*
X1077413Y396807D01*
X1077117Y396546D01*
X1064555Y383984D01*
X1064529Y383953D01*
X1064498Y383926D01*
X1064366Y383761D01*
X1064229Y383601D01*
X1064207Y383566D01*
X1064182Y383534D01*
X1064077Y383352D01*
X1063967Y383171D01*
X1063951Y383133D01*
X1063931Y383097D01*
X1063856Y382901D01*
X1063776Y382705D01*
X1063767Y382665D01*
X1063752Y382627D01*
X1063710Y382420D01*
X1063661Y382215D01*
X1063659Y382174D01*
X1063650Y382134D01*
X1063626Y381739D01*
X1063626Y341005D01*
X1062176Y337504D01*
X1059496Y334824D01*
X1055995Y333374D01*
X1052205Y333374D01*
X1048704Y334824D01*
X1046024Y337504D01*
X1044574Y341005D01*
X1044574Y388895D01*
X1046024Y392396D01*
X1063646Y410017D01*
X1063672Y410048D01*
X1063703Y410075D01*
X1063835Y410240D01*
X1063972Y410400D01*
X1063994Y410435D01*
X1064019Y410467D01*
X1064124Y410649D01*
X1064234Y410830D01*
X1064250Y410868D01*
X1064270Y410904D01*
X1064345Y411100D01*
X1064425Y411296D01*
X1064434Y411336D01*
X1064449Y411374D01*
X1064491Y411581D01*
X1064540Y411786D01*
X1064542Y411827D01*
X1064551Y411867D01*
X1064575Y412262D01*
X1064575Y419432D01*
X1065468Y420325D01*
X1072459Y420325D01*
X1072500Y420328D01*
X1072541Y420326D01*
X1072750Y420348D01*
X1072961Y420365D01*
X1073001Y420374D01*
X1073041Y420379D01*
X1073245Y420434D01*
X1073450Y420483D01*
X1073488Y420499D01*
X1073527Y420510D01*
X1073720Y420597D01*
X1073914Y420678D01*
X1073949Y420700D01*
X1073987Y420717D01*
X1074163Y420833D01*
X1074342Y420944D01*
X1074373Y420971D01*
X1074407Y420993D01*
X1074703Y421254D01*
X1094318Y440869D01*
X1094344Y440900D01*
X1094375Y440927D01*
X1094507Y441091D01*
X1094644Y441252D01*
X1094666Y441287D01*
X1094691Y441319D01*
X1094796Y441501D01*
X1094906Y441682D01*
X1094922Y441720D01*
X1094942Y441755D01*
X1095017Y441952D01*
X1095097Y442148D01*
X1095106Y442188D01*
X1095121Y442226D01*
X1095163Y442433D01*
X1095212Y442638D01*
X1095214Y442679D01*
X1095223Y442719D01*
X1095247Y443113D01*
X1095247Y675020D01*
X1096717Y678568D01*
X1099879Y681730D01*
X1114277Y696128D01*
X1114286Y696139D01*
X1114297Y696148D01*
X1114450Y696331D01*
X1114604Y696512D01*
X1114611Y696523D01*
X1114620Y696534D01*
X1114742Y696737D01*
X1114866Y696942D01*
X1114871Y696954D01*
X1114878Y696966D01*
X1114966Y697185D01*
X1115057Y697408D01*
X1115060Y697421D01*
X1115065Y697434D01*
X1115117Y697666D01*
X1115171Y697898D01*
X1115172Y697912D01*
X1115175Y697925D01*
X1115190Y698164D01*
X1115207Y698400D01*
X1115206Y698414D01*
X1115207Y698427D01*
X1115184Y698665D01*
X1115163Y698902D01*
X1115159Y698915D01*
X1115158Y698929D01*
X1115098Y699159D01*
X1115040Y699390D01*
X1115034Y699403D01*
X1115031Y699416D01*
X1114935Y699635D01*
X1114841Y699853D01*
X1114834Y699864D01*
X1114828Y699877D01*
X1114698Y700079D01*
X1114572Y700278D01*
X1114563Y700288D01*
X1114555Y700300D01*
X1114396Y700478D01*
X1114239Y700656D01*
X1114228Y700664D01*
X1114219Y700675D01*
X1114033Y700825D01*
X1113850Y700976D01*
X1113838Y700983D01*
X1113827Y700991D01*
X1113621Y701110D01*
X1113415Y701230D01*
X1113403Y701235D01*
X1113391Y701242D01*
X1113169Y701326D01*
X1112946Y701413D01*
X1112933Y701416D01*
X1112920Y701421D01*
X1112687Y701469D01*
X1112454Y701519D01*
X1112440Y701520D01*
X1112427Y701523D01*
X1112033Y701547D01*
X932413Y701547D01*
X932372Y701544D01*
X932331Y701546D01*
X932122Y701524D01*
X931911Y701507D01*
X931871Y701498D01*
X931831Y701493D01*
X931627Y701438D01*
X931422Y701389D01*
X931384Y701373D01*
X931345Y701362D01*
X931152Y701275D01*
X930958Y701194D01*
X930923Y701172D01*
X930885Y701155D01*
X930709Y701039D01*
X930530Y700928D01*
X930499Y700901D01*
X930465Y700879D01*
X930169Y700618D01*
X899582Y670031D01*
X899556Y670000D01*
X899525Y669973D01*
X899393Y669809D01*
X899256Y669648D01*
X899234Y669613D01*
X899209Y669581D01*
X899104Y669399D01*
X898994Y669218D01*
X898978Y669180D01*
X898958Y669145D01*
X898883Y668948D01*
X898803Y668752D01*
X898794Y668712D01*
X898779Y668674D01*
X898737Y668467D01*
X898688Y668262D01*
X898686Y668221D01*
X898677Y668181D01*
X898653Y667787D01*
X898653Y429880D01*
X897183Y426332D01*
X872454Y401603D01*
X872428Y401572D01*
X872397Y401545D01*
X872265Y401381D01*
X872128Y401220D01*
X872106Y401185D01*
X872081Y401153D01*
X871976Y400971D01*
X871866Y400790D01*
X871850Y400752D01*
X871830Y400717D01*
X871755Y400520D01*
X871675Y400324D01*
X871666Y400284D01*
X871651Y400246D01*
X871609Y400039D01*
X871560Y399834D01*
X871558Y399793D01*
X871549Y399753D01*
X871525Y399359D01*
X871525Y398368D01*
X870632Y397475D01*
X866961Y397475D01*
X866921Y397472D01*
X866880Y397474D01*
X866670Y397452D01*
X866460Y397435D01*
X866420Y397426D01*
X866379Y397421D01*
X866175Y397366D01*
X865970Y397317D01*
X865933Y397301D01*
X865893Y397290D01*
X865700Y397203D01*
X865506Y397122D01*
X865471Y397100D01*
X865434Y397083D01*
X865257Y396967D01*
X865078Y396856D01*
X865047Y396829D01*
X865013Y396807D01*
X864717Y396546D01*
X848655Y380484D01*
X848629Y380453D01*
X848598Y380426D01*
X848466Y380261D01*
X848329Y380101D01*
X848307Y380066D01*
X848282Y380034D01*
X848177Y379852D01*
X848067Y379671D01*
X848051Y379633D01*
X848031Y379597D01*
X847956Y379401D01*
X847876Y379205D01*
X847867Y379165D01*
X847852Y379127D01*
X847810Y378920D01*
X847761Y378715D01*
X847759Y378674D01*
X847750Y378634D01*
X847726Y378239D01*
X847726Y341005D01*
X846276Y337504D01*
X843596Y334824D01*
X840095Y333374D01*
X836305Y333374D01*
X832804Y334824D01*
X830124Y337504D01*
X828674Y341005D01*
X828674Y385395D01*
X830124Y388896D01*
X847746Y406517D01*
X847772Y406548D01*
X847803Y406575D01*
X847935Y406740D01*
X848072Y406900D01*
X848094Y406935D01*
X848119Y406967D01*
X848224Y407149D01*
X848334Y407330D01*
X848350Y407368D01*
X848370Y407404D01*
X848445Y407600D01*
X848525Y407796D01*
X848534Y407836D01*
X848549Y407874D01*
X848591Y408081D01*
X848640Y408286D01*
X848642Y408327D01*
X848651Y408367D01*
X848675Y408761D01*
X848675Y419432D01*
X849568Y420325D01*
X862559Y420325D01*
X862600Y420328D01*
X862641Y420326D01*
X862850Y420348D01*
X863061Y420365D01*
X863101Y420374D01*
X863141Y420379D01*
X863345Y420434D01*
X863550Y420483D01*
X863588Y420499D01*
X863627Y420510D01*
X863820Y420597D01*
X864014Y420678D01*
X864049Y420700D01*
X864087Y420717D01*
X864263Y420833D01*
X864442Y420944D01*
X864473Y420971D01*
X864507Y420993D01*
X864803Y421254D01*
X878418Y434869D01*
X878444Y434900D01*
X878475Y434927D01*
X878607Y435091D01*
X878744Y435252D01*
X878766Y435287D01*
X878791Y435319D01*
X878896Y435501D01*
X879006Y435682D01*
X879022Y435720D01*
X879042Y435755D01*
X879117Y435952D01*
X879197Y436148D01*
X879206Y436188D01*
X879221Y436226D01*
X879263Y436433D01*
X879312Y436638D01*
X879314Y436679D01*
X879323Y436719D01*
X879347Y437113D01*
X879347Y675020D01*
X880817Y678568D01*
X883979Y681730D01*
X898377Y696128D01*
X898386Y696139D01*
X898397Y696148D01*
X898550Y696331D01*
X898704Y696512D01*
X898711Y696523D01*
X898720Y696534D01*
X898842Y696737D01*
X898966Y696942D01*
X898971Y696954D01*
X898978Y696966D01*
X899066Y697185D01*
X899157Y697408D01*
X899160Y697421D01*
X899165Y697434D01*
X899217Y697666D01*
X899271Y697898D01*
X899272Y697912D01*
X899275Y697925D01*
X899290Y698164D01*
X899307Y698400D01*
X899306Y698414D01*
X899307Y698427D01*
X899284Y698665D01*
X899263Y698902D01*
X899259Y698915D01*
X899258Y698929D01*
X899198Y699159D01*
X899140Y699390D01*
X899134Y699403D01*
X899131Y699416D01*
X899035Y699635D01*
X898941Y699853D01*
X898934Y699864D01*
X898928Y699877D01*
X898798Y700079D01*
X898672Y700278D01*
X898663Y700288D01*
X898655Y700300D01*
X898496Y700478D01*
X898339Y700656D01*
X898328Y700664D01*
X898319Y700675D01*
X898133Y700825D01*
X897950Y700976D01*
X897938Y700983D01*
X897927Y700991D01*
X897721Y701110D01*
X897515Y701230D01*
X897503Y701235D01*
X897491Y701242D01*
X897269Y701326D01*
X897046Y701413D01*
X897033Y701416D01*
X897020Y701421D01*
X896787Y701469D01*
X896554Y701519D01*
X896540Y701520D01*
X896527Y701523D01*
X896133Y701547D01*
X716513Y701547D01*
X716472Y701544D01*
X716431Y701546D01*
X716222Y701524D01*
X716011Y701507D01*
X715971Y701498D01*
X715931Y701493D01*
X715727Y701438D01*
X715522Y701389D01*
X715484Y701373D01*
X715445Y701362D01*
X715252Y701275D01*
X715058Y701194D01*
X715023Y701172D01*
X714985Y701155D01*
X714809Y701039D01*
X714630Y700928D01*
X714599Y700901D01*
X714565Y700879D01*
X714269Y700618D01*
X683682Y670031D01*
X683656Y670000D01*
X683625Y669973D01*
X683493Y669809D01*
X683356Y669648D01*
X683334Y669613D01*
X683309Y669581D01*
X683204Y669399D01*
X683094Y669218D01*
X683078Y669180D01*
X683058Y669145D01*
X682983Y668948D01*
X682903Y668752D01*
X682894Y668712D01*
X682879Y668674D01*
X682837Y668467D01*
X682788Y668262D01*
X682786Y668221D01*
X682777Y668181D01*
X682753Y667787D01*
X682753Y429880D01*
X681283Y426332D01*
X656554Y401603D01*
X656528Y401572D01*
X656497Y401545D01*
X656365Y401381D01*
X656228Y401220D01*
X656206Y401185D01*
X656181Y401153D01*
X656076Y400971D01*
X655966Y400790D01*
X655950Y400752D01*
X655930Y400717D01*
X655855Y400520D01*
X655775Y400324D01*
X655766Y400284D01*
X655751Y400246D01*
X655709Y400039D01*
X655660Y399834D01*
X655658Y399793D01*
X655649Y399753D01*
X655625Y399359D01*
X655625Y398368D01*
X654732Y397475D01*
X647561Y397475D01*
X647521Y397472D01*
X647480Y397474D01*
X647270Y397452D01*
X647060Y397435D01*
X647020Y397426D01*
X646979Y397421D01*
X646775Y397366D01*
X646570Y397317D01*
X646533Y397301D01*
X646493Y397290D01*
X646300Y397203D01*
X646106Y397122D01*
X646071Y397100D01*
X646034Y397083D01*
X645857Y396967D01*
X645678Y396856D01*
X645647Y396829D01*
X645613Y396807D01*
X645317Y396546D01*
X632755Y383984D01*
X632729Y383953D01*
X632698Y383926D01*
X632566Y383761D01*
X632429Y383601D01*
X632407Y383566D01*
X632382Y383534D01*
X632277Y383352D01*
X632167Y383171D01*
X632151Y383133D01*
X632131Y383097D01*
X632056Y382901D01*
X631976Y382705D01*
X631967Y382665D01*
X631952Y382627D01*
X631910Y382420D01*
X631861Y382215D01*
X631859Y382174D01*
X631850Y382134D01*
X631826Y381739D01*
X631826Y341005D01*
X630376Y337504D01*
X627696Y334824D01*
X624195Y333374D01*
X620405Y333374D01*
X616904Y334824D01*
X614224Y337504D01*
X612774Y341005D01*
X612774Y388895D01*
X614224Y392396D01*
X617351Y395522D01*
X631846Y410017D01*
X631872Y410048D01*
X631903Y410075D01*
X632035Y410240D01*
X632172Y410400D01*
X632194Y410435D01*
X632219Y410467D01*
X632324Y410649D01*
X632434Y410830D01*
X632450Y410868D01*
X632470Y410904D01*
X632545Y411100D01*
X632625Y411296D01*
X632634Y411336D01*
X632649Y411374D01*
X632691Y411581D01*
X632740Y411786D01*
X632742Y411827D01*
X632751Y411867D01*
X632775Y412261D01*
X632775Y419432D01*
X633668Y420325D01*
X646659Y420325D01*
X646700Y420328D01*
X646741Y420326D01*
X646950Y420348D01*
X647161Y420365D01*
X647201Y420374D01*
X647241Y420379D01*
X647445Y420434D01*
X647650Y420483D01*
X647688Y420499D01*
X647727Y420510D01*
X647920Y420597D01*
X648114Y420678D01*
X648149Y420700D01*
X648187Y420717D01*
X648363Y420833D01*
X648542Y420944D01*
X648573Y420971D01*
X648607Y420993D01*
X648903Y421254D01*
X662518Y434869D01*
X662544Y434900D01*
X662575Y434927D01*
X662707Y435091D01*
X662844Y435252D01*
X662866Y435287D01*
X662891Y435319D01*
X662996Y435501D01*
X663106Y435682D01*
X663122Y435720D01*
X663142Y435755D01*
X663217Y435952D01*
X663297Y436148D01*
X663306Y436188D01*
X663321Y436226D01*
X663363Y436433D01*
X663412Y436638D01*
X663414Y436679D01*
X663423Y436719D01*
X663447Y437113D01*
X663447Y675020D01*
X664917Y678568D01*
X682477Y696128D01*
X682486Y696139D01*
X682497Y696148D01*
X682650Y696331D01*
X682804Y696512D01*
X682811Y696523D01*
X682820Y696534D01*
X682942Y696737D01*
X683066Y696942D01*
X683071Y696954D01*
X683078Y696966D01*
X683166Y697185D01*
X683257Y697408D01*
X683260Y697421D01*
X683265Y697434D01*
X683317Y697666D01*
X683371Y697898D01*
X683372Y697912D01*
X683375Y697925D01*
X683390Y698164D01*
X683407Y698400D01*
X683406Y698414D01*
X683407Y698427D01*
X683384Y698665D01*
X683363Y698902D01*
X683359Y698915D01*
X683358Y698929D01*
X683298Y699159D01*
X683240Y699390D01*
X683234Y699403D01*
X683231Y699416D01*
X683135Y699634D01*
X683041Y699853D01*
X683034Y699864D01*
X683028Y699877D01*
X682899Y700078D01*
X682772Y700278D01*
X682763Y700288D01*
X682755Y700300D01*
X682596Y700478D01*
X682439Y700656D01*
X682428Y700664D01*
X682419Y700675D01*
X682233Y700825D01*
X682050Y700976D01*
X682038Y700983D01*
X682027Y700991D01*
X681821Y701110D01*
X681615Y701230D01*
X681603Y701235D01*
X681591Y701242D01*
X681369Y701326D01*
X681146Y701413D01*
X681133Y701416D01*
X681120Y701421D01*
X680887Y701469D01*
X680654Y701519D01*
X680640Y701520D01*
X680627Y701523D01*
X680233Y701547D01*
X487913Y701547D01*
X487872Y701544D01*
X487831Y701546D01*
X487622Y701524D01*
X487411Y701507D01*
X487371Y701498D01*
X487331Y701493D01*
X487127Y701438D01*
X486922Y701389D01*
X486884Y701373D01*
X486845Y701362D01*
X486652Y701275D01*
X486458Y701194D01*
X486423Y701172D01*
X486385Y701155D01*
X486209Y701039D01*
X486030Y700928D01*
X485999Y700901D01*
X485965Y700879D01*
X485669Y700618D01*
X467782Y682731D01*
X467756Y682700D01*
X467725Y682673D01*
X467593Y682509D01*
X467456Y682348D01*
X467434Y682313D01*
X467409Y682281D01*
X467304Y682099D01*
X467194Y681918D01*
X467178Y681880D01*
X467158Y681845D01*
X467083Y681648D01*
X467003Y681452D01*
X466994Y681412D01*
X466979Y681374D01*
X466937Y681167D01*
X466888Y680962D01*
X466886Y680921D01*
X466877Y680881D01*
X466853Y680487D01*
X466853Y435880D01*
X465383Y432332D01*
X462221Y429170D01*
X440654Y407603D01*
X440628Y407572D01*
X440597Y407545D01*
X440465Y407381D01*
X440328Y407220D01*
X440306Y407185D01*
X440281Y407153D01*
X440176Y406971D01*
X440066Y406790D01*
X440050Y406752D01*
X440030Y406717D01*
X439955Y406520D01*
X439875Y406324D01*
X439866Y406284D01*
X439851Y406246D01*
X439809Y406039D01*
X439760Y405834D01*
X439758Y405793D01*
X439749Y405753D01*
X439725Y405359D01*
X439725Y398368D01*
X438832Y397475D01*
X431661Y397475D01*
X431621Y397472D01*
X431580Y397474D01*
X431370Y397452D01*
X431160Y397435D01*
X431120Y397426D01*
X431079Y397421D01*
X430875Y397366D01*
X430670Y397317D01*
X430633Y397301D01*
X430593Y397290D01*
X430400Y397203D01*
X430206Y397122D01*
X430171Y397100D01*
X430134Y397083D01*
X429957Y396967D01*
X429778Y396856D01*
X429747Y396829D01*
X429713Y396807D01*
X429417Y396546D01*
X416855Y383984D01*
X416829Y383953D01*
X416798Y383926D01*
X416666Y383761D01*
X416529Y383601D01*
X416507Y383566D01*
X416482Y383534D01*
X416377Y383352D01*
X416267Y383171D01*
X416251Y383133D01*
X416231Y383097D01*
X416156Y382901D01*
X416076Y382705D01*
X416067Y382665D01*
X416052Y382627D01*
X416010Y382420D01*
X415961Y382215D01*
X415959Y382174D01*
X415950Y382134D01*
X415926Y381739D01*
X415926Y341005D01*
X414476Y337504D01*
X411796Y334824D01*
X408295Y333374D01*
X404505Y333374D01*
X401004Y334824D01*
X398324Y337504D01*
X396874Y341005D01*
X396874Y388895D01*
X398324Y392396D01*
X415946Y410017D01*
X415972Y410048D01*
X416003Y410075D01*
X416135Y410240D01*
X416272Y410400D01*
X416294Y410435D01*
X416319Y410467D01*
X416424Y410649D01*
X416534Y410830D01*
X416550Y410868D01*
X416570Y410904D01*
X416645Y411100D01*
X416725Y411296D01*
X416734Y411336D01*
X416749Y411374D01*
X416791Y411581D01*
X416840Y411786D01*
X416842Y411827D01*
X416851Y411867D01*
X416875Y412261D01*
X416875Y419432D01*
X417768Y420325D01*
X424759Y420325D01*
X424800Y420328D01*
X424841Y420326D01*
X425050Y420348D01*
X425261Y420365D01*
X425301Y420374D01*
X425341Y420379D01*
X425545Y420434D01*
X425750Y420483D01*
X425788Y420499D01*
X425827Y420510D01*
X426020Y420597D01*
X426215Y420678D01*
X426249Y420700D01*
X426287Y420717D01*
X426463Y420833D01*
X426642Y420944D01*
X426673Y420971D01*
X426707Y420993D01*
X427003Y421254D01*
X446618Y440869D01*
X446644Y440900D01*
X446675Y440927D01*
X446807Y441091D01*
X446944Y441252D01*
X446966Y441287D01*
X446991Y441319D01*
X447096Y441501D01*
X447206Y441682D01*
X447222Y441720D01*
X447242Y441755D01*
X447317Y441952D01*
X447397Y442148D01*
X447406Y442188D01*
X447421Y442226D01*
X447463Y442433D01*
X447512Y442638D01*
X447514Y442679D01*
X447523Y442719D01*
X447547Y443113D01*
X447547Y687720D01*
X449017Y691268D01*
X453877Y696128D01*
X453886Y696139D01*
X453897Y696148D01*
X454050Y696331D01*
X454204Y696512D01*
X454211Y696523D01*
X454220Y696534D01*
X454342Y696738D01*
X454466Y696942D01*
X454471Y696954D01*
X454478Y696966D01*
X454566Y697187D01*
X454657Y697408D01*
X454660Y697421D01*
X454665Y697434D01*
X454717Y697666D01*
X454771Y697898D01*
X454772Y697912D01*
X454775Y697925D01*
X454790Y698164D01*
X454807Y698400D01*
X454806Y698414D01*
X454807Y698427D01*
X454784Y698665D01*
X454763Y698902D01*
X454759Y698915D01*
X454758Y698929D01*
X454698Y699159D01*
X454640Y699390D01*
X454634Y699403D01*
X454631Y699416D01*
X454535Y699635D01*
X454441Y699853D01*
X454434Y699864D01*
X454428Y699877D01*
X454298Y700079D01*
X454172Y700278D01*
X454163Y700288D01*
X454155Y700300D01*
X453996Y700478D01*
X453839Y700656D01*
X453828Y700664D01*
X453819Y700675D01*
X453633Y700825D01*
X453450Y700976D01*
X453438Y700983D01*
X453427Y700991D01*
X453222Y701109D01*
X453015Y701230D01*
X453003Y701235D01*
X452991Y701242D01*
X452770Y701326D01*
X452546Y701413D01*
X452533Y701416D01*
X452520Y701421D01*
X452287Y701469D01*
X452054Y701519D01*
X452040Y701520D01*
X452027Y701523D01*
X451633Y701547D01*
X272013Y701547D01*
X271972Y701544D01*
X271931Y701546D01*
X271722Y701524D01*
X271511Y701507D01*
X271471Y701498D01*
X271431Y701493D01*
X271227Y701438D01*
X271022Y701389D01*
X270984Y701373D01*
X270945Y701362D01*
X270752Y701275D01*
X270558Y701194D01*
X270523Y701172D01*
X270485Y701155D01*
X270309Y701039D01*
X270130Y700928D01*
X270099Y700901D01*
X270065Y700879D01*
X269769Y700618D01*
X251882Y682731D01*
X251856Y682700D01*
X251825Y682673D01*
X251693Y682509D01*
X251556Y682348D01*
X251534Y682313D01*
X251509Y682281D01*
X251404Y682099D01*
X251294Y681918D01*
X251278Y681880D01*
X251258Y681845D01*
X251183Y681648D01*
X251103Y681452D01*
X251094Y681412D01*
X251079Y681374D01*
X251037Y681167D01*
X250988Y680962D01*
X250986Y680921D01*
X250977Y680881D01*
X250953Y680487D01*
X250953Y435880D01*
X249483Y432332D01*
X246322Y429171D01*
X246321Y429170D01*
X224754Y407603D01*
X224728Y407572D01*
X224697Y407545D01*
X224565Y407381D01*
X224428Y407220D01*
X224406Y407185D01*
X224381Y407153D01*
X224276Y406971D01*
X224166Y406790D01*
X224150Y406752D01*
X224130Y406717D01*
X224055Y406520D01*
X223975Y406324D01*
X223966Y406284D01*
X223951Y406246D01*
X223909Y406039D01*
X223860Y405834D01*
X223858Y405793D01*
X223849Y405753D01*
X223825Y405359D01*
X223825Y398368D01*
X222932Y397475D01*
X215761Y397475D01*
X215721Y397472D01*
X215680Y397474D01*
X215470Y397452D01*
X215260Y397435D01*
X215220Y397426D01*
X215179Y397421D01*
X214975Y397366D01*
X214770Y397317D01*
X214733Y397301D01*
X214693Y397290D01*
X214500Y397203D01*
X214306Y397122D01*
X214271Y397100D01*
X214234Y397083D01*
X214057Y396967D01*
X213878Y396856D01*
X213847Y396829D01*
X213813Y396807D01*
X213517Y396546D01*
X200955Y383984D01*
X200929Y383953D01*
X200898Y383926D01*
X200766Y383761D01*
X200629Y383601D01*
X200607Y383566D01*
X200582Y383534D01*
X200477Y383352D01*
X200367Y383171D01*
X200351Y383133D01*
X200331Y383097D01*
X200256Y382901D01*
X200176Y382705D01*
X200167Y382665D01*
X200152Y382627D01*
X200110Y382420D01*
X200061Y382215D01*
X200059Y382174D01*
X200050Y382134D01*
X200026Y381739D01*
X200026Y341005D01*
X198576Y337504D01*
X195896Y334824D01*
X192395Y333374D01*
X188605Y333374D01*
X185104Y334824D01*
X182424Y337504D01*
X180974Y341005D01*
X180974Y388895D01*
X182424Y392396D01*
X200046Y410017D01*
X200072Y410048D01*
X200103Y410075D01*
X200235Y410240D01*
X200372Y410400D01*
X200394Y410435D01*
X200419Y410467D01*
X200524Y410649D01*
X200634Y410830D01*
X200650Y410868D01*
X200670Y410904D01*
X200745Y411100D01*
X200825Y411296D01*
X200834Y411336D01*
X200849Y411374D01*
X200891Y411581D01*
X200940Y411786D01*
X200942Y411827D01*
X200951Y411867D01*
X200975Y412261D01*
X200975Y419432D01*
X201868Y420325D01*
X208859Y420325D01*
X208900Y420328D01*
X208941Y420326D01*
X209150Y420348D01*
X209361Y420365D01*
X209401Y420374D01*
X209441Y420379D01*
X209645Y420434D01*
X209850Y420483D01*
X209888Y420499D01*
X209927Y420510D01*
X210120Y420597D01*
X210315Y420678D01*
X210349Y420700D01*
X210387Y420717D01*
X210563Y420833D01*
X210742Y420944D01*
X210773Y420971D01*
X210807Y420993D01*
X211103Y421254D01*
X230718Y440869D01*
X230744Y440900D01*
X230775Y440927D01*
X230907Y441091D01*
X231044Y441252D01*
X231066Y441287D01*
X231091Y441319D01*
X231196Y441501D01*
X231306Y441682D01*
X231322Y441720D01*
X231342Y441755D01*
X231417Y441952D01*
X231497Y442148D01*
X231506Y442188D01*
X231521Y442226D01*
X231563Y442433D01*
X231612Y442638D01*
X231614Y442679D01*
X231623Y442719D01*
X231647Y443113D01*
X231647Y529244D01*
X231637Y529377D01*
X231636Y529510D01*
X231617Y529627D01*
X231607Y529746D01*
X231576Y529875D01*
X231554Y530007D01*
X231517Y530120D01*
X231489Y530236D01*
X231437Y530358D01*
X231395Y530484D01*
X231340Y530590D01*
X231294Y530700D01*
X231224Y530813D01*
X231162Y530931D01*
X231091Y531026D01*
X231028Y531128D01*
X230941Y531228D01*
X230862Y531335D01*
X230776Y531418D01*
X230698Y531508D01*
X230596Y531593D01*
X230501Y531686D01*
X230404Y531755D01*
X230312Y531831D01*
X230198Y531900D01*
X230090Y531976D01*
X229982Y532028D01*
X229880Y532090D01*
X229757Y532139D01*
X229637Y532197D01*
X229523Y532232D01*
X229412Y532276D01*
X229283Y532305D01*
X229156Y532344D01*
X229037Y532361D01*
X228921Y532387D01*
X228789Y532395D01*
X228657Y532413D01*
X228537Y532411D01*
X228419Y532418D01*
X228286Y532405D01*
X228153Y532402D01*
X228036Y532381D01*
X227917Y532370D01*
X227789Y532336D01*
X227658Y532312D01*
X227546Y532273D01*
X227430Y532242D01*
X227308Y532189D01*
X227183Y532145D01*
X227078Y532088D01*
X226969Y532040D01*
X226858Y531968D01*
X226741Y531904D01*
X226646Y531831D01*
X226546Y531767D01*
X226447Y531678D01*
X226342Y531597D01*
X226260Y531510D01*
X226171Y531430D01*
X226088Y531327D01*
X225997Y531230D01*
X225930Y531132D01*
X225855Y531039D01*
X225789Y530924D01*
X225714Y530814D01*
X225648Y530679D01*
X225604Y530602D01*
X225581Y530543D01*
X225540Y530459D01*
X224729Y528501D01*
X223542Y527313D01*
X223429Y527181D01*
X223310Y527055D01*
X223266Y526990D01*
X223215Y526930D01*
X223125Y526782D01*
X223027Y526638D01*
X222986Y526555D01*
X222953Y526500D01*
X222920Y526418D01*
X222854Y526283D01*
X222085Y524428D01*
X218872Y521215D01*
X214673Y519475D01*
X210127Y519475D01*
X205928Y521215D01*
X202715Y524428D01*
X200975Y528627D01*
X200975Y533173D01*
X202715Y537372D01*
X204556Y539213D01*
X204582Y539244D01*
X204613Y539271D01*
X204745Y539435D01*
X204882Y539596D01*
X204904Y539631D01*
X204929Y539663D01*
X205034Y539845D01*
X205144Y540026D01*
X205160Y540064D01*
X205180Y540099D01*
X205255Y540296D01*
X205335Y540492D01*
X205344Y540532D01*
X205359Y540570D01*
X205401Y540777D01*
X205450Y540982D01*
X205452Y541023D01*
X205461Y541063D01*
X205485Y541457D01*
X205485Y616671D01*
X205482Y616712D01*
X205484Y616753D01*
X205462Y616962D01*
X205445Y617173D01*
X205436Y617213D01*
X205431Y617254D01*
X205376Y617457D01*
X205327Y617663D01*
X205311Y617700D01*
X205300Y617740D01*
X205213Y617933D01*
X205132Y618127D01*
X205110Y618162D01*
X205093Y618199D01*
X204978Y618375D01*
X204866Y618555D01*
X204839Y618586D01*
X204817Y618620D01*
X204556Y618916D01*
X197950Y625521D01*
X197818Y625634D01*
X197692Y625753D01*
X197627Y625797D01*
X197567Y625848D01*
X197419Y625938D01*
X197290Y626025D01*
X194278Y629038D01*
X192675Y632906D01*
X192675Y637094D01*
X194278Y640962D01*
X197238Y643922D01*
X201106Y645525D01*
X205294Y645525D01*
X209162Y643922D01*
X212185Y640899D01*
X212220Y640831D01*
X212322Y640691D01*
X212418Y640546D01*
X212479Y640476D01*
X212517Y640425D01*
X212580Y640362D01*
X212679Y640250D01*
X221353Y631576D01*
X224729Y628199D01*
X225540Y626241D01*
X225601Y626123D01*
X225652Y626000D01*
X225715Y625899D01*
X225769Y625793D01*
X225848Y625685D01*
X225918Y625572D01*
X225996Y625482D01*
X226066Y625386D01*
X226161Y625292D01*
X226248Y625192D01*
X226339Y625115D01*
X226424Y625031D01*
X226532Y624954D01*
X226634Y624869D01*
X226736Y624807D01*
X226833Y624738D01*
X226952Y624678D01*
X227066Y624610D01*
X227177Y624566D01*
X227283Y624513D01*
X227410Y624473D01*
X227534Y624424D01*
X227650Y624397D01*
X227764Y624362D01*
X227895Y624342D01*
X228025Y624313D01*
X228144Y624306D01*
X228262Y624288D01*
X228395Y624290D01*
X228527Y624282D01*
X228646Y624293D01*
X228765Y624295D01*
X228896Y624318D01*
X229029Y624330D01*
X229144Y624361D01*
X229262Y624381D01*
X229387Y624424D01*
X229516Y624458D01*
X229625Y624506D01*
X229738Y624544D01*
X229855Y624607D01*
X229977Y624660D01*
X230077Y624725D01*
X230182Y624781D01*
X230288Y624861D01*
X230400Y624933D01*
X230489Y625013D01*
X230584Y625085D01*
X230676Y625181D01*
X230775Y625270D01*
X230850Y625362D01*
X230932Y625449D01*
X231008Y625558D01*
X231091Y625661D01*
X231151Y625765D01*
X231219Y625863D01*
X231276Y625983D01*
X231342Y626098D01*
X231384Y626209D01*
X231436Y626317D01*
X231474Y626444D01*
X231521Y626569D01*
X231545Y626685D01*
X231579Y626800D01*
X231596Y626931D01*
X231623Y627062D01*
X231632Y627211D01*
X231643Y627299D01*
X231641Y627363D01*
X231647Y627456D01*
X231647Y687720D01*
X233117Y691268D01*
X261232Y719383D01*
X264780Y720853D01*
X1525920Y720853D01*
X1529468Y719383D01*
X1532629Y716222D01*
X1532630Y716221D01*
X1547645Y701207D01*
X1547779Y701092D01*
X1547908Y700971D01*
X1547971Y700928D01*
X1548028Y700880D01*
X1548179Y700788D01*
X1548326Y700689D01*
X1548393Y700657D01*
X1548458Y700618D01*
X1548622Y700551D01*
X1548782Y700476D01*
X1548854Y700456D01*
X1548924Y700427D01*
X1549096Y700387D01*
X1549266Y700338D01*
X1549341Y700330D01*
X1549414Y700313D01*
X1549591Y700300D01*
X1549766Y700279D01*
X1549841Y700282D01*
X1549916Y700277D01*
X1550093Y700292D01*
X1550270Y700300D01*
X1550343Y700315D01*
X1550418Y700321D01*
X1550590Y700365D01*
X1550763Y700400D01*
X1550833Y700426D01*
X1550906Y700444D01*
X1551069Y700514D01*
X1551235Y700576D01*
X1551300Y700613D01*
X1551369Y700643D01*
X1551518Y700738D01*
X1551672Y700825D01*
X1551731Y700872D01*
X1551794Y700912D01*
X1551927Y701029D01*
X1552065Y701140D01*
X1552115Y701196D01*
X1552172Y701245D01*
X1552284Y701382D01*
X1552403Y701513D01*
X1552444Y701576D01*
X1552492Y701634D01*
X1552581Y701787D01*
X1552678Y701935D01*
X1552708Y702004D01*
X1552746Y702069D01*
X1552811Y702234D01*
X1552883Y702395D01*
X1552902Y702468D01*
X1552929Y702538D01*
X1552966Y702711D01*
X1553012Y702882D01*
X1553019Y702957D01*
X1553035Y703030D01*
X1553045Y703206D01*
X1553063Y703383D01*
X1553058Y703458D01*
X1553062Y703533D01*
X1553044Y703708D01*
X1553033Y703886D01*
X1553016Y703973D01*
X1553009Y704033D01*
X1552986Y704120D01*
X1552955Y704273D01*
X1552339Y706571D01*
X1552339Y715829D01*
X1554735Y724772D01*
X1559364Y732789D01*
X1559534Y732958D01*
X1559543Y732969D01*
X1559553Y732978D01*
X1559706Y733160D01*
X1559860Y733342D01*
X1559868Y733353D01*
X1559876Y733364D01*
X1559998Y733568D01*
X1560122Y733772D01*
X1560128Y733784D01*
X1560135Y733796D01*
X1560222Y734016D01*
X1560313Y734238D01*
X1560316Y734251D01*
X1560321Y734264D01*
X1560373Y734495D01*
X1560428Y734728D01*
X1560429Y734742D01*
X1560432Y734755D01*
X1560446Y734993D01*
X1560463Y735230D01*
X1560462Y735244D01*
X1560463Y735258D01*
X1560440Y735496D01*
X1560419Y735732D01*
X1560416Y735745D01*
X1560414Y735759D01*
X1560354Y735989D01*
X1560296Y736220D01*
X1560291Y736233D01*
X1560287Y736246D01*
X1560192Y736463D01*
X1560097Y736683D01*
X1560090Y736694D01*
X1560085Y736707D01*
X1559955Y736908D01*
X1559828Y737108D01*
X1559819Y737118D01*
X1559812Y737130D01*
X1559653Y737307D01*
X1559495Y737486D01*
X1559484Y737494D01*
X1559475Y737505D01*
X1559291Y737654D01*
X1559106Y737806D01*
X1559094Y737813D01*
X1559084Y737821D01*
X1558878Y737939D01*
X1558672Y738060D01*
X1558659Y738065D01*
X1558647Y738072D01*
X1558426Y738156D01*
X1558203Y738243D01*
X1558189Y738246D01*
X1558176Y738251D01*
X1557944Y738299D01*
X1557710Y738349D01*
X1557697Y738350D01*
X1557683Y738353D01*
X1557289Y738377D01*
X68311Y738377D01*
X68297Y738376D01*
X68283Y738377D01*
X68047Y738356D01*
X67809Y738337D01*
X67796Y738334D01*
X67782Y738333D01*
X67551Y738275D01*
X67320Y738219D01*
X67307Y738213D01*
X67294Y738210D01*
X67074Y738116D01*
X66855Y738024D01*
X66844Y738017D01*
X66831Y738011D01*
X66629Y737883D01*
X66427Y737758D01*
X66417Y737749D01*
X66405Y737742D01*
X66227Y737584D01*
X66047Y737428D01*
X66038Y737418D01*
X66028Y737409D01*
X65877Y737225D01*
X65724Y737042D01*
X65717Y737030D01*
X65708Y737020D01*
X65587Y736813D01*
X65465Y736610D01*
X65460Y736597D01*
X65453Y736585D01*
X65366Y736362D01*
X65279Y736142D01*
X65276Y736129D01*
X65271Y736116D01*
X65220Y735882D01*
X65168Y735651D01*
X65167Y735637D01*
X65165Y735624D01*
X65152Y735386D01*
X65137Y735149D01*
X65138Y735135D01*
X65138Y735121D01*
X65163Y734885D01*
X65186Y734647D01*
X65189Y734634D01*
X65190Y734620D01*
X65253Y734391D01*
X65313Y734160D01*
X65318Y734148D01*
X65322Y734134D01*
X65419Y733917D01*
X65515Y733699D01*
X65523Y733688D01*
X65528Y733675D01*
X65659Y733476D01*
X65788Y733276D01*
X65797Y733266D01*
X65805Y733254D01*
X66066Y732958D01*
X66236Y732789D01*
X70865Y724772D01*
X73261Y715829D01*
X73261Y706571D01*
X70865Y697628D01*
X66236Y689611D01*
X59689Y683064D01*
X51672Y678435D01*
X42729Y676039D01*
X33471Y676039D01*
X24528Y678435D01*
X16511Y683064D01*
X16342Y683234D01*
X16331Y683242D01*
X16322Y683253D01*
X16140Y683406D01*
X15958Y683560D01*
X15947Y683567D01*
X15936Y683576D01*
X15732Y683698D01*
X15528Y683822D01*
X15516Y683828D01*
X15504Y683835D01*
X15284Y683922D01*
X15062Y684013D01*
X15049Y684016D01*
X15036Y684021D01*
X14805Y684073D01*
X14572Y684128D01*
X14558Y684129D01*
X14545Y684132D01*
X14307Y684146D01*
X14070Y684163D01*
X14056Y684162D01*
X14043Y684163D01*
X13804Y684140D01*
X13568Y684119D01*
X13555Y684116D01*
X13541Y684114D01*
X13311Y684054D01*
X13080Y683996D01*
X13067Y683991D01*
X13054Y683987D01*
X12837Y683892D01*
X12617Y683797D01*
X12606Y683790D01*
X12593Y683785D01*
X12393Y683655D01*
X12192Y683528D01*
X12182Y683519D01*
X12170Y683512D01*
X11993Y683352D01*
X11814Y683195D01*
X11806Y683184D01*
X11795Y683175D01*
X11646Y682991D01*
X11494Y682806D01*
X11487Y682794D01*
X11479Y682784D01*
X11361Y682578D01*
X11240Y682372D01*
X11235Y682359D01*
X11228Y682347D01*
X11144Y682126D01*
X11057Y681903D01*
X11054Y681889D01*
X11049Y681876D01*
X11001Y681644D01*
X10951Y681410D01*
X10950Y681397D01*
X10947Y681383D01*
X10923Y680989D01*
X10923Y68311D01*
X10924Y68297D01*
X10923Y68284D01*
X10944Y68047D01*
X10963Y67809D01*
X10966Y67796D01*
X10967Y67782D01*
X11025Y67551D01*
X11082Y67320D01*
X11087Y67307D01*
X11090Y67294D01*
X11184Y67074D01*
X11276Y66855D01*
X11283Y66844D01*
X11289Y66831D01*
X11417Y66629D01*
X11542Y66427D01*
X11551Y66417D01*
X11558Y66406D01*
X11716Y66227D01*
X11872Y66047D01*
X11882Y66038D01*
X11891Y66028D01*
X12075Y65877D01*
X12258Y65724D01*
X12270Y65717D01*
X12280Y65708D01*
X12486Y65587D01*
X12690Y65465D01*
X12703Y65460D01*
X12715Y65453D01*
X12938Y65366D01*
X13158Y65279D01*
X13171Y65276D01*
X13184Y65271D01*
X13418Y65220D01*
X13649Y65168D01*
X13663Y65168D01*
X13676Y65165D01*
X13914Y65152D01*
X14151Y65137D01*
X14165Y65138D01*
X14179Y65138D01*
X14415Y65163D01*
X14653Y65186D01*
X14666Y65189D01*
X14680Y65191D01*
X14909Y65253D01*
X15140Y65313D01*
X15152Y65318D01*
X15166Y65322D01*
X15383Y65420D01*
X15601Y65515D01*
X15612Y65523D01*
X15625Y65528D01*
X15824Y65659D01*
X16024Y65788D01*
X16034Y65798D01*
X16046Y65805D01*
X16342Y66066D01*
X16511Y66236D01*
X24528Y70865D01*
X33471Y73261D01*
X42729Y73261D01*
X51672Y70865D01*
X59689Y66236D01*
X66236Y59689D01*
X70865Y51672D01*
X73261Y42729D01*
X73261Y33471D01*
X70865Y24528D01*
X66236Y16511D01*
X66066Y16342D01*
X66057Y16331D01*
X66047Y16322D01*
X65894Y16140D01*
X65740Y15958D01*
X65732Y15947D01*
X65724Y15936D01*
X65602Y15732D01*
X65478Y15528D01*
X65472Y15516D01*
X65465Y15504D01*
X65378Y15284D01*
X65287Y15062D01*
X65284Y15049D01*
X65279Y15036D01*
X65227Y14805D01*
X65172Y14572D01*
X65171Y14558D01*
X65168Y14545D01*
X65154Y14307D01*
X65137Y14070D01*
X65138Y14056D01*
X65137Y14042D01*
X65160Y13804D01*
X65181Y13568D01*
X65184Y13555D01*
X65186Y13541D01*
X65246Y13311D01*
X65304Y13080D01*
X65309Y13067D01*
X65313Y13054D01*
X65408Y12837D01*
X65503Y12617D01*
X65510Y12606D01*
X65515Y12593D01*
X65645Y12392D01*
X65772Y12192D01*
X65781Y12182D01*
X65788Y12170D01*
X65947Y11993D01*
X66105Y11814D01*
X66116Y11806D01*
X66125Y11795D01*
X66309Y11646D01*
X66494Y11494D01*
X66506Y11487D01*
X66516Y11479D01*
X66722Y11361D01*
X66928Y11240D01*
X66941Y11235D01*
X66953Y11228D01*
X67174Y11144D01*
X67397Y11057D01*
X67411Y11054D01*
X67424Y11049D01*
X67656Y11001D01*
X67890Y10951D01*
X67903Y10950D01*
X67917Y10947D01*
X68311Y10923D01*
X1557289Y10923D01*
X1557303Y10924D01*
G37*
%LPC*%
G36*
X823732Y156209D02*
X823732Y156209D01*
X820464Y157563D01*
X817963Y160064D01*
X816609Y163332D01*
X816609Y204968D01*
X817963Y208236D01*
X858564Y248837D01*
X861832Y250191D01*
X1011003Y250191D01*
X1011043Y250194D01*
X1011084Y250192D01*
X1011294Y250214D01*
X1011504Y250231D01*
X1011544Y250240D01*
X1011585Y250245D01*
X1011789Y250300D01*
X1011994Y250349D01*
X1012031Y250365D01*
X1012071Y250376D01*
X1012264Y250463D01*
X1012458Y250544D01*
X1012493Y250566D01*
X1012530Y250583D01*
X1012707Y250699D01*
X1012886Y250810D01*
X1012917Y250837D01*
X1012951Y250859D01*
X1013247Y251120D01*
X1018880Y256753D01*
X1018906Y256784D01*
X1018937Y256811D01*
X1019069Y256976D01*
X1019206Y257136D01*
X1019228Y257171D01*
X1019253Y257203D01*
X1019358Y257385D01*
X1019468Y257566D01*
X1019484Y257604D01*
X1019504Y257640D01*
X1019579Y257836D01*
X1019659Y258032D01*
X1019668Y258072D01*
X1019683Y258110D01*
X1019725Y258317D01*
X1019774Y258522D01*
X1019776Y258563D01*
X1019785Y258603D01*
X1019809Y258997D01*
X1019809Y285666D01*
X1019806Y285707D01*
X1019808Y285747D01*
X1019786Y285957D01*
X1019769Y286168D01*
X1019760Y286207D01*
X1019755Y286248D01*
X1019700Y286452D01*
X1019651Y286657D01*
X1019635Y286695D01*
X1019624Y286734D01*
X1019537Y286927D01*
X1019456Y287121D01*
X1019434Y287156D01*
X1019417Y287194D01*
X1019302Y287370D01*
X1019190Y287549D01*
X1019163Y287580D01*
X1019141Y287614D01*
X1018879Y287910D01*
X1018244Y288545D01*
X1018224Y288563D01*
X1018206Y288583D01*
X1018033Y288726D01*
X1017861Y288872D01*
X1017838Y288886D01*
X1017817Y288903D01*
X1017624Y289017D01*
X1017431Y289134D01*
X1017406Y289144D01*
X1017383Y289158D01*
X1017174Y289239D01*
X1016965Y289325D01*
X1016939Y289331D01*
X1016913Y289341D01*
X1016695Y289388D01*
X1016475Y289439D01*
X1016448Y289441D01*
X1016421Y289447D01*
X1016197Y289459D01*
X1015973Y289475D01*
X1015945Y289472D01*
X1015918Y289474D01*
X1015695Y289450D01*
X1015471Y289431D01*
X1015445Y289424D01*
X1015418Y289421D01*
X1015201Y289363D01*
X1014983Y289308D01*
X1014958Y289297D01*
X1014931Y289290D01*
X1014727Y289198D01*
X1014520Y289109D01*
X1014497Y289094D01*
X1014472Y289083D01*
X1014284Y288960D01*
X1014095Y288840D01*
X1014074Y288822D01*
X1014051Y288807D01*
X1013755Y288545D01*
X1007404Y282193D01*
X998998Y282193D01*
X998932Y282233D01*
X998894Y282249D01*
X998859Y282269D01*
X998662Y282344D01*
X998466Y282424D01*
X998426Y282433D01*
X998388Y282448D01*
X998182Y282490D01*
X997976Y282539D01*
X997935Y282541D01*
X997895Y282550D01*
X997501Y282574D01*
X988705Y282574D01*
X985204Y284024D01*
X982078Y287150D01*
X982078Y287151D01*
X972951Y296278D01*
X972950Y296278D01*
X969824Y299404D01*
X968374Y302905D01*
X968374Y344795D01*
X969824Y348296D01*
X972504Y350976D01*
X976005Y352426D01*
X979795Y352426D01*
X983296Y350976D01*
X985976Y348296D01*
X987426Y344795D01*
X987426Y310060D01*
X987429Y310020D01*
X987427Y309979D01*
X987449Y309769D01*
X987466Y309559D01*
X987475Y309519D01*
X987480Y309478D01*
X987535Y309274D01*
X987584Y309069D01*
X987600Y309032D01*
X987611Y308992D01*
X987698Y308799D01*
X987779Y308605D01*
X987801Y308570D01*
X987818Y308533D01*
X987934Y308356D01*
X988045Y308177D01*
X988072Y308146D01*
X988094Y308112D01*
X988355Y307816D01*
X993616Y302555D01*
X993647Y302529D01*
X993674Y302498D01*
X993839Y302366D01*
X993999Y302229D01*
X994034Y302207D01*
X994066Y302182D01*
X994248Y302077D01*
X994429Y301967D01*
X994467Y301951D01*
X994503Y301931D01*
X994699Y301856D01*
X994895Y301776D01*
X994935Y301767D01*
X994973Y301752D01*
X995180Y301710D01*
X995385Y301661D01*
X995426Y301659D01*
X995466Y301650D01*
X995860Y301626D01*
X997501Y301626D01*
X997542Y301629D01*
X997583Y301627D01*
X997792Y301649D01*
X998003Y301666D01*
X998042Y301675D01*
X998083Y301680D01*
X998287Y301735D01*
X998492Y301784D01*
X998530Y301800D01*
X998569Y301811D01*
X998762Y301898D01*
X998956Y301979D01*
X998991Y302001D01*
X999004Y302007D01*
X1007404Y302007D01*
X1013755Y295655D01*
X1013766Y295646D01*
X1013775Y295636D01*
X1013796Y295618D01*
X1013814Y295598D01*
X1013978Y295465D01*
X1014139Y295328D01*
X1014150Y295321D01*
X1014161Y295312D01*
X1014184Y295298D01*
X1014205Y295281D01*
X1014388Y295176D01*
X1014569Y295066D01*
X1014581Y295061D01*
X1014593Y295054D01*
X1014618Y295044D01*
X1014642Y295030D01*
X1014839Y294956D01*
X1015035Y294875D01*
X1015048Y294872D01*
X1015061Y294867D01*
X1015087Y294861D01*
X1015113Y294852D01*
X1015319Y294809D01*
X1015525Y294761D01*
X1015539Y294760D01*
X1015552Y294757D01*
X1015579Y294755D01*
X1015606Y294750D01*
X1016000Y294725D01*
X1016014Y294726D01*
X1016027Y294725D01*
X1016041Y294726D01*
X1016054Y294726D01*
X1016278Y294747D01*
X1016502Y294765D01*
X1016515Y294768D01*
X1016529Y294769D01*
X1016542Y294773D01*
X1016556Y294774D01*
X1016774Y294831D01*
X1016991Y294884D01*
X1017004Y294889D01*
X1017017Y294892D01*
X1017030Y294898D01*
X1017043Y294901D01*
X1017249Y294992D01*
X1017456Y295078D01*
X1017467Y295086D01*
X1017480Y295091D01*
X1017491Y295098D01*
X1017504Y295104D01*
X1017693Y295226D01*
X1017883Y295344D01*
X1017894Y295353D01*
X1017905Y295360D01*
X1017915Y295369D01*
X1017927Y295377D01*
X1018094Y295527D01*
X1018264Y295674D01*
X1018273Y295685D01*
X1018283Y295694D01*
X1018291Y295704D01*
X1018302Y295713D01*
X1018443Y295888D01*
X1018587Y296060D01*
X1018594Y296072D01*
X1018603Y296082D01*
X1018610Y296094D01*
X1018618Y296105D01*
X1018730Y296299D01*
X1018845Y296492D01*
X1018851Y296505D01*
X1018857Y296517D01*
X1018862Y296529D01*
X1018869Y296541D01*
X1018949Y296751D01*
X1019032Y296960D01*
X1019035Y296973D01*
X1019040Y296986D01*
X1019043Y296999D01*
X1019048Y297012D01*
X1019093Y297232D01*
X1019142Y297451D01*
X1019143Y297465D01*
X1019146Y297478D01*
X1019147Y297492D01*
X1019150Y297505D01*
X1019174Y297899D01*
X1019174Y330939D01*
X1019171Y330980D01*
X1019173Y331021D01*
X1019151Y331231D01*
X1019134Y331441D01*
X1019125Y331481D01*
X1019120Y331522D01*
X1019065Y331726D01*
X1019016Y331931D01*
X1019000Y331968D01*
X1018989Y332008D01*
X1018902Y332201D01*
X1018821Y332395D01*
X1018799Y332430D01*
X1018782Y332467D01*
X1018666Y332644D01*
X1018555Y332823D01*
X1018528Y332854D01*
X1018506Y332888D01*
X1018245Y333184D01*
X954559Y396869D01*
X954427Y396982D01*
X954301Y397101D01*
X954236Y397145D01*
X954176Y397196D01*
X954028Y397286D01*
X953884Y397384D01*
X953801Y397424D01*
X953746Y397458D01*
X953664Y397491D01*
X953530Y397557D01*
X949528Y399215D01*
X946315Y402428D01*
X944575Y406627D01*
X944575Y411173D01*
X946315Y415372D01*
X949528Y418585D01*
X953727Y420325D01*
X958273Y420325D01*
X962472Y418585D01*
X965685Y415372D01*
X967343Y411370D01*
X967422Y411216D01*
X967493Y411057D01*
X967536Y410992D01*
X967572Y410922D01*
X967674Y410782D01*
X967770Y410637D01*
X967831Y410567D01*
X967869Y410515D01*
X967932Y410453D01*
X968031Y410341D01*
X1033649Y344722D01*
X1036776Y341596D01*
X1038226Y338095D01*
X1038226Y297899D01*
X1038229Y297858D01*
X1038227Y297817D01*
X1038249Y297608D01*
X1038266Y297397D01*
X1038275Y297358D01*
X1038280Y297317D01*
X1038335Y297113D01*
X1038384Y296908D01*
X1038400Y296870D01*
X1038411Y296831D01*
X1038498Y296638D01*
X1038579Y296444D01*
X1038601Y296409D01*
X1038607Y296396D01*
X1038607Y287997D01*
X1038520Y287910D01*
X1038494Y287879D01*
X1038463Y287852D01*
X1038331Y287687D01*
X1038194Y287527D01*
X1038172Y287492D01*
X1038147Y287460D01*
X1038042Y287277D01*
X1037932Y287097D01*
X1037916Y287059D01*
X1037896Y287024D01*
X1037821Y286826D01*
X1037741Y286631D01*
X1037732Y286591D01*
X1037717Y286553D01*
X1037674Y286346D01*
X1037626Y286141D01*
X1037624Y286100D01*
X1037615Y286060D01*
X1037591Y285666D01*
X1037591Y252232D01*
X1036237Y248964D01*
X1021036Y233763D01*
X1017768Y232409D01*
X868597Y232409D01*
X868557Y232406D01*
X868516Y232408D01*
X868306Y232386D01*
X868096Y232369D01*
X868056Y232360D01*
X868015Y232355D01*
X867811Y232300D01*
X867606Y232251D01*
X867568Y232235D01*
X867529Y232224D01*
X867337Y232137D01*
X867142Y232056D01*
X867107Y232034D01*
X867070Y232017D01*
X866894Y231902D01*
X866714Y231790D01*
X866683Y231763D01*
X866649Y231741D01*
X866353Y231480D01*
X865083Y230210D01*
X865074Y230199D01*
X865064Y230190D01*
X864910Y230007D01*
X864756Y229826D01*
X864749Y229815D01*
X864740Y229804D01*
X864618Y229600D01*
X864494Y229396D01*
X864489Y229384D01*
X864482Y229372D01*
X864394Y229151D01*
X864304Y228930D01*
X864300Y228917D01*
X864295Y228904D01*
X864243Y228671D01*
X864189Y228440D01*
X864188Y228426D01*
X864185Y228413D01*
X864170Y228175D01*
X864153Y227938D01*
X864154Y227924D01*
X864154Y227911D01*
X864177Y227673D01*
X864198Y227436D01*
X864201Y227423D01*
X864202Y227409D01*
X864262Y227179D01*
X864321Y226948D01*
X864326Y226935D01*
X864329Y226922D01*
X864425Y226703D01*
X864519Y226485D01*
X864526Y226474D01*
X864532Y226461D01*
X864661Y226260D01*
X864788Y226060D01*
X864798Y226050D01*
X864805Y226038D01*
X864965Y225860D01*
X865122Y225682D01*
X865132Y225674D01*
X865141Y225663D01*
X865327Y225513D01*
X865510Y225362D01*
X865522Y225355D01*
X865533Y225347D01*
X865739Y225228D01*
X865945Y225108D01*
X865958Y225103D01*
X865969Y225096D01*
X866192Y225012D01*
X866414Y224925D01*
X866427Y224922D01*
X866440Y224917D01*
X866674Y224869D01*
X866906Y224819D01*
X866920Y224818D01*
X866933Y224815D01*
X867327Y224791D01*
X1214203Y224791D01*
X1214243Y224794D01*
X1214284Y224792D01*
X1214494Y224814D01*
X1214704Y224831D01*
X1214744Y224840D01*
X1214785Y224845D01*
X1214989Y224900D01*
X1215194Y224949D01*
X1215231Y224965D01*
X1215271Y224976D01*
X1215464Y225063D01*
X1215658Y225144D01*
X1215693Y225166D01*
X1215730Y225183D01*
X1215907Y225299D01*
X1216086Y225410D01*
X1216117Y225437D01*
X1216151Y225459D01*
X1216447Y225720D01*
X1234780Y244053D01*
X1234806Y244084D01*
X1234837Y244111D01*
X1234969Y244276D01*
X1235106Y244436D01*
X1235128Y244471D01*
X1235153Y244503D01*
X1235258Y244685D01*
X1235368Y244866D01*
X1235384Y244904D01*
X1235404Y244940D01*
X1235479Y245136D01*
X1235559Y245332D01*
X1235568Y245372D01*
X1235583Y245410D01*
X1235625Y245617D01*
X1235674Y245822D01*
X1235676Y245863D01*
X1235685Y245903D01*
X1235709Y246297D01*
X1235709Y285666D01*
X1235706Y285707D01*
X1235708Y285747D01*
X1235686Y285957D01*
X1235669Y286168D01*
X1235660Y286207D01*
X1235655Y286248D01*
X1235600Y286452D01*
X1235551Y286657D01*
X1235535Y286695D01*
X1235524Y286734D01*
X1235437Y286927D01*
X1235356Y287121D01*
X1235334Y287156D01*
X1235317Y287194D01*
X1235202Y287370D01*
X1235090Y287549D01*
X1235063Y287580D01*
X1235041Y287614D01*
X1234779Y287910D01*
X1234144Y288545D01*
X1234124Y288563D01*
X1234106Y288583D01*
X1233933Y288726D01*
X1233761Y288872D01*
X1233738Y288886D01*
X1233717Y288903D01*
X1233524Y289017D01*
X1233331Y289134D01*
X1233306Y289144D01*
X1233283Y289158D01*
X1233074Y289239D01*
X1232865Y289325D01*
X1232839Y289331D01*
X1232813Y289341D01*
X1232595Y289388D01*
X1232375Y289439D01*
X1232348Y289441D01*
X1232321Y289447D01*
X1232097Y289459D01*
X1231873Y289475D01*
X1231845Y289472D01*
X1231818Y289474D01*
X1231595Y289450D01*
X1231371Y289431D01*
X1231345Y289424D01*
X1231318Y289421D01*
X1231101Y289363D01*
X1230883Y289308D01*
X1230858Y289297D01*
X1230831Y289290D01*
X1230627Y289198D01*
X1230420Y289109D01*
X1230397Y289094D01*
X1230372Y289083D01*
X1230184Y288960D01*
X1229995Y288840D01*
X1229974Y288822D01*
X1229951Y288807D01*
X1229655Y288545D01*
X1223304Y282193D01*
X1214898Y282193D01*
X1214832Y282233D01*
X1214794Y282249D01*
X1214759Y282269D01*
X1214562Y282344D01*
X1214366Y282424D01*
X1214326Y282433D01*
X1214288Y282448D01*
X1214082Y282490D01*
X1213876Y282539D01*
X1213835Y282541D01*
X1213795Y282550D01*
X1213401Y282574D01*
X1204605Y282574D01*
X1201104Y284024D01*
X1185724Y299404D01*
X1184274Y302905D01*
X1184274Y344795D01*
X1185724Y348296D01*
X1188404Y350976D01*
X1191905Y352426D01*
X1195695Y352426D01*
X1199196Y350976D01*
X1201876Y348296D01*
X1203326Y344795D01*
X1203326Y310061D01*
X1203329Y310020D01*
X1203327Y309979D01*
X1203349Y309769D01*
X1203366Y309559D01*
X1203375Y309519D01*
X1203380Y309478D01*
X1203435Y309274D01*
X1203484Y309069D01*
X1203500Y309032D01*
X1203511Y308992D01*
X1203598Y308799D01*
X1203679Y308605D01*
X1203701Y308570D01*
X1203718Y308533D01*
X1203834Y308356D01*
X1203945Y308177D01*
X1203972Y308146D01*
X1203994Y308112D01*
X1204255Y307816D01*
X1209516Y302555D01*
X1209547Y302529D01*
X1209574Y302498D01*
X1209739Y302366D01*
X1209899Y302229D01*
X1209934Y302207D01*
X1209966Y302182D01*
X1210148Y302077D01*
X1210329Y301967D01*
X1210367Y301951D01*
X1210403Y301931D01*
X1210599Y301856D01*
X1210795Y301776D01*
X1210835Y301767D01*
X1210873Y301752D01*
X1211080Y301710D01*
X1211285Y301661D01*
X1211326Y301659D01*
X1211366Y301650D01*
X1211761Y301626D01*
X1213401Y301626D01*
X1213442Y301629D01*
X1213483Y301627D01*
X1213692Y301649D01*
X1213903Y301666D01*
X1213942Y301675D01*
X1213983Y301680D01*
X1214187Y301735D01*
X1214392Y301784D01*
X1214430Y301800D01*
X1214469Y301811D01*
X1214662Y301898D01*
X1214856Y301979D01*
X1214891Y302001D01*
X1214904Y302007D01*
X1223304Y302007D01*
X1229655Y295655D01*
X1229666Y295646D01*
X1229675Y295636D01*
X1229696Y295618D01*
X1229714Y295598D01*
X1229878Y295465D01*
X1230039Y295328D01*
X1230050Y295321D01*
X1230061Y295312D01*
X1230084Y295298D01*
X1230105Y295281D01*
X1230288Y295176D01*
X1230469Y295066D01*
X1230481Y295061D01*
X1230493Y295054D01*
X1230518Y295044D01*
X1230542Y295030D01*
X1230739Y294956D01*
X1230935Y294875D01*
X1230948Y294872D01*
X1230961Y294867D01*
X1230987Y294861D01*
X1231013Y294852D01*
X1231219Y294809D01*
X1231425Y294761D01*
X1231439Y294760D01*
X1231452Y294757D01*
X1231479Y294755D01*
X1231506Y294750D01*
X1231900Y294725D01*
X1231914Y294726D01*
X1231927Y294725D01*
X1231941Y294726D01*
X1231954Y294726D01*
X1232178Y294747D01*
X1232402Y294765D01*
X1232415Y294768D01*
X1232429Y294769D01*
X1232442Y294773D01*
X1232456Y294774D01*
X1232674Y294831D01*
X1232891Y294884D01*
X1232904Y294889D01*
X1232917Y294892D01*
X1232930Y294898D01*
X1232943Y294901D01*
X1233149Y294992D01*
X1233356Y295078D01*
X1233367Y295086D01*
X1233380Y295091D01*
X1233391Y295098D01*
X1233404Y295104D01*
X1233593Y295226D01*
X1233783Y295344D01*
X1233794Y295353D01*
X1233805Y295360D01*
X1233815Y295369D01*
X1233827Y295377D01*
X1233994Y295527D01*
X1234164Y295674D01*
X1234173Y295685D01*
X1234183Y295694D01*
X1234191Y295704D01*
X1234202Y295713D01*
X1234343Y295888D01*
X1234487Y296060D01*
X1234494Y296072D01*
X1234503Y296082D01*
X1234510Y296094D01*
X1234518Y296105D01*
X1234630Y296299D01*
X1234745Y296492D01*
X1234751Y296505D01*
X1234757Y296517D01*
X1234762Y296529D01*
X1234769Y296541D01*
X1234849Y296751D01*
X1234932Y296960D01*
X1234935Y296973D01*
X1234940Y296986D01*
X1234943Y296999D01*
X1234948Y297012D01*
X1234993Y297232D01*
X1235042Y297451D01*
X1235043Y297465D01*
X1235046Y297478D01*
X1235047Y297492D01*
X1235050Y297505D01*
X1235074Y297899D01*
X1235074Y330939D01*
X1235071Y330980D01*
X1235073Y331021D01*
X1235051Y331231D01*
X1235034Y331441D01*
X1235025Y331481D01*
X1235020Y331522D01*
X1234965Y331726D01*
X1234916Y331931D01*
X1234900Y331968D01*
X1234889Y332008D01*
X1234802Y332201D01*
X1234721Y332395D01*
X1234699Y332430D01*
X1234682Y332467D01*
X1234566Y332644D01*
X1234455Y332823D01*
X1234428Y332854D01*
X1234406Y332888D01*
X1234145Y333184D01*
X1170459Y396869D01*
X1170327Y396982D01*
X1170201Y397101D01*
X1170136Y397145D01*
X1170076Y397196D01*
X1169928Y397286D01*
X1169784Y397384D01*
X1169701Y397424D01*
X1169646Y397458D01*
X1169564Y397491D01*
X1169430Y397557D01*
X1165428Y399215D01*
X1162215Y402428D01*
X1160475Y406627D01*
X1160475Y411173D01*
X1162215Y415372D01*
X1165428Y418585D01*
X1169627Y420325D01*
X1174173Y420325D01*
X1178372Y418585D01*
X1181585Y415372D01*
X1183243Y411370D01*
X1183322Y411216D01*
X1183393Y411057D01*
X1183436Y410992D01*
X1183472Y410922D01*
X1183574Y410782D01*
X1183670Y410637D01*
X1183731Y410567D01*
X1183769Y410515D01*
X1183832Y410453D01*
X1183931Y410341D01*
X1249549Y344722D01*
X1252676Y341596D01*
X1254126Y338095D01*
X1254126Y297899D01*
X1254129Y297858D01*
X1254127Y297817D01*
X1254149Y297608D01*
X1254166Y297397D01*
X1254175Y297358D01*
X1254180Y297317D01*
X1254235Y297113D01*
X1254284Y296908D01*
X1254300Y296870D01*
X1254311Y296831D01*
X1254398Y296638D01*
X1254479Y296444D01*
X1254501Y296409D01*
X1254507Y296396D01*
X1254507Y287997D01*
X1254420Y287910D01*
X1254394Y287879D01*
X1254363Y287852D01*
X1254231Y287687D01*
X1254094Y287527D01*
X1254072Y287492D01*
X1254047Y287460D01*
X1253942Y287277D01*
X1253832Y287097D01*
X1253816Y287059D01*
X1253796Y287024D01*
X1253721Y286826D01*
X1253641Y286631D01*
X1253632Y286591D01*
X1253617Y286553D01*
X1253574Y286346D01*
X1253526Y286141D01*
X1253524Y286100D01*
X1253515Y286060D01*
X1253491Y285666D01*
X1253491Y239532D01*
X1252137Y236264D01*
X1224236Y208363D01*
X1220968Y207009D01*
X868597Y207009D01*
X868557Y207006D01*
X868516Y207008D01*
X868306Y206986D01*
X868096Y206969D01*
X868056Y206960D01*
X868015Y206955D01*
X867811Y206900D01*
X867606Y206851D01*
X867569Y206835D01*
X867529Y206824D01*
X867336Y206737D01*
X867142Y206656D01*
X867107Y206634D01*
X867070Y206617D01*
X866893Y206501D01*
X866714Y206390D01*
X866683Y206363D01*
X866649Y206341D01*
X866353Y206080D01*
X860720Y200447D01*
X860712Y200437D01*
X860702Y200429D01*
X860684Y200407D01*
X860663Y200389D01*
X860531Y200224D01*
X860394Y200064D01*
X860386Y200052D01*
X860379Y200043D01*
X860365Y200020D01*
X860347Y199997D01*
X860242Y199815D01*
X860132Y199634D01*
X860126Y199619D01*
X860121Y199610D01*
X860111Y199587D01*
X860096Y199560D01*
X860021Y199364D01*
X859941Y199168D01*
X859937Y199151D01*
X859934Y199143D01*
X859929Y199120D01*
X859917Y199090D01*
X859875Y198883D01*
X859826Y198678D01*
X859825Y198659D01*
X859823Y198652D01*
X859822Y198629D01*
X859815Y198597D01*
X859791Y198203D01*
X859791Y163332D01*
X858437Y160064D01*
X855936Y157563D01*
X852668Y156209D01*
X849132Y156209D01*
X845864Y157563D01*
X843363Y160064D01*
X842009Y163332D01*
X842009Y199473D01*
X842008Y199486D01*
X842009Y199500D01*
X841988Y199736D01*
X841969Y199975D01*
X841966Y199988D01*
X841965Y200001D01*
X841907Y200232D01*
X841851Y200464D01*
X841845Y200476D01*
X841842Y200490D01*
X841747Y200710D01*
X841656Y200928D01*
X841649Y200940D01*
X841643Y200952D01*
X841516Y201154D01*
X841390Y201356D01*
X841381Y201366D01*
X841374Y201378D01*
X841217Y201556D01*
X841060Y201736D01*
X841050Y201745D01*
X841041Y201755D01*
X840857Y201907D01*
X840674Y202060D01*
X840663Y202067D01*
X840652Y202075D01*
X840446Y202196D01*
X840242Y202318D01*
X840229Y202323D01*
X840218Y202330D01*
X839994Y202417D01*
X839774Y202505D01*
X839761Y202508D01*
X839748Y202513D01*
X839516Y202563D01*
X839283Y202615D01*
X839269Y202616D01*
X839256Y202619D01*
X839020Y202631D01*
X838781Y202646D01*
X838767Y202645D01*
X838753Y202646D01*
X838518Y202621D01*
X838279Y202598D01*
X838266Y202594D01*
X838253Y202593D01*
X838025Y202531D01*
X837792Y202471D01*
X837780Y202465D01*
X837766Y202462D01*
X837551Y202365D01*
X837331Y202268D01*
X837320Y202261D01*
X837307Y202255D01*
X837109Y202125D01*
X836908Y201995D01*
X836898Y201986D01*
X836886Y201978D01*
X836590Y201717D01*
X835320Y200447D01*
X835312Y200437D01*
X835302Y200429D01*
X835284Y200407D01*
X835263Y200389D01*
X835131Y200224D01*
X834994Y200064D01*
X834986Y200052D01*
X834979Y200043D01*
X834965Y200020D01*
X834947Y199997D01*
X834842Y199814D01*
X834732Y199634D01*
X834726Y199619D01*
X834721Y199610D01*
X834711Y199587D01*
X834696Y199560D01*
X834621Y199363D01*
X834541Y199168D01*
X834537Y199151D01*
X834534Y199143D01*
X834529Y199120D01*
X834517Y199090D01*
X834474Y198883D01*
X834426Y198678D01*
X834425Y198659D01*
X834423Y198652D01*
X834422Y198629D01*
X834415Y198597D01*
X834391Y198203D01*
X834391Y163332D01*
X833037Y160064D01*
X830536Y157563D01*
X827268Y156209D01*
X823732Y156209D01*
G37*
%LPD*%
%LPC*%
G36*
X722132Y156209D02*
X722132Y156209D01*
X718864Y157563D01*
X716363Y160064D01*
X715009Y163332D01*
X715009Y185503D01*
X715006Y185543D01*
X715008Y185584D01*
X714986Y185794D01*
X714969Y186004D01*
X714960Y186044D01*
X714955Y186085D01*
X714900Y186289D01*
X714851Y186494D01*
X714835Y186531D01*
X714824Y186571D01*
X714737Y186764D01*
X714656Y186958D01*
X714634Y186993D01*
X714629Y187004D01*
X714627Y187010D01*
X714626Y187011D01*
X714617Y187030D01*
X714501Y187207D01*
X714390Y187386D01*
X714367Y187413D01*
X714354Y187433D01*
X714349Y187438D01*
X714341Y187451D01*
X714080Y187747D01*
X708447Y193380D01*
X708416Y193406D01*
X708389Y193437D01*
X708224Y193569D01*
X708064Y193706D01*
X708029Y193728D01*
X707997Y193753D01*
X707815Y193858D01*
X707634Y193968D01*
X707596Y193984D01*
X707560Y194004D01*
X707364Y194079D01*
X707168Y194159D01*
X707128Y194168D01*
X707090Y194183D01*
X706883Y194225D01*
X706678Y194274D01*
X706637Y194276D01*
X706597Y194285D01*
X706203Y194309D01*
X201432Y194309D01*
X198164Y195663D01*
X157563Y236264D01*
X156209Y239532D01*
X156209Y285666D01*
X156206Y285707D01*
X156208Y285747D01*
X156186Y285957D01*
X156169Y286168D01*
X156160Y286207D01*
X156155Y286248D01*
X156100Y286452D01*
X156051Y286657D01*
X156035Y286695D01*
X156024Y286734D01*
X155937Y286927D01*
X155856Y287121D01*
X155834Y287156D01*
X155817Y287193D01*
X155701Y287370D01*
X155590Y287549D01*
X155563Y287580D01*
X155541Y287614D01*
X155280Y287910D01*
X154645Y288545D01*
X154624Y288563D01*
X154606Y288583D01*
X154432Y288726D01*
X154261Y288872D01*
X154238Y288886D01*
X154217Y288903D01*
X154024Y289017D01*
X153831Y289134D01*
X153806Y289144D01*
X153783Y289158D01*
X153574Y289239D01*
X153365Y289325D01*
X153339Y289331D01*
X153313Y289341D01*
X153094Y289388D01*
X152875Y289439D01*
X152848Y289441D01*
X152821Y289447D01*
X152597Y289459D01*
X152373Y289475D01*
X152346Y289472D01*
X152318Y289474D01*
X152096Y289450D01*
X151871Y289431D01*
X151845Y289424D01*
X151818Y289421D01*
X151602Y289363D01*
X151383Y289308D01*
X151358Y289297D01*
X151331Y289290D01*
X151127Y289198D01*
X150920Y289109D01*
X150897Y289094D01*
X150872Y289083D01*
X150685Y288960D01*
X150495Y288840D01*
X150474Y288822D01*
X150451Y288807D01*
X150155Y288545D01*
X143804Y282193D01*
X135398Y282193D01*
X135332Y282233D01*
X135294Y282249D01*
X135259Y282269D01*
X135062Y282344D01*
X134866Y282424D01*
X134826Y282433D01*
X134788Y282448D01*
X134581Y282490D01*
X134376Y282539D01*
X134335Y282541D01*
X134295Y282550D01*
X133901Y282574D01*
X125105Y282574D01*
X121604Y284024D01*
X106224Y299404D01*
X104774Y302905D01*
X104774Y344795D01*
X106224Y348296D01*
X108904Y350976D01*
X112405Y352426D01*
X116195Y352426D01*
X119696Y350976D01*
X122376Y348296D01*
X123826Y344795D01*
X123826Y310061D01*
X123829Y310020D01*
X123827Y309979D01*
X123849Y309769D01*
X123866Y309559D01*
X123875Y309519D01*
X123880Y309478D01*
X123935Y309274D01*
X123984Y309069D01*
X124000Y309032D01*
X124011Y308992D01*
X124098Y308799D01*
X124179Y308605D01*
X124201Y308570D01*
X124218Y308533D01*
X124334Y308356D01*
X124445Y308177D01*
X124472Y308146D01*
X124494Y308112D01*
X124755Y307816D01*
X130016Y302555D01*
X130047Y302529D01*
X130074Y302498D01*
X130239Y302366D01*
X130399Y302229D01*
X130434Y302207D01*
X130466Y302182D01*
X130648Y302077D01*
X130829Y301967D01*
X130867Y301951D01*
X130903Y301931D01*
X131099Y301856D01*
X131295Y301776D01*
X131335Y301767D01*
X131373Y301752D01*
X131580Y301710D01*
X131785Y301661D01*
X131826Y301659D01*
X131866Y301650D01*
X132261Y301626D01*
X133901Y301626D01*
X133942Y301629D01*
X133982Y301627D01*
X134192Y301649D01*
X134403Y301666D01*
X134442Y301675D01*
X134483Y301680D01*
X134687Y301735D01*
X134892Y301784D01*
X134930Y301800D01*
X134969Y301811D01*
X135162Y301898D01*
X135356Y301979D01*
X135391Y302001D01*
X135404Y302007D01*
X143804Y302007D01*
X150155Y295655D01*
X150166Y295646D01*
X150175Y295636D01*
X150185Y295627D01*
X150194Y295617D01*
X150368Y295474D01*
X150539Y295328D01*
X150551Y295321D01*
X150561Y295312D01*
X150572Y295305D01*
X150583Y295297D01*
X150776Y295183D01*
X150969Y295066D01*
X150982Y295061D01*
X150993Y295054D01*
X151005Y295049D01*
X151017Y295042D01*
X151226Y294961D01*
X151435Y294875D01*
X151448Y294872D01*
X151461Y294867D01*
X151474Y294864D01*
X151487Y294859D01*
X151706Y294812D01*
X151925Y294761D01*
X151939Y294760D01*
X151952Y294757D01*
X151965Y294756D01*
X151979Y294753D01*
X152203Y294741D01*
X152427Y294725D01*
X152441Y294726D01*
X152454Y294726D01*
X152468Y294727D01*
X152482Y294726D01*
X152704Y294750D01*
X152929Y294769D01*
X152942Y294773D01*
X152956Y294774D01*
X152969Y294778D01*
X152982Y294779D01*
X153198Y294837D01*
X153417Y294892D01*
X153430Y294898D01*
X153443Y294901D01*
X153455Y294907D01*
X153469Y294910D01*
X153674Y295003D01*
X153880Y295091D01*
X153891Y295098D01*
X153904Y295104D01*
X153915Y295111D01*
X153928Y295117D01*
X154116Y295241D01*
X154305Y295360D01*
X154315Y295369D01*
X154327Y295377D01*
X154337Y295386D01*
X154348Y295393D01*
X154645Y295655D01*
X154662Y295676D01*
X154683Y295694D01*
X154691Y295704D01*
X154702Y295713D01*
X154834Y295877D01*
X154971Y296038D01*
X154985Y296061D01*
X155003Y296082D01*
X155010Y296094D01*
X155018Y296105D01*
X155123Y296287D01*
X155233Y296468D01*
X155244Y296493D01*
X155257Y296517D01*
X155262Y296529D01*
X155269Y296541D01*
X155344Y296738D01*
X155424Y296934D01*
X155430Y296961D01*
X155440Y296986D01*
X155443Y296999D01*
X155448Y297012D01*
X155490Y297219D01*
X155539Y297424D01*
X155540Y297452D01*
X155546Y297478D01*
X155547Y297492D01*
X155550Y297505D01*
X155574Y297899D01*
X155574Y330939D01*
X155571Y330980D01*
X155573Y331021D01*
X155551Y331231D01*
X155534Y331441D01*
X155525Y331481D01*
X155520Y331522D01*
X155465Y331726D01*
X155416Y331931D01*
X155400Y331968D01*
X155389Y332008D01*
X155302Y332201D01*
X155221Y332395D01*
X155199Y332430D01*
X155182Y332467D01*
X155066Y332644D01*
X154955Y332823D01*
X154928Y332854D01*
X154906Y332888D01*
X154645Y333184D01*
X90959Y396869D01*
X90827Y396982D01*
X90701Y397101D01*
X90636Y397145D01*
X90576Y397196D01*
X90428Y397286D01*
X90284Y397384D01*
X90201Y397425D01*
X90146Y397458D01*
X90064Y397491D01*
X89930Y397557D01*
X85928Y399215D01*
X82715Y402428D01*
X80975Y406627D01*
X80975Y411173D01*
X82715Y415372D01*
X85928Y418585D01*
X90127Y420325D01*
X94673Y420325D01*
X98872Y418585D01*
X102085Y415372D01*
X103743Y411370D01*
X103822Y411216D01*
X103893Y411057D01*
X103936Y410992D01*
X103972Y410922D01*
X104074Y410782D01*
X104170Y410637D01*
X104231Y410567D01*
X104269Y410515D01*
X104332Y410453D01*
X104431Y410341D01*
X170049Y344722D01*
X173176Y341596D01*
X174626Y338095D01*
X174626Y297899D01*
X174629Y297858D01*
X174627Y297818D01*
X174649Y297608D01*
X174666Y297397D01*
X174675Y297358D01*
X174680Y297317D01*
X174735Y297113D01*
X174784Y296908D01*
X174800Y296870D01*
X174811Y296831D01*
X174898Y296638D01*
X174979Y296444D01*
X175001Y296409D01*
X175007Y296396D01*
X175007Y287996D01*
X174920Y287910D01*
X174894Y287879D01*
X174863Y287852D01*
X174731Y287688D01*
X174594Y287527D01*
X174572Y287492D01*
X174547Y287460D01*
X174442Y287278D01*
X174332Y287097D01*
X174316Y287059D01*
X174296Y287024D01*
X174221Y286827D01*
X174141Y286631D01*
X174132Y286591D01*
X174117Y286553D01*
X174075Y286346D01*
X174026Y286141D01*
X174024Y286100D01*
X174015Y286060D01*
X173991Y285666D01*
X173991Y246297D01*
X173994Y246257D01*
X173992Y246216D01*
X174014Y246006D01*
X174031Y245796D01*
X174040Y245756D01*
X174045Y245715D01*
X174100Y245511D01*
X174149Y245306D01*
X174165Y245269D01*
X174176Y245229D01*
X174263Y245036D01*
X174344Y244842D01*
X174366Y244807D01*
X174383Y244770D01*
X174499Y244593D01*
X174610Y244414D01*
X174637Y244383D01*
X174659Y244349D01*
X174920Y244053D01*
X205953Y213020D01*
X205984Y212994D01*
X206011Y212963D01*
X206176Y212831D01*
X206336Y212694D01*
X206371Y212672D01*
X206403Y212647D01*
X206585Y212542D01*
X206766Y212432D01*
X206804Y212416D01*
X206840Y212396D01*
X207036Y212321D01*
X207232Y212241D01*
X207272Y212232D01*
X207310Y212217D01*
X207517Y212175D01*
X207722Y212126D01*
X207763Y212124D01*
X207803Y212115D01*
X208197Y212091D01*
X712968Y212091D01*
X716236Y210737D01*
X731437Y195536D01*
X732791Y192268D01*
X732791Y163332D01*
X731437Y160064D01*
X728936Y157563D01*
X725668Y156209D01*
X722132Y156209D01*
G37*
%LPD*%
%LPC*%
G36*
X747532Y156209D02*
X747532Y156209D01*
X744264Y157563D01*
X741763Y160064D01*
X740409Y163332D01*
X740409Y198203D01*
X740407Y198237D01*
X740408Y198258D01*
X740407Y198265D01*
X740408Y198284D01*
X740386Y198494D01*
X740369Y198704D01*
X740361Y198737D01*
X740359Y198759D01*
X740357Y198767D01*
X740355Y198785D01*
X740300Y198989D01*
X740251Y199194D01*
X740238Y199223D01*
X740232Y199246D01*
X740228Y199255D01*
X740224Y199271D01*
X740138Y199463D01*
X740056Y199658D01*
X740040Y199684D01*
X740030Y199707D01*
X740024Y199716D01*
X740017Y199730D01*
X739901Y199907D01*
X739790Y200086D01*
X739771Y200108D01*
X739757Y200130D01*
X739749Y200139D01*
X739741Y200151D01*
X739480Y200447D01*
X721147Y218780D01*
X721116Y218806D01*
X721089Y218837D01*
X720924Y218969D01*
X720764Y219106D01*
X720729Y219128D01*
X720697Y219153D01*
X720515Y219258D01*
X720334Y219368D01*
X720296Y219384D01*
X720260Y219404D01*
X720064Y219479D01*
X719868Y219559D01*
X719828Y219568D01*
X719790Y219583D01*
X719583Y219625D01*
X719378Y219674D01*
X719337Y219676D01*
X719297Y219685D01*
X718903Y219709D01*
X404632Y219709D01*
X401364Y221063D01*
X398417Y224010D01*
X398416Y224010D01*
X373463Y248964D01*
X372109Y252232D01*
X372109Y285666D01*
X372106Y285707D01*
X372108Y285747D01*
X372086Y285957D01*
X372069Y286168D01*
X372060Y286207D01*
X372055Y286248D01*
X372000Y286452D01*
X371951Y286657D01*
X371935Y286695D01*
X371924Y286734D01*
X371837Y286927D01*
X371756Y287121D01*
X371734Y287156D01*
X371717Y287193D01*
X371601Y287370D01*
X371490Y287549D01*
X371463Y287580D01*
X371441Y287614D01*
X371180Y287910D01*
X370545Y288545D01*
X370524Y288563D01*
X370506Y288583D01*
X370332Y288726D01*
X370161Y288872D01*
X370138Y288886D01*
X370117Y288903D01*
X369924Y289017D01*
X369731Y289134D01*
X369706Y289144D01*
X369683Y289158D01*
X369474Y289239D01*
X369265Y289325D01*
X369239Y289331D01*
X369213Y289341D01*
X368994Y289388D01*
X368775Y289439D01*
X368748Y289441D01*
X368721Y289447D01*
X368497Y289459D01*
X368273Y289475D01*
X368246Y289472D01*
X368218Y289474D01*
X367996Y289450D01*
X367771Y289431D01*
X367745Y289424D01*
X367718Y289421D01*
X367502Y289363D01*
X367283Y289308D01*
X367258Y289297D01*
X367231Y289290D01*
X367027Y289198D01*
X366820Y289109D01*
X366797Y289094D01*
X366772Y289083D01*
X366585Y288960D01*
X366395Y288840D01*
X366374Y288822D01*
X366351Y288807D01*
X366055Y288545D01*
X359704Y282193D01*
X351298Y282193D01*
X351232Y282233D01*
X351194Y282249D01*
X351159Y282269D01*
X350962Y282344D01*
X350766Y282424D01*
X350726Y282433D01*
X350688Y282448D01*
X350482Y282490D01*
X350276Y282539D01*
X350235Y282541D01*
X350195Y282550D01*
X349801Y282574D01*
X341005Y282574D01*
X337504Y284024D01*
X322124Y299404D01*
X320674Y302905D01*
X320674Y344795D01*
X322124Y348296D01*
X324804Y350976D01*
X328305Y352426D01*
X332095Y352426D01*
X335596Y350976D01*
X338276Y348296D01*
X339726Y344795D01*
X339726Y310061D01*
X339729Y310020D01*
X339727Y309979D01*
X339749Y309769D01*
X339766Y309559D01*
X339775Y309519D01*
X339780Y309478D01*
X339835Y309274D01*
X339884Y309069D01*
X339900Y309032D01*
X339911Y308992D01*
X339998Y308799D01*
X340079Y308605D01*
X340101Y308570D01*
X340118Y308533D01*
X340234Y308356D01*
X340345Y308177D01*
X340372Y308146D01*
X340394Y308112D01*
X340655Y307816D01*
X345916Y302555D01*
X345947Y302529D01*
X345974Y302498D01*
X346139Y302366D01*
X346299Y302229D01*
X346334Y302207D01*
X346366Y302182D01*
X346548Y302077D01*
X346729Y301967D01*
X346767Y301951D01*
X346803Y301931D01*
X346999Y301856D01*
X347195Y301776D01*
X347235Y301767D01*
X347273Y301752D01*
X347480Y301710D01*
X347685Y301661D01*
X347726Y301659D01*
X347766Y301650D01*
X348161Y301626D01*
X349801Y301626D01*
X349842Y301629D01*
X349883Y301627D01*
X350092Y301649D01*
X350303Y301666D01*
X350342Y301675D01*
X350383Y301680D01*
X350587Y301735D01*
X350792Y301784D01*
X350830Y301800D01*
X350869Y301811D01*
X351062Y301898D01*
X351256Y301979D01*
X351291Y302001D01*
X351304Y302007D01*
X359704Y302007D01*
X366055Y295655D01*
X366066Y295646D01*
X366075Y295636D01*
X366085Y295627D01*
X366094Y295617D01*
X366268Y295474D01*
X366439Y295328D01*
X366451Y295321D01*
X366461Y295312D01*
X366472Y295305D01*
X366483Y295297D01*
X366676Y295183D01*
X366869Y295066D01*
X366882Y295061D01*
X366893Y295054D01*
X366905Y295049D01*
X366917Y295042D01*
X367126Y294961D01*
X367335Y294875D01*
X367348Y294872D01*
X367361Y294867D01*
X367374Y294864D01*
X367387Y294859D01*
X367606Y294812D01*
X367825Y294761D01*
X367839Y294760D01*
X367852Y294757D01*
X367865Y294756D01*
X367879Y294753D01*
X368103Y294741D01*
X368327Y294725D01*
X368341Y294726D01*
X368354Y294726D01*
X368368Y294727D01*
X368382Y294726D01*
X368604Y294750D01*
X368829Y294769D01*
X368842Y294773D01*
X368856Y294774D01*
X368869Y294778D01*
X368882Y294779D01*
X369098Y294837D01*
X369317Y294892D01*
X369330Y294898D01*
X369343Y294901D01*
X369355Y294907D01*
X369369Y294910D01*
X369574Y295003D01*
X369780Y295091D01*
X369791Y295098D01*
X369804Y295104D01*
X369815Y295111D01*
X369828Y295117D01*
X370016Y295241D01*
X370205Y295360D01*
X370215Y295369D01*
X370227Y295377D01*
X370237Y295386D01*
X370248Y295393D01*
X370545Y295655D01*
X370562Y295676D01*
X370583Y295694D01*
X370591Y295704D01*
X370602Y295713D01*
X370734Y295877D01*
X370871Y296038D01*
X370885Y296061D01*
X370903Y296082D01*
X370910Y296094D01*
X370918Y296105D01*
X371023Y296287D01*
X371133Y296468D01*
X371144Y296493D01*
X371157Y296517D01*
X371162Y296529D01*
X371169Y296541D01*
X371244Y296738D01*
X371324Y296934D01*
X371330Y296961D01*
X371340Y296986D01*
X371343Y296999D01*
X371348Y297012D01*
X371390Y297219D01*
X371439Y297424D01*
X371440Y297452D01*
X371446Y297478D01*
X371447Y297492D01*
X371450Y297505D01*
X371474Y297899D01*
X371474Y330939D01*
X371471Y330980D01*
X371473Y331021D01*
X371451Y331231D01*
X371434Y331441D01*
X371425Y331481D01*
X371420Y331522D01*
X371365Y331726D01*
X371316Y331931D01*
X371300Y331968D01*
X371289Y332008D01*
X371202Y332201D01*
X371121Y332395D01*
X371099Y332430D01*
X371082Y332467D01*
X370966Y332644D01*
X370855Y332823D01*
X370828Y332854D01*
X370806Y332888D01*
X370545Y333184D01*
X306859Y396869D01*
X306727Y396982D01*
X306601Y397101D01*
X306536Y397145D01*
X306476Y397196D01*
X306328Y397286D01*
X306184Y397384D01*
X306101Y397425D01*
X306046Y397458D01*
X305964Y397491D01*
X305830Y397557D01*
X301828Y399215D01*
X298615Y402428D01*
X296875Y406627D01*
X296875Y411173D01*
X298615Y415372D01*
X301828Y418585D01*
X306027Y420325D01*
X310573Y420325D01*
X314772Y418585D01*
X317985Y415372D01*
X319643Y411370D01*
X319722Y411216D01*
X319793Y411057D01*
X319836Y410992D01*
X319872Y410922D01*
X319974Y410782D01*
X320070Y410637D01*
X320131Y410567D01*
X320169Y410515D01*
X320232Y410453D01*
X320331Y410341D01*
X385949Y344722D01*
X389076Y341596D01*
X390526Y338095D01*
X390526Y297899D01*
X390529Y297858D01*
X390527Y297818D01*
X390549Y297608D01*
X390566Y297397D01*
X390575Y297358D01*
X390580Y297317D01*
X390635Y297113D01*
X390684Y296908D01*
X390700Y296870D01*
X390711Y296831D01*
X390798Y296638D01*
X390879Y296444D01*
X390901Y296409D01*
X390907Y296396D01*
X390907Y287996D01*
X390820Y287910D01*
X390794Y287879D01*
X390763Y287852D01*
X390631Y287688D01*
X390494Y287527D01*
X390472Y287492D01*
X390447Y287460D01*
X390342Y287278D01*
X390232Y287097D01*
X390216Y287059D01*
X390196Y287024D01*
X390121Y286827D01*
X390041Y286631D01*
X390032Y286591D01*
X390017Y286553D01*
X389975Y286346D01*
X389926Y286141D01*
X389924Y286100D01*
X389915Y286060D01*
X389891Y285666D01*
X389891Y258997D01*
X389894Y258957D01*
X389892Y258916D01*
X389914Y258706D01*
X389931Y258496D01*
X389940Y258456D01*
X389945Y258415D01*
X390000Y258211D01*
X390049Y258006D01*
X390065Y257969D01*
X390076Y257929D01*
X390163Y257736D01*
X390244Y257542D01*
X390266Y257507D01*
X390283Y257470D01*
X390399Y257293D01*
X390510Y257114D01*
X390537Y257083D01*
X390559Y257049D01*
X390820Y256753D01*
X409153Y238420D01*
X409184Y238394D01*
X409211Y238363D01*
X409376Y238231D01*
X409536Y238094D01*
X409571Y238072D01*
X409603Y238047D01*
X409785Y237942D01*
X409966Y237832D01*
X410004Y237816D01*
X410039Y237796D01*
X410236Y237721D01*
X410432Y237641D01*
X410472Y237632D01*
X410510Y237617D01*
X410717Y237575D01*
X410922Y237526D01*
X410963Y237524D01*
X411003Y237515D01*
X411397Y237491D01*
X725668Y237491D01*
X728936Y236137D01*
X756837Y208236D01*
X758191Y204968D01*
X758191Y163332D01*
X756837Y160064D01*
X754336Y157563D01*
X751068Y156209D01*
X747532Y156209D01*
G37*
%LPD*%
%LPC*%
G36*
X772932Y156209D02*
X772932Y156209D01*
X769664Y157563D01*
X767163Y160064D01*
X765809Y163332D01*
X765809Y210903D01*
X765807Y210929D01*
X765809Y210955D01*
X765807Y210969D01*
X765808Y210984D01*
X765786Y211194D01*
X765769Y211404D01*
X765763Y211432D01*
X765760Y211456D01*
X765757Y211468D01*
X765755Y211485D01*
X765700Y211689D01*
X765651Y211894D01*
X765639Y211922D01*
X765633Y211943D01*
X765629Y211953D01*
X765624Y211971D01*
X765537Y212164D01*
X765456Y212358D01*
X765438Y212386D01*
X765430Y212404D01*
X765426Y212411D01*
X765417Y212430D01*
X765301Y212607D01*
X765190Y212786D01*
X765167Y212812D01*
X765157Y212827D01*
X765153Y212832D01*
X765141Y212851D01*
X764880Y213147D01*
X733847Y244180D01*
X733816Y244206D01*
X733789Y244237D01*
X733624Y244369D01*
X733464Y244506D01*
X733429Y244528D01*
X733397Y244553D01*
X733215Y244658D01*
X733034Y244768D01*
X732996Y244784D01*
X732960Y244804D01*
X732764Y244879D01*
X732568Y244959D01*
X732528Y244968D01*
X732490Y244983D01*
X732283Y245025D01*
X732078Y245074D01*
X732037Y245076D01*
X731997Y245085D01*
X731603Y245109D01*
X607832Y245109D01*
X604564Y246463D01*
X589363Y261664D01*
X588009Y264932D01*
X588009Y285666D01*
X588006Y285707D01*
X588008Y285747D01*
X587986Y285957D01*
X587969Y286168D01*
X587960Y286207D01*
X587955Y286248D01*
X587900Y286452D01*
X587851Y286657D01*
X587835Y286695D01*
X587824Y286734D01*
X587737Y286927D01*
X587656Y287121D01*
X587634Y287156D01*
X587617Y287193D01*
X587501Y287370D01*
X587390Y287549D01*
X587363Y287580D01*
X587341Y287614D01*
X587080Y287910D01*
X586445Y288545D01*
X586424Y288563D01*
X586406Y288583D01*
X586232Y288726D01*
X586061Y288872D01*
X586038Y288886D01*
X586017Y288903D01*
X585824Y289017D01*
X585631Y289134D01*
X585606Y289144D01*
X585583Y289158D01*
X585374Y289239D01*
X585165Y289325D01*
X585139Y289331D01*
X585113Y289341D01*
X584894Y289388D01*
X584675Y289439D01*
X584648Y289441D01*
X584621Y289447D01*
X584397Y289459D01*
X584173Y289475D01*
X584146Y289472D01*
X584118Y289474D01*
X583896Y289450D01*
X583671Y289431D01*
X583645Y289424D01*
X583618Y289421D01*
X583402Y289363D01*
X583183Y289308D01*
X583158Y289297D01*
X583131Y289290D01*
X582927Y289198D01*
X582720Y289109D01*
X582697Y289094D01*
X582672Y289083D01*
X582485Y288960D01*
X582295Y288840D01*
X582274Y288822D01*
X582251Y288807D01*
X581955Y288545D01*
X575604Y282193D01*
X567198Y282193D01*
X567132Y282233D01*
X567094Y282249D01*
X567059Y282269D01*
X566862Y282344D01*
X566666Y282424D01*
X566626Y282433D01*
X566588Y282448D01*
X566382Y282490D01*
X566176Y282539D01*
X566135Y282541D01*
X566095Y282550D01*
X565701Y282574D01*
X556905Y282574D01*
X553404Y284024D01*
X538024Y299404D01*
X536574Y302905D01*
X536574Y344795D01*
X538024Y348296D01*
X540704Y350976D01*
X544205Y352426D01*
X547995Y352426D01*
X551496Y350976D01*
X554176Y348296D01*
X555626Y344795D01*
X555626Y310061D01*
X555629Y310020D01*
X555627Y309979D01*
X555649Y309769D01*
X555666Y309559D01*
X555675Y309519D01*
X555680Y309478D01*
X555735Y309274D01*
X555784Y309069D01*
X555800Y309032D01*
X555811Y308992D01*
X555898Y308799D01*
X555979Y308605D01*
X556001Y308570D01*
X556018Y308533D01*
X556134Y308356D01*
X556245Y308177D01*
X556272Y308146D01*
X556294Y308112D01*
X556555Y307816D01*
X561816Y302555D01*
X561847Y302529D01*
X561874Y302498D01*
X562039Y302366D01*
X562199Y302229D01*
X562234Y302207D01*
X562266Y302182D01*
X562448Y302077D01*
X562629Y301967D01*
X562667Y301951D01*
X562703Y301931D01*
X562899Y301856D01*
X563095Y301776D01*
X563135Y301767D01*
X563173Y301752D01*
X563380Y301710D01*
X563585Y301661D01*
X563626Y301659D01*
X563666Y301650D01*
X564061Y301626D01*
X565701Y301626D01*
X565742Y301629D01*
X565783Y301627D01*
X565992Y301649D01*
X566203Y301666D01*
X566242Y301675D01*
X566283Y301680D01*
X566487Y301735D01*
X566692Y301784D01*
X566730Y301800D01*
X566769Y301811D01*
X566962Y301898D01*
X567156Y301979D01*
X567191Y302001D01*
X567204Y302007D01*
X575604Y302007D01*
X581955Y295655D01*
X581966Y295646D01*
X581975Y295636D01*
X581985Y295627D01*
X581994Y295617D01*
X582168Y295474D01*
X582339Y295328D01*
X582351Y295321D01*
X582361Y295312D01*
X582372Y295305D01*
X582383Y295297D01*
X582576Y295183D01*
X582769Y295066D01*
X582782Y295061D01*
X582793Y295054D01*
X582805Y295049D01*
X582817Y295042D01*
X583026Y294961D01*
X583235Y294875D01*
X583248Y294872D01*
X583261Y294867D01*
X583274Y294864D01*
X583287Y294859D01*
X583506Y294812D01*
X583725Y294761D01*
X583739Y294760D01*
X583752Y294757D01*
X583765Y294756D01*
X583779Y294753D01*
X584003Y294741D01*
X584227Y294725D01*
X584241Y294726D01*
X584254Y294726D01*
X584268Y294727D01*
X584282Y294726D01*
X584504Y294750D01*
X584729Y294769D01*
X584742Y294773D01*
X584756Y294774D01*
X584769Y294778D01*
X584782Y294779D01*
X584998Y294837D01*
X585217Y294892D01*
X585230Y294898D01*
X585243Y294901D01*
X585255Y294907D01*
X585269Y294910D01*
X585474Y295003D01*
X585680Y295091D01*
X585691Y295098D01*
X585704Y295104D01*
X585715Y295111D01*
X585728Y295117D01*
X585916Y295241D01*
X586105Y295360D01*
X586115Y295369D01*
X586127Y295377D01*
X586137Y295386D01*
X586148Y295393D01*
X586445Y295655D01*
X586462Y295676D01*
X586483Y295694D01*
X586491Y295704D01*
X586502Y295713D01*
X586634Y295877D01*
X586771Y296038D01*
X586785Y296061D01*
X586803Y296082D01*
X586810Y296094D01*
X586818Y296105D01*
X586923Y296287D01*
X587033Y296468D01*
X587044Y296493D01*
X587057Y296517D01*
X587062Y296529D01*
X587069Y296541D01*
X587144Y296738D01*
X587224Y296934D01*
X587230Y296961D01*
X587240Y296986D01*
X587243Y296999D01*
X587248Y297012D01*
X587290Y297219D01*
X587339Y297424D01*
X587340Y297452D01*
X587346Y297478D01*
X587347Y297492D01*
X587350Y297505D01*
X587374Y297899D01*
X587374Y330939D01*
X587371Y330980D01*
X587373Y331021D01*
X587351Y331231D01*
X587334Y331441D01*
X587325Y331481D01*
X587320Y331522D01*
X587265Y331726D01*
X587216Y331931D01*
X587200Y331968D01*
X587189Y332008D01*
X587102Y332201D01*
X587021Y332395D01*
X586999Y332430D01*
X586982Y332467D01*
X586866Y332644D01*
X586755Y332823D01*
X586728Y332854D01*
X586706Y332888D01*
X586445Y333184D01*
X522759Y396869D01*
X522627Y396982D01*
X522501Y397101D01*
X522436Y397145D01*
X522376Y397196D01*
X522228Y397286D01*
X522084Y397384D01*
X522001Y397425D01*
X521946Y397458D01*
X521864Y397491D01*
X521730Y397557D01*
X517728Y399215D01*
X514515Y402428D01*
X512775Y406627D01*
X512775Y411173D01*
X514515Y415372D01*
X517728Y418585D01*
X521927Y420325D01*
X526473Y420325D01*
X530672Y418585D01*
X533885Y415372D01*
X535543Y411370D01*
X535622Y411216D01*
X535693Y411057D01*
X535736Y410992D01*
X535772Y410922D01*
X535874Y410782D01*
X535970Y410637D01*
X536031Y410567D01*
X536069Y410515D01*
X536132Y410453D01*
X536231Y410341D01*
X601849Y344722D01*
X604976Y341596D01*
X606426Y338095D01*
X606426Y297899D01*
X606429Y297858D01*
X606427Y297818D01*
X606449Y297608D01*
X606466Y297397D01*
X606475Y297358D01*
X606480Y297317D01*
X606535Y297113D01*
X606584Y296908D01*
X606600Y296870D01*
X606611Y296831D01*
X606698Y296638D01*
X606779Y296444D01*
X606801Y296409D01*
X606807Y296396D01*
X606807Y287996D01*
X606720Y287910D01*
X606694Y287879D01*
X606663Y287852D01*
X606531Y287688D01*
X606394Y287527D01*
X606372Y287492D01*
X606347Y287460D01*
X606242Y287278D01*
X606132Y287097D01*
X606116Y287059D01*
X606096Y287024D01*
X606021Y286827D01*
X605941Y286631D01*
X605932Y286591D01*
X605917Y286553D01*
X605875Y286346D01*
X605826Y286141D01*
X605824Y286100D01*
X605815Y286060D01*
X605791Y285666D01*
X605791Y271697D01*
X605794Y271657D01*
X605792Y271616D01*
X605814Y271406D01*
X605831Y271196D01*
X605840Y271156D01*
X605845Y271115D01*
X605900Y270911D01*
X605949Y270706D01*
X605965Y270669D01*
X605976Y270629D01*
X606063Y270436D01*
X606144Y270242D01*
X606166Y270207D01*
X606183Y270170D01*
X606299Y269993D01*
X606410Y269814D01*
X606437Y269783D01*
X606459Y269749D01*
X606720Y269453D01*
X612353Y263820D01*
X612384Y263794D01*
X612411Y263763D01*
X612576Y263631D01*
X612736Y263494D01*
X612771Y263472D01*
X612803Y263447D01*
X612985Y263342D01*
X613166Y263232D01*
X613204Y263216D01*
X613240Y263196D01*
X613436Y263121D01*
X613632Y263041D01*
X613672Y263032D01*
X613710Y263017D01*
X613917Y262975D01*
X614122Y262926D01*
X614163Y262924D01*
X614203Y262915D01*
X614597Y262891D01*
X738368Y262891D01*
X741636Y261537D01*
X782237Y220936D01*
X783591Y217668D01*
X783591Y163332D01*
X782237Y160064D01*
X779736Y157563D01*
X776468Y156209D01*
X772932Y156209D01*
G37*
%LPD*%
%LPC*%
G36*
X798332Y156209D02*
X798332Y156209D01*
X795064Y157563D01*
X792563Y160064D01*
X791209Y163332D01*
X791209Y217668D01*
X792563Y220936D01*
X802980Y231353D01*
X803006Y231384D01*
X803037Y231411D01*
X803169Y231576D01*
X803306Y231736D01*
X803328Y231771D01*
X803353Y231803D01*
X803458Y231985D01*
X803568Y232166D01*
X803584Y232204D01*
X803604Y232240D01*
X803679Y232436D01*
X803759Y232632D01*
X803768Y232672D01*
X803783Y232710D01*
X803825Y232917D01*
X803874Y233122D01*
X803876Y233163D01*
X803885Y233203D01*
X803909Y233597D01*
X803909Y285666D01*
X803906Y285707D01*
X803908Y285747D01*
X803886Y285957D01*
X803869Y286168D01*
X803860Y286207D01*
X803855Y286248D01*
X803800Y286452D01*
X803751Y286657D01*
X803735Y286695D01*
X803724Y286734D01*
X803637Y286927D01*
X803556Y287121D01*
X803534Y287156D01*
X803517Y287194D01*
X803402Y287370D01*
X803290Y287549D01*
X803263Y287580D01*
X803241Y287614D01*
X802979Y287910D01*
X802344Y288545D01*
X802324Y288563D01*
X802306Y288583D01*
X802133Y288726D01*
X801961Y288872D01*
X801938Y288886D01*
X801917Y288903D01*
X801724Y289017D01*
X801531Y289134D01*
X801506Y289144D01*
X801483Y289158D01*
X801274Y289239D01*
X801065Y289325D01*
X801039Y289331D01*
X801013Y289341D01*
X800795Y289388D01*
X800575Y289439D01*
X800548Y289441D01*
X800521Y289447D01*
X800297Y289459D01*
X800073Y289475D01*
X800045Y289472D01*
X800018Y289474D01*
X799795Y289450D01*
X799571Y289431D01*
X799545Y289424D01*
X799518Y289421D01*
X799301Y289363D01*
X799083Y289308D01*
X799058Y289297D01*
X799031Y289290D01*
X798827Y289198D01*
X798620Y289109D01*
X798597Y289094D01*
X798572Y289083D01*
X798384Y288960D01*
X798195Y288840D01*
X798174Y288822D01*
X798151Y288807D01*
X797855Y288545D01*
X791504Y282193D01*
X783098Y282193D01*
X783032Y282233D01*
X782994Y282249D01*
X782959Y282269D01*
X782762Y282344D01*
X782566Y282424D01*
X782526Y282433D01*
X782488Y282448D01*
X782281Y282490D01*
X782076Y282539D01*
X782035Y282541D01*
X781995Y282550D01*
X781601Y282574D01*
X772805Y282574D01*
X769304Y284024D01*
X753924Y299404D01*
X752474Y302905D01*
X752474Y344795D01*
X753924Y348296D01*
X756604Y350976D01*
X760105Y352426D01*
X763895Y352426D01*
X767396Y350976D01*
X770076Y348296D01*
X771526Y344795D01*
X771526Y310061D01*
X771529Y310020D01*
X771527Y309979D01*
X771549Y309769D01*
X771566Y309559D01*
X771575Y309519D01*
X771580Y309478D01*
X771635Y309274D01*
X771684Y309069D01*
X771700Y309032D01*
X771711Y308992D01*
X771798Y308799D01*
X771879Y308605D01*
X771901Y308570D01*
X771918Y308533D01*
X772034Y308356D01*
X772145Y308177D01*
X772172Y308146D01*
X772194Y308112D01*
X772455Y307816D01*
X777716Y302555D01*
X777747Y302529D01*
X777774Y302498D01*
X777939Y302366D01*
X778099Y302229D01*
X778134Y302207D01*
X778166Y302182D01*
X778348Y302077D01*
X778529Y301967D01*
X778567Y301951D01*
X778603Y301931D01*
X778799Y301856D01*
X778995Y301776D01*
X779035Y301767D01*
X779073Y301752D01*
X779280Y301710D01*
X779485Y301661D01*
X779526Y301659D01*
X779566Y301650D01*
X779961Y301626D01*
X781601Y301626D01*
X781642Y301629D01*
X781682Y301627D01*
X781892Y301649D01*
X782103Y301666D01*
X782142Y301675D01*
X782183Y301680D01*
X782387Y301735D01*
X782592Y301784D01*
X782630Y301800D01*
X782669Y301811D01*
X782862Y301898D01*
X783056Y301979D01*
X783091Y302001D01*
X783104Y302007D01*
X791504Y302007D01*
X797855Y295655D01*
X797866Y295646D01*
X797875Y295636D01*
X797896Y295618D01*
X797914Y295598D01*
X798078Y295465D01*
X798239Y295328D01*
X798250Y295321D01*
X798261Y295312D01*
X798284Y295298D01*
X798305Y295281D01*
X798488Y295176D01*
X798669Y295066D01*
X798681Y295061D01*
X798693Y295054D01*
X798718Y295044D01*
X798742Y295030D01*
X798939Y294956D01*
X799135Y294875D01*
X799148Y294872D01*
X799161Y294867D01*
X799187Y294861D01*
X799213Y294852D01*
X799419Y294809D01*
X799625Y294761D01*
X799639Y294760D01*
X799652Y294757D01*
X799679Y294755D01*
X799706Y294750D01*
X800100Y294725D01*
X800114Y294726D01*
X800127Y294725D01*
X800141Y294726D01*
X800154Y294726D01*
X800378Y294747D01*
X800602Y294765D01*
X800615Y294768D01*
X800629Y294769D01*
X800642Y294773D01*
X800656Y294774D01*
X800874Y294831D01*
X801091Y294884D01*
X801104Y294889D01*
X801117Y294892D01*
X801130Y294898D01*
X801143Y294901D01*
X801349Y294992D01*
X801556Y295078D01*
X801567Y295086D01*
X801580Y295091D01*
X801591Y295098D01*
X801604Y295104D01*
X801793Y295226D01*
X801983Y295344D01*
X801994Y295353D01*
X802005Y295360D01*
X802015Y295369D01*
X802027Y295377D01*
X802194Y295527D01*
X802364Y295674D01*
X802373Y295685D01*
X802383Y295694D01*
X802391Y295704D01*
X802402Y295713D01*
X802543Y295888D01*
X802687Y296060D01*
X802694Y296072D01*
X802703Y296082D01*
X802710Y296094D01*
X802718Y296105D01*
X802830Y296299D01*
X802945Y296492D01*
X802951Y296505D01*
X802957Y296517D01*
X802962Y296529D01*
X802969Y296541D01*
X803049Y296751D01*
X803132Y296960D01*
X803135Y296973D01*
X803140Y296986D01*
X803143Y296999D01*
X803148Y297012D01*
X803193Y297232D01*
X803242Y297451D01*
X803243Y297465D01*
X803246Y297478D01*
X803247Y297492D01*
X803250Y297505D01*
X803274Y297899D01*
X803274Y330939D01*
X803271Y330980D01*
X803273Y331021D01*
X803251Y331231D01*
X803234Y331441D01*
X803225Y331481D01*
X803220Y331522D01*
X803165Y331726D01*
X803116Y331931D01*
X803100Y331968D01*
X803089Y332008D01*
X803002Y332201D01*
X802921Y332395D01*
X802899Y332430D01*
X802882Y332467D01*
X802766Y332644D01*
X802655Y332823D01*
X802628Y332854D01*
X802606Y332888D01*
X802345Y333184D01*
X738659Y396869D01*
X738527Y396982D01*
X738401Y397101D01*
X738336Y397145D01*
X738276Y397196D01*
X738128Y397286D01*
X737984Y397384D01*
X737901Y397424D01*
X737846Y397458D01*
X737764Y397491D01*
X737630Y397557D01*
X733628Y399215D01*
X730415Y402428D01*
X728675Y406627D01*
X728675Y411173D01*
X730415Y415372D01*
X733628Y418585D01*
X737827Y420325D01*
X742373Y420325D01*
X746572Y418585D01*
X749785Y415372D01*
X751443Y411370D01*
X751522Y411216D01*
X751593Y411057D01*
X751636Y410992D01*
X751672Y410922D01*
X751774Y410782D01*
X751870Y410637D01*
X751931Y410567D01*
X751969Y410515D01*
X752032Y410453D01*
X752131Y410341D01*
X817749Y344722D01*
X820876Y341596D01*
X822326Y338095D01*
X822326Y297899D01*
X822329Y297858D01*
X822327Y297817D01*
X822349Y297608D01*
X822366Y297397D01*
X822375Y297358D01*
X822380Y297317D01*
X822435Y297113D01*
X822484Y296908D01*
X822500Y296870D01*
X822511Y296831D01*
X822598Y296638D01*
X822679Y296444D01*
X822701Y296409D01*
X822707Y296396D01*
X822707Y287997D01*
X822620Y287910D01*
X822594Y287879D01*
X822563Y287852D01*
X822431Y287687D01*
X822294Y287527D01*
X822272Y287492D01*
X822247Y287460D01*
X822142Y287277D01*
X822032Y287097D01*
X822016Y287059D01*
X821996Y287024D01*
X821921Y286826D01*
X821841Y286631D01*
X821832Y286591D01*
X821817Y286553D01*
X821774Y286346D01*
X821726Y286141D01*
X821724Y286100D01*
X821715Y286060D01*
X821691Y285666D01*
X821691Y226832D01*
X820337Y223564D01*
X809920Y213147D01*
X809905Y213129D01*
X809901Y213126D01*
X809891Y213113D01*
X809863Y213089D01*
X809731Y212924D01*
X809594Y212764D01*
X809582Y212745D01*
X809578Y212740D01*
X809569Y212724D01*
X809547Y212697D01*
X809442Y212515D01*
X809332Y212334D01*
X809324Y212315D01*
X809320Y212307D01*
X809312Y212289D01*
X809296Y212260D01*
X809221Y212064D01*
X809141Y211868D01*
X809137Y211850D01*
X809133Y211840D01*
X809128Y211818D01*
X809117Y211790D01*
X809075Y211583D01*
X809026Y211378D01*
X809025Y211361D01*
X809023Y211349D01*
X809021Y211324D01*
X809015Y211297D01*
X808991Y210903D01*
X808991Y163332D01*
X807637Y160064D01*
X805136Y157563D01*
X801868Y156209D01*
X798332Y156209D01*
G37*
%LPD*%
%LPC*%
G36*
X1013772Y377700D02*
X1013772Y377700D01*
X1009656Y379405D01*
X1006505Y382556D01*
X1004800Y386672D01*
X1004800Y391128D01*
X1005344Y392440D01*
X1005397Y392605D01*
X1005459Y392767D01*
X1005475Y392844D01*
X1005499Y392919D01*
X1005526Y393090D01*
X1005561Y393260D01*
X1005566Y393353D01*
X1005576Y393416D01*
X1005576Y393505D01*
X1005585Y393654D01*
X1005585Y632010D01*
X1005571Y632183D01*
X1005566Y632356D01*
X1005552Y632433D01*
X1005545Y632511D01*
X1005504Y632680D01*
X1005475Y632832D01*
X1005475Y637094D01*
X1007078Y640962D01*
X1010038Y643922D01*
X1013906Y645525D01*
X1018094Y645525D01*
X1021962Y643922D01*
X1024922Y640962D01*
X1026525Y637094D01*
X1026525Y632818D01*
X1026501Y632745D01*
X1026474Y632574D01*
X1026439Y632404D01*
X1026434Y632311D01*
X1026424Y632248D01*
X1026424Y632159D01*
X1026415Y632010D01*
X1026415Y393654D01*
X1026429Y393481D01*
X1026434Y393308D01*
X1026448Y393231D01*
X1026455Y393152D01*
X1026496Y392984D01*
X1026528Y392813D01*
X1026558Y392725D01*
X1026573Y392663D01*
X1026608Y392582D01*
X1026656Y392440D01*
X1027200Y391128D01*
X1027200Y386672D01*
X1025495Y382556D01*
X1022344Y379405D01*
X1018228Y377700D01*
X1013772Y377700D01*
G37*
%LPD*%
%LPC*%
G36*
X366072Y377700D02*
X366072Y377700D01*
X361956Y379405D01*
X358805Y382556D01*
X357100Y386672D01*
X357100Y391128D01*
X357644Y392440D01*
X357697Y392605D01*
X357759Y392767D01*
X357775Y392844D01*
X357799Y392919D01*
X357826Y393090D01*
X357861Y393260D01*
X357866Y393353D01*
X357876Y393416D01*
X357876Y393505D01*
X357885Y393654D01*
X357885Y632010D01*
X357871Y632183D01*
X357866Y632356D01*
X357852Y632433D01*
X357845Y632511D01*
X357804Y632680D01*
X357775Y632832D01*
X357775Y637094D01*
X359378Y640962D01*
X362338Y643922D01*
X366206Y645525D01*
X370394Y645525D01*
X374262Y643922D01*
X377222Y640962D01*
X378825Y637094D01*
X378825Y632818D01*
X378801Y632745D01*
X378774Y632574D01*
X378739Y632404D01*
X378734Y632311D01*
X378724Y632248D01*
X378724Y632159D01*
X378715Y632010D01*
X378715Y393654D01*
X378729Y393481D01*
X378734Y393308D01*
X378748Y393231D01*
X378755Y393152D01*
X378796Y392984D01*
X378828Y392813D01*
X378858Y392725D01*
X378873Y392663D01*
X378908Y392582D01*
X378956Y392440D01*
X379500Y391128D01*
X379500Y386672D01*
X377795Y382556D01*
X374644Y379405D01*
X370528Y377700D01*
X366072Y377700D01*
G37*
%LPD*%
%LPC*%
G36*
X150172Y377700D02*
X150172Y377700D01*
X146056Y379405D01*
X142905Y382556D01*
X141200Y386672D01*
X141200Y391128D01*
X141744Y392440D01*
X141797Y392605D01*
X141859Y392767D01*
X141875Y392844D01*
X141899Y392919D01*
X141926Y393090D01*
X141961Y393260D01*
X141966Y393353D01*
X141976Y393416D01*
X141976Y393505D01*
X141985Y393654D01*
X141985Y632010D01*
X141971Y632183D01*
X141966Y632356D01*
X141952Y632433D01*
X141945Y632511D01*
X141904Y632680D01*
X141875Y632832D01*
X141875Y637094D01*
X143478Y640962D01*
X146438Y643922D01*
X150306Y645525D01*
X154494Y645525D01*
X158362Y643922D01*
X161322Y640962D01*
X162925Y637094D01*
X162925Y632818D01*
X162901Y632745D01*
X162874Y632574D01*
X162839Y632404D01*
X162834Y632311D01*
X162824Y632248D01*
X162824Y632159D01*
X162815Y632010D01*
X162815Y393654D01*
X162829Y393481D01*
X162834Y393308D01*
X162848Y393231D01*
X162855Y393152D01*
X162896Y392984D01*
X162928Y392813D01*
X162958Y392725D01*
X162973Y392663D01*
X163008Y392582D01*
X163056Y392440D01*
X163600Y391128D01*
X163600Y386672D01*
X161895Y382556D01*
X158744Y379405D01*
X154628Y377700D01*
X150172Y377700D01*
G37*
%LPD*%
%LPC*%
G36*
X1445572Y377700D02*
X1445572Y377700D01*
X1441456Y379405D01*
X1438305Y382556D01*
X1436600Y386672D01*
X1436600Y391128D01*
X1437144Y392440D01*
X1437197Y392605D01*
X1437259Y392767D01*
X1437275Y392844D01*
X1437299Y392919D01*
X1437326Y393090D01*
X1437361Y393260D01*
X1437366Y393353D01*
X1437376Y393416D01*
X1437376Y393505D01*
X1437385Y393654D01*
X1437385Y632010D01*
X1437371Y632183D01*
X1437366Y632356D01*
X1437352Y632433D01*
X1437345Y632511D01*
X1437304Y632680D01*
X1437275Y632832D01*
X1437275Y637094D01*
X1438878Y640962D01*
X1441838Y643922D01*
X1445706Y645525D01*
X1449894Y645525D01*
X1453762Y643922D01*
X1456722Y640962D01*
X1458325Y637094D01*
X1458325Y632818D01*
X1458301Y632745D01*
X1458274Y632574D01*
X1458239Y632404D01*
X1458234Y632311D01*
X1458224Y632248D01*
X1458224Y632159D01*
X1458215Y632010D01*
X1458215Y393654D01*
X1458229Y393481D01*
X1458234Y393308D01*
X1458248Y393231D01*
X1458255Y393152D01*
X1458296Y392984D01*
X1458328Y392813D01*
X1458358Y392725D01*
X1458373Y392663D01*
X1458408Y392582D01*
X1458456Y392440D01*
X1459000Y391128D01*
X1459000Y386672D01*
X1457295Y382556D01*
X1454144Y379405D01*
X1450028Y377700D01*
X1445572Y377700D01*
G37*
%LPD*%
%LPC*%
G36*
X797872Y377700D02*
X797872Y377700D01*
X793756Y379405D01*
X790605Y382556D01*
X788900Y386672D01*
X788900Y391128D01*
X789444Y392440D01*
X789497Y392605D01*
X789559Y392767D01*
X789575Y392844D01*
X789599Y392919D01*
X789626Y393090D01*
X789661Y393260D01*
X789666Y393353D01*
X789676Y393416D01*
X789676Y393505D01*
X789685Y393654D01*
X789685Y632010D01*
X789671Y632183D01*
X789666Y632356D01*
X789652Y632433D01*
X789645Y632511D01*
X789604Y632680D01*
X789575Y632832D01*
X789575Y637094D01*
X791178Y640962D01*
X794138Y643922D01*
X798006Y645525D01*
X802194Y645525D01*
X806062Y643922D01*
X809022Y640962D01*
X810625Y637094D01*
X810625Y632818D01*
X810601Y632745D01*
X810574Y632574D01*
X810539Y632404D01*
X810534Y632311D01*
X810524Y632248D01*
X810524Y632159D01*
X810515Y632010D01*
X810515Y393654D01*
X810529Y393481D01*
X810534Y393308D01*
X810548Y393231D01*
X810555Y393152D01*
X810596Y392984D01*
X810628Y392813D01*
X810658Y392725D01*
X810673Y392663D01*
X810708Y392582D01*
X810756Y392440D01*
X811300Y391128D01*
X811300Y386672D01*
X809595Y382556D01*
X806444Y379405D01*
X802328Y377700D01*
X797872Y377700D01*
G37*
%LPD*%
%LPC*%
G36*
X581972Y377700D02*
X581972Y377700D01*
X577856Y379405D01*
X574705Y382556D01*
X573000Y386672D01*
X573000Y391128D01*
X573544Y392440D01*
X573597Y392605D01*
X573659Y392767D01*
X573675Y392844D01*
X573699Y392919D01*
X573726Y393090D01*
X573761Y393260D01*
X573766Y393353D01*
X573776Y393416D01*
X573776Y393505D01*
X573785Y393654D01*
X573785Y632010D01*
X573771Y632183D01*
X573766Y632356D01*
X573752Y632433D01*
X573745Y632511D01*
X573704Y632680D01*
X573675Y632832D01*
X573675Y637094D01*
X575278Y640962D01*
X578238Y643922D01*
X582106Y645525D01*
X586294Y645525D01*
X590162Y643922D01*
X593122Y640962D01*
X594725Y637094D01*
X594725Y632818D01*
X594701Y632745D01*
X594674Y632574D01*
X594639Y632404D01*
X594634Y632311D01*
X594624Y632248D01*
X594624Y632159D01*
X594615Y632010D01*
X594615Y393654D01*
X594629Y393481D01*
X594634Y393308D01*
X594648Y393231D01*
X594655Y393152D01*
X594696Y392984D01*
X594728Y392813D01*
X594758Y392725D01*
X594773Y392663D01*
X594808Y392582D01*
X594856Y392440D01*
X595400Y391128D01*
X595400Y386672D01*
X593695Y382556D01*
X590544Y379405D01*
X586428Y377700D01*
X581972Y377700D01*
G37*
%LPD*%
%LPC*%
G36*
X1229672Y377700D02*
X1229672Y377700D01*
X1225556Y379405D01*
X1222405Y382556D01*
X1220700Y386672D01*
X1220700Y391128D01*
X1221244Y392440D01*
X1221297Y392605D01*
X1221359Y392767D01*
X1221375Y392844D01*
X1221399Y392919D01*
X1221426Y393090D01*
X1221461Y393260D01*
X1221466Y393353D01*
X1221476Y393416D01*
X1221476Y393505D01*
X1221485Y393654D01*
X1221485Y632010D01*
X1221471Y632183D01*
X1221466Y632356D01*
X1221452Y632433D01*
X1221445Y632511D01*
X1221404Y632680D01*
X1221375Y632832D01*
X1221375Y637094D01*
X1222978Y640962D01*
X1225938Y643922D01*
X1229806Y645525D01*
X1233994Y645525D01*
X1237862Y643922D01*
X1240822Y640962D01*
X1242425Y637094D01*
X1242425Y632818D01*
X1242401Y632745D01*
X1242374Y632574D01*
X1242339Y632404D01*
X1242334Y632311D01*
X1242324Y632248D01*
X1242324Y632159D01*
X1242315Y632010D01*
X1242315Y393654D01*
X1242329Y393481D01*
X1242334Y393308D01*
X1242348Y393231D01*
X1242355Y393152D01*
X1242396Y392984D01*
X1242428Y392813D01*
X1242458Y392725D01*
X1242473Y392663D01*
X1242508Y392582D01*
X1242556Y392440D01*
X1243100Y391128D01*
X1243100Y386672D01*
X1241395Y382556D01*
X1238244Y379405D01*
X1234128Y377700D01*
X1229672Y377700D01*
G37*
%LPD*%
%LPC*%
G36*
X306027Y519475D02*
X306027Y519475D01*
X301828Y521215D01*
X298615Y524428D01*
X297846Y526283D01*
X297767Y526438D01*
X297696Y526596D01*
X297653Y526662D01*
X297617Y526732D01*
X297515Y526872D01*
X297419Y527017D01*
X297358Y527087D01*
X297320Y527138D01*
X297257Y527201D01*
X297158Y527313D01*
X295971Y528501D01*
X294385Y532328D01*
X294385Y624372D01*
X295971Y628199D01*
X308021Y640250D01*
X308134Y640382D01*
X308253Y640508D01*
X308297Y640573D01*
X308348Y640633D01*
X308438Y640781D01*
X308525Y640910D01*
X311538Y643922D01*
X315406Y645525D01*
X319594Y645525D01*
X323462Y643922D01*
X326422Y640962D01*
X328025Y637094D01*
X328025Y632906D01*
X326422Y629038D01*
X323399Y626015D01*
X323331Y625980D01*
X323191Y625878D01*
X323046Y625782D01*
X322976Y625721D01*
X322925Y625683D01*
X322862Y625620D01*
X322750Y625521D01*
X316144Y618916D01*
X316118Y618885D01*
X316087Y618857D01*
X315955Y618693D01*
X315818Y618533D01*
X315796Y618498D01*
X315771Y618466D01*
X315666Y618283D01*
X315556Y618103D01*
X315540Y618065D01*
X315520Y618029D01*
X315445Y617832D01*
X315365Y617637D01*
X315356Y617597D01*
X315341Y617558D01*
X315299Y617352D01*
X315250Y617146D01*
X315248Y617105D01*
X315239Y617065D01*
X315215Y616671D01*
X315215Y541457D01*
X315218Y541416D01*
X315216Y541375D01*
X315238Y541166D01*
X315255Y540955D01*
X315264Y540915D01*
X315269Y540875D01*
X315324Y540671D01*
X315373Y540466D01*
X315389Y540428D01*
X315400Y540389D01*
X315487Y540196D01*
X315568Y540001D01*
X315590Y539967D01*
X315607Y539929D01*
X315723Y539753D01*
X315834Y539574D01*
X315861Y539543D01*
X315883Y539509D01*
X316144Y539213D01*
X317985Y537372D01*
X319725Y533173D01*
X319725Y528627D01*
X317985Y524428D01*
X314772Y521215D01*
X310573Y519475D01*
X306027Y519475D01*
G37*
%LPD*%
%LPC*%
G36*
X1505527Y519475D02*
X1505527Y519475D01*
X1501328Y521215D01*
X1498115Y524428D01*
X1496375Y528627D01*
X1496375Y533172D01*
X1497144Y535027D01*
X1497197Y535193D01*
X1497259Y535355D01*
X1497275Y535432D01*
X1497299Y535506D01*
X1497326Y535678D01*
X1497361Y535848D01*
X1497366Y535941D01*
X1497376Y536004D01*
X1497376Y536093D01*
X1497385Y536242D01*
X1497385Y620171D01*
X1497382Y620212D01*
X1497384Y620253D01*
X1497362Y620462D01*
X1497345Y620673D01*
X1497336Y620713D01*
X1497331Y620754D01*
X1497276Y620957D01*
X1497227Y621163D01*
X1497211Y621200D01*
X1497200Y621240D01*
X1497113Y621433D01*
X1497032Y621627D01*
X1497010Y621662D01*
X1496993Y621699D01*
X1496877Y621876D01*
X1496766Y622055D01*
X1496739Y622086D01*
X1496717Y622120D01*
X1496456Y622416D01*
X1493350Y625521D01*
X1493218Y625634D01*
X1493092Y625753D01*
X1493027Y625797D01*
X1492967Y625848D01*
X1492819Y625938D01*
X1492691Y626025D01*
X1489678Y629038D01*
X1488075Y632906D01*
X1488075Y637094D01*
X1489678Y640962D01*
X1492638Y643922D01*
X1496506Y645525D01*
X1500694Y645525D01*
X1504562Y643922D01*
X1507585Y640899D01*
X1507620Y640831D01*
X1507722Y640691D01*
X1507818Y640546D01*
X1507879Y640476D01*
X1507917Y640425D01*
X1507980Y640362D01*
X1508079Y640250D01*
X1516629Y631699D01*
X1518215Y627872D01*
X1518215Y536242D01*
X1518229Y536069D01*
X1518234Y535896D01*
X1518248Y535819D01*
X1518255Y535740D01*
X1518296Y535572D01*
X1518328Y535401D01*
X1518358Y535313D01*
X1518373Y535251D01*
X1518408Y535170D01*
X1518456Y535027D01*
X1519225Y533172D01*
X1519225Y528627D01*
X1517485Y524428D01*
X1514272Y521215D01*
X1510073Y519475D01*
X1505527Y519475D01*
G37*
%LPD*%
%LPC*%
G36*
X1289627Y519475D02*
X1289627Y519475D01*
X1285428Y521215D01*
X1282215Y524428D01*
X1280475Y528627D01*
X1280475Y533172D01*
X1281244Y535027D01*
X1281297Y535193D01*
X1281359Y535355D01*
X1281375Y535432D01*
X1281399Y535506D01*
X1281426Y535678D01*
X1281461Y535848D01*
X1281466Y535941D01*
X1281476Y536004D01*
X1281476Y536093D01*
X1281485Y536242D01*
X1281485Y620171D01*
X1281482Y620212D01*
X1281484Y620253D01*
X1281462Y620462D01*
X1281445Y620673D01*
X1281436Y620713D01*
X1281431Y620754D01*
X1281376Y620957D01*
X1281327Y621163D01*
X1281311Y621200D01*
X1281300Y621240D01*
X1281213Y621433D01*
X1281132Y621627D01*
X1281110Y621662D01*
X1281093Y621699D01*
X1280977Y621876D01*
X1280866Y622055D01*
X1280839Y622086D01*
X1280817Y622120D01*
X1280556Y622416D01*
X1277450Y625521D01*
X1277318Y625634D01*
X1277192Y625753D01*
X1277127Y625797D01*
X1277067Y625848D01*
X1276919Y625938D01*
X1276791Y626025D01*
X1273778Y629038D01*
X1272175Y632906D01*
X1272175Y637094D01*
X1273778Y640962D01*
X1276738Y643922D01*
X1280606Y645525D01*
X1284794Y645525D01*
X1288662Y643922D01*
X1291685Y640899D01*
X1291720Y640831D01*
X1291822Y640691D01*
X1291918Y640546D01*
X1291979Y640476D01*
X1292017Y640425D01*
X1292080Y640362D01*
X1292179Y640250D01*
X1300729Y631699D01*
X1302315Y627872D01*
X1302315Y536242D01*
X1302329Y536069D01*
X1302334Y535896D01*
X1302348Y535819D01*
X1302355Y535740D01*
X1302396Y535572D01*
X1302428Y535401D01*
X1302458Y535313D01*
X1302473Y535251D01*
X1302508Y535170D01*
X1302556Y535027D01*
X1303325Y533172D01*
X1303325Y528627D01*
X1301585Y524428D01*
X1298372Y521215D01*
X1294173Y519475D01*
X1289627Y519475D01*
G37*
%LPD*%
%LPC*%
G36*
X1169627Y519475D02*
X1169627Y519475D01*
X1165428Y521215D01*
X1162215Y524428D01*
X1160475Y528627D01*
X1160475Y533172D01*
X1161244Y535027D01*
X1161297Y535193D01*
X1161359Y535355D01*
X1161375Y535432D01*
X1161399Y535506D01*
X1161426Y535678D01*
X1161461Y535848D01*
X1161466Y535941D01*
X1161476Y536004D01*
X1161476Y536093D01*
X1161485Y536242D01*
X1161485Y627872D01*
X1163071Y631699D01*
X1171621Y640250D01*
X1171734Y640382D01*
X1171853Y640508D01*
X1171897Y640573D01*
X1171948Y640633D01*
X1172038Y640781D01*
X1172125Y640909D01*
X1175138Y643922D01*
X1179006Y645525D01*
X1183194Y645525D01*
X1187062Y643922D01*
X1190022Y640962D01*
X1191625Y637094D01*
X1191625Y632906D01*
X1190022Y629038D01*
X1186999Y626015D01*
X1186931Y625980D01*
X1186791Y625878D01*
X1186646Y625782D01*
X1186576Y625721D01*
X1186525Y625683D01*
X1186462Y625620D01*
X1186350Y625521D01*
X1183244Y622416D01*
X1183218Y622385D01*
X1183187Y622357D01*
X1183055Y622193D01*
X1182918Y622033D01*
X1182896Y621998D01*
X1182871Y621966D01*
X1182766Y621783D01*
X1182656Y621603D01*
X1182640Y621565D01*
X1182620Y621529D01*
X1182545Y621333D01*
X1182465Y621137D01*
X1182456Y621097D01*
X1182441Y621058D01*
X1182399Y620852D01*
X1182350Y620646D01*
X1182348Y620605D01*
X1182339Y620565D01*
X1182315Y620171D01*
X1182315Y536242D01*
X1182329Y536069D01*
X1182334Y535896D01*
X1182348Y535819D01*
X1182355Y535740D01*
X1182396Y535572D01*
X1182428Y535401D01*
X1182458Y535313D01*
X1182473Y535251D01*
X1182508Y535170D01*
X1182556Y535027D01*
X1183325Y533172D01*
X1183325Y528627D01*
X1181585Y524428D01*
X1178372Y521215D01*
X1174173Y519475D01*
X1169627Y519475D01*
G37*
%LPD*%
%LPC*%
G36*
X1385527Y519475D02*
X1385527Y519475D01*
X1381328Y521215D01*
X1378115Y524428D01*
X1376375Y528627D01*
X1376375Y533172D01*
X1377144Y535027D01*
X1377197Y535193D01*
X1377259Y535355D01*
X1377275Y535432D01*
X1377299Y535506D01*
X1377326Y535678D01*
X1377361Y535848D01*
X1377366Y535941D01*
X1377376Y536004D01*
X1377376Y536093D01*
X1377385Y536242D01*
X1377385Y627872D01*
X1378971Y631699D01*
X1387521Y640250D01*
X1387634Y640382D01*
X1387753Y640508D01*
X1387797Y640573D01*
X1387848Y640633D01*
X1387938Y640781D01*
X1388025Y640909D01*
X1391038Y643922D01*
X1394906Y645525D01*
X1399094Y645525D01*
X1402962Y643922D01*
X1405922Y640962D01*
X1407525Y637094D01*
X1407525Y632906D01*
X1405922Y629038D01*
X1402899Y626015D01*
X1402831Y625980D01*
X1402691Y625878D01*
X1402546Y625782D01*
X1402476Y625721D01*
X1402425Y625683D01*
X1402362Y625620D01*
X1402250Y625521D01*
X1399144Y622416D01*
X1399118Y622385D01*
X1399087Y622357D01*
X1398955Y622193D01*
X1398818Y622033D01*
X1398796Y621998D01*
X1398771Y621966D01*
X1398666Y621783D01*
X1398556Y621603D01*
X1398540Y621565D01*
X1398520Y621529D01*
X1398445Y621333D01*
X1398365Y621137D01*
X1398356Y621097D01*
X1398341Y621058D01*
X1398299Y620852D01*
X1398250Y620646D01*
X1398248Y620605D01*
X1398239Y620565D01*
X1398215Y620171D01*
X1398215Y536242D01*
X1398229Y536069D01*
X1398234Y535896D01*
X1398248Y535819D01*
X1398255Y535740D01*
X1398296Y535572D01*
X1398328Y535401D01*
X1398358Y535313D01*
X1398373Y535251D01*
X1398408Y535170D01*
X1398456Y535027D01*
X1399225Y533172D01*
X1399225Y528627D01*
X1397485Y524428D01*
X1394272Y521215D01*
X1390073Y519475D01*
X1385527Y519475D01*
G37*
%LPD*%
%LPC*%
G36*
X90127Y519475D02*
X90127Y519475D01*
X85928Y521215D01*
X82715Y524428D01*
X80975Y528627D01*
X80975Y533173D01*
X81744Y535028D01*
X81797Y535193D01*
X81859Y535355D01*
X81875Y535432D01*
X81899Y535507D01*
X81926Y535678D01*
X81961Y535848D01*
X81966Y535941D01*
X81976Y536004D01*
X81976Y536093D01*
X81985Y536242D01*
X81985Y627872D01*
X83571Y631699D01*
X92121Y640250D01*
X92234Y640382D01*
X92353Y640508D01*
X92397Y640573D01*
X92448Y640633D01*
X92538Y640781D01*
X92625Y640910D01*
X95638Y643922D01*
X99506Y645525D01*
X103694Y645525D01*
X107562Y643922D01*
X110522Y640962D01*
X112125Y637094D01*
X112125Y632906D01*
X110522Y629038D01*
X107499Y626015D01*
X107431Y625980D01*
X107291Y625878D01*
X107146Y625782D01*
X107076Y625721D01*
X107025Y625683D01*
X106962Y625620D01*
X106850Y625521D01*
X103744Y622416D01*
X103718Y622385D01*
X103687Y622357D01*
X103554Y622193D01*
X103418Y622033D01*
X103397Y621998D01*
X103371Y621966D01*
X103266Y621783D01*
X103156Y621603D01*
X103140Y621565D01*
X103120Y621529D01*
X103045Y621332D01*
X102965Y621137D01*
X102956Y621097D01*
X102941Y621058D01*
X102898Y620851D01*
X102850Y620646D01*
X102848Y620605D01*
X102839Y620565D01*
X102815Y620171D01*
X102815Y536242D01*
X102829Y536069D01*
X102834Y535896D01*
X102848Y535819D01*
X102855Y535740D01*
X102896Y535572D01*
X102928Y535401D01*
X102958Y535313D01*
X102973Y535251D01*
X103008Y535169D01*
X103056Y535028D01*
X103825Y533173D01*
X103825Y528627D01*
X102085Y524428D01*
X98872Y521215D01*
X94673Y519475D01*
X90127Y519475D01*
G37*
%LPD*%
%LPC*%
G36*
X426027Y519475D02*
X426027Y519475D01*
X421828Y521215D01*
X418615Y524428D01*
X416875Y528627D01*
X416875Y533173D01*
X417644Y535028D01*
X417697Y535193D01*
X417759Y535355D01*
X417775Y535432D01*
X417799Y535507D01*
X417826Y535678D01*
X417861Y535848D01*
X417866Y535941D01*
X417876Y536004D01*
X417876Y536093D01*
X417885Y536242D01*
X417885Y620171D01*
X417882Y620212D01*
X417884Y620253D01*
X417862Y620463D01*
X417845Y620673D01*
X417836Y620713D01*
X417831Y620754D01*
X417776Y620958D01*
X417727Y621163D01*
X417711Y621200D01*
X417700Y621240D01*
X417613Y621433D01*
X417532Y621627D01*
X417510Y621662D01*
X417493Y621699D01*
X417378Y621875D01*
X417266Y622055D01*
X417239Y622086D01*
X417217Y622120D01*
X416956Y622416D01*
X413850Y625521D01*
X413718Y625634D01*
X413592Y625753D01*
X413527Y625797D01*
X413467Y625848D01*
X413319Y625938D01*
X413190Y626025D01*
X410178Y629038D01*
X408575Y632906D01*
X408575Y637094D01*
X410178Y640962D01*
X413138Y643922D01*
X417006Y645525D01*
X421194Y645525D01*
X425062Y643922D01*
X428085Y640899D01*
X428120Y640831D01*
X428222Y640691D01*
X428318Y640546D01*
X428379Y640476D01*
X428417Y640424D01*
X428480Y640362D01*
X428579Y640250D01*
X433753Y635076D01*
X433753Y635075D01*
X437129Y631699D01*
X438715Y627872D01*
X438715Y536242D01*
X438729Y536069D01*
X438734Y535896D01*
X438748Y535819D01*
X438755Y535740D01*
X438796Y535572D01*
X438828Y535401D01*
X438858Y535313D01*
X438873Y535251D01*
X438908Y535170D01*
X438956Y535028D01*
X439725Y533173D01*
X439725Y528627D01*
X437985Y524428D01*
X434772Y521215D01*
X430573Y519475D01*
X426027Y519475D01*
G37*
%LPD*%
%LPC*%
G36*
X857827Y519475D02*
X857827Y519475D01*
X853628Y521215D01*
X850415Y524428D01*
X848675Y528627D01*
X848675Y533173D01*
X849444Y535028D01*
X849497Y535193D01*
X849559Y535355D01*
X849575Y535432D01*
X849599Y535507D01*
X849626Y535678D01*
X849661Y535848D01*
X849666Y535941D01*
X849676Y536004D01*
X849676Y536093D01*
X849685Y536242D01*
X849685Y620171D01*
X849682Y620212D01*
X849684Y620253D01*
X849662Y620462D01*
X849645Y620673D01*
X849636Y620713D01*
X849631Y620754D01*
X849576Y620957D01*
X849527Y621163D01*
X849511Y621200D01*
X849500Y621240D01*
X849413Y621433D01*
X849332Y621627D01*
X849310Y621662D01*
X849293Y621699D01*
X849178Y621875D01*
X849066Y622055D01*
X849039Y622086D01*
X849017Y622120D01*
X848756Y622416D01*
X845650Y625521D01*
X845518Y625634D01*
X845392Y625753D01*
X845327Y625797D01*
X845267Y625848D01*
X845119Y625938D01*
X844990Y626025D01*
X841978Y629038D01*
X840375Y632906D01*
X840375Y637094D01*
X841978Y640962D01*
X844938Y643922D01*
X848806Y645525D01*
X852994Y645525D01*
X856862Y643922D01*
X859885Y640899D01*
X859920Y640831D01*
X860022Y640691D01*
X860118Y640546D01*
X860179Y640476D01*
X860217Y640425D01*
X860280Y640362D01*
X860379Y640250D01*
X865553Y635076D01*
X868929Y631699D01*
X870515Y627872D01*
X870515Y536242D01*
X870529Y536069D01*
X870534Y535896D01*
X870548Y535819D01*
X870555Y535740D01*
X870596Y535572D01*
X870628Y535401D01*
X870658Y535313D01*
X870673Y535251D01*
X870708Y535170D01*
X870756Y535028D01*
X871525Y533173D01*
X871525Y528627D01*
X869785Y524428D01*
X866572Y521215D01*
X862373Y519475D01*
X857827Y519475D01*
G37*
%LPD*%
%LPC*%
G36*
X521927Y519475D02*
X521927Y519475D01*
X517728Y521215D01*
X514515Y524428D01*
X512775Y528627D01*
X512775Y533173D01*
X513544Y535028D01*
X513597Y535193D01*
X513659Y535355D01*
X513675Y535432D01*
X513699Y535507D01*
X513726Y535678D01*
X513761Y535848D01*
X513766Y535941D01*
X513776Y536004D01*
X513776Y536093D01*
X513785Y536242D01*
X513785Y627872D01*
X515371Y631699D01*
X523921Y640250D01*
X524034Y640382D01*
X524153Y640508D01*
X524197Y640573D01*
X524248Y640633D01*
X524338Y640781D01*
X524425Y640910D01*
X527438Y643922D01*
X531306Y645525D01*
X535494Y645525D01*
X539362Y643922D01*
X542322Y640962D01*
X543925Y637094D01*
X543925Y632906D01*
X542322Y629038D01*
X539299Y626015D01*
X539231Y625980D01*
X539091Y625878D01*
X538946Y625782D01*
X538876Y625721D01*
X538825Y625683D01*
X538762Y625620D01*
X538650Y625521D01*
X535544Y622416D01*
X535518Y622385D01*
X535487Y622357D01*
X535354Y622193D01*
X535218Y622033D01*
X535197Y621998D01*
X535171Y621966D01*
X535066Y621783D01*
X534956Y621603D01*
X534940Y621565D01*
X534920Y621529D01*
X534845Y621332D01*
X534765Y621137D01*
X534756Y621097D01*
X534741Y621058D01*
X534698Y620851D01*
X534650Y620646D01*
X534648Y620605D01*
X534639Y620565D01*
X534615Y620171D01*
X534615Y536242D01*
X534629Y536069D01*
X534634Y535896D01*
X534648Y535819D01*
X534655Y535740D01*
X534696Y535572D01*
X534728Y535401D01*
X534758Y535313D01*
X534773Y535251D01*
X534808Y535170D01*
X534856Y535028D01*
X535625Y533173D01*
X535625Y528627D01*
X533885Y524428D01*
X530672Y521215D01*
X526473Y519475D01*
X521927Y519475D01*
G37*
%LPD*%
%LPC*%
G36*
X953727Y519475D02*
X953727Y519475D01*
X949528Y521215D01*
X946315Y524428D01*
X944575Y528627D01*
X944575Y533173D01*
X945344Y535028D01*
X945397Y535193D01*
X945459Y535355D01*
X945475Y535432D01*
X945499Y535507D01*
X945526Y535678D01*
X945561Y535848D01*
X945566Y535941D01*
X945576Y536004D01*
X945576Y536093D01*
X945585Y536242D01*
X945585Y627872D01*
X947171Y631699D01*
X955721Y640250D01*
X955834Y640382D01*
X955953Y640508D01*
X955997Y640573D01*
X956048Y640633D01*
X956138Y640781D01*
X956225Y640910D01*
X959238Y643922D01*
X963106Y645525D01*
X967294Y645525D01*
X971162Y643922D01*
X974122Y640962D01*
X975725Y637094D01*
X975725Y632906D01*
X974122Y629038D01*
X971099Y626015D01*
X971031Y625980D01*
X970891Y625878D01*
X970746Y625782D01*
X970676Y625721D01*
X970625Y625683D01*
X970562Y625620D01*
X970450Y625521D01*
X967344Y622416D01*
X967318Y622385D01*
X967287Y622357D01*
X967154Y622193D01*
X967018Y622033D01*
X966997Y621998D01*
X966971Y621966D01*
X966866Y621783D01*
X966756Y621603D01*
X966740Y621565D01*
X966720Y621529D01*
X966645Y621332D01*
X966565Y621137D01*
X966556Y621097D01*
X966541Y621058D01*
X966498Y620851D01*
X966450Y620646D01*
X966448Y620605D01*
X966439Y620565D01*
X966415Y620171D01*
X966415Y536242D01*
X966429Y536069D01*
X966434Y535896D01*
X966448Y535819D01*
X966455Y535740D01*
X966496Y535572D01*
X966528Y535401D01*
X966558Y535313D01*
X966573Y535251D01*
X966608Y535170D01*
X966656Y535028D01*
X967425Y533173D01*
X967425Y528627D01*
X965685Y524428D01*
X962472Y521215D01*
X958273Y519475D01*
X953727Y519475D01*
G37*
%LPD*%
%LPC*%
G36*
X737827Y519475D02*
X737827Y519475D01*
X733628Y521215D01*
X730415Y524428D01*
X728675Y528627D01*
X728675Y533173D01*
X729444Y535028D01*
X729497Y535193D01*
X729559Y535355D01*
X729575Y535432D01*
X729599Y535507D01*
X729626Y535678D01*
X729661Y535848D01*
X729666Y535941D01*
X729676Y536004D01*
X729676Y536093D01*
X729685Y536242D01*
X729685Y627872D01*
X731271Y631699D01*
X739821Y640250D01*
X739934Y640382D01*
X740053Y640508D01*
X740097Y640573D01*
X740148Y640633D01*
X740238Y640781D01*
X740325Y640910D01*
X743338Y643922D01*
X747206Y645525D01*
X751394Y645525D01*
X755262Y643922D01*
X758222Y640962D01*
X759825Y637094D01*
X759825Y632906D01*
X758222Y629038D01*
X755199Y626015D01*
X755131Y625980D01*
X754991Y625878D01*
X754846Y625782D01*
X754776Y625721D01*
X754725Y625683D01*
X754662Y625620D01*
X754550Y625521D01*
X751444Y622416D01*
X751418Y622385D01*
X751387Y622357D01*
X751254Y622193D01*
X751118Y622033D01*
X751097Y621998D01*
X751071Y621966D01*
X750966Y621783D01*
X750856Y621603D01*
X750840Y621565D01*
X750820Y621529D01*
X750745Y621332D01*
X750665Y621137D01*
X750656Y621097D01*
X750641Y621058D01*
X750598Y620851D01*
X750550Y620646D01*
X750548Y620605D01*
X750539Y620565D01*
X750515Y620171D01*
X750515Y536242D01*
X750529Y536069D01*
X750534Y535896D01*
X750548Y535819D01*
X750555Y535740D01*
X750596Y535572D01*
X750628Y535401D01*
X750658Y535313D01*
X750673Y535251D01*
X750708Y535170D01*
X750756Y535028D01*
X751525Y533173D01*
X751525Y528627D01*
X749785Y524428D01*
X746572Y521215D01*
X742373Y519475D01*
X737827Y519475D01*
G37*
%LPD*%
%LPC*%
G36*
X1073727Y519475D02*
X1073727Y519475D01*
X1069528Y521215D01*
X1066315Y524428D01*
X1064575Y528627D01*
X1064575Y533173D01*
X1065344Y535028D01*
X1065397Y535193D01*
X1065459Y535355D01*
X1065475Y535432D01*
X1065499Y535507D01*
X1065526Y535678D01*
X1065561Y535848D01*
X1065566Y535941D01*
X1065576Y536004D01*
X1065576Y536093D01*
X1065585Y536242D01*
X1065585Y620171D01*
X1065582Y620212D01*
X1065584Y620253D01*
X1065562Y620462D01*
X1065545Y620673D01*
X1065536Y620713D01*
X1065531Y620754D01*
X1065476Y620957D01*
X1065427Y621163D01*
X1065411Y621200D01*
X1065400Y621240D01*
X1065313Y621433D01*
X1065232Y621627D01*
X1065210Y621662D01*
X1065193Y621699D01*
X1065078Y621875D01*
X1064966Y622055D01*
X1064939Y622086D01*
X1064917Y622120D01*
X1064656Y622416D01*
X1061550Y625521D01*
X1061418Y625634D01*
X1061292Y625753D01*
X1061227Y625797D01*
X1061167Y625848D01*
X1061019Y625938D01*
X1060890Y626025D01*
X1057878Y629038D01*
X1056275Y632906D01*
X1056275Y637094D01*
X1057878Y640962D01*
X1060838Y643922D01*
X1064706Y645525D01*
X1068894Y645525D01*
X1072762Y643922D01*
X1075785Y640899D01*
X1075820Y640831D01*
X1075922Y640691D01*
X1076018Y640546D01*
X1076079Y640476D01*
X1076117Y640425D01*
X1076180Y640362D01*
X1076279Y640250D01*
X1084829Y631699D01*
X1086415Y627872D01*
X1086415Y536242D01*
X1086429Y536069D01*
X1086434Y535896D01*
X1086448Y535819D01*
X1086455Y535740D01*
X1086496Y535572D01*
X1086528Y535401D01*
X1086558Y535313D01*
X1086573Y535251D01*
X1086608Y535170D01*
X1086656Y535028D01*
X1087425Y533173D01*
X1087425Y528627D01*
X1085685Y524428D01*
X1082472Y521215D01*
X1078273Y519475D01*
X1073727Y519475D01*
G37*
%LPD*%
%LPC*%
G36*
X641927Y519475D02*
X641927Y519475D01*
X637728Y521215D01*
X634515Y524428D01*
X632775Y528627D01*
X632775Y533173D01*
X633544Y535028D01*
X633597Y535193D01*
X633659Y535355D01*
X633675Y535432D01*
X633699Y535507D01*
X633726Y535678D01*
X633761Y535848D01*
X633766Y535941D01*
X633776Y536004D01*
X633776Y536093D01*
X633785Y536242D01*
X633785Y620171D01*
X633782Y620212D01*
X633784Y620253D01*
X633762Y620462D01*
X633745Y620673D01*
X633736Y620713D01*
X633731Y620754D01*
X633676Y620957D01*
X633627Y621163D01*
X633611Y621200D01*
X633600Y621240D01*
X633513Y621433D01*
X633432Y621627D01*
X633410Y621662D01*
X633393Y621699D01*
X633278Y621875D01*
X633166Y622055D01*
X633139Y622086D01*
X633117Y622120D01*
X632856Y622416D01*
X629750Y625521D01*
X629618Y625634D01*
X629492Y625753D01*
X629427Y625797D01*
X629367Y625848D01*
X629219Y625938D01*
X629090Y626025D01*
X626078Y629038D01*
X624475Y632906D01*
X624475Y637094D01*
X626078Y640962D01*
X629038Y643922D01*
X632906Y645525D01*
X637094Y645525D01*
X640962Y643922D01*
X643985Y640899D01*
X644020Y640831D01*
X644122Y640691D01*
X644218Y640546D01*
X644279Y640476D01*
X644317Y640425D01*
X644380Y640362D01*
X644479Y640250D01*
X653029Y631699D01*
X654615Y627872D01*
X654615Y536242D01*
X654629Y536069D01*
X654634Y535896D01*
X654648Y535819D01*
X654655Y535740D01*
X654696Y535572D01*
X654728Y535401D01*
X654758Y535313D01*
X654773Y535251D01*
X654808Y535170D01*
X654856Y535028D01*
X655625Y533173D01*
X655625Y528627D01*
X653885Y524428D01*
X650672Y521215D01*
X646473Y519475D01*
X641927Y519475D01*
G37*
%LPD*%
%LPC*%
G36*
X897800Y21064D02*
X897800Y21064D01*
X896375Y21790D01*
X895081Y22730D01*
X893950Y23861D01*
X893010Y25155D01*
X892284Y26580D01*
X891789Y28101D01*
X891731Y28470D01*
X891699Y28602D01*
X891677Y28736D01*
X891640Y28846D01*
X891613Y28960D01*
X891561Y29085D01*
X891518Y29213D01*
X891464Y29317D01*
X891419Y29424D01*
X891348Y29540D01*
X891285Y29660D01*
X891215Y29753D01*
X891154Y29853D01*
X891066Y29955D01*
X890985Y30064D01*
X890901Y30145D01*
X890825Y30233D01*
X890721Y30321D01*
X890624Y30415D01*
X890529Y30483D01*
X890439Y30558D01*
X890323Y30627D01*
X890212Y30705D01*
X890108Y30757D01*
X890008Y30817D01*
X889882Y30867D01*
X889760Y30927D01*
X889649Y30961D01*
X889540Y31004D01*
X889408Y31034D01*
X889278Y31074D01*
X889163Y31090D01*
X889049Y31115D01*
X888914Y31124D01*
X888780Y31143D01*
X888663Y31140D01*
X888547Y31147D01*
X888412Y31135D01*
X888276Y31132D01*
X888161Y31111D01*
X888046Y31100D01*
X887914Y31066D01*
X887781Y31041D01*
X887671Y31003D01*
X887558Y30973D01*
X887434Y30919D01*
X887306Y30874D01*
X887204Y30818D01*
X887097Y30772D01*
X886983Y30698D01*
X886864Y30634D01*
X886771Y30562D01*
X886673Y30499D01*
X886572Y30409D01*
X886465Y30326D01*
X886385Y30241D01*
X886298Y30164D01*
X886212Y30058D01*
X886120Y29960D01*
X886054Y29863D01*
X885981Y29773D01*
X885913Y29655D01*
X885837Y29543D01*
X885773Y29412D01*
X885729Y29337D01*
X885706Y29275D01*
X885663Y29188D01*
X884053Y25300D01*
X881480Y22727D01*
X878119Y21335D01*
X874481Y21335D01*
X871120Y22727D01*
X868547Y25300D01*
X867155Y28661D01*
X867155Y47539D01*
X867168Y47569D01*
X867221Y47734D01*
X867283Y47896D01*
X867299Y47973D01*
X867323Y48048D01*
X867350Y48220D01*
X867385Y48390D01*
X867390Y48482D01*
X867400Y48545D01*
X867400Y48634D01*
X867409Y48784D01*
X867409Y90668D01*
X868763Y93936D01*
X871264Y96437D01*
X874532Y97791D01*
X878068Y97791D01*
X881336Y96437D01*
X883837Y93936D01*
X885191Y90668D01*
X885191Y48784D01*
X885204Y48611D01*
X885210Y48437D01*
X885224Y48360D01*
X885231Y48282D01*
X885272Y48113D01*
X885304Y47942D01*
X885334Y47854D01*
X885349Y47792D01*
X885384Y47711D01*
X885432Y47569D01*
X885663Y47012D01*
X885725Y46891D01*
X885777Y46766D01*
X885839Y46667D01*
X885892Y46563D01*
X885972Y46454D01*
X886044Y46339D01*
X886120Y46251D01*
X886189Y46157D01*
X886285Y46061D01*
X886374Y45959D01*
X886464Y45884D01*
X886547Y45802D01*
X886657Y45723D01*
X886761Y45636D01*
X886861Y45577D01*
X886956Y45509D01*
X887077Y45448D01*
X887194Y45379D01*
X887302Y45336D01*
X887406Y45283D01*
X887536Y45243D01*
X887662Y45193D01*
X887775Y45167D01*
X887886Y45132D01*
X888020Y45113D01*
X888153Y45083D01*
X888270Y45076D01*
X888385Y45059D01*
X888520Y45061D01*
X888656Y45053D01*
X888772Y45064D01*
X888888Y45066D01*
X889022Y45089D01*
X889157Y45102D01*
X889270Y45132D01*
X889384Y45152D01*
X889512Y45196D01*
X889644Y45230D01*
X889750Y45277D01*
X889861Y45315D01*
X889980Y45379D01*
X890104Y45434D01*
X890202Y45497D01*
X890305Y45552D01*
X890413Y45634D01*
X890527Y45707D01*
X890614Y45785D01*
X890706Y45856D01*
X890800Y45954D01*
X890901Y46044D01*
X890974Y46135D01*
X891055Y46219D01*
X891132Y46331D01*
X891217Y46436D01*
X891275Y46537D01*
X891341Y46633D01*
X891400Y46756D01*
X891467Y46873D01*
X891508Y46982D01*
X891559Y47087D01*
X891597Y47217D01*
X891645Y47344D01*
X891677Y47487D01*
X891701Y47570D01*
X891710Y47635D01*
X891731Y47730D01*
X891789Y48099D01*
X892284Y49620D01*
X893010Y51045D01*
X893950Y52339D01*
X895081Y53470D01*
X896375Y54410D01*
X897800Y55136D01*
X898526Y55372D01*
X898526Y38100D01*
X898526Y20828D01*
X897800Y21064D01*
G37*
%LPD*%
%LPC*%
G36*
X722081Y21335D02*
X722081Y21335D01*
X718720Y22727D01*
X716147Y25300D01*
X714755Y28661D01*
X714755Y47539D01*
X714768Y47569D01*
X714821Y47734D01*
X714883Y47896D01*
X714899Y47973D01*
X714923Y48048D01*
X714950Y48220D01*
X714985Y48390D01*
X714990Y48482D01*
X715000Y48545D01*
X715000Y48634D01*
X715009Y48784D01*
X715009Y90668D01*
X715594Y92079D01*
X715647Y92245D01*
X715709Y92407D01*
X715725Y92484D01*
X715749Y92558D01*
X715776Y92730D01*
X715811Y92900D01*
X715816Y92993D01*
X715826Y93056D01*
X715826Y93145D01*
X715835Y93294D01*
X715835Y96072D01*
X716728Y96965D01*
X719506Y96965D01*
X719679Y96979D01*
X719853Y96984D01*
X719930Y96998D01*
X720008Y97005D01*
X720177Y97046D01*
X720347Y97078D01*
X720435Y97108D01*
X720497Y97123D01*
X720579Y97158D01*
X720721Y97206D01*
X722132Y97791D01*
X725668Y97791D01*
X727079Y97206D01*
X727245Y97153D01*
X727407Y97091D01*
X727484Y97075D01*
X727558Y97051D01*
X727730Y97024D01*
X727900Y96989D01*
X727993Y96984D01*
X728056Y96974D01*
X728145Y96974D01*
X728294Y96965D01*
X731072Y96965D01*
X731965Y96072D01*
X731965Y93294D01*
X731979Y93121D01*
X731984Y92947D01*
X731998Y92870D01*
X732005Y92792D01*
X732046Y92623D01*
X732078Y92453D01*
X732108Y92365D01*
X732123Y92303D01*
X732158Y92221D01*
X732206Y92079D01*
X732791Y90668D01*
X732791Y48784D01*
X732804Y48611D01*
X732810Y48437D01*
X732824Y48360D01*
X732831Y48282D01*
X732872Y48113D01*
X732904Y47942D01*
X732934Y47854D01*
X732949Y47792D01*
X732984Y47711D01*
X733032Y47569D01*
X733045Y47539D01*
X733045Y28661D01*
X731653Y25300D01*
X729080Y22727D01*
X725719Y21335D01*
X722081Y21335D01*
G37*
%LPD*%
%LPC*%
G36*
X747481Y21335D02*
X747481Y21335D01*
X744120Y22727D01*
X741547Y25300D01*
X740155Y28661D01*
X740155Y47539D01*
X740168Y47569D01*
X740221Y47734D01*
X740283Y47896D01*
X740299Y47973D01*
X740323Y48048D01*
X740350Y48220D01*
X740385Y48390D01*
X740390Y48482D01*
X740400Y48545D01*
X740400Y48634D01*
X740409Y48784D01*
X740409Y90668D01*
X741763Y93936D01*
X744264Y96437D01*
X747532Y97791D01*
X751068Y97791D01*
X754336Y96437D01*
X756837Y93936D01*
X758191Y90668D01*
X758191Y48784D01*
X758204Y48611D01*
X758210Y48437D01*
X758224Y48360D01*
X758231Y48282D01*
X758272Y48113D01*
X758304Y47942D01*
X758334Y47854D01*
X758349Y47792D01*
X758384Y47711D01*
X758432Y47569D01*
X758445Y47539D01*
X758445Y28661D01*
X757053Y25300D01*
X754480Y22727D01*
X751119Y21335D01*
X747481Y21335D01*
G37*
%LPD*%
%LPC*%
G36*
X772881Y21335D02*
X772881Y21335D01*
X769520Y22727D01*
X766947Y25300D01*
X765555Y28661D01*
X765555Y47539D01*
X765568Y47569D01*
X765621Y47734D01*
X765683Y47896D01*
X765699Y47973D01*
X765723Y48048D01*
X765750Y48220D01*
X765785Y48390D01*
X765790Y48482D01*
X765800Y48545D01*
X765800Y48634D01*
X765809Y48784D01*
X765809Y90668D01*
X767163Y93936D01*
X769664Y96437D01*
X772932Y97791D01*
X776468Y97791D01*
X779736Y96437D01*
X782237Y93936D01*
X783591Y90668D01*
X783591Y48784D01*
X783604Y48611D01*
X783610Y48437D01*
X783624Y48360D01*
X783631Y48282D01*
X783672Y48113D01*
X783704Y47942D01*
X783734Y47854D01*
X783749Y47792D01*
X783784Y47711D01*
X783832Y47569D01*
X783845Y47539D01*
X783845Y28661D01*
X782453Y25300D01*
X779880Y22727D01*
X776519Y21335D01*
X772881Y21335D01*
G37*
%LPD*%
%LPC*%
G36*
X798281Y21335D02*
X798281Y21335D01*
X794920Y22727D01*
X792347Y25300D01*
X790955Y28661D01*
X790955Y47539D01*
X790968Y47569D01*
X791021Y47734D01*
X791083Y47896D01*
X791099Y47973D01*
X791123Y48048D01*
X791150Y48220D01*
X791185Y48390D01*
X791190Y48482D01*
X791200Y48545D01*
X791200Y48634D01*
X791209Y48784D01*
X791209Y90668D01*
X792563Y93936D01*
X795064Y96437D01*
X798332Y97791D01*
X801868Y97791D01*
X805136Y96437D01*
X807637Y93936D01*
X808991Y90668D01*
X808991Y48784D01*
X809005Y48610D01*
X809010Y48437D01*
X809024Y48360D01*
X809031Y48282D01*
X809072Y48113D01*
X809104Y47942D01*
X809134Y47854D01*
X809149Y47792D01*
X809184Y47711D01*
X809232Y47569D01*
X809245Y47539D01*
X809245Y28661D01*
X807853Y25300D01*
X805280Y22727D01*
X801919Y21335D01*
X798281Y21335D01*
G37*
%LPD*%
%LPC*%
G36*
X849081Y21335D02*
X849081Y21335D01*
X845720Y22727D01*
X843147Y25300D01*
X841755Y28661D01*
X841755Y47539D01*
X841768Y47569D01*
X841821Y47734D01*
X841883Y47896D01*
X841899Y47973D01*
X841923Y48048D01*
X841950Y48220D01*
X841985Y48390D01*
X841990Y48482D01*
X842000Y48545D01*
X842000Y48634D01*
X842009Y48784D01*
X842009Y90668D01*
X843363Y93936D01*
X845864Y96437D01*
X849132Y97791D01*
X852668Y97791D01*
X855936Y96437D01*
X858437Y93936D01*
X859791Y90668D01*
X859791Y48784D01*
X859805Y48610D01*
X859810Y48437D01*
X859824Y48360D01*
X859831Y48282D01*
X859872Y48113D01*
X859904Y47942D01*
X859934Y47854D01*
X859949Y47792D01*
X859984Y47711D01*
X860032Y47569D01*
X860045Y47539D01*
X860045Y28661D01*
X858653Y25300D01*
X856080Y22727D01*
X852719Y21335D01*
X849081Y21335D01*
G37*
%LPD*%
%LPC*%
G36*
X823681Y21335D02*
X823681Y21335D01*
X820320Y22727D01*
X817747Y25300D01*
X816355Y28661D01*
X816355Y47539D01*
X816368Y47569D01*
X816421Y47734D01*
X816483Y47896D01*
X816499Y47973D01*
X816523Y48048D01*
X816550Y48220D01*
X816585Y48390D01*
X816590Y48482D01*
X816600Y48545D01*
X816600Y48634D01*
X816609Y48784D01*
X816609Y90668D01*
X817963Y93936D01*
X820464Y96437D01*
X823732Y97791D01*
X827268Y97791D01*
X830536Y96437D01*
X833037Y93936D01*
X834391Y90668D01*
X834391Y48784D01*
X834405Y48610D01*
X834410Y48437D01*
X834424Y48360D01*
X834431Y48282D01*
X834472Y48113D01*
X834504Y47942D01*
X834534Y47854D01*
X834549Y47792D01*
X834584Y47711D01*
X834632Y47569D01*
X834645Y47539D01*
X834645Y28661D01*
X833253Y25300D01*
X830680Y22727D01*
X827319Y21335D01*
X823681Y21335D01*
G37*
%LPD*%
%LPC*%
G36*
X904874Y41274D02*
X904874Y41274D01*
X904874Y55372D01*
X905600Y55136D01*
X907025Y54410D01*
X908319Y53470D01*
X909450Y52339D01*
X910390Y51045D01*
X911116Y49620D01*
X911611Y48099D01*
X911861Y46520D01*
X911861Y41274D01*
X904874Y41274D01*
G37*
%LPD*%
%LPC*%
G36*
X904874Y34926D02*
X904874Y34926D01*
X911861Y34926D01*
X911861Y29680D01*
X911611Y28101D01*
X911116Y26580D01*
X910390Y25155D01*
X909450Y23861D01*
X908319Y22730D01*
X907025Y21790D01*
X905600Y21064D01*
X904874Y20828D01*
X904874Y34926D01*
G37*
%LPD*%
%LPC*%
G36*
X1514474Y53974D02*
X1514474Y53974D01*
X1514474Y61903D01*
X1515730Y61495D01*
X1517349Y60670D01*
X1518818Y59603D01*
X1520103Y58318D01*
X1521170Y56849D01*
X1521995Y55230D01*
X1522403Y53974D01*
X1514474Y53974D01*
G37*
%LPD*%
%LPC*%
G36*
X1500197Y53974D02*
X1500197Y53974D01*
X1500605Y55230D01*
X1501430Y56849D01*
X1502497Y58318D01*
X1503782Y59603D01*
X1505251Y60670D01*
X1506870Y61495D01*
X1508126Y61903D01*
X1508126Y53974D01*
X1500197Y53974D01*
G37*
%LPD*%
%LPC*%
G36*
X1514474Y47626D02*
X1514474Y47626D01*
X1522403Y47626D01*
X1521995Y46370D01*
X1521170Y44751D01*
X1520103Y43282D01*
X1518818Y41997D01*
X1517349Y40930D01*
X1515730Y40105D01*
X1514474Y39697D01*
X1514474Y47626D01*
G37*
%LPD*%
%LPC*%
G36*
X1506870Y40105D02*
X1506870Y40105D01*
X1505251Y40930D01*
X1503782Y41997D01*
X1502497Y43282D01*
X1501430Y44751D01*
X1500605Y46370D01*
X1500197Y47626D01*
X1508126Y47626D01*
X1508126Y39697D01*
X1506870Y40105D01*
G37*
%LPD*%
%LPC*%
G36*
X904874Y92074D02*
X904874Y92074D01*
X904874Y97417D01*
X905186Y97315D01*
X906459Y96667D01*
X907616Y95826D01*
X908626Y94816D01*
X909467Y93659D01*
X910115Y92386D01*
X910217Y92074D01*
X904874Y92074D01*
G37*
%LPD*%
%LPC*%
G36*
X893183Y92074D02*
X893183Y92074D01*
X893285Y92386D01*
X893933Y93659D01*
X894774Y94816D01*
X895784Y95826D01*
X896941Y96667D01*
X898214Y97315D01*
X898526Y97417D01*
X898526Y92074D01*
X893183Y92074D01*
G37*
%LPD*%
%LPC*%
G36*
X904874Y85726D02*
X904874Y85726D01*
X910217Y85726D01*
X910115Y85414D01*
X909467Y84141D01*
X908626Y82984D01*
X907616Y81974D01*
X906459Y81133D01*
X905186Y80485D01*
X904874Y80383D01*
X904874Y85726D01*
G37*
%LPD*%
%LPC*%
G36*
X898214Y80485D02*
X898214Y80485D01*
X896941Y81133D01*
X895784Y81974D01*
X894774Y82984D01*
X893933Y84141D01*
X893285Y85414D01*
X893183Y85726D01*
X898526Y85726D01*
X898526Y80383D01*
X898214Y80485D01*
G37*
%LPD*%
D10*
X723900Y88900D03*
D11*
X749300Y88900D03*
X774700Y88900D03*
X800100Y88900D03*
X825500Y88900D03*
X850900Y88900D03*
X876300Y88900D03*
X901700Y88900D03*
X901700Y165100D03*
X876300Y165100D03*
X850900Y165100D03*
X825500Y165100D03*
X800100Y165100D03*
X774700Y165100D03*
X749300Y165100D03*
X723900Y165100D03*
D12*
X1511300Y101600D03*
X1511300Y50800D03*
D13*
X723900Y45720D02*
X723900Y30480D01*
X749300Y30480D02*
X749300Y45720D01*
X774700Y45720D02*
X774700Y30480D01*
X800100Y30480D02*
X800100Y45720D01*
X825500Y45720D02*
X825500Y30480D01*
X850900Y30480D02*
X850900Y45720D01*
X876300Y45720D02*
X876300Y30480D01*
X901700Y30480D02*
X901700Y45720D01*
D14*
X1435100Y292100D03*
X1460500Y292100D03*
X1219200Y292100D03*
X1244600Y292100D03*
X1003300Y292100D03*
X1028700Y292100D03*
X787400Y292100D03*
X812800Y292100D03*
X571500Y292100D03*
X596900Y292100D03*
X355600Y292100D03*
X381000Y292100D03*
X139700Y292100D03*
X165100Y292100D03*
D15*
X1409700Y342900D03*
X1485900Y342900D03*
X1193800Y342900D03*
X1270000Y342900D03*
X977900Y342900D03*
X1054100Y342900D03*
X762000Y342900D03*
X838200Y342900D03*
X546100Y342900D03*
X622300Y342900D03*
X330200Y342900D03*
X406400Y342900D03*
X114300Y342900D03*
X190500Y342900D03*
D16*
X1507800Y408900D03*
D17*
X1447800Y388900D03*
D18*
X1387800Y408900D03*
X1387800Y530900D03*
X1507800Y530900D03*
D16*
X1291900Y408900D03*
D17*
X1231900Y388900D03*
D18*
X1171900Y408900D03*
X1171900Y530900D03*
X1291900Y530900D03*
D16*
X1076000Y408900D03*
D17*
X1016000Y388900D03*
D18*
X956000Y408900D03*
X956000Y530900D03*
X1076000Y530900D03*
D16*
X860100Y408900D03*
D17*
X800100Y388900D03*
D18*
X740100Y408900D03*
X740100Y530900D03*
X860100Y530900D03*
D16*
X644200Y408900D03*
D17*
X584200Y388900D03*
D18*
X524200Y408900D03*
X524200Y530900D03*
X644200Y530900D03*
D16*
X428300Y408900D03*
D17*
X368300Y388900D03*
D18*
X308300Y408900D03*
X308300Y530900D03*
X428300Y530900D03*
D16*
X212400Y408900D03*
D17*
X152400Y388900D03*
D18*
X92400Y408900D03*
X92400Y530900D03*
X212400Y530900D03*
D12*
X1397000Y635000D03*
X1447800Y635000D03*
X1498600Y635000D03*
X1181100Y635000D03*
X1231900Y635000D03*
X1282700Y635000D03*
X965200Y635000D03*
X1016000Y635000D03*
X1066800Y635000D03*
X749300Y635000D03*
X800100Y635000D03*
X850900Y635000D03*
X533400Y635000D03*
X584200Y635000D03*
X635000Y635000D03*
X317500Y635000D03*
X368300Y635000D03*
X419100Y635000D03*
X101600Y635000D03*
X152400Y635000D03*
X203200Y635000D03*
D19*
X723900Y88900D02*
X723900Y38100D01*
X749300Y38100D02*
X749300Y88900D01*
X774700Y88900D02*
X774700Y38100D01*
X800100Y38100D02*
X800100Y88900D01*
X825500Y88900D02*
X825500Y38100D01*
X850900Y38100D02*
X850900Y88900D01*
X876300Y88900D02*
X876300Y38100D01*
D20*
X901700Y165100D02*
X1447800Y165100D01*
X1473200Y139700D01*
X1511300Y101600D01*
D21*
X1473200Y139700D02*
X1485900Y152400D01*
X1485900Y342900D01*
X1498600Y355600D01*
X1549400Y355600D02*
X1562100Y368300D01*
X1562100Y673100D01*
X241300Y437800D02*
X212400Y408900D01*
X1498600Y355600D02*
X1549400Y355600D01*
X1562100Y673100D02*
X1524000Y711200D01*
X1358900Y711200D01*
X1143000Y711200D01*
X927100Y711200D01*
X711200Y711200D01*
X482600Y711200D01*
X266700Y711200D01*
X241300Y685800D01*
X241300Y437800D01*
X428300Y408900D02*
X457200Y437800D01*
X457200Y685800D01*
X482600Y711200D01*
X673100Y673100D02*
X673100Y431800D01*
X650200Y408900D01*
X644200Y408900D01*
X673100Y673100D02*
X711200Y711200D01*
X889000Y673100D02*
X927100Y711200D01*
X889000Y673100D02*
X889000Y431800D01*
X866100Y408900D01*
X863600Y408900D01*
X860100Y408900D01*
X1076000Y408900D02*
X1104900Y437800D01*
X1104900Y673100D02*
X1143000Y711200D01*
X1104900Y673100D02*
X1104900Y437800D01*
X1291900Y408900D02*
X1298750Y415750D01*
X1320800Y437800D01*
X1320800Y673100D02*
X1358900Y711200D01*
X1320800Y673100D02*
X1320800Y437800D01*
D22*
X1485900Y387000D02*
X1485900Y342900D01*
X1485900Y387000D02*
X1507800Y408900D01*
X1270000Y387000D02*
X1270000Y342900D01*
X1270000Y387000D02*
X1298750Y415750D01*
X1054100Y387000D02*
X1054100Y342900D01*
X1054100Y387000D02*
X1076000Y408900D01*
X838200Y383500D02*
X838200Y342900D01*
X838200Y383500D02*
X863600Y408900D01*
X406400Y387000D02*
X406400Y342900D01*
X406400Y387000D02*
X428300Y408900D01*
X190500Y387000D02*
X190500Y342900D01*
X190500Y387000D02*
X212400Y408900D01*
X622300Y387000D02*
X644200Y408900D01*
X622300Y387000D02*
X622300Y342900D01*
D20*
X901700Y88900D02*
X901700Y38100D01*
X1498600Y38100D02*
X1511300Y50800D01*
X1498600Y38100D02*
X901700Y38100D01*
D19*
X876300Y165100D02*
X876300Y177800D01*
X889000Y190500D01*
X1422400Y190500D01*
X1460500Y228600D01*
X1460500Y292100D01*
D22*
X1460500Y336200D02*
X1387800Y408900D01*
X1460500Y336200D02*
X1460500Y292100D01*
D19*
X850900Y203200D02*
X850900Y165100D01*
X850900Y203200D02*
X863600Y215900D01*
X1219200Y215900D02*
X1244600Y241300D01*
X1244600Y292100D01*
X1219200Y215900D02*
X863600Y215900D01*
D22*
X1171900Y408900D02*
X1244600Y336200D01*
X1244600Y292100D01*
D19*
X825500Y203200D02*
X825500Y165100D01*
X825500Y203200D02*
X863600Y241300D01*
X1016000Y241300D01*
X1028700Y254000D01*
X1028700Y292100D01*
D22*
X1028700Y336200D02*
X956000Y408900D01*
X1028700Y336200D02*
X1028700Y292100D01*
D19*
X800100Y215900D02*
X800100Y165100D01*
X800100Y215900D02*
X812800Y228600D01*
X812800Y292100D01*
D22*
X812800Y336200D02*
X740100Y408900D01*
X812800Y336200D02*
X812800Y292100D01*
D19*
X774700Y215900D02*
X736600Y254000D01*
X609600Y254000D02*
X596900Y266700D01*
X596900Y292100D01*
X774700Y215900D02*
X774700Y165100D01*
X736600Y254000D02*
X609600Y254000D01*
D22*
X596900Y336200D02*
X524200Y408900D01*
X596900Y336200D02*
X596900Y292100D01*
D19*
X381000Y292100D02*
X381000Y254000D01*
X406400Y228600D01*
X723900Y228600D02*
X749300Y203200D01*
X749300Y165100D01*
X723900Y228600D02*
X406400Y228600D01*
D22*
X381000Y336200D02*
X308300Y408900D01*
X381000Y336200D02*
X381000Y292100D01*
D19*
X723900Y190500D02*
X723900Y165100D01*
X723900Y190500D02*
X711200Y203200D01*
X165100Y241300D02*
X165100Y292100D01*
X203200Y203200D02*
X711200Y203200D01*
X203200Y203200D02*
X165100Y241300D01*
D22*
X165100Y336200D02*
X92400Y408900D01*
X165100Y336200D02*
X165100Y292100D01*
X1422400Y292100D02*
X1435100Y292100D01*
X1422400Y292100D02*
X1409700Y304800D01*
X1409700Y342900D01*
X1219200Y292100D02*
X1206500Y292100D01*
X1193800Y304800D01*
X1193800Y342900D01*
D20*
X1387800Y530900D02*
X1387800Y625800D01*
X1397000Y635000D01*
X1447800Y635000D02*
X1447800Y388900D01*
X1507800Y530900D02*
X1507800Y625800D01*
X1498600Y635000D01*
X1171900Y625800D02*
X1171900Y530900D01*
X1171900Y625800D02*
X1181100Y635000D01*
X1231900Y635000D02*
X1231900Y388900D01*
X1291900Y530900D02*
X1291900Y625800D01*
X1282700Y635000D01*
D22*
X1003300Y292100D02*
X990600Y292100D01*
X977900Y304800D01*
X977900Y342900D01*
D20*
X956000Y530900D02*
X956000Y625800D01*
X965200Y635000D01*
X1016000Y635000D02*
X1016000Y388900D01*
X1076000Y530900D02*
X1076000Y625800D01*
X1066800Y635000D01*
D22*
X114300Y342900D02*
X114300Y304800D01*
X127000Y292100D01*
X139700Y292100D01*
D20*
X215900Y622300D02*
X203200Y635000D01*
X215900Y622300D02*
X215900Y534400D01*
X212400Y530900D01*
X152400Y635000D02*
X152400Y388900D01*
X92400Y530900D02*
X92400Y625800D01*
X101600Y635000D01*
D22*
X774700Y292100D02*
X787400Y292100D01*
X774700Y292100D02*
X762000Y304800D01*
X762000Y342900D01*
D20*
X860100Y625800D02*
X850900Y635000D01*
X860100Y625800D02*
X860100Y530900D01*
X800100Y635000D02*
X800100Y388900D01*
X740100Y530900D02*
X740100Y625800D01*
X749300Y635000D01*
X524200Y625800D02*
X524200Y530900D01*
X524200Y625800D02*
X533400Y635000D01*
X584200Y635000D02*
X584200Y388900D01*
X644200Y530900D02*
X644200Y625800D01*
X635000Y635000D01*
D22*
X571500Y292100D02*
X558800Y292100D01*
X546100Y304800D01*
X546100Y342900D01*
X355600Y292100D02*
X342900Y292100D01*
X330200Y304800D01*
X330200Y342900D01*
D20*
X428300Y530900D02*
X428300Y625800D01*
X419100Y635000D01*
X368300Y635000D02*
X368300Y388900D01*
X308300Y530900D02*
X304800Y534400D01*
X304800Y622300D01*
X317500Y635000D01*
M02*
