G04 EAGLE Gerber RS-274X export*
G75*
%MOMM*%
%FSLAX34Y34*%
%LPD*%
%IN*%
%IPPOS*%
%AMOC8*
5,1,8,0,0,1.08239X$1,22.5*%
G01*
%ADD10C,0.254000*%


D10*
X0Y0D02*
X1625600Y0D01*
X1625600Y749300D01*
X0Y749300D01*
X0Y0D01*
X1612500Y37399D02*
X1612421Y35998D01*
X1612264Y34604D01*
X1612029Y33221D01*
X1611717Y31853D01*
X1611329Y30505D01*
X1610865Y29181D01*
X1610329Y27885D01*
X1609720Y26621D01*
X1609041Y25393D01*
X1608295Y24205D01*
X1607483Y23061D01*
X1606608Y21964D01*
X1605674Y20918D01*
X1604682Y19926D01*
X1603636Y18992D01*
X1602539Y18117D01*
X1601395Y17305D01*
X1600207Y16559D01*
X1598979Y15880D01*
X1597715Y15271D01*
X1596419Y14735D01*
X1595095Y14271D01*
X1593747Y13883D01*
X1592379Y13571D01*
X1590996Y13336D01*
X1589602Y13179D01*
X1588201Y13100D01*
X1586799Y13100D01*
X1585398Y13179D01*
X1584004Y13336D01*
X1582621Y13571D01*
X1581253Y13883D01*
X1579905Y14271D01*
X1578581Y14735D01*
X1577285Y15271D01*
X1576021Y15880D01*
X1574793Y16559D01*
X1573605Y17305D01*
X1572461Y18117D01*
X1571364Y18992D01*
X1570318Y19926D01*
X1569326Y20918D01*
X1568392Y21964D01*
X1567517Y23061D01*
X1566705Y24205D01*
X1565959Y25393D01*
X1565280Y26621D01*
X1564671Y27885D01*
X1564135Y29181D01*
X1563671Y30505D01*
X1563283Y31853D01*
X1562971Y33221D01*
X1562736Y34604D01*
X1562579Y35998D01*
X1562500Y37399D01*
X1562500Y38801D01*
X1562579Y40202D01*
X1562736Y41596D01*
X1562971Y42979D01*
X1563283Y44347D01*
X1563671Y45695D01*
X1564135Y47019D01*
X1564671Y48315D01*
X1565280Y49579D01*
X1565959Y50807D01*
X1566705Y51995D01*
X1567517Y53139D01*
X1568392Y54236D01*
X1569326Y55282D01*
X1570318Y56274D01*
X1571364Y57208D01*
X1572461Y58083D01*
X1573605Y58895D01*
X1574793Y59641D01*
X1576021Y60320D01*
X1577285Y60929D01*
X1578581Y61465D01*
X1579905Y61929D01*
X1581253Y62317D01*
X1582621Y62629D01*
X1584004Y62864D01*
X1585398Y63021D01*
X1586799Y63100D01*
X1588201Y63100D01*
X1589602Y63021D01*
X1590996Y62864D01*
X1592379Y62629D01*
X1593747Y62317D01*
X1595095Y61929D01*
X1596419Y61465D01*
X1597715Y60929D01*
X1598979Y60320D01*
X1600207Y59641D01*
X1601395Y58895D01*
X1602539Y58083D01*
X1603636Y57208D01*
X1604682Y56274D01*
X1605674Y55282D01*
X1606608Y54236D01*
X1607483Y53139D01*
X1608295Y51995D01*
X1609041Y50807D01*
X1609720Y49579D01*
X1610329Y48315D01*
X1610865Y47019D01*
X1611329Y45695D01*
X1611717Y44347D01*
X1612029Y42979D01*
X1612264Y41596D01*
X1612421Y40202D01*
X1612500Y38801D01*
X1612500Y37399D01*
X1612500Y710499D02*
X1612421Y709098D01*
X1612264Y707704D01*
X1612029Y706321D01*
X1611717Y704953D01*
X1611329Y703605D01*
X1610865Y702281D01*
X1610329Y700985D01*
X1609720Y699721D01*
X1609041Y698493D01*
X1608295Y697305D01*
X1607483Y696161D01*
X1606608Y695064D01*
X1605674Y694018D01*
X1604682Y693026D01*
X1603636Y692092D01*
X1602539Y691217D01*
X1601395Y690405D01*
X1600207Y689659D01*
X1598979Y688980D01*
X1597715Y688371D01*
X1596419Y687835D01*
X1595095Y687371D01*
X1593747Y686983D01*
X1592379Y686671D01*
X1590996Y686436D01*
X1589602Y686279D01*
X1588201Y686200D01*
X1586799Y686200D01*
X1585398Y686279D01*
X1584004Y686436D01*
X1582621Y686671D01*
X1581253Y686983D01*
X1579905Y687371D01*
X1578581Y687835D01*
X1577285Y688371D01*
X1576021Y688980D01*
X1574793Y689659D01*
X1573605Y690405D01*
X1572461Y691217D01*
X1571364Y692092D01*
X1570318Y693026D01*
X1569326Y694018D01*
X1568392Y695064D01*
X1567517Y696161D01*
X1566705Y697305D01*
X1565959Y698493D01*
X1565280Y699721D01*
X1564671Y700985D01*
X1564135Y702281D01*
X1563671Y703605D01*
X1563283Y704953D01*
X1562971Y706321D01*
X1562736Y707704D01*
X1562579Y709098D01*
X1562500Y710499D01*
X1562500Y711901D01*
X1562579Y713302D01*
X1562736Y714696D01*
X1562971Y716079D01*
X1563283Y717447D01*
X1563671Y718795D01*
X1564135Y720119D01*
X1564671Y721415D01*
X1565280Y722679D01*
X1565959Y723907D01*
X1566705Y725095D01*
X1567517Y726239D01*
X1568392Y727336D01*
X1569326Y728382D01*
X1570318Y729374D01*
X1571364Y730308D01*
X1572461Y731183D01*
X1573605Y731995D01*
X1574793Y732741D01*
X1576021Y733420D01*
X1577285Y734029D01*
X1578581Y734565D01*
X1579905Y735029D01*
X1581253Y735417D01*
X1582621Y735729D01*
X1584004Y735964D01*
X1585398Y736121D01*
X1586799Y736200D01*
X1588201Y736200D01*
X1589602Y736121D01*
X1590996Y735964D01*
X1592379Y735729D01*
X1593747Y735417D01*
X1595095Y735029D01*
X1596419Y734565D01*
X1597715Y734029D01*
X1598979Y733420D01*
X1600207Y732741D01*
X1601395Y731995D01*
X1602539Y731183D01*
X1603636Y730308D01*
X1604682Y729374D01*
X1605674Y728382D01*
X1606608Y727336D01*
X1607483Y726239D01*
X1608295Y725095D01*
X1609041Y723907D01*
X1609720Y722679D01*
X1610329Y721415D01*
X1610865Y720119D01*
X1611329Y718795D01*
X1611717Y717447D01*
X1612029Y716079D01*
X1612264Y714696D01*
X1612421Y713302D01*
X1612500Y711901D01*
X1612500Y710499D01*
X63100Y710499D02*
X63021Y709098D01*
X62864Y707704D01*
X62629Y706321D01*
X62317Y704953D01*
X61929Y703605D01*
X61465Y702281D01*
X60929Y700985D01*
X60320Y699721D01*
X59641Y698493D01*
X58895Y697305D01*
X58083Y696161D01*
X57208Y695064D01*
X56274Y694018D01*
X55282Y693026D01*
X54236Y692092D01*
X53139Y691217D01*
X51995Y690405D01*
X50807Y689659D01*
X49579Y688980D01*
X48315Y688371D01*
X47019Y687835D01*
X45695Y687371D01*
X44347Y686983D01*
X42979Y686671D01*
X41596Y686436D01*
X40202Y686279D01*
X38801Y686200D01*
X37399Y686200D01*
X35998Y686279D01*
X34604Y686436D01*
X33221Y686671D01*
X31853Y686983D01*
X30505Y687371D01*
X29181Y687835D01*
X27885Y688371D01*
X26621Y688980D01*
X25393Y689659D01*
X24205Y690405D01*
X23061Y691217D01*
X21964Y692092D01*
X20918Y693026D01*
X19926Y694018D01*
X18992Y695064D01*
X18117Y696161D01*
X17305Y697305D01*
X16559Y698493D01*
X15880Y699721D01*
X15271Y700985D01*
X14735Y702281D01*
X14271Y703605D01*
X13883Y704953D01*
X13571Y706321D01*
X13336Y707704D01*
X13179Y709098D01*
X13100Y710499D01*
X13100Y711901D01*
X13179Y713302D01*
X13336Y714696D01*
X13571Y716079D01*
X13883Y717447D01*
X14271Y718795D01*
X14735Y720119D01*
X15271Y721415D01*
X15880Y722679D01*
X16559Y723907D01*
X17305Y725095D01*
X18117Y726239D01*
X18992Y727336D01*
X19926Y728382D01*
X20918Y729374D01*
X21964Y730308D01*
X23061Y731183D01*
X24205Y731995D01*
X25393Y732741D01*
X26621Y733420D01*
X27885Y734029D01*
X29181Y734565D01*
X30505Y735029D01*
X31853Y735417D01*
X33221Y735729D01*
X34604Y735964D01*
X35998Y736121D01*
X37399Y736200D01*
X38801Y736200D01*
X40202Y736121D01*
X41596Y735964D01*
X42979Y735729D01*
X44347Y735417D01*
X45695Y735029D01*
X47019Y734565D01*
X48315Y734029D01*
X49579Y733420D01*
X50807Y732741D01*
X51995Y731995D01*
X53139Y731183D01*
X54236Y730308D01*
X55282Y729374D01*
X56274Y728382D01*
X57208Y727336D01*
X58083Y726239D01*
X58895Y725095D01*
X59641Y723907D01*
X60320Y722679D01*
X60929Y721415D01*
X61465Y720119D01*
X61929Y718795D01*
X62317Y717447D01*
X62629Y716079D01*
X62864Y714696D01*
X63021Y713302D01*
X63100Y711901D01*
X63100Y710499D01*
X63100Y37399D02*
X63021Y35998D01*
X62864Y34604D01*
X62629Y33221D01*
X62317Y31853D01*
X61929Y30505D01*
X61465Y29181D01*
X60929Y27885D01*
X60320Y26621D01*
X59641Y25393D01*
X58895Y24205D01*
X58083Y23061D01*
X57208Y21964D01*
X56274Y20918D01*
X55282Y19926D01*
X54236Y18992D01*
X53139Y18117D01*
X51995Y17305D01*
X50807Y16559D01*
X49579Y15880D01*
X48315Y15271D01*
X47019Y14735D01*
X45695Y14271D01*
X44347Y13883D01*
X42979Y13571D01*
X41596Y13336D01*
X40202Y13179D01*
X38801Y13100D01*
X37399Y13100D01*
X35998Y13179D01*
X34604Y13336D01*
X33221Y13571D01*
X31853Y13883D01*
X30505Y14271D01*
X29181Y14735D01*
X27885Y15271D01*
X26621Y15880D01*
X25393Y16559D01*
X24205Y17305D01*
X23061Y18117D01*
X21964Y18992D01*
X20918Y19926D01*
X19926Y20918D01*
X18992Y21964D01*
X18117Y23061D01*
X17305Y24205D01*
X16559Y25393D01*
X15880Y26621D01*
X15271Y27885D01*
X14735Y29181D01*
X14271Y30505D01*
X13883Y31853D01*
X13571Y33221D01*
X13336Y34604D01*
X13179Y35998D01*
X13100Y37399D01*
X13100Y38801D01*
X13179Y40202D01*
X13336Y41596D01*
X13571Y42979D01*
X13883Y44347D01*
X14271Y45695D01*
X14735Y47019D01*
X15271Y48315D01*
X15880Y49579D01*
X16559Y50807D01*
X17305Y51995D01*
X18117Y53139D01*
X18992Y54236D01*
X19926Y55282D01*
X20918Y56274D01*
X21964Y57208D01*
X23061Y58083D01*
X24205Y58895D01*
X25393Y59641D01*
X26621Y60320D01*
X27885Y60929D01*
X29181Y61465D01*
X30505Y61929D01*
X31853Y62317D01*
X33221Y62629D01*
X34604Y62864D01*
X35998Y63021D01*
X37399Y63100D01*
X38801Y63100D01*
X40202Y63021D01*
X41596Y62864D01*
X42979Y62629D01*
X44347Y62317D01*
X45695Y61929D01*
X47019Y61465D01*
X48315Y60929D01*
X49579Y60320D01*
X50807Y59641D01*
X51995Y58895D01*
X53139Y58083D01*
X54236Y57208D01*
X55282Y56274D01*
X56274Y55282D01*
X57208Y54236D01*
X58083Y53139D01*
X58895Y51995D01*
X59641Y50807D01*
X60320Y49579D01*
X60929Y48315D01*
X61465Y47019D01*
X61929Y45695D01*
X62317Y44347D01*
X62629Y42979D01*
X62864Y41596D01*
X63021Y40202D01*
X63100Y38801D01*
X63100Y37399D01*
M02*
