G04 EAGLE Gerber RS-274X export*
G75*
%MOMM*%
%FSLAX34Y34*%
%LPD*%
%INSilkscreen Bottom*%
%IPPOS*%
%AMOC8*
5,1,8,0,0,1.08239X$1,22.5*%
G01*
%ADD10C,0.152400*%
%ADD11C,0.127000*%
%ADD12C,0.300000*%
%ADD13C,0.101600*%


D10*
X316738Y14732D02*
X316738Y30988D01*
X311319Y21957D01*
X305901Y30988D01*
X305901Y14732D01*
X295692Y21054D02*
X291628Y21054D01*
X295692Y21054D02*
X295804Y21052D01*
X295915Y21046D01*
X296026Y21036D01*
X296137Y21023D01*
X296247Y21005D01*
X296356Y20983D01*
X296465Y20958D01*
X296573Y20929D01*
X296679Y20896D01*
X296785Y20859D01*
X296889Y20819D01*
X296991Y20775D01*
X297092Y20727D01*
X297191Y20676D01*
X297289Y20621D01*
X297384Y20563D01*
X297477Y20502D01*
X297568Y20437D01*
X297657Y20369D01*
X297743Y20298D01*
X297826Y20225D01*
X297907Y20148D01*
X297986Y20068D01*
X298061Y19986D01*
X298133Y19901D01*
X298203Y19814D01*
X298269Y19724D01*
X298332Y19632D01*
X298392Y19537D01*
X298448Y19441D01*
X298501Y19343D01*
X298550Y19243D01*
X298596Y19141D01*
X298638Y19038D01*
X298677Y18933D01*
X298712Y18827D01*
X298743Y18720D01*
X298770Y18612D01*
X298794Y18503D01*
X298813Y18393D01*
X298829Y18283D01*
X298841Y18172D01*
X298849Y18060D01*
X298853Y17949D01*
X298853Y17837D01*
X298849Y17726D01*
X298841Y17614D01*
X298829Y17503D01*
X298813Y17393D01*
X298794Y17283D01*
X298770Y17174D01*
X298743Y17066D01*
X298712Y16959D01*
X298677Y16853D01*
X298638Y16748D01*
X298596Y16645D01*
X298550Y16543D01*
X298501Y16443D01*
X298448Y16345D01*
X298392Y16249D01*
X298332Y16154D01*
X298269Y16062D01*
X298203Y15972D01*
X298133Y15885D01*
X298061Y15800D01*
X297986Y15718D01*
X297907Y15638D01*
X297826Y15561D01*
X297743Y15488D01*
X297657Y15417D01*
X297568Y15349D01*
X297477Y15284D01*
X297384Y15223D01*
X297289Y15165D01*
X297191Y15110D01*
X297092Y15059D01*
X296991Y15011D01*
X296889Y14967D01*
X296785Y14927D01*
X296679Y14890D01*
X296573Y14857D01*
X296465Y14828D01*
X296356Y14803D01*
X296247Y14781D01*
X296137Y14763D01*
X296026Y14750D01*
X295915Y14740D01*
X295804Y14734D01*
X295692Y14732D01*
X291628Y14732D01*
X291628Y22860D01*
X291630Y22961D01*
X291636Y23062D01*
X291645Y23163D01*
X291658Y23264D01*
X291675Y23364D01*
X291696Y23463D01*
X291720Y23561D01*
X291748Y23658D01*
X291780Y23755D01*
X291815Y23850D01*
X291854Y23943D01*
X291896Y24035D01*
X291942Y24126D01*
X291991Y24215D01*
X292043Y24301D01*
X292099Y24386D01*
X292157Y24469D01*
X292219Y24549D01*
X292284Y24627D01*
X292351Y24703D01*
X292421Y24776D01*
X292494Y24846D01*
X292570Y24913D01*
X292648Y24978D01*
X292728Y25040D01*
X292811Y25098D01*
X292896Y25154D01*
X292983Y25206D01*
X293071Y25255D01*
X293162Y25301D01*
X293254Y25343D01*
X293347Y25382D01*
X293442Y25417D01*
X293539Y25449D01*
X293636Y25477D01*
X293734Y25501D01*
X293833Y25522D01*
X293933Y25539D01*
X294034Y25552D01*
X294135Y25561D01*
X294236Y25567D01*
X294337Y25569D01*
X297950Y25569D01*
X277560Y30988D02*
X277560Y14732D01*
X282075Y14732D01*
X282176Y14734D01*
X282277Y14740D01*
X282378Y14749D01*
X282479Y14762D01*
X282579Y14779D01*
X282678Y14800D01*
X282776Y14824D01*
X282873Y14852D01*
X282970Y14884D01*
X283065Y14919D01*
X283158Y14958D01*
X283250Y15000D01*
X283341Y15046D01*
X283430Y15095D01*
X283516Y15147D01*
X283601Y15203D01*
X283684Y15261D01*
X283764Y15323D01*
X283842Y15388D01*
X283918Y15455D01*
X283991Y15525D01*
X284061Y15598D01*
X284128Y15674D01*
X284193Y15752D01*
X284255Y15832D01*
X284313Y15915D01*
X284369Y16000D01*
X284421Y16086D01*
X284470Y16175D01*
X284516Y16266D01*
X284558Y16358D01*
X284597Y16451D01*
X284632Y16546D01*
X284664Y16643D01*
X284692Y16740D01*
X284716Y16838D01*
X284737Y16937D01*
X284754Y17037D01*
X284767Y17138D01*
X284776Y17239D01*
X284782Y17340D01*
X284784Y17441D01*
X284785Y17441D02*
X284785Y22860D01*
X284784Y22860D02*
X284782Y22961D01*
X284776Y23062D01*
X284767Y23163D01*
X284754Y23264D01*
X284737Y23364D01*
X284716Y23463D01*
X284692Y23561D01*
X284664Y23658D01*
X284632Y23755D01*
X284597Y23850D01*
X284558Y23943D01*
X284516Y24035D01*
X284470Y24126D01*
X284421Y24215D01*
X284369Y24301D01*
X284313Y24386D01*
X284255Y24469D01*
X284193Y24549D01*
X284128Y24627D01*
X284061Y24703D01*
X283991Y24776D01*
X283918Y24846D01*
X283842Y24913D01*
X283764Y24978D01*
X283684Y25040D01*
X283601Y25098D01*
X283516Y25154D01*
X283430Y25206D01*
X283341Y25255D01*
X283250Y25301D01*
X283158Y25343D01*
X283065Y25382D01*
X282970Y25417D01*
X282873Y25449D01*
X282776Y25477D01*
X282678Y25501D01*
X282579Y25522D01*
X282479Y25539D01*
X282378Y25552D01*
X282277Y25561D01*
X282176Y25567D01*
X282075Y25569D01*
X277560Y25569D01*
X267934Y14732D02*
X263418Y14732D01*
X267934Y14732D02*
X268035Y14734D01*
X268136Y14740D01*
X268237Y14749D01*
X268338Y14762D01*
X268438Y14779D01*
X268537Y14800D01*
X268635Y14824D01*
X268732Y14852D01*
X268829Y14884D01*
X268924Y14919D01*
X269017Y14958D01*
X269109Y15000D01*
X269200Y15046D01*
X269289Y15095D01*
X269375Y15147D01*
X269460Y15203D01*
X269543Y15261D01*
X269623Y15323D01*
X269701Y15388D01*
X269777Y15455D01*
X269850Y15525D01*
X269920Y15598D01*
X269987Y15674D01*
X270052Y15752D01*
X270114Y15832D01*
X270172Y15915D01*
X270228Y16000D01*
X270280Y16086D01*
X270329Y16175D01*
X270375Y16266D01*
X270417Y16358D01*
X270456Y16451D01*
X270491Y16546D01*
X270523Y16643D01*
X270551Y16740D01*
X270575Y16838D01*
X270596Y16937D01*
X270613Y17037D01*
X270626Y17138D01*
X270635Y17239D01*
X270641Y17340D01*
X270643Y17441D01*
X270643Y21957D01*
X270641Y22076D01*
X270635Y22196D01*
X270625Y22315D01*
X270611Y22433D01*
X270594Y22552D01*
X270572Y22669D01*
X270547Y22786D01*
X270517Y22901D01*
X270484Y23016D01*
X270447Y23130D01*
X270407Y23242D01*
X270362Y23353D01*
X270314Y23462D01*
X270263Y23570D01*
X270208Y23676D01*
X270149Y23780D01*
X270087Y23882D01*
X270022Y23982D01*
X269953Y24080D01*
X269881Y24176D01*
X269806Y24269D01*
X269729Y24359D01*
X269648Y24447D01*
X269564Y24532D01*
X269477Y24614D01*
X269388Y24694D01*
X269296Y24770D01*
X269202Y24844D01*
X269105Y24914D01*
X269007Y24981D01*
X268906Y25045D01*
X268802Y25105D01*
X268697Y25162D01*
X268590Y25215D01*
X268482Y25265D01*
X268372Y25311D01*
X268260Y25353D01*
X268147Y25392D01*
X268033Y25427D01*
X267918Y25458D01*
X267801Y25486D01*
X267684Y25509D01*
X267567Y25529D01*
X267448Y25545D01*
X267329Y25557D01*
X267210Y25565D01*
X267091Y25569D01*
X266971Y25569D01*
X266852Y25565D01*
X266733Y25557D01*
X266614Y25545D01*
X266495Y25529D01*
X266378Y25509D01*
X266261Y25486D01*
X266144Y25458D01*
X266029Y25427D01*
X265915Y25392D01*
X265802Y25353D01*
X265690Y25311D01*
X265580Y25265D01*
X265472Y25215D01*
X265365Y25162D01*
X265260Y25105D01*
X265156Y25045D01*
X265055Y24981D01*
X264957Y24914D01*
X264860Y24844D01*
X264766Y24770D01*
X264674Y24694D01*
X264585Y24614D01*
X264498Y24532D01*
X264414Y24447D01*
X264333Y24359D01*
X264256Y24269D01*
X264181Y24176D01*
X264109Y24080D01*
X264040Y23982D01*
X263975Y23882D01*
X263913Y23780D01*
X263854Y23676D01*
X263799Y23570D01*
X263748Y23462D01*
X263700Y23353D01*
X263655Y23242D01*
X263615Y23130D01*
X263578Y23016D01*
X263545Y22901D01*
X263515Y22786D01*
X263490Y22669D01*
X263468Y22552D01*
X263451Y22433D01*
X263437Y22315D01*
X263427Y22196D01*
X263421Y22076D01*
X263419Y21957D01*
X263418Y21957D02*
X263418Y20151D01*
X270643Y20151D01*
X248165Y14732D02*
X248165Y30988D01*
X248165Y14732D02*
X243650Y14732D01*
X243546Y14734D01*
X243443Y14740D01*
X243339Y14750D01*
X243236Y14764D01*
X243134Y14782D01*
X243033Y14803D01*
X242932Y14829D01*
X242833Y14858D01*
X242734Y14891D01*
X242637Y14928D01*
X242542Y14969D01*
X242448Y15013D01*
X242356Y15061D01*
X242266Y15112D01*
X242177Y15167D01*
X242091Y15225D01*
X242008Y15287D01*
X241926Y15351D01*
X241848Y15419D01*
X241772Y15489D01*
X241698Y15562D01*
X241628Y15639D01*
X241560Y15717D01*
X241496Y15799D01*
X241434Y15882D01*
X241376Y15968D01*
X241321Y16057D01*
X241270Y16147D01*
X241222Y16239D01*
X241178Y16333D01*
X241137Y16428D01*
X241100Y16525D01*
X241067Y16624D01*
X241038Y16723D01*
X241012Y16824D01*
X240991Y16925D01*
X240973Y17027D01*
X240959Y17130D01*
X240949Y17234D01*
X240943Y17337D01*
X240941Y17441D01*
X240940Y17441D02*
X240940Y22860D01*
X240941Y22860D02*
X240943Y22961D01*
X240949Y23062D01*
X240958Y23163D01*
X240971Y23264D01*
X240988Y23364D01*
X241009Y23463D01*
X241033Y23561D01*
X241061Y23658D01*
X241093Y23755D01*
X241128Y23850D01*
X241167Y23943D01*
X241209Y24035D01*
X241255Y24126D01*
X241304Y24215D01*
X241356Y24301D01*
X241412Y24386D01*
X241470Y24469D01*
X241532Y24549D01*
X241597Y24627D01*
X241664Y24703D01*
X241734Y24776D01*
X241807Y24846D01*
X241883Y24913D01*
X241961Y24978D01*
X242041Y25040D01*
X242124Y25098D01*
X242209Y25154D01*
X242296Y25206D01*
X242384Y25255D01*
X242475Y25301D01*
X242567Y25343D01*
X242660Y25382D01*
X242755Y25417D01*
X242852Y25449D01*
X242949Y25477D01*
X243047Y25501D01*
X243146Y25522D01*
X243246Y25539D01*
X243347Y25552D01*
X243448Y25561D01*
X243549Y25567D01*
X243650Y25569D01*
X248165Y25569D01*
X235213Y9313D02*
X233406Y9313D01*
X227988Y25569D01*
X235213Y25569D02*
X231600Y14732D01*
X213572Y21054D02*
X202735Y21054D01*
X180816Y23763D02*
X178107Y23763D01*
X178107Y14732D01*
X183526Y14732D01*
X183644Y14734D01*
X183762Y14740D01*
X183880Y14749D01*
X183997Y14763D01*
X184114Y14780D01*
X184231Y14801D01*
X184346Y14826D01*
X184461Y14855D01*
X184575Y14888D01*
X184687Y14924D01*
X184798Y14964D01*
X184908Y15007D01*
X185017Y15054D01*
X185124Y15104D01*
X185229Y15159D01*
X185332Y15216D01*
X185433Y15277D01*
X185533Y15341D01*
X185630Y15408D01*
X185725Y15478D01*
X185817Y15552D01*
X185908Y15628D01*
X185995Y15708D01*
X186080Y15790D01*
X186162Y15875D01*
X186242Y15962D01*
X186318Y16053D01*
X186392Y16145D01*
X186462Y16240D01*
X186529Y16337D01*
X186593Y16437D01*
X186654Y16538D01*
X186711Y16641D01*
X186766Y16746D01*
X186816Y16853D01*
X186863Y16962D01*
X186906Y17072D01*
X186946Y17183D01*
X186982Y17295D01*
X187015Y17409D01*
X187044Y17524D01*
X187069Y17639D01*
X187090Y17756D01*
X187107Y17873D01*
X187121Y17990D01*
X187130Y18108D01*
X187136Y18226D01*
X187138Y18344D01*
X187138Y27376D01*
X187136Y27494D01*
X187130Y27612D01*
X187121Y27730D01*
X187107Y27847D01*
X187090Y27964D01*
X187069Y28081D01*
X187044Y28196D01*
X187015Y28311D01*
X186982Y28425D01*
X186946Y28537D01*
X186906Y28648D01*
X186863Y28758D01*
X186816Y28867D01*
X186766Y28974D01*
X186711Y29079D01*
X186654Y29182D01*
X186593Y29283D01*
X186529Y29383D01*
X186462Y29480D01*
X186392Y29575D01*
X186318Y29667D01*
X186242Y29758D01*
X186162Y29845D01*
X186080Y29930D01*
X185995Y30012D01*
X185908Y30092D01*
X185817Y30168D01*
X185725Y30242D01*
X185630Y30312D01*
X185533Y30379D01*
X185433Y30443D01*
X185332Y30504D01*
X185229Y30561D01*
X185124Y30616D01*
X185017Y30666D01*
X184908Y30713D01*
X184798Y30756D01*
X184687Y30796D01*
X184575Y30832D01*
X184461Y30865D01*
X184346Y30894D01*
X184231Y30919D01*
X184114Y30940D01*
X183997Y30957D01*
X183880Y30971D01*
X183762Y30980D01*
X183644Y30986D01*
X183526Y30988D01*
X178107Y30988D01*
X171611Y15635D02*
X171611Y14732D01*
X171611Y15635D02*
X170708Y15635D01*
X170708Y14732D01*
X171611Y14732D01*
X164001Y14732D02*
X164001Y30988D01*
X154970Y30988D02*
X164001Y21054D01*
X160389Y24666D02*
X154970Y14732D01*
X146153Y21054D02*
X142089Y21054D01*
X146153Y21054D02*
X146265Y21052D01*
X146376Y21046D01*
X146487Y21036D01*
X146598Y21023D01*
X146708Y21005D01*
X146817Y20983D01*
X146926Y20958D01*
X147034Y20929D01*
X147140Y20896D01*
X147246Y20859D01*
X147350Y20819D01*
X147452Y20775D01*
X147553Y20727D01*
X147652Y20676D01*
X147750Y20621D01*
X147845Y20563D01*
X147938Y20502D01*
X148029Y20437D01*
X148118Y20369D01*
X148204Y20298D01*
X148287Y20225D01*
X148368Y20148D01*
X148447Y20068D01*
X148522Y19986D01*
X148594Y19901D01*
X148664Y19814D01*
X148730Y19724D01*
X148793Y19632D01*
X148853Y19537D01*
X148909Y19441D01*
X148962Y19343D01*
X149011Y19243D01*
X149057Y19141D01*
X149099Y19038D01*
X149138Y18933D01*
X149173Y18827D01*
X149204Y18720D01*
X149231Y18612D01*
X149255Y18503D01*
X149274Y18393D01*
X149290Y18283D01*
X149302Y18172D01*
X149310Y18060D01*
X149314Y17949D01*
X149314Y17837D01*
X149310Y17726D01*
X149302Y17614D01*
X149290Y17503D01*
X149274Y17393D01*
X149255Y17283D01*
X149231Y17174D01*
X149204Y17066D01*
X149173Y16959D01*
X149138Y16853D01*
X149099Y16748D01*
X149057Y16645D01*
X149011Y16543D01*
X148962Y16443D01*
X148909Y16345D01*
X148853Y16249D01*
X148793Y16154D01*
X148730Y16062D01*
X148664Y15972D01*
X148594Y15885D01*
X148522Y15800D01*
X148447Y15718D01*
X148368Y15638D01*
X148287Y15561D01*
X148204Y15488D01*
X148118Y15417D01*
X148029Y15349D01*
X147938Y15284D01*
X147845Y15223D01*
X147750Y15165D01*
X147652Y15110D01*
X147553Y15059D01*
X147452Y15011D01*
X147350Y14967D01*
X147246Y14927D01*
X147140Y14890D01*
X147034Y14857D01*
X146926Y14828D01*
X146817Y14803D01*
X146708Y14781D01*
X146598Y14763D01*
X146487Y14750D01*
X146376Y14740D01*
X146265Y14734D01*
X146153Y14732D01*
X142089Y14732D01*
X142089Y22860D01*
X142090Y22860D02*
X142092Y22961D01*
X142098Y23062D01*
X142107Y23163D01*
X142120Y23264D01*
X142137Y23364D01*
X142158Y23463D01*
X142182Y23561D01*
X142210Y23658D01*
X142242Y23755D01*
X142277Y23850D01*
X142316Y23943D01*
X142358Y24035D01*
X142404Y24126D01*
X142453Y24215D01*
X142505Y24301D01*
X142561Y24386D01*
X142619Y24469D01*
X142681Y24549D01*
X142746Y24627D01*
X142813Y24703D01*
X142883Y24776D01*
X142956Y24846D01*
X143032Y24913D01*
X143110Y24978D01*
X143190Y25040D01*
X143273Y25098D01*
X143358Y25154D01*
X143445Y25206D01*
X143533Y25255D01*
X143624Y25301D01*
X143716Y25343D01*
X143809Y25382D01*
X143904Y25417D01*
X144001Y25449D01*
X144098Y25477D01*
X144196Y25501D01*
X144295Y25522D01*
X144395Y25539D01*
X144496Y25552D01*
X144597Y25561D01*
X144698Y25567D01*
X144799Y25569D01*
X148411Y25569D01*
X134567Y25569D02*
X134567Y14732D01*
X134567Y25569D02*
X129148Y25569D01*
X129148Y23763D01*
X125528Y25569D02*
X120110Y25569D01*
X123722Y30988D02*
X123722Y17441D01*
X123720Y17340D01*
X123714Y17239D01*
X123705Y17138D01*
X123692Y17037D01*
X123675Y16937D01*
X123654Y16838D01*
X123630Y16740D01*
X123602Y16643D01*
X123570Y16546D01*
X123535Y16451D01*
X123496Y16358D01*
X123454Y16266D01*
X123408Y16175D01*
X123359Y16086D01*
X123307Y16000D01*
X123251Y15915D01*
X123193Y15832D01*
X123131Y15752D01*
X123066Y15674D01*
X122999Y15598D01*
X122929Y15525D01*
X122856Y15455D01*
X122780Y15388D01*
X122702Y15323D01*
X122622Y15261D01*
X122539Y15203D01*
X122454Y15147D01*
X122367Y15095D01*
X122279Y15046D01*
X122188Y15000D01*
X122096Y14958D01*
X122003Y14919D01*
X121908Y14884D01*
X121811Y14852D01*
X121714Y14824D01*
X121616Y14800D01*
X121517Y14779D01*
X121417Y14762D01*
X121316Y14749D01*
X121215Y14740D01*
X121114Y14734D01*
X121013Y14732D01*
X120110Y14732D01*
X113810Y14732D02*
X113810Y30988D01*
X113810Y25569D02*
X109295Y25569D01*
X109191Y25567D01*
X109088Y25561D01*
X108984Y25551D01*
X108881Y25537D01*
X108779Y25519D01*
X108678Y25498D01*
X108577Y25472D01*
X108478Y25443D01*
X108379Y25410D01*
X108282Y25373D01*
X108187Y25332D01*
X108093Y25288D01*
X108001Y25240D01*
X107911Y25189D01*
X107822Y25134D01*
X107736Y25076D01*
X107653Y25014D01*
X107571Y24950D01*
X107493Y24882D01*
X107417Y24812D01*
X107343Y24739D01*
X107273Y24662D01*
X107205Y24584D01*
X107141Y24502D01*
X107079Y24419D01*
X107021Y24333D01*
X106966Y24244D01*
X106915Y24154D01*
X106867Y24062D01*
X106823Y23968D01*
X106782Y23873D01*
X106745Y23776D01*
X106712Y23677D01*
X106683Y23578D01*
X106657Y23477D01*
X106636Y23376D01*
X106618Y23274D01*
X106604Y23171D01*
X106594Y23067D01*
X106588Y22964D01*
X106586Y22860D01*
X106585Y22860D02*
X106585Y14732D01*
X99777Y14732D02*
X99777Y25569D01*
X100229Y30085D02*
X100229Y30988D01*
X99325Y30988D01*
X99325Y30085D01*
X100229Y30085D01*
X92800Y30988D02*
X92800Y14732D01*
X92800Y20151D02*
X85575Y25569D01*
X89639Y22408D02*
X85575Y14732D01*
X1438007Y43744D02*
X1438009Y43626D01*
X1438015Y43508D01*
X1438024Y43390D01*
X1438038Y43273D01*
X1438055Y43156D01*
X1438076Y43039D01*
X1438101Y42924D01*
X1438130Y42809D01*
X1438163Y42695D01*
X1438199Y42583D01*
X1438239Y42472D01*
X1438282Y42362D01*
X1438329Y42253D01*
X1438379Y42146D01*
X1438434Y42041D01*
X1438491Y41938D01*
X1438552Y41837D01*
X1438616Y41737D01*
X1438683Y41640D01*
X1438753Y41545D01*
X1438827Y41453D01*
X1438903Y41362D01*
X1438983Y41275D01*
X1439065Y41190D01*
X1439150Y41108D01*
X1439237Y41028D01*
X1439328Y40952D01*
X1439420Y40878D01*
X1439515Y40808D01*
X1439612Y40741D01*
X1439712Y40677D01*
X1439813Y40616D01*
X1439916Y40559D01*
X1440021Y40504D01*
X1440128Y40454D01*
X1440237Y40407D01*
X1440347Y40364D01*
X1440458Y40324D01*
X1440570Y40288D01*
X1440684Y40255D01*
X1440799Y40226D01*
X1440914Y40201D01*
X1441031Y40180D01*
X1441148Y40163D01*
X1441265Y40149D01*
X1441383Y40140D01*
X1441501Y40134D01*
X1441619Y40132D01*
X1441802Y40134D01*
X1441984Y40141D01*
X1442166Y40152D01*
X1442348Y40167D01*
X1442530Y40187D01*
X1442711Y40211D01*
X1442891Y40239D01*
X1443071Y40271D01*
X1443250Y40308D01*
X1443427Y40349D01*
X1443604Y40395D01*
X1443780Y40444D01*
X1443955Y40498D01*
X1444128Y40556D01*
X1444299Y40618D01*
X1444470Y40684D01*
X1444638Y40755D01*
X1444805Y40829D01*
X1444970Y40907D01*
X1445133Y40989D01*
X1445294Y41075D01*
X1445453Y41165D01*
X1445610Y41259D01*
X1445764Y41356D01*
X1445916Y41457D01*
X1446066Y41562D01*
X1446213Y41670D01*
X1446357Y41781D01*
X1446499Y41896D01*
X1446638Y42015D01*
X1446774Y42137D01*
X1446907Y42262D01*
X1447037Y42390D01*
X1446586Y52776D02*
X1446584Y52894D01*
X1446578Y53012D01*
X1446569Y53130D01*
X1446555Y53247D01*
X1446538Y53364D01*
X1446517Y53481D01*
X1446492Y53596D01*
X1446463Y53711D01*
X1446430Y53825D01*
X1446394Y53937D01*
X1446354Y54048D01*
X1446311Y54158D01*
X1446264Y54267D01*
X1446214Y54374D01*
X1446159Y54479D01*
X1446102Y54582D01*
X1446041Y54683D01*
X1445977Y54783D01*
X1445910Y54880D01*
X1445840Y54975D01*
X1445766Y55067D01*
X1445690Y55158D01*
X1445610Y55245D01*
X1445528Y55330D01*
X1445443Y55412D01*
X1445356Y55492D01*
X1445265Y55568D01*
X1445173Y55642D01*
X1445078Y55712D01*
X1444981Y55779D01*
X1444881Y55843D01*
X1444780Y55904D01*
X1444677Y55961D01*
X1444572Y56016D01*
X1444465Y56066D01*
X1444356Y56113D01*
X1444246Y56156D01*
X1444135Y56196D01*
X1444023Y56232D01*
X1443909Y56265D01*
X1443794Y56294D01*
X1443679Y56319D01*
X1443562Y56340D01*
X1443445Y56357D01*
X1443328Y56371D01*
X1443210Y56380D01*
X1443092Y56386D01*
X1442974Y56388D01*
X1442813Y56386D01*
X1442651Y56380D01*
X1442490Y56371D01*
X1442329Y56357D01*
X1442169Y56340D01*
X1442009Y56319D01*
X1441849Y56294D01*
X1441690Y56265D01*
X1441532Y56233D01*
X1441375Y56197D01*
X1441219Y56157D01*
X1441063Y56113D01*
X1440909Y56065D01*
X1440756Y56014D01*
X1440604Y55960D01*
X1440453Y55901D01*
X1440304Y55840D01*
X1440157Y55774D01*
X1440011Y55705D01*
X1439866Y55633D01*
X1439724Y55557D01*
X1439583Y55478D01*
X1439444Y55396D01*
X1439308Y55310D01*
X1439173Y55221D01*
X1439040Y55129D01*
X1438910Y55033D01*
X1444781Y49615D02*
X1444882Y49677D01*
X1444982Y49742D01*
X1445079Y49811D01*
X1445174Y49883D01*
X1445267Y49957D01*
X1445357Y50035D01*
X1445445Y50116D01*
X1445530Y50199D01*
X1445612Y50285D01*
X1445691Y50374D01*
X1445768Y50465D01*
X1445841Y50559D01*
X1445912Y50655D01*
X1445979Y50753D01*
X1446043Y50853D01*
X1446104Y50956D01*
X1446161Y51060D01*
X1446215Y51166D01*
X1446265Y51274D01*
X1446312Y51383D01*
X1446356Y51494D01*
X1446396Y51606D01*
X1446432Y51720D01*
X1446464Y51834D01*
X1446493Y51950D01*
X1446518Y52066D01*
X1446539Y52183D01*
X1446556Y52301D01*
X1446570Y52419D01*
X1446579Y52538D01*
X1446585Y52657D01*
X1446587Y52776D01*
X1439813Y46905D02*
X1439712Y46843D01*
X1439612Y46778D01*
X1439515Y46709D01*
X1439420Y46637D01*
X1439327Y46563D01*
X1439237Y46485D01*
X1439149Y46404D01*
X1439064Y46321D01*
X1438982Y46235D01*
X1438903Y46146D01*
X1438826Y46055D01*
X1438753Y45961D01*
X1438682Y45865D01*
X1438615Y45767D01*
X1438551Y45667D01*
X1438490Y45564D01*
X1438433Y45460D01*
X1438379Y45354D01*
X1438329Y45246D01*
X1438282Y45137D01*
X1438238Y45026D01*
X1438198Y44914D01*
X1438162Y44800D01*
X1438130Y44686D01*
X1438101Y44570D01*
X1438076Y44454D01*
X1438055Y44337D01*
X1438038Y44219D01*
X1438024Y44101D01*
X1438015Y43982D01*
X1438009Y43863D01*
X1438007Y43744D01*
X1439813Y46905D02*
X1444780Y49615D01*
X1431315Y56388D02*
X1431315Y40132D01*
X1431315Y56388D02*
X1426800Y56388D01*
X1426667Y56386D01*
X1426535Y56380D01*
X1426403Y56370D01*
X1426271Y56357D01*
X1426139Y56339D01*
X1426009Y56318D01*
X1425878Y56293D01*
X1425749Y56264D01*
X1425621Y56231D01*
X1425493Y56195D01*
X1425367Y56155D01*
X1425242Y56111D01*
X1425118Y56063D01*
X1424996Y56012D01*
X1424875Y55957D01*
X1424756Y55899D01*
X1424638Y55837D01*
X1424523Y55772D01*
X1424409Y55703D01*
X1424298Y55632D01*
X1424189Y55556D01*
X1424082Y55478D01*
X1423977Y55397D01*
X1423875Y55312D01*
X1423775Y55225D01*
X1423678Y55135D01*
X1423583Y55042D01*
X1423492Y54946D01*
X1423403Y54848D01*
X1423317Y54747D01*
X1423234Y54643D01*
X1423154Y54537D01*
X1423078Y54429D01*
X1423004Y54319D01*
X1422934Y54206D01*
X1422867Y54092D01*
X1422804Y53975D01*
X1422744Y53857D01*
X1422687Y53737D01*
X1422634Y53615D01*
X1422585Y53492D01*
X1422539Y53368D01*
X1422497Y53242D01*
X1422459Y53115D01*
X1422424Y52987D01*
X1422393Y52858D01*
X1422366Y52729D01*
X1422343Y52598D01*
X1422323Y52467D01*
X1422308Y52335D01*
X1422296Y52203D01*
X1422288Y52071D01*
X1422284Y51938D01*
X1422284Y51806D01*
X1422288Y51673D01*
X1422296Y51541D01*
X1422308Y51409D01*
X1422323Y51277D01*
X1422343Y51146D01*
X1422366Y51015D01*
X1422393Y50886D01*
X1422424Y50757D01*
X1422459Y50629D01*
X1422497Y50502D01*
X1422539Y50376D01*
X1422585Y50252D01*
X1422634Y50129D01*
X1422687Y50007D01*
X1422744Y49887D01*
X1422804Y49769D01*
X1422867Y49652D01*
X1422934Y49538D01*
X1423004Y49425D01*
X1423078Y49315D01*
X1423154Y49207D01*
X1423234Y49101D01*
X1423317Y48997D01*
X1423403Y48896D01*
X1423492Y48798D01*
X1423583Y48702D01*
X1423678Y48609D01*
X1423775Y48519D01*
X1423875Y48432D01*
X1423977Y48347D01*
X1424082Y48266D01*
X1424189Y48188D01*
X1424298Y48112D01*
X1424409Y48041D01*
X1424523Y47972D01*
X1424638Y47907D01*
X1424756Y47845D01*
X1424875Y47787D01*
X1424996Y47732D01*
X1425118Y47681D01*
X1425242Y47633D01*
X1425367Y47589D01*
X1425493Y47549D01*
X1425621Y47513D01*
X1425749Y47480D01*
X1425878Y47451D01*
X1426009Y47426D01*
X1426139Y47405D01*
X1426271Y47387D01*
X1426403Y47374D01*
X1426535Y47364D01*
X1426667Y47358D01*
X1426800Y47356D01*
X1426800Y47357D02*
X1431315Y47357D01*
X1425897Y47357D02*
X1422284Y40132D01*
X1415116Y40132D02*
X1415116Y56388D01*
X1409697Y47357D01*
X1404278Y56388D01*
X1404278Y40132D01*
X1385208Y40132D02*
X1385208Y56388D01*
X1389723Y56388D02*
X1380692Y56388D01*
X1374583Y40132D02*
X1367359Y40132D01*
X1374583Y40132D02*
X1374583Y56388D01*
X1367359Y56388D01*
X1369165Y49163D02*
X1374583Y49163D01*
X1362490Y40132D02*
X1357072Y56388D01*
X1351653Y40132D01*
X1353008Y44196D02*
X1361136Y44196D01*
X1345296Y40132D02*
X1345296Y56388D01*
X1339877Y47357D01*
X1334459Y56388D01*
X1334459Y40132D01*
X1318249Y40132D02*
X1318249Y56388D01*
X1313734Y56388D01*
X1313601Y56386D01*
X1313469Y56380D01*
X1313337Y56370D01*
X1313205Y56357D01*
X1313073Y56339D01*
X1312943Y56318D01*
X1312812Y56293D01*
X1312683Y56264D01*
X1312555Y56231D01*
X1312427Y56195D01*
X1312301Y56155D01*
X1312176Y56111D01*
X1312052Y56063D01*
X1311930Y56012D01*
X1311809Y55957D01*
X1311690Y55899D01*
X1311572Y55837D01*
X1311457Y55772D01*
X1311343Y55703D01*
X1311232Y55632D01*
X1311123Y55556D01*
X1311016Y55478D01*
X1310911Y55397D01*
X1310809Y55312D01*
X1310709Y55225D01*
X1310612Y55135D01*
X1310517Y55042D01*
X1310426Y54946D01*
X1310337Y54848D01*
X1310251Y54747D01*
X1310168Y54643D01*
X1310088Y54537D01*
X1310012Y54429D01*
X1309938Y54319D01*
X1309868Y54206D01*
X1309801Y54092D01*
X1309738Y53975D01*
X1309678Y53857D01*
X1309621Y53737D01*
X1309568Y53615D01*
X1309519Y53492D01*
X1309473Y53368D01*
X1309431Y53242D01*
X1309393Y53115D01*
X1309358Y52987D01*
X1309327Y52858D01*
X1309300Y52729D01*
X1309277Y52598D01*
X1309257Y52467D01*
X1309242Y52335D01*
X1309230Y52203D01*
X1309222Y52071D01*
X1309218Y51938D01*
X1309218Y51806D01*
X1309222Y51673D01*
X1309230Y51541D01*
X1309242Y51409D01*
X1309257Y51277D01*
X1309277Y51146D01*
X1309300Y51015D01*
X1309327Y50886D01*
X1309358Y50757D01*
X1309393Y50629D01*
X1309431Y50502D01*
X1309473Y50376D01*
X1309519Y50252D01*
X1309568Y50129D01*
X1309621Y50007D01*
X1309678Y49887D01*
X1309738Y49769D01*
X1309801Y49652D01*
X1309868Y49538D01*
X1309938Y49425D01*
X1310012Y49315D01*
X1310088Y49207D01*
X1310168Y49101D01*
X1310251Y48997D01*
X1310337Y48896D01*
X1310426Y48798D01*
X1310517Y48702D01*
X1310612Y48609D01*
X1310709Y48519D01*
X1310809Y48432D01*
X1310911Y48347D01*
X1311016Y48266D01*
X1311123Y48188D01*
X1311232Y48112D01*
X1311343Y48041D01*
X1311457Y47972D01*
X1311572Y47907D01*
X1311690Y47845D01*
X1311809Y47787D01*
X1311930Y47732D01*
X1312052Y47681D01*
X1312176Y47633D01*
X1312301Y47589D01*
X1312427Y47549D01*
X1312555Y47513D01*
X1312683Y47480D01*
X1312812Y47451D01*
X1312943Y47426D01*
X1313073Y47405D01*
X1313205Y47387D01*
X1313337Y47374D01*
X1313469Y47364D01*
X1313601Y47358D01*
X1313734Y47356D01*
X1313734Y47357D02*
X1318249Y47357D01*
X1312831Y47357D02*
X1309218Y40132D01*
X1302710Y44648D02*
X1302710Y51872D01*
X1302708Y52005D01*
X1302702Y52137D01*
X1302692Y52269D01*
X1302679Y52401D01*
X1302661Y52533D01*
X1302640Y52663D01*
X1302615Y52794D01*
X1302586Y52923D01*
X1302553Y53051D01*
X1302517Y53179D01*
X1302477Y53305D01*
X1302433Y53430D01*
X1302385Y53554D01*
X1302334Y53676D01*
X1302279Y53797D01*
X1302221Y53916D01*
X1302159Y54034D01*
X1302094Y54149D01*
X1302025Y54263D01*
X1301954Y54374D01*
X1301878Y54483D01*
X1301800Y54590D01*
X1301719Y54695D01*
X1301634Y54797D01*
X1301547Y54897D01*
X1301457Y54994D01*
X1301364Y55089D01*
X1301268Y55180D01*
X1301170Y55269D01*
X1301069Y55355D01*
X1300965Y55438D01*
X1300859Y55518D01*
X1300751Y55594D01*
X1300641Y55668D01*
X1300528Y55738D01*
X1300414Y55805D01*
X1300297Y55868D01*
X1300179Y55928D01*
X1300059Y55985D01*
X1299937Y56038D01*
X1299814Y56087D01*
X1299690Y56133D01*
X1299564Y56175D01*
X1299437Y56213D01*
X1299309Y56248D01*
X1299180Y56279D01*
X1299051Y56306D01*
X1298920Y56329D01*
X1298789Y56349D01*
X1298657Y56364D01*
X1298525Y56376D01*
X1298393Y56384D01*
X1298260Y56388D01*
X1298128Y56388D01*
X1297995Y56384D01*
X1297863Y56376D01*
X1297731Y56364D01*
X1297599Y56349D01*
X1297468Y56329D01*
X1297337Y56306D01*
X1297208Y56279D01*
X1297079Y56248D01*
X1296951Y56213D01*
X1296824Y56175D01*
X1296698Y56133D01*
X1296574Y56087D01*
X1296451Y56038D01*
X1296329Y55985D01*
X1296209Y55928D01*
X1296091Y55868D01*
X1295974Y55805D01*
X1295860Y55738D01*
X1295747Y55668D01*
X1295637Y55594D01*
X1295529Y55518D01*
X1295423Y55438D01*
X1295319Y55355D01*
X1295218Y55269D01*
X1295120Y55180D01*
X1295024Y55089D01*
X1294931Y54994D01*
X1294841Y54897D01*
X1294754Y54797D01*
X1294669Y54695D01*
X1294588Y54590D01*
X1294510Y54483D01*
X1294434Y54374D01*
X1294363Y54263D01*
X1294294Y54149D01*
X1294229Y54034D01*
X1294167Y53916D01*
X1294109Y53797D01*
X1294054Y53676D01*
X1294003Y53554D01*
X1293955Y53430D01*
X1293911Y53305D01*
X1293871Y53179D01*
X1293835Y53051D01*
X1293802Y52923D01*
X1293773Y52794D01*
X1293748Y52663D01*
X1293727Y52533D01*
X1293709Y52401D01*
X1293696Y52269D01*
X1293686Y52137D01*
X1293680Y52005D01*
X1293678Y51872D01*
X1293679Y51872D02*
X1293679Y44648D01*
X1293678Y44648D02*
X1293680Y44515D01*
X1293686Y44383D01*
X1293696Y44251D01*
X1293709Y44119D01*
X1293727Y43987D01*
X1293748Y43857D01*
X1293773Y43726D01*
X1293802Y43597D01*
X1293835Y43469D01*
X1293871Y43341D01*
X1293911Y43215D01*
X1293955Y43090D01*
X1294003Y42966D01*
X1294054Y42844D01*
X1294109Y42723D01*
X1294167Y42604D01*
X1294229Y42486D01*
X1294294Y42371D01*
X1294363Y42257D01*
X1294434Y42146D01*
X1294510Y42037D01*
X1294588Y41930D01*
X1294669Y41825D01*
X1294754Y41723D01*
X1294841Y41623D01*
X1294931Y41526D01*
X1295024Y41431D01*
X1295120Y41340D01*
X1295218Y41251D01*
X1295319Y41165D01*
X1295423Y41082D01*
X1295529Y41002D01*
X1295637Y40926D01*
X1295747Y40852D01*
X1295860Y40782D01*
X1295974Y40715D01*
X1296091Y40652D01*
X1296209Y40592D01*
X1296329Y40535D01*
X1296451Y40482D01*
X1296574Y40433D01*
X1296698Y40387D01*
X1296824Y40345D01*
X1296951Y40307D01*
X1297079Y40272D01*
X1297208Y40241D01*
X1297337Y40214D01*
X1297468Y40191D01*
X1297599Y40171D01*
X1297731Y40156D01*
X1297863Y40144D01*
X1297995Y40136D01*
X1298128Y40132D01*
X1298260Y40132D01*
X1298393Y40136D01*
X1298525Y40144D01*
X1298657Y40156D01*
X1298789Y40171D01*
X1298920Y40191D01*
X1299051Y40214D01*
X1299180Y40241D01*
X1299309Y40272D01*
X1299437Y40307D01*
X1299564Y40345D01*
X1299690Y40387D01*
X1299814Y40433D01*
X1299937Y40482D01*
X1300059Y40535D01*
X1300179Y40592D01*
X1300297Y40652D01*
X1300414Y40715D01*
X1300528Y40782D01*
X1300641Y40852D01*
X1300751Y40926D01*
X1300859Y41002D01*
X1300965Y41082D01*
X1301069Y41165D01*
X1301170Y41251D01*
X1301268Y41340D01*
X1301364Y41431D01*
X1301457Y41526D01*
X1301547Y41623D01*
X1301634Y41723D01*
X1301719Y41825D01*
X1301800Y41930D01*
X1301878Y42037D01*
X1301954Y42146D01*
X1302025Y42257D01*
X1302094Y42371D01*
X1302159Y42486D01*
X1302221Y42604D01*
X1302279Y42723D01*
X1302334Y42844D01*
X1302385Y42966D01*
X1302433Y43090D01*
X1302477Y43215D01*
X1302517Y43341D01*
X1302553Y43469D01*
X1302586Y43597D01*
X1302615Y43726D01*
X1302640Y43857D01*
X1302661Y43987D01*
X1302679Y44119D01*
X1302692Y44251D01*
X1302702Y44383D01*
X1302708Y44515D01*
X1302710Y44648D01*
X1286346Y49163D02*
X1281831Y49163D01*
X1281831Y49164D02*
X1281698Y49162D01*
X1281566Y49156D01*
X1281434Y49146D01*
X1281302Y49133D01*
X1281170Y49115D01*
X1281040Y49094D01*
X1280909Y49069D01*
X1280780Y49040D01*
X1280652Y49007D01*
X1280524Y48971D01*
X1280398Y48931D01*
X1280273Y48887D01*
X1280149Y48839D01*
X1280027Y48788D01*
X1279906Y48733D01*
X1279787Y48675D01*
X1279669Y48613D01*
X1279554Y48548D01*
X1279440Y48479D01*
X1279329Y48408D01*
X1279220Y48332D01*
X1279113Y48254D01*
X1279008Y48173D01*
X1278906Y48088D01*
X1278806Y48001D01*
X1278709Y47911D01*
X1278614Y47818D01*
X1278523Y47722D01*
X1278434Y47624D01*
X1278348Y47523D01*
X1278265Y47419D01*
X1278185Y47313D01*
X1278109Y47205D01*
X1278035Y47095D01*
X1277965Y46982D01*
X1277898Y46868D01*
X1277835Y46751D01*
X1277775Y46633D01*
X1277718Y46513D01*
X1277665Y46391D01*
X1277616Y46268D01*
X1277570Y46144D01*
X1277528Y46018D01*
X1277490Y45891D01*
X1277455Y45763D01*
X1277424Y45634D01*
X1277397Y45505D01*
X1277374Y45374D01*
X1277354Y45243D01*
X1277339Y45111D01*
X1277327Y44979D01*
X1277319Y44847D01*
X1277315Y44714D01*
X1277315Y44582D01*
X1277319Y44449D01*
X1277327Y44317D01*
X1277339Y44185D01*
X1277354Y44053D01*
X1277374Y43922D01*
X1277397Y43791D01*
X1277424Y43662D01*
X1277455Y43533D01*
X1277490Y43405D01*
X1277528Y43278D01*
X1277570Y43152D01*
X1277616Y43028D01*
X1277665Y42905D01*
X1277718Y42783D01*
X1277775Y42663D01*
X1277835Y42545D01*
X1277898Y42428D01*
X1277965Y42314D01*
X1278035Y42201D01*
X1278109Y42091D01*
X1278185Y41983D01*
X1278265Y41877D01*
X1278348Y41773D01*
X1278434Y41672D01*
X1278523Y41574D01*
X1278614Y41478D01*
X1278709Y41385D01*
X1278806Y41295D01*
X1278906Y41208D01*
X1279008Y41123D01*
X1279113Y41042D01*
X1279220Y40964D01*
X1279329Y40888D01*
X1279440Y40817D01*
X1279554Y40748D01*
X1279669Y40683D01*
X1279787Y40621D01*
X1279906Y40563D01*
X1280027Y40508D01*
X1280149Y40457D01*
X1280273Y40409D01*
X1280398Y40365D01*
X1280524Y40325D01*
X1280652Y40289D01*
X1280780Y40256D01*
X1280909Y40227D01*
X1281040Y40202D01*
X1281170Y40181D01*
X1281302Y40163D01*
X1281434Y40150D01*
X1281566Y40140D01*
X1281698Y40134D01*
X1281831Y40132D01*
X1286346Y40132D01*
X1286346Y56388D01*
X1281831Y56388D01*
X1281712Y56386D01*
X1281592Y56380D01*
X1281473Y56370D01*
X1281355Y56356D01*
X1281236Y56339D01*
X1281119Y56317D01*
X1281002Y56292D01*
X1280887Y56262D01*
X1280772Y56229D01*
X1280658Y56192D01*
X1280546Y56152D01*
X1280435Y56107D01*
X1280326Y56059D01*
X1280218Y56008D01*
X1280112Y55953D01*
X1280008Y55894D01*
X1279906Y55832D01*
X1279806Y55767D01*
X1279708Y55698D01*
X1279612Y55626D01*
X1279519Y55551D01*
X1279429Y55474D01*
X1279341Y55393D01*
X1279256Y55309D01*
X1279174Y55222D01*
X1279094Y55133D01*
X1279018Y55041D01*
X1278944Y54947D01*
X1278874Y54850D01*
X1278807Y54752D01*
X1278743Y54651D01*
X1278683Y54547D01*
X1278626Y54442D01*
X1278573Y54335D01*
X1278523Y54227D01*
X1278477Y54117D01*
X1278435Y54005D01*
X1278396Y53892D01*
X1278361Y53778D01*
X1278330Y53663D01*
X1278302Y53546D01*
X1278279Y53429D01*
X1278259Y53312D01*
X1278243Y53193D01*
X1278231Y53074D01*
X1278223Y52955D01*
X1278219Y52836D01*
X1278219Y52716D01*
X1278223Y52597D01*
X1278231Y52478D01*
X1278243Y52359D01*
X1278259Y52240D01*
X1278279Y52123D01*
X1278302Y52006D01*
X1278330Y51889D01*
X1278361Y51774D01*
X1278396Y51660D01*
X1278435Y51547D01*
X1278477Y51435D01*
X1278523Y51325D01*
X1278573Y51217D01*
X1278626Y51110D01*
X1278683Y51005D01*
X1278743Y50901D01*
X1278807Y50800D01*
X1278874Y50702D01*
X1278944Y50605D01*
X1279018Y50511D01*
X1279094Y50419D01*
X1279174Y50330D01*
X1279256Y50243D01*
X1279341Y50159D01*
X1279429Y50078D01*
X1279519Y50001D01*
X1279612Y49926D01*
X1279708Y49854D01*
X1279806Y49785D01*
X1279906Y49720D01*
X1280008Y49658D01*
X1280112Y49599D01*
X1280218Y49544D01*
X1280326Y49493D01*
X1280435Y49445D01*
X1280546Y49400D01*
X1280658Y49360D01*
X1280772Y49323D01*
X1280887Y49290D01*
X1281002Y49260D01*
X1281119Y49235D01*
X1281236Y49213D01*
X1281355Y49196D01*
X1281473Y49182D01*
X1281592Y49172D01*
X1281712Y49166D01*
X1281831Y49164D01*
X1271447Y51872D02*
X1271447Y44648D01*
X1271448Y51872D02*
X1271446Y52005D01*
X1271440Y52137D01*
X1271430Y52269D01*
X1271417Y52401D01*
X1271399Y52533D01*
X1271378Y52663D01*
X1271353Y52794D01*
X1271324Y52923D01*
X1271291Y53051D01*
X1271255Y53179D01*
X1271215Y53305D01*
X1271171Y53430D01*
X1271123Y53554D01*
X1271072Y53676D01*
X1271017Y53797D01*
X1270959Y53916D01*
X1270897Y54034D01*
X1270832Y54149D01*
X1270763Y54263D01*
X1270692Y54374D01*
X1270616Y54483D01*
X1270538Y54590D01*
X1270457Y54695D01*
X1270372Y54797D01*
X1270285Y54897D01*
X1270195Y54994D01*
X1270102Y55089D01*
X1270006Y55180D01*
X1269908Y55269D01*
X1269807Y55355D01*
X1269703Y55438D01*
X1269597Y55518D01*
X1269489Y55594D01*
X1269379Y55668D01*
X1269266Y55738D01*
X1269152Y55805D01*
X1269035Y55868D01*
X1268917Y55928D01*
X1268797Y55985D01*
X1268675Y56038D01*
X1268552Y56087D01*
X1268428Y56133D01*
X1268302Y56175D01*
X1268175Y56213D01*
X1268047Y56248D01*
X1267918Y56279D01*
X1267789Y56306D01*
X1267658Y56329D01*
X1267527Y56349D01*
X1267395Y56364D01*
X1267263Y56376D01*
X1267131Y56384D01*
X1266998Y56388D01*
X1266866Y56388D01*
X1266733Y56384D01*
X1266601Y56376D01*
X1266469Y56364D01*
X1266337Y56349D01*
X1266206Y56329D01*
X1266075Y56306D01*
X1265946Y56279D01*
X1265817Y56248D01*
X1265689Y56213D01*
X1265562Y56175D01*
X1265436Y56133D01*
X1265312Y56087D01*
X1265189Y56038D01*
X1265067Y55985D01*
X1264947Y55928D01*
X1264829Y55868D01*
X1264712Y55805D01*
X1264598Y55738D01*
X1264485Y55668D01*
X1264375Y55594D01*
X1264267Y55518D01*
X1264161Y55438D01*
X1264057Y55355D01*
X1263956Y55269D01*
X1263858Y55180D01*
X1263762Y55089D01*
X1263669Y54994D01*
X1263579Y54897D01*
X1263492Y54797D01*
X1263407Y54695D01*
X1263326Y54590D01*
X1263248Y54483D01*
X1263172Y54374D01*
X1263101Y54263D01*
X1263032Y54149D01*
X1262967Y54034D01*
X1262905Y53916D01*
X1262847Y53797D01*
X1262792Y53676D01*
X1262741Y53554D01*
X1262693Y53430D01*
X1262649Y53305D01*
X1262609Y53179D01*
X1262573Y53051D01*
X1262540Y52923D01*
X1262511Y52794D01*
X1262486Y52663D01*
X1262465Y52533D01*
X1262447Y52401D01*
X1262434Y52269D01*
X1262424Y52137D01*
X1262418Y52005D01*
X1262416Y51872D01*
X1262416Y44648D01*
X1262418Y44515D01*
X1262424Y44383D01*
X1262434Y44251D01*
X1262447Y44119D01*
X1262465Y43987D01*
X1262486Y43857D01*
X1262511Y43726D01*
X1262540Y43597D01*
X1262573Y43469D01*
X1262609Y43341D01*
X1262649Y43215D01*
X1262693Y43090D01*
X1262741Y42966D01*
X1262792Y42844D01*
X1262847Y42723D01*
X1262905Y42604D01*
X1262967Y42486D01*
X1263032Y42371D01*
X1263101Y42257D01*
X1263172Y42146D01*
X1263248Y42037D01*
X1263326Y41930D01*
X1263407Y41825D01*
X1263492Y41723D01*
X1263579Y41623D01*
X1263669Y41526D01*
X1263762Y41431D01*
X1263858Y41340D01*
X1263956Y41251D01*
X1264057Y41165D01*
X1264161Y41082D01*
X1264267Y41002D01*
X1264375Y40926D01*
X1264485Y40852D01*
X1264598Y40782D01*
X1264712Y40715D01*
X1264829Y40652D01*
X1264947Y40592D01*
X1265067Y40535D01*
X1265189Y40482D01*
X1265312Y40433D01*
X1265436Y40387D01*
X1265562Y40345D01*
X1265689Y40307D01*
X1265817Y40272D01*
X1265946Y40241D01*
X1266075Y40214D01*
X1266206Y40191D01*
X1266337Y40171D01*
X1266469Y40156D01*
X1266601Y40144D01*
X1266733Y40136D01*
X1266866Y40132D01*
X1266998Y40132D01*
X1267131Y40136D01*
X1267263Y40144D01*
X1267395Y40156D01*
X1267527Y40171D01*
X1267658Y40191D01*
X1267789Y40214D01*
X1267918Y40241D01*
X1268047Y40272D01*
X1268175Y40307D01*
X1268302Y40345D01*
X1268428Y40387D01*
X1268552Y40433D01*
X1268675Y40482D01*
X1268797Y40535D01*
X1268917Y40592D01*
X1269035Y40652D01*
X1269152Y40715D01*
X1269266Y40782D01*
X1269379Y40852D01*
X1269489Y40926D01*
X1269597Y41002D01*
X1269703Y41082D01*
X1269807Y41165D01*
X1269908Y41251D01*
X1270006Y41340D01*
X1270102Y41431D01*
X1270195Y41526D01*
X1270285Y41623D01*
X1270372Y41723D01*
X1270457Y41825D01*
X1270538Y41930D01*
X1270616Y42037D01*
X1270692Y42146D01*
X1270763Y42257D01*
X1270832Y42371D01*
X1270897Y42486D01*
X1270959Y42604D01*
X1271017Y42723D01*
X1271072Y42844D01*
X1271123Y42966D01*
X1271171Y43090D01*
X1271215Y43215D01*
X1271255Y43341D01*
X1271291Y43469D01*
X1271324Y43597D01*
X1271353Y43726D01*
X1271378Y43857D01*
X1271399Y43987D01*
X1271417Y44119D01*
X1271430Y44251D01*
X1271440Y44383D01*
X1271446Y44515D01*
X1271448Y44648D01*
X1252243Y40132D02*
X1248631Y40132D01*
X1252243Y40132D02*
X1252361Y40134D01*
X1252479Y40140D01*
X1252597Y40149D01*
X1252714Y40163D01*
X1252831Y40180D01*
X1252948Y40201D01*
X1253063Y40226D01*
X1253178Y40255D01*
X1253292Y40288D01*
X1253404Y40324D01*
X1253515Y40364D01*
X1253625Y40407D01*
X1253734Y40454D01*
X1253841Y40504D01*
X1253946Y40559D01*
X1254049Y40616D01*
X1254150Y40677D01*
X1254250Y40741D01*
X1254347Y40808D01*
X1254442Y40878D01*
X1254534Y40952D01*
X1254625Y41028D01*
X1254712Y41108D01*
X1254797Y41190D01*
X1254879Y41275D01*
X1254959Y41362D01*
X1255035Y41453D01*
X1255109Y41545D01*
X1255179Y41640D01*
X1255246Y41737D01*
X1255310Y41837D01*
X1255371Y41938D01*
X1255428Y42041D01*
X1255483Y42146D01*
X1255533Y42253D01*
X1255580Y42362D01*
X1255623Y42472D01*
X1255663Y42583D01*
X1255699Y42695D01*
X1255732Y42809D01*
X1255761Y42924D01*
X1255786Y43039D01*
X1255807Y43156D01*
X1255824Y43273D01*
X1255838Y43390D01*
X1255847Y43508D01*
X1255853Y43626D01*
X1255855Y43744D01*
X1255855Y52776D01*
X1255853Y52894D01*
X1255847Y53012D01*
X1255838Y53130D01*
X1255824Y53247D01*
X1255807Y53364D01*
X1255786Y53481D01*
X1255761Y53596D01*
X1255732Y53711D01*
X1255699Y53825D01*
X1255663Y53937D01*
X1255623Y54048D01*
X1255580Y54158D01*
X1255533Y54267D01*
X1255483Y54374D01*
X1255428Y54479D01*
X1255371Y54582D01*
X1255310Y54683D01*
X1255246Y54783D01*
X1255179Y54880D01*
X1255109Y54975D01*
X1255035Y55067D01*
X1254959Y55158D01*
X1254879Y55245D01*
X1254797Y55330D01*
X1254712Y55412D01*
X1254625Y55492D01*
X1254534Y55568D01*
X1254442Y55642D01*
X1254347Y55712D01*
X1254250Y55779D01*
X1254150Y55843D01*
X1254049Y55904D01*
X1253946Y55961D01*
X1253841Y56016D01*
X1253734Y56066D01*
X1253625Y56113D01*
X1253515Y56156D01*
X1253404Y56196D01*
X1253292Y56232D01*
X1253178Y56265D01*
X1253063Y56294D01*
X1252948Y56319D01*
X1252831Y56340D01*
X1252714Y56357D01*
X1252597Y56371D01*
X1252479Y56380D01*
X1252361Y56386D01*
X1252243Y56388D01*
X1248631Y56388D01*
X1242790Y51872D02*
X1242790Y44648D01*
X1242790Y51872D02*
X1242788Y52005D01*
X1242782Y52137D01*
X1242772Y52269D01*
X1242759Y52401D01*
X1242741Y52533D01*
X1242720Y52663D01*
X1242695Y52794D01*
X1242666Y52923D01*
X1242633Y53051D01*
X1242597Y53179D01*
X1242557Y53305D01*
X1242513Y53430D01*
X1242465Y53554D01*
X1242414Y53676D01*
X1242359Y53797D01*
X1242301Y53916D01*
X1242239Y54034D01*
X1242174Y54149D01*
X1242105Y54263D01*
X1242034Y54374D01*
X1241958Y54483D01*
X1241880Y54590D01*
X1241799Y54695D01*
X1241714Y54797D01*
X1241627Y54897D01*
X1241537Y54994D01*
X1241444Y55089D01*
X1241348Y55180D01*
X1241250Y55269D01*
X1241149Y55355D01*
X1241045Y55438D01*
X1240939Y55518D01*
X1240831Y55594D01*
X1240721Y55668D01*
X1240608Y55738D01*
X1240494Y55805D01*
X1240377Y55868D01*
X1240259Y55928D01*
X1240139Y55985D01*
X1240017Y56038D01*
X1239894Y56087D01*
X1239770Y56133D01*
X1239644Y56175D01*
X1239517Y56213D01*
X1239389Y56248D01*
X1239260Y56279D01*
X1239131Y56306D01*
X1239000Y56329D01*
X1238869Y56349D01*
X1238737Y56364D01*
X1238605Y56376D01*
X1238473Y56384D01*
X1238340Y56388D01*
X1238208Y56388D01*
X1238075Y56384D01*
X1237943Y56376D01*
X1237811Y56364D01*
X1237679Y56349D01*
X1237548Y56329D01*
X1237417Y56306D01*
X1237288Y56279D01*
X1237159Y56248D01*
X1237031Y56213D01*
X1236904Y56175D01*
X1236778Y56133D01*
X1236654Y56087D01*
X1236531Y56038D01*
X1236409Y55985D01*
X1236289Y55928D01*
X1236171Y55868D01*
X1236054Y55805D01*
X1235940Y55738D01*
X1235827Y55668D01*
X1235717Y55594D01*
X1235609Y55518D01*
X1235503Y55438D01*
X1235399Y55355D01*
X1235298Y55269D01*
X1235200Y55180D01*
X1235104Y55089D01*
X1235011Y54994D01*
X1234921Y54897D01*
X1234834Y54797D01*
X1234749Y54695D01*
X1234668Y54590D01*
X1234590Y54483D01*
X1234514Y54374D01*
X1234443Y54263D01*
X1234374Y54149D01*
X1234309Y54034D01*
X1234247Y53916D01*
X1234189Y53797D01*
X1234134Y53676D01*
X1234083Y53554D01*
X1234035Y53430D01*
X1233991Y53305D01*
X1233951Y53179D01*
X1233915Y53051D01*
X1233882Y52923D01*
X1233853Y52794D01*
X1233828Y52663D01*
X1233807Y52533D01*
X1233789Y52401D01*
X1233776Y52269D01*
X1233766Y52137D01*
X1233760Y52005D01*
X1233758Y51872D01*
X1233759Y51872D02*
X1233759Y44648D01*
X1233758Y44648D02*
X1233760Y44515D01*
X1233766Y44383D01*
X1233776Y44251D01*
X1233789Y44119D01*
X1233807Y43987D01*
X1233828Y43857D01*
X1233853Y43726D01*
X1233882Y43597D01*
X1233915Y43469D01*
X1233951Y43341D01*
X1233991Y43215D01*
X1234035Y43090D01*
X1234083Y42966D01*
X1234134Y42844D01*
X1234189Y42723D01*
X1234247Y42604D01*
X1234309Y42486D01*
X1234374Y42371D01*
X1234443Y42257D01*
X1234514Y42146D01*
X1234590Y42037D01*
X1234668Y41930D01*
X1234749Y41825D01*
X1234834Y41723D01*
X1234921Y41623D01*
X1235011Y41526D01*
X1235104Y41431D01*
X1235200Y41340D01*
X1235298Y41251D01*
X1235399Y41165D01*
X1235503Y41082D01*
X1235609Y41002D01*
X1235717Y40926D01*
X1235827Y40852D01*
X1235940Y40782D01*
X1236054Y40715D01*
X1236171Y40652D01*
X1236289Y40592D01*
X1236409Y40535D01*
X1236531Y40482D01*
X1236654Y40433D01*
X1236778Y40387D01*
X1236904Y40345D01*
X1237031Y40307D01*
X1237159Y40272D01*
X1237288Y40241D01*
X1237417Y40214D01*
X1237548Y40191D01*
X1237679Y40171D01*
X1237811Y40156D01*
X1237943Y40144D01*
X1238075Y40136D01*
X1238208Y40132D01*
X1238340Y40132D01*
X1238473Y40136D01*
X1238605Y40144D01*
X1238737Y40156D01*
X1238869Y40171D01*
X1239000Y40191D01*
X1239131Y40214D01*
X1239260Y40241D01*
X1239389Y40272D01*
X1239517Y40307D01*
X1239644Y40345D01*
X1239770Y40387D01*
X1239894Y40433D01*
X1240017Y40482D01*
X1240139Y40535D01*
X1240259Y40592D01*
X1240377Y40652D01*
X1240494Y40715D01*
X1240608Y40782D01*
X1240721Y40852D01*
X1240831Y40926D01*
X1240939Y41002D01*
X1241045Y41082D01*
X1241149Y41165D01*
X1241250Y41251D01*
X1241348Y41340D01*
X1241444Y41431D01*
X1241537Y41526D01*
X1241627Y41623D01*
X1241714Y41723D01*
X1241799Y41825D01*
X1241880Y41930D01*
X1241958Y42037D01*
X1242034Y42146D01*
X1242105Y42257D01*
X1242174Y42371D01*
X1242239Y42486D01*
X1242301Y42604D01*
X1242359Y42723D01*
X1242414Y42844D01*
X1242465Y42966D01*
X1242513Y43090D01*
X1242557Y43215D01*
X1242597Y43341D01*
X1242633Y43469D01*
X1242666Y43597D01*
X1242695Y43726D01*
X1242720Y43857D01*
X1242741Y43987D01*
X1242759Y44119D01*
X1242772Y44251D01*
X1242782Y44383D01*
X1242788Y44515D01*
X1242790Y44648D01*
X1226638Y40132D02*
X1226638Y56388D01*
X1217607Y40132D01*
X1217607Y56388D01*
X1442522Y29718D02*
X1447038Y26106D01*
X1442522Y29718D02*
X1442522Y13462D01*
X1438007Y13462D02*
X1447038Y13462D01*
X1432067Y11656D02*
X1424842Y31524D01*
X1418902Y26106D02*
X1414386Y29718D01*
X1414386Y13462D01*
X1409871Y13462D02*
X1418902Y13462D01*
X1403271Y26106D02*
X1398755Y29718D01*
X1398755Y13462D01*
X1394240Y13462D02*
X1403271Y13462D01*
X1388299Y11656D02*
X1381075Y31524D01*
X1370167Y29718D02*
X1370042Y29716D01*
X1369917Y29710D01*
X1369792Y29701D01*
X1369668Y29687D01*
X1369544Y29670D01*
X1369420Y29649D01*
X1369298Y29624D01*
X1369176Y29595D01*
X1369055Y29563D01*
X1368935Y29527D01*
X1368816Y29487D01*
X1368699Y29444D01*
X1368583Y29397D01*
X1368468Y29346D01*
X1368356Y29292D01*
X1368244Y29234D01*
X1368135Y29174D01*
X1368028Y29109D01*
X1367922Y29042D01*
X1367819Y28971D01*
X1367718Y28897D01*
X1367619Y28820D01*
X1367523Y28740D01*
X1367429Y28657D01*
X1367338Y28572D01*
X1367249Y28483D01*
X1367164Y28392D01*
X1367081Y28298D01*
X1367001Y28202D01*
X1366924Y28103D01*
X1366850Y28002D01*
X1366779Y27899D01*
X1366712Y27793D01*
X1366647Y27686D01*
X1366587Y27577D01*
X1366529Y27465D01*
X1366475Y27353D01*
X1366424Y27238D01*
X1366377Y27122D01*
X1366334Y27005D01*
X1366294Y26886D01*
X1366258Y26766D01*
X1366226Y26645D01*
X1366197Y26523D01*
X1366172Y26401D01*
X1366151Y26277D01*
X1366134Y26153D01*
X1366120Y26029D01*
X1366111Y25904D01*
X1366105Y25779D01*
X1366103Y25654D01*
X1370167Y29718D02*
X1370310Y29716D01*
X1370452Y29710D01*
X1370595Y29700D01*
X1370737Y29687D01*
X1370878Y29669D01*
X1371020Y29648D01*
X1371160Y29623D01*
X1371300Y29594D01*
X1371439Y29561D01*
X1371577Y29524D01*
X1371714Y29484D01*
X1371849Y29440D01*
X1371984Y29392D01*
X1372117Y29340D01*
X1372249Y29285D01*
X1372379Y29226D01*
X1372507Y29164D01*
X1372634Y29098D01*
X1372759Y29029D01*
X1372882Y28957D01*
X1373003Y28881D01*
X1373121Y28802D01*
X1373238Y28719D01*
X1373352Y28634D01*
X1373464Y28545D01*
X1373573Y28454D01*
X1373680Y28359D01*
X1373785Y28262D01*
X1373886Y28161D01*
X1373985Y28058D01*
X1374081Y27953D01*
X1374174Y27844D01*
X1374264Y27733D01*
X1374351Y27620D01*
X1374435Y27505D01*
X1374515Y27387D01*
X1374593Y27267D01*
X1374667Y27145D01*
X1374737Y27021D01*
X1374805Y26895D01*
X1374868Y26767D01*
X1374929Y26638D01*
X1374986Y26507D01*
X1375039Y26375D01*
X1375088Y26241D01*
X1375134Y26106D01*
X1367459Y22493D02*
X1367365Y22585D01*
X1367275Y22679D01*
X1367187Y22776D01*
X1367102Y22876D01*
X1367020Y22978D01*
X1366941Y23083D01*
X1366866Y23190D01*
X1366794Y23299D01*
X1366725Y23410D01*
X1366659Y23524D01*
X1366597Y23639D01*
X1366538Y23756D01*
X1366483Y23875D01*
X1366432Y23995D01*
X1366384Y24117D01*
X1366339Y24240D01*
X1366299Y24364D01*
X1366262Y24490D01*
X1366229Y24617D01*
X1366200Y24744D01*
X1366174Y24873D01*
X1366153Y25002D01*
X1366135Y25132D01*
X1366122Y25262D01*
X1366112Y25392D01*
X1366106Y25523D01*
X1366104Y25654D01*
X1367458Y22493D02*
X1375134Y13462D01*
X1366103Y13462D01*
X1359503Y21590D02*
X1359499Y21910D01*
X1359488Y22229D01*
X1359469Y22549D01*
X1359442Y22867D01*
X1359408Y23185D01*
X1359366Y23502D01*
X1359316Y23818D01*
X1359259Y24133D01*
X1359195Y24446D01*
X1359123Y24758D01*
X1359044Y25068D01*
X1358957Y25375D01*
X1358863Y25681D01*
X1358762Y25984D01*
X1358653Y26285D01*
X1358538Y26583D01*
X1358415Y26879D01*
X1358285Y27171D01*
X1358148Y27460D01*
X1358149Y27461D02*
X1358110Y27569D01*
X1358067Y27676D01*
X1358021Y27781D01*
X1357970Y27885D01*
X1357917Y27987D01*
X1357860Y28087D01*
X1357799Y28185D01*
X1357735Y28280D01*
X1357668Y28374D01*
X1357597Y28465D01*
X1357524Y28554D01*
X1357447Y28640D01*
X1357368Y28723D01*
X1357286Y28804D01*
X1357201Y28882D01*
X1357113Y28956D01*
X1357023Y29028D01*
X1356931Y29096D01*
X1356836Y29162D01*
X1356739Y29224D01*
X1356640Y29282D01*
X1356538Y29338D01*
X1356436Y29389D01*
X1356331Y29437D01*
X1356225Y29482D01*
X1356117Y29523D01*
X1356008Y29560D01*
X1355898Y29593D01*
X1355786Y29622D01*
X1355674Y29648D01*
X1355561Y29670D01*
X1355447Y29687D01*
X1355333Y29701D01*
X1355218Y29711D01*
X1355103Y29717D01*
X1354988Y29719D01*
X1354988Y29718D02*
X1354873Y29716D01*
X1354758Y29710D01*
X1354643Y29700D01*
X1354529Y29686D01*
X1354415Y29669D01*
X1354302Y29647D01*
X1354190Y29621D01*
X1354078Y29592D01*
X1353968Y29559D01*
X1353859Y29522D01*
X1353751Y29481D01*
X1353645Y29436D01*
X1353541Y29388D01*
X1353438Y29337D01*
X1353337Y29281D01*
X1353237Y29223D01*
X1353140Y29161D01*
X1353046Y29096D01*
X1352953Y29027D01*
X1352863Y28955D01*
X1352775Y28881D01*
X1352690Y28803D01*
X1352608Y28722D01*
X1352529Y28639D01*
X1352452Y28553D01*
X1352379Y28464D01*
X1352308Y28373D01*
X1352241Y28279D01*
X1352177Y28184D01*
X1352116Y28086D01*
X1352059Y27986D01*
X1352006Y27884D01*
X1351955Y27780D01*
X1351909Y27675D01*
X1351866Y27568D01*
X1351827Y27460D01*
X1351690Y27171D01*
X1351560Y26879D01*
X1351437Y26583D01*
X1351322Y26285D01*
X1351213Y25984D01*
X1351112Y25681D01*
X1351018Y25375D01*
X1350931Y25068D01*
X1350852Y24758D01*
X1350780Y24446D01*
X1350716Y24133D01*
X1350659Y23818D01*
X1350609Y23502D01*
X1350567Y23185D01*
X1350533Y22867D01*
X1350506Y22549D01*
X1350487Y22229D01*
X1350476Y21910D01*
X1350472Y21590D01*
X1359503Y21590D02*
X1359499Y21270D01*
X1359488Y20951D01*
X1359469Y20631D01*
X1359442Y20313D01*
X1359408Y19995D01*
X1359366Y19678D01*
X1359316Y19362D01*
X1359259Y19047D01*
X1359195Y18734D01*
X1359123Y18422D01*
X1359044Y18112D01*
X1358957Y17805D01*
X1358863Y17499D01*
X1358762Y17196D01*
X1358653Y16895D01*
X1358538Y16597D01*
X1358415Y16301D01*
X1358285Y16009D01*
X1358148Y15720D01*
X1358149Y15720D02*
X1358110Y15612D01*
X1358067Y15505D01*
X1358021Y15400D01*
X1357970Y15296D01*
X1357917Y15194D01*
X1357860Y15094D01*
X1357799Y14996D01*
X1357735Y14901D01*
X1357668Y14807D01*
X1357597Y14716D01*
X1357524Y14627D01*
X1357447Y14541D01*
X1357368Y14458D01*
X1357286Y14377D01*
X1357201Y14299D01*
X1357113Y14225D01*
X1357023Y14153D01*
X1356930Y14084D01*
X1356836Y14019D01*
X1356739Y13957D01*
X1356639Y13899D01*
X1356538Y13843D01*
X1356436Y13792D01*
X1356331Y13744D01*
X1356225Y13699D01*
X1356117Y13658D01*
X1356008Y13621D01*
X1355898Y13588D01*
X1355786Y13559D01*
X1355674Y13533D01*
X1355561Y13511D01*
X1355447Y13494D01*
X1355333Y13480D01*
X1355218Y13470D01*
X1355103Y13464D01*
X1354988Y13462D01*
X1351828Y15720D02*
X1351691Y16009D01*
X1351561Y16301D01*
X1351438Y16597D01*
X1351323Y16895D01*
X1351214Y17196D01*
X1351113Y17499D01*
X1351019Y17805D01*
X1350932Y18112D01*
X1350853Y18422D01*
X1350781Y18734D01*
X1350717Y19047D01*
X1350660Y19362D01*
X1350610Y19678D01*
X1350568Y19995D01*
X1350534Y20313D01*
X1350507Y20631D01*
X1350488Y20951D01*
X1350477Y21270D01*
X1350473Y21590D01*
X1351827Y15720D02*
X1351866Y15612D01*
X1351909Y15505D01*
X1351955Y15400D01*
X1352006Y15296D01*
X1352059Y15194D01*
X1352117Y15094D01*
X1352177Y14996D01*
X1352241Y14901D01*
X1352308Y14807D01*
X1352379Y14716D01*
X1352452Y14627D01*
X1352529Y14541D01*
X1352608Y14458D01*
X1352690Y14377D01*
X1352775Y14299D01*
X1352863Y14225D01*
X1352953Y14153D01*
X1353046Y14084D01*
X1353140Y14019D01*
X1353237Y13957D01*
X1353337Y13899D01*
X1353438Y13843D01*
X1353541Y13792D01*
X1353645Y13744D01*
X1353751Y13699D01*
X1353859Y13658D01*
X1353968Y13621D01*
X1354078Y13588D01*
X1354190Y13559D01*
X1354302Y13533D01*
X1354415Y13511D01*
X1354529Y13494D01*
X1354643Y13480D01*
X1354758Y13470D01*
X1354873Y13464D01*
X1354988Y13462D01*
X1358600Y17074D02*
X1351375Y26106D01*
X1338905Y29718D02*
X1338780Y29716D01*
X1338655Y29710D01*
X1338530Y29701D01*
X1338406Y29687D01*
X1338282Y29670D01*
X1338158Y29649D01*
X1338036Y29624D01*
X1337914Y29595D01*
X1337793Y29563D01*
X1337673Y29527D01*
X1337554Y29487D01*
X1337437Y29444D01*
X1337321Y29397D01*
X1337206Y29346D01*
X1337094Y29292D01*
X1336982Y29234D01*
X1336873Y29174D01*
X1336766Y29109D01*
X1336660Y29042D01*
X1336557Y28971D01*
X1336456Y28897D01*
X1336357Y28820D01*
X1336261Y28740D01*
X1336167Y28657D01*
X1336076Y28572D01*
X1335987Y28483D01*
X1335902Y28392D01*
X1335819Y28298D01*
X1335739Y28202D01*
X1335662Y28103D01*
X1335588Y28002D01*
X1335517Y27899D01*
X1335450Y27793D01*
X1335385Y27686D01*
X1335325Y27577D01*
X1335267Y27465D01*
X1335213Y27353D01*
X1335162Y27238D01*
X1335115Y27122D01*
X1335072Y27005D01*
X1335032Y26886D01*
X1334996Y26766D01*
X1334964Y26645D01*
X1334935Y26523D01*
X1334910Y26401D01*
X1334889Y26277D01*
X1334872Y26153D01*
X1334858Y26029D01*
X1334849Y25904D01*
X1334843Y25779D01*
X1334841Y25654D01*
X1338905Y29718D02*
X1339048Y29716D01*
X1339190Y29710D01*
X1339333Y29700D01*
X1339475Y29687D01*
X1339616Y29669D01*
X1339758Y29648D01*
X1339898Y29623D01*
X1340038Y29594D01*
X1340177Y29561D01*
X1340315Y29524D01*
X1340452Y29484D01*
X1340587Y29440D01*
X1340722Y29392D01*
X1340855Y29340D01*
X1340987Y29285D01*
X1341117Y29226D01*
X1341245Y29164D01*
X1341372Y29098D01*
X1341497Y29029D01*
X1341620Y28957D01*
X1341741Y28881D01*
X1341859Y28802D01*
X1341976Y28719D01*
X1342090Y28634D01*
X1342202Y28545D01*
X1342311Y28454D01*
X1342418Y28359D01*
X1342523Y28262D01*
X1342624Y28161D01*
X1342723Y28058D01*
X1342819Y27953D01*
X1342912Y27844D01*
X1343002Y27733D01*
X1343089Y27620D01*
X1343173Y27505D01*
X1343253Y27387D01*
X1343331Y27267D01*
X1343405Y27145D01*
X1343475Y27021D01*
X1343543Y26895D01*
X1343606Y26767D01*
X1343667Y26638D01*
X1343724Y26507D01*
X1343777Y26375D01*
X1343826Y26241D01*
X1343872Y26106D01*
X1336196Y22493D02*
X1336102Y22585D01*
X1336012Y22679D01*
X1335924Y22776D01*
X1335839Y22876D01*
X1335757Y22978D01*
X1335678Y23083D01*
X1335603Y23190D01*
X1335531Y23299D01*
X1335462Y23410D01*
X1335396Y23524D01*
X1335334Y23639D01*
X1335275Y23756D01*
X1335220Y23875D01*
X1335169Y23995D01*
X1335121Y24117D01*
X1335076Y24240D01*
X1335036Y24364D01*
X1334999Y24490D01*
X1334966Y24617D01*
X1334937Y24744D01*
X1334911Y24873D01*
X1334890Y25002D01*
X1334872Y25132D01*
X1334859Y25262D01*
X1334849Y25392D01*
X1334843Y25523D01*
X1334841Y25654D01*
X1336196Y22493D02*
X1343872Y13462D01*
X1334841Y13462D01*
X1319210Y25654D02*
X1319212Y25779D01*
X1319218Y25904D01*
X1319227Y26029D01*
X1319241Y26153D01*
X1319258Y26277D01*
X1319279Y26401D01*
X1319304Y26523D01*
X1319333Y26645D01*
X1319365Y26766D01*
X1319401Y26886D01*
X1319441Y27005D01*
X1319484Y27122D01*
X1319531Y27238D01*
X1319582Y27353D01*
X1319636Y27465D01*
X1319694Y27577D01*
X1319754Y27686D01*
X1319819Y27793D01*
X1319886Y27899D01*
X1319957Y28002D01*
X1320031Y28103D01*
X1320108Y28202D01*
X1320188Y28298D01*
X1320271Y28392D01*
X1320356Y28483D01*
X1320445Y28572D01*
X1320536Y28657D01*
X1320630Y28740D01*
X1320726Y28820D01*
X1320825Y28897D01*
X1320926Y28971D01*
X1321029Y29042D01*
X1321135Y29109D01*
X1321242Y29174D01*
X1321351Y29234D01*
X1321463Y29292D01*
X1321575Y29346D01*
X1321690Y29397D01*
X1321806Y29444D01*
X1321923Y29487D01*
X1322042Y29527D01*
X1322162Y29563D01*
X1322283Y29595D01*
X1322405Y29624D01*
X1322527Y29649D01*
X1322651Y29670D01*
X1322775Y29687D01*
X1322899Y29701D01*
X1323024Y29710D01*
X1323149Y29716D01*
X1323274Y29718D01*
X1323417Y29716D01*
X1323559Y29710D01*
X1323702Y29700D01*
X1323844Y29687D01*
X1323985Y29669D01*
X1324127Y29648D01*
X1324267Y29623D01*
X1324407Y29594D01*
X1324546Y29561D01*
X1324684Y29524D01*
X1324821Y29484D01*
X1324956Y29440D01*
X1325091Y29392D01*
X1325224Y29340D01*
X1325356Y29285D01*
X1325486Y29226D01*
X1325614Y29164D01*
X1325741Y29098D01*
X1325866Y29029D01*
X1325989Y28957D01*
X1326110Y28881D01*
X1326228Y28802D01*
X1326345Y28719D01*
X1326459Y28634D01*
X1326571Y28545D01*
X1326680Y28454D01*
X1326787Y28359D01*
X1326892Y28262D01*
X1326993Y28161D01*
X1327092Y28058D01*
X1327188Y27953D01*
X1327281Y27844D01*
X1327371Y27733D01*
X1327458Y27620D01*
X1327542Y27505D01*
X1327622Y27387D01*
X1327700Y27267D01*
X1327774Y27145D01*
X1327844Y27021D01*
X1327912Y26895D01*
X1327975Y26767D01*
X1328036Y26638D01*
X1328093Y26507D01*
X1328146Y26375D01*
X1328195Y26241D01*
X1328241Y26106D01*
X1320565Y22493D02*
X1320471Y22585D01*
X1320381Y22679D01*
X1320293Y22776D01*
X1320208Y22876D01*
X1320126Y22978D01*
X1320047Y23083D01*
X1319972Y23190D01*
X1319900Y23299D01*
X1319831Y23410D01*
X1319765Y23524D01*
X1319703Y23639D01*
X1319644Y23756D01*
X1319589Y23875D01*
X1319538Y23995D01*
X1319490Y24117D01*
X1319445Y24240D01*
X1319405Y24364D01*
X1319368Y24490D01*
X1319335Y24617D01*
X1319306Y24744D01*
X1319280Y24873D01*
X1319259Y25002D01*
X1319241Y25132D01*
X1319228Y25262D01*
X1319218Y25392D01*
X1319212Y25523D01*
X1319210Y25654D01*
X1320564Y22493D02*
X1328241Y13462D01*
X1319210Y13462D01*
X697738Y27912D02*
X697738Y29718D01*
X688707Y29718D01*
X693222Y13462D01*
X681968Y19784D02*
X671131Y19784D01*
X663779Y13462D02*
X663779Y29718D01*
X659263Y29718D01*
X659130Y29716D01*
X658998Y29710D01*
X658866Y29700D01*
X658734Y29687D01*
X658602Y29669D01*
X658472Y29648D01*
X658341Y29623D01*
X658212Y29594D01*
X658084Y29561D01*
X657956Y29525D01*
X657830Y29485D01*
X657705Y29441D01*
X657581Y29393D01*
X657459Y29342D01*
X657338Y29287D01*
X657219Y29229D01*
X657101Y29167D01*
X656986Y29102D01*
X656872Y29033D01*
X656761Y28962D01*
X656652Y28886D01*
X656545Y28808D01*
X656440Y28727D01*
X656338Y28642D01*
X656238Y28555D01*
X656141Y28465D01*
X656046Y28372D01*
X655955Y28276D01*
X655866Y28178D01*
X655780Y28077D01*
X655697Y27973D01*
X655617Y27867D01*
X655541Y27759D01*
X655467Y27649D01*
X655397Y27536D01*
X655330Y27422D01*
X655267Y27305D01*
X655207Y27187D01*
X655150Y27067D01*
X655097Y26945D01*
X655048Y26822D01*
X655002Y26698D01*
X654960Y26572D01*
X654922Y26445D01*
X654887Y26317D01*
X654856Y26188D01*
X654829Y26059D01*
X654806Y25928D01*
X654786Y25797D01*
X654771Y25665D01*
X654759Y25533D01*
X654751Y25401D01*
X654747Y25268D01*
X654747Y25136D01*
X654751Y25003D01*
X654759Y24871D01*
X654771Y24739D01*
X654786Y24607D01*
X654806Y24476D01*
X654829Y24345D01*
X654856Y24216D01*
X654887Y24087D01*
X654922Y23959D01*
X654960Y23832D01*
X655002Y23706D01*
X655048Y23582D01*
X655097Y23459D01*
X655150Y23337D01*
X655207Y23217D01*
X655267Y23099D01*
X655330Y22982D01*
X655397Y22868D01*
X655467Y22755D01*
X655541Y22645D01*
X655617Y22537D01*
X655697Y22431D01*
X655780Y22327D01*
X655866Y22226D01*
X655955Y22128D01*
X656046Y22032D01*
X656141Y21939D01*
X656238Y21849D01*
X656338Y21762D01*
X656440Y21677D01*
X656545Y21596D01*
X656652Y21518D01*
X656761Y21442D01*
X656872Y21371D01*
X656986Y21302D01*
X657101Y21237D01*
X657219Y21175D01*
X657338Y21117D01*
X657459Y21062D01*
X657581Y21011D01*
X657705Y20963D01*
X657830Y20919D01*
X657956Y20879D01*
X658084Y20843D01*
X658212Y20810D01*
X658341Y20781D01*
X658472Y20756D01*
X658602Y20735D01*
X658734Y20717D01*
X658866Y20704D01*
X658998Y20694D01*
X659130Y20688D01*
X659263Y20686D01*
X659263Y20687D02*
X663779Y20687D01*
X658360Y20687D02*
X654748Y13462D01*
X645669Y13462D02*
X641153Y13462D01*
X645669Y13462D02*
X645770Y13464D01*
X645871Y13470D01*
X645972Y13479D01*
X646073Y13492D01*
X646173Y13509D01*
X646272Y13530D01*
X646370Y13554D01*
X646467Y13582D01*
X646564Y13614D01*
X646659Y13649D01*
X646752Y13688D01*
X646844Y13730D01*
X646935Y13776D01*
X647024Y13825D01*
X647110Y13877D01*
X647195Y13933D01*
X647278Y13991D01*
X647358Y14053D01*
X647436Y14118D01*
X647512Y14185D01*
X647585Y14255D01*
X647655Y14328D01*
X647722Y14404D01*
X647787Y14482D01*
X647849Y14562D01*
X647907Y14645D01*
X647963Y14730D01*
X648015Y14816D01*
X648064Y14905D01*
X648110Y14996D01*
X648152Y15088D01*
X648191Y15181D01*
X648226Y15276D01*
X648258Y15373D01*
X648286Y15470D01*
X648310Y15568D01*
X648331Y15667D01*
X648348Y15767D01*
X648361Y15868D01*
X648370Y15969D01*
X648376Y16070D01*
X648378Y16171D01*
X648378Y20687D01*
X648376Y20806D01*
X648370Y20926D01*
X648360Y21045D01*
X648346Y21163D01*
X648329Y21282D01*
X648307Y21399D01*
X648282Y21516D01*
X648252Y21631D01*
X648219Y21746D01*
X648182Y21860D01*
X648142Y21972D01*
X648097Y22083D01*
X648049Y22192D01*
X647998Y22300D01*
X647943Y22406D01*
X647884Y22510D01*
X647822Y22612D01*
X647757Y22712D01*
X647688Y22810D01*
X647616Y22906D01*
X647541Y22999D01*
X647464Y23089D01*
X647383Y23177D01*
X647299Y23262D01*
X647212Y23344D01*
X647123Y23424D01*
X647031Y23500D01*
X646937Y23574D01*
X646840Y23644D01*
X646742Y23711D01*
X646641Y23775D01*
X646537Y23835D01*
X646432Y23892D01*
X646325Y23945D01*
X646217Y23995D01*
X646107Y24041D01*
X645995Y24083D01*
X645882Y24122D01*
X645768Y24157D01*
X645653Y24188D01*
X645536Y24216D01*
X645419Y24239D01*
X645302Y24259D01*
X645183Y24275D01*
X645064Y24287D01*
X644945Y24295D01*
X644826Y24299D01*
X644706Y24299D01*
X644587Y24295D01*
X644468Y24287D01*
X644349Y24275D01*
X644230Y24259D01*
X644113Y24239D01*
X643996Y24216D01*
X643879Y24188D01*
X643764Y24157D01*
X643650Y24122D01*
X643537Y24083D01*
X643425Y24041D01*
X643315Y23995D01*
X643207Y23945D01*
X643100Y23892D01*
X642995Y23835D01*
X642891Y23775D01*
X642790Y23711D01*
X642692Y23644D01*
X642595Y23574D01*
X642501Y23500D01*
X642409Y23424D01*
X642320Y23344D01*
X642233Y23262D01*
X642149Y23177D01*
X642068Y23089D01*
X641991Y22999D01*
X641916Y22906D01*
X641844Y22810D01*
X641775Y22712D01*
X641710Y22612D01*
X641648Y22510D01*
X641589Y22406D01*
X641534Y22300D01*
X641483Y22192D01*
X641435Y22083D01*
X641390Y21972D01*
X641350Y21860D01*
X641313Y21746D01*
X641280Y21631D01*
X641250Y21516D01*
X641225Y21399D01*
X641203Y21282D01*
X641186Y21163D01*
X641172Y21045D01*
X641162Y20926D01*
X641156Y20806D01*
X641154Y20687D01*
X641153Y20687D02*
X641153Y18881D01*
X648378Y18881D01*
X634594Y16171D02*
X634594Y29718D01*
X634594Y16171D02*
X634592Y16070D01*
X634586Y15969D01*
X634577Y15868D01*
X634564Y15767D01*
X634547Y15667D01*
X634526Y15568D01*
X634502Y15470D01*
X634474Y15373D01*
X634442Y15276D01*
X634407Y15181D01*
X634368Y15088D01*
X634326Y14996D01*
X634280Y14905D01*
X634231Y14816D01*
X634179Y14730D01*
X634123Y14645D01*
X634065Y14562D01*
X634003Y14482D01*
X633938Y14404D01*
X633871Y14328D01*
X633801Y14255D01*
X633728Y14185D01*
X633652Y14118D01*
X633574Y14053D01*
X633494Y13991D01*
X633411Y13933D01*
X633326Y13877D01*
X633240Y13825D01*
X633151Y13776D01*
X633060Y13730D01*
X632968Y13688D01*
X632875Y13649D01*
X632780Y13614D01*
X632683Y13582D01*
X632586Y13554D01*
X632488Y13530D01*
X632389Y13509D01*
X632289Y13492D01*
X632188Y13479D01*
X632087Y13470D01*
X631986Y13464D01*
X631885Y13462D01*
X623407Y19784D02*
X619343Y19784D01*
X623407Y19784D02*
X623519Y19782D01*
X623630Y19776D01*
X623741Y19766D01*
X623852Y19753D01*
X623962Y19735D01*
X624071Y19713D01*
X624180Y19688D01*
X624288Y19659D01*
X624394Y19626D01*
X624500Y19589D01*
X624604Y19549D01*
X624706Y19505D01*
X624807Y19457D01*
X624906Y19406D01*
X625004Y19351D01*
X625099Y19293D01*
X625192Y19232D01*
X625283Y19167D01*
X625372Y19099D01*
X625458Y19028D01*
X625541Y18955D01*
X625622Y18878D01*
X625701Y18798D01*
X625776Y18716D01*
X625848Y18631D01*
X625918Y18544D01*
X625984Y18454D01*
X626047Y18362D01*
X626107Y18267D01*
X626163Y18171D01*
X626216Y18073D01*
X626265Y17973D01*
X626311Y17871D01*
X626353Y17768D01*
X626392Y17663D01*
X626427Y17557D01*
X626458Y17450D01*
X626485Y17342D01*
X626509Y17233D01*
X626528Y17123D01*
X626544Y17013D01*
X626556Y16902D01*
X626564Y16790D01*
X626568Y16679D01*
X626568Y16567D01*
X626564Y16456D01*
X626556Y16344D01*
X626544Y16233D01*
X626528Y16123D01*
X626509Y16013D01*
X626485Y15904D01*
X626458Y15796D01*
X626427Y15689D01*
X626392Y15583D01*
X626353Y15478D01*
X626311Y15375D01*
X626265Y15273D01*
X626216Y15173D01*
X626163Y15075D01*
X626107Y14979D01*
X626047Y14884D01*
X625984Y14792D01*
X625918Y14702D01*
X625848Y14615D01*
X625776Y14530D01*
X625701Y14448D01*
X625622Y14368D01*
X625541Y14291D01*
X625458Y14218D01*
X625372Y14147D01*
X625283Y14079D01*
X625192Y14014D01*
X625099Y13953D01*
X625004Y13895D01*
X624906Y13840D01*
X624807Y13789D01*
X624706Y13741D01*
X624604Y13697D01*
X624500Y13657D01*
X624394Y13620D01*
X624288Y13587D01*
X624180Y13558D01*
X624071Y13533D01*
X623962Y13511D01*
X623852Y13493D01*
X623741Y13480D01*
X623630Y13470D01*
X623519Y13464D01*
X623407Y13462D01*
X619343Y13462D01*
X619343Y21590D01*
X619345Y21691D01*
X619351Y21792D01*
X619360Y21893D01*
X619373Y21994D01*
X619390Y22094D01*
X619411Y22193D01*
X619435Y22291D01*
X619463Y22388D01*
X619495Y22485D01*
X619530Y22580D01*
X619569Y22673D01*
X619611Y22765D01*
X619657Y22856D01*
X619706Y22945D01*
X619758Y23031D01*
X619814Y23116D01*
X619872Y23199D01*
X619934Y23279D01*
X619999Y23357D01*
X620066Y23433D01*
X620136Y23506D01*
X620209Y23576D01*
X620285Y23643D01*
X620363Y23708D01*
X620443Y23770D01*
X620526Y23828D01*
X620611Y23884D01*
X620698Y23936D01*
X620786Y23985D01*
X620877Y24031D01*
X620969Y24073D01*
X621062Y24112D01*
X621157Y24147D01*
X621254Y24179D01*
X621351Y24207D01*
X621449Y24231D01*
X621548Y24252D01*
X621648Y24269D01*
X621749Y24282D01*
X621850Y24291D01*
X621951Y24297D01*
X622052Y24299D01*
X625665Y24299D01*
X612947Y8043D02*
X611141Y8043D01*
X605722Y24299D01*
X612947Y24299D02*
X609335Y13462D01*
X590990Y13462D02*
X590990Y29718D01*
X590990Y13462D02*
X586475Y13462D01*
X586371Y13464D01*
X586268Y13470D01*
X586164Y13480D01*
X586061Y13494D01*
X585959Y13512D01*
X585858Y13533D01*
X585757Y13559D01*
X585658Y13588D01*
X585559Y13621D01*
X585462Y13658D01*
X585367Y13699D01*
X585273Y13743D01*
X585181Y13791D01*
X585091Y13842D01*
X585002Y13897D01*
X584916Y13955D01*
X584833Y14017D01*
X584751Y14081D01*
X584673Y14149D01*
X584597Y14219D01*
X584523Y14292D01*
X584453Y14369D01*
X584385Y14447D01*
X584321Y14529D01*
X584259Y14612D01*
X584201Y14698D01*
X584146Y14787D01*
X584095Y14877D01*
X584047Y14969D01*
X584003Y15063D01*
X583962Y15158D01*
X583925Y15255D01*
X583892Y15354D01*
X583863Y15453D01*
X583837Y15554D01*
X583816Y15655D01*
X583798Y15757D01*
X583784Y15860D01*
X583774Y15964D01*
X583768Y16067D01*
X583766Y16171D01*
X583766Y21590D01*
X583768Y21691D01*
X583774Y21792D01*
X583783Y21893D01*
X583796Y21994D01*
X583813Y22094D01*
X583834Y22193D01*
X583858Y22291D01*
X583886Y22388D01*
X583918Y22485D01*
X583953Y22580D01*
X583992Y22673D01*
X584034Y22765D01*
X584080Y22856D01*
X584129Y22945D01*
X584181Y23031D01*
X584237Y23116D01*
X584295Y23199D01*
X584357Y23279D01*
X584422Y23357D01*
X584489Y23433D01*
X584559Y23506D01*
X584632Y23576D01*
X584708Y23643D01*
X584786Y23708D01*
X584866Y23770D01*
X584949Y23828D01*
X585034Y23884D01*
X585121Y23936D01*
X585209Y23985D01*
X585300Y24031D01*
X585392Y24073D01*
X585485Y24112D01*
X585580Y24147D01*
X585677Y24179D01*
X585774Y24207D01*
X585872Y24231D01*
X585971Y24252D01*
X586071Y24269D01*
X586172Y24282D01*
X586273Y24291D01*
X586374Y24297D01*
X586475Y24299D01*
X590990Y24299D01*
X577517Y20687D02*
X577517Y17074D01*
X577516Y20687D02*
X577514Y20806D01*
X577508Y20926D01*
X577498Y21045D01*
X577484Y21163D01*
X577467Y21282D01*
X577445Y21399D01*
X577420Y21516D01*
X577390Y21631D01*
X577357Y21746D01*
X577320Y21860D01*
X577280Y21972D01*
X577235Y22083D01*
X577187Y22192D01*
X577136Y22300D01*
X577081Y22406D01*
X577022Y22510D01*
X576960Y22612D01*
X576895Y22712D01*
X576826Y22810D01*
X576754Y22906D01*
X576679Y22999D01*
X576602Y23089D01*
X576521Y23177D01*
X576437Y23262D01*
X576350Y23344D01*
X576261Y23424D01*
X576169Y23500D01*
X576075Y23574D01*
X575978Y23644D01*
X575880Y23711D01*
X575779Y23775D01*
X575675Y23835D01*
X575570Y23892D01*
X575463Y23945D01*
X575355Y23995D01*
X575245Y24041D01*
X575133Y24083D01*
X575020Y24122D01*
X574906Y24157D01*
X574791Y24188D01*
X574674Y24216D01*
X574557Y24239D01*
X574440Y24259D01*
X574321Y24275D01*
X574202Y24287D01*
X574083Y24295D01*
X573964Y24299D01*
X573844Y24299D01*
X573725Y24295D01*
X573606Y24287D01*
X573487Y24275D01*
X573368Y24259D01*
X573251Y24239D01*
X573134Y24216D01*
X573017Y24188D01*
X572902Y24157D01*
X572788Y24122D01*
X572675Y24083D01*
X572563Y24041D01*
X572453Y23995D01*
X572345Y23945D01*
X572238Y23892D01*
X572133Y23835D01*
X572029Y23775D01*
X571928Y23711D01*
X571830Y23644D01*
X571733Y23574D01*
X571639Y23500D01*
X571547Y23424D01*
X571458Y23344D01*
X571371Y23262D01*
X571287Y23177D01*
X571206Y23089D01*
X571129Y22999D01*
X571054Y22906D01*
X570982Y22810D01*
X570913Y22712D01*
X570848Y22612D01*
X570786Y22510D01*
X570727Y22406D01*
X570672Y22300D01*
X570621Y22192D01*
X570573Y22083D01*
X570528Y21972D01*
X570488Y21860D01*
X570451Y21746D01*
X570418Y21631D01*
X570388Y21516D01*
X570363Y21399D01*
X570341Y21282D01*
X570324Y21163D01*
X570310Y21045D01*
X570300Y20926D01*
X570294Y20806D01*
X570292Y20687D01*
X570292Y17074D01*
X570294Y16955D01*
X570300Y16835D01*
X570310Y16716D01*
X570324Y16598D01*
X570341Y16479D01*
X570363Y16362D01*
X570388Y16245D01*
X570418Y16130D01*
X570451Y16015D01*
X570488Y15901D01*
X570528Y15789D01*
X570573Y15678D01*
X570621Y15569D01*
X570672Y15461D01*
X570727Y15355D01*
X570786Y15251D01*
X570848Y15149D01*
X570913Y15049D01*
X570982Y14951D01*
X571054Y14855D01*
X571129Y14762D01*
X571206Y14672D01*
X571287Y14584D01*
X571371Y14499D01*
X571458Y14417D01*
X571547Y14337D01*
X571639Y14261D01*
X571733Y14187D01*
X571830Y14117D01*
X571928Y14050D01*
X572029Y13986D01*
X572133Y13926D01*
X572238Y13869D01*
X572345Y13816D01*
X572453Y13766D01*
X572563Y13720D01*
X572675Y13678D01*
X572788Y13639D01*
X572902Y13604D01*
X573017Y13573D01*
X573134Y13545D01*
X573251Y13522D01*
X573368Y13502D01*
X573487Y13486D01*
X573606Y13474D01*
X573725Y13466D01*
X573844Y13462D01*
X573964Y13462D01*
X574083Y13466D01*
X574202Y13474D01*
X574321Y13486D01*
X574440Y13502D01*
X574557Y13522D01*
X574674Y13545D01*
X574791Y13573D01*
X574906Y13604D01*
X575020Y13639D01*
X575133Y13678D01*
X575245Y13720D01*
X575355Y13766D01*
X575463Y13816D01*
X575570Y13869D01*
X575675Y13926D01*
X575779Y13986D01*
X575880Y14050D01*
X575978Y14117D01*
X576075Y14187D01*
X576169Y14261D01*
X576261Y14337D01*
X576350Y14417D01*
X576437Y14499D01*
X576521Y14584D01*
X576602Y14672D01*
X576679Y14762D01*
X576754Y14855D01*
X576826Y14951D01*
X576895Y15049D01*
X576960Y15149D01*
X577022Y15251D01*
X577081Y15355D01*
X577136Y15461D01*
X577187Y15569D01*
X577235Y15678D01*
X577280Y15789D01*
X577320Y15901D01*
X577357Y16015D01*
X577390Y16130D01*
X577420Y16245D01*
X577445Y16362D01*
X577467Y16479D01*
X577484Y16598D01*
X577498Y16716D01*
X577508Y16835D01*
X577514Y16955D01*
X577516Y17074D01*
X560882Y19784D02*
X556818Y19784D01*
X560882Y19784D02*
X560994Y19782D01*
X561105Y19776D01*
X561216Y19766D01*
X561327Y19753D01*
X561437Y19735D01*
X561546Y19713D01*
X561655Y19688D01*
X561763Y19659D01*
X561869Y19626D01*
X561975Y19589D01*
X562079Y19549D01*
X562181Y19505D01*
X562282Y19457D01*
X562381Y19406D01*
X562479Y19351D01*
X562574Y19293D01*
X562667Y19232D01*
X562758Y19167D01*
X562847Y19099D01*
X562933Y19028D01*
X563016Y18955D01*
X563097Y18878D01*
X563176Y18798D01*
X563251Y18716D01*
X563323Y18631D01*
X563393Y18544D01*
X563459Y18454D01*
X563522Y18362D01*
X563582Y18267D01*
X563638Y18171D01*
X563691Y18073D01*
X563740Y17973D01*
X563786Y17871D01*
X563828Y17768D01*
X563867Y17663D01*
X563902Y17557D01*
X563933Y17450D01*
X563960Y17342D01*
X563984Y17233D01*
X564003Y17123D01*
X564019Y17013D01*
X564031Y16902D01*
X564039Y16790D01*
X564043Y16679D01*
X564043Y16567D01*
X564039Y16456D01*
X564031Y16344D01*
X564019Y16233D01*
X564003Y16123D01*
X563984Y16013D01*
X563960Y15904D01*
X563933Y15796D01*
X563902Y15689D01*
X563867Y15583D01*
X563828Y15478D01*
X563786Y15375D01*
X563740Y15273D01*
X563691Y15173D01*
X563638Y15075D01*
X563582Y14979D01*
X563522Y14884D01*
X563459Y14792D01*
X563393Y14702D01*
X563323Y14615D01*
X563251Y14530D01*
X563176Y14448D01*
X563097Y14368D01*
X563016Y14291D01*
X562933Y14218D01*
X562847Y14147D01*
X562758Y14079D01*
X562667Y14014D01*
X562574Y13953D01*
X562479Y13895D01*
X562381Y13840D01*
X562282Y13789D01*
X562181Y13741D01*
X562079Y13697D01*
X561975Y13657D01*
X561869Y13620D01*
X561763Y13587D01*
X561655Y13558D01*
X561546Y13533D01*
X561437Y13511D01*
X561327Y13493D01*
X561216Y13480D01*
X561105Y13470D01*
X560994Y13464D01*
X560882Y13462D01*
X556818Y13462D01*
X556818Y21590D01*
X556820Y21691D01*
X556826Y21792D01*
X556835Y21893D01*
X556848Y21994D01*
X556865Y22094D01*
X556886Y22193D01*
X556910Y22291D01*
X556938Y22388D01*
X556970Y22485D01*
X557005Y22580D01*
X557044Y22673D01*
X557086Y22765D01*
X557132Y22856D01*
X557181Y22945D01*
X557233Y23031D01*
X557289Y23116D01*
X557347Y23199D01*
X557409Y23279D01*
X557474Y23357D01*
X557541Y23433D01*
X557611Y23506D01*
X557684Y23576D01*
X557760Y23643D01*
X557838Y23708D01*
X557918Y23770D01*
X558001Y23828D01*
X558086Y23884D01*
X558173Y23936D01*
X558261Y23985D01*
X558352Y24031D01*
X558444Y24073D01*
X558537Y24112D01*
X558632Y24147D01*
X558729Y24179D01*
X558826Y24207D01*
X558924Y24231D01*
X559023Y24252D01*
X559123Y24269D01*
X559224Y24282D01*
X559325Y24291D01*
X559426Y24297D01*
X559527Y24299D01*
X563140Y24299D01*
X549296Y24299D02*
X549296Y13462D01*
X549296Y24299D02*
X543877Y24299D01*
X543877Y22493D01*
X531808Y29718D02*
X531808Y13462D01*
X536324Y13462D01*
X536425Y13464D01*
X536526Y13470D01*
X536627Y13479D01*
X536728Y13492D01*
X536828Y13509D01*
X536927Y13530D01*
X537025Y13554D01*
X537122Y13582D01*
X537219Y13614D01*
X537314Y13649D01*
X537407Y13688D01*
X537499Y13730D01*
X537590Y13776D01*
X537679Y13825D01*
X537765Y13877D01*
X537850Y13933D01*
X537933Y13991D01*
X538013Y14053D01*
X538091Y14118D01*
X538167Y14185D01*
X538240Y14255D01*
X538310Y14328D01*
X538377Y14404D01*
X538442Y14482D01*
X538504Y14562D01*
X538562Y14645D01*
X538618Y14730D01*
X538670Y14816D01*
X538719Y14905D01*
X538765Y14996D01*
X538807Y15088D01*
X538846Y15181D01*
X538881Y15276D01*
X538913Y15373D01*
X538941Y15470D01*
X538965Y15568D01*
X538986Y15667D01*
X539003Y15767D01*
X539016Y15868D01*
X539025Y15969D01*
X539031Y16070D01*
X539033Y16171D01*
X539033Y21590D01*
X539031Y21691D01*
X539025Y21792D01*
X539016Y21893D01*
X539003Y21994D01*
X538986Y22094D01*
X538965Y22193D01*
X538941Y22291D01*
X538913Y22388D01*
X538881Y22485D01*
X538846Y22580D01*
X538807Y22673D01*
X538765Y22765D01*
X538719Y22856D01*
X538670Y22945D01*
X538618Y23031D01*
X538562Y23116D01*
X538504Y23199D01*
X538442Y23279D01*
X538377Y23357D01*
X538310Y23433D01*
X538240Y23506D01*
X538167Y23576D01*
X538091Y23643D01*
X538013Y23708D01*
X537933Y23770D01*
X537850Y23828D01*
X537765Y23884D01*
X537679Y23936D01*
X537590Y23985D01*
X537499Y24031D01*
X537407Y24073D01*
X537314Y24112D01*
X537219Y24147D01*
X537122Y24179D01*
X537025Y24207D01*
X536927Y24231D01*
X536828Y24252D01*
X536728Y24269D01*
X536627Y24282D01*
X536526Y24291D01*
X536425Y24297D01*
X536324Y24299D01*
X531808Y24299D01*
X516034Y24299D02*
X516034Y16171D01*
X516032Y16070D01*
X516026Y15969D01*
X516017Y15868D01*
X516004Y15767D01*
X515987Y15667D01*
X515966Y15568D01*
X515942Y15470D01*
X515914Y15373D01*
X515882Y15276D01*
X515847Y15181D01*
X515808Y15088D01*
X515766Y14996D01*
X515720Y14905D01*
X515671Y14816D01*
X515619Y14730D01*
X515563Y14645D01*
X515505Y14562D01*
X515443Y14482D01*
X515378Y14404D01*
X515311Y14328D01*
X515241Y14255D01*
X515168Y14185D01*
X515092Y14118D01*
X515014Y14053D01*
X514934Y13991D01*
X514851Y13933D01*
X514766Y13877D01*
X514680Y13825D01*
X514591Y13776D01*
X514500Y13730D01*
X514408Y13688D01*
X514315Y13649D01*
X514220Y13614D01*
X514123Y13582D01*
X514026Y13554D01*
X513928Y13530D01*
X513829Y13509D01*
X513729Y13492D01*
X513628Y13479D01*
X513527Y13470D01*
X513426Y13464D01*
X513325Y13462D01*
X508809Y13462D01*
X508809Y24299D01*
X500611Y19784D02*
X496096Y17978D01*
X500611Y19784D02*
X500699Y19821D01*
X500785Y19862D01*
X500870Y19906D01*
X500953Y19954D01*
X501033Y20005D01*
X501112Y20059D01*
X501188Y20117D01*
X501262Y20177D01*
X501334Y20241D01*
X501402Y20307D01*
X501468Y20377D01*
X501531Y20448D01*
X501592Y20523D01*
X501649Y20599D01*
X501702Y20678D01*
X501753Y20759D01*
X501800Y20842D01*
X501844Y20927D01*
X501884Y21014D01*
X501921Y21102D01*
X501954Y21192D01*
X501984Y21283D01*
X502009Y21375D01*
X502031Y21468D01*
X502049Y21562D01*
X502064Y21656D01*
X502074Y21751D01*
X502080Y21847D01*
X502083Y21942D01*
X502082Y22038D01*
X502076Y22133D01*
X502067Y22229D01*
X502054Y22323D01*
X502038Y22417D01*
X502017Y22511D01*
X501992Y22603D01*
X501964Y22694D01*
X501932Y22784D01*
X501897Y22873D01*
X501858Y22960D01*
X501815Y23046D01*
X501769Y23130D01*
X501719Y23211D01*
X501667Y23291D01*
X501611Y23369D01*
X501551Y23444D01*
X501489Y23516D01*
X501424Y23586D01*
X501356Y23654D01*
X501286Y23718D01*
X501213Y23780D01*
X501137Y23838D01*
X501059Y23894D01*
X500979Y23946D01*
X500897Y23995D01*
X500813Y24040D01*
X500727Y24082D01*
X500640Y24121D01*
X500551Y24156D01*
X500460Y24187D01*
X500369Y24214D01*
X500276Y24238D01*
X500183Y24258D01*
X500089Y24274D01*
X499994Y24286D01*
X499899Y24295D01*
X499803Y24299D01*
X499708Y24300D01*
X499461Y24293D01*
X499215Y24281D01*
X498969Y24263D01*
X498723Y24238D01*
X498479Y24208D01*
X498235Y24172D01*
X497992Y24131D01*
X497750Y24083D01*
X497509Y24029D01*
X497270Y23970D01*
X497032Y23905D01*
X496796Y23834D01*
X496561Y23758D01*
X496328Y23676D01*
X496098Y23588D01*
X495870Y23495D01*
X495643Y23397D01*
X496095Y17977D02*
X496007Y17940D01*
X495921Y17899D01*
X495836Y17855D01*
X495753Y17807D01*
X495673Y17756D01*
X495594Y17702D01*
X495518Y17644D01*
X495444Y17584D01*
X495372Y17520D01*
X495304Y17454D01*
X495238Y17384D01*
X495175Y17313D01*
X495114Y17238D01*
X495057Y17162D01*
X495004Y17083D01*
X494953Y17002D01*
X494906Y16919D01*
X494862Y16834D01*
X494822Y16747D01*
X494785Y16659D01*
X494752Y16569D01*
X494722Y16478D01*
X494697Y16386D01*
X494675Y16293D01*
X494657Y16199D01*
X494642Y16105D01*
X494632Y16010D01*
X494626Y15914D01*
X494623Y15819D01*
X494624Y15723D01*
X494630Y15628D01*
X494639Y15532D01*
X494652Y15438D01*
X494668Y15344D01*
X494689Y15250D01*
X494714Y15158D01*
X494742Y15067D01*
X494774Y14977D01*
X494809Y14888D01*
X494848Y14801D01*
X494891Y14715D01*
X494937Y14631D01*
X494987Y14550D01*
X495039Y14470D01*
X495095Y14392D01*
X495155Y14317D01*
X495217Y14245D01*
X495282Y14175D01*
X495350Y14107D01*
X495420Y14043D01*
X495493Y13981D01*
X495569Y13923D01*
X495647Y13867D01*
X495727Y13815D01*
X495809Y13766D01*
X495893Y13721D01*
X495979Y13679D01*
X496066Y13640D01*
X496155Y13605D01*
X496246Y13574D01*
X496337Y13547D01*
X496430Y13523D01*
X496523Y13503D01*
X496617Y13487D01*
X496712Y13475D01*
X496807Y13466D01*
X496903Y13462D01*
X496998Y13461D01*
X496999Y13462D02*
X497361Y13471D01*
X497723Y13489D01*
X498084Y13516D01*
X498444Y13551D01*
X498804Y13594D01*
X499163Y13646D01*
X499520Y13707D01*
X499875Y13776D01*
X500229Y13853D01*
X500581Y13939D01*
X500931Y14033D01*
X501279Y14136D01*
X501624Y14246D01*
X501966Y14365D01*
X488454Y13462D02*
X488454Y24299D01*
X488905Y28815D02*
X488905Y29718D01*
X488002Y29718D01*
X488002Y28815D01*
X488905Y28815D01*
X481645Y24299D02*
X481645Y13462D01*
X481645Y24299D02*
X477130Y24299D01*
X477026Y24297D01*
X476923Y24291D01*
X476819Y24281D01*
X476716Y24267D01*
X476614Y24249D01*
X476513Y24228D01*
X476412Y24202D01*
X476313Y24173D01*
X476214Y24140D01*
X476117Y24103D01*
X476022Y24062D01*
X475928Y24018D01*
X475836Y23970D01*
X475746Y23919D01*
X475657Y23864D01*
X475571Y23806D01*
X475488Y23744D01*
X475406Y23680D01*
X475328Y23612D01*
X475252Y23542D01*
X475178Y23469D01*
X475108Y23392D01*
X475040Y23314D01*
X474976Y23232D01*
X474914Y23149D01*
X474856Y23063D01*
X474801Y22974D01*
X474750Y22884D01*
X474702Y22792D01*
X474658Y22698D01*
X474617Y22603D01*
X474580Y22506D01*
X474547Y22407D01*
X474518Y22308D01*
X474492Y22207D01*
X474471Y22106D01*
X474453Y22004D01*
X474439Y21901D01*
X474429Y21797D01*
X474423Y21694D01*
X474421Y21590D01*
X474420Y21590D02*
X474420Y13462D01*
X464941Y13462D02*
X460426Y13462D01*
X464941Y13462D02*
X465042Y13464D01*
X465143Y13470D01*
X465244Y13479D01*
X465345Y13492D01*
X465445Y13509D01*
X465544Y13530D01*
X465642Y13554D01*
X465739Y13582D01*
X465836Y13614D01*
X465931Y13649D01*
X466024Y13688D01*
X466116Y13730D01*
X466207Y13776D01*
X466296Y13825D01*
X466382Y13877D01*
X466467Y13933D01*
X466550Y13991D01*
X466630Y14053D01*
X466708Y14118D01*
X466784Y14185D01*
X466857Y14255D01*
X466927Y14328D01*
X466994Y14404D01*
X467059Y14482D01*
X467121Y14562D01*
X467179Y14645D01*
X467235Y14730D01*
X467287Y14816D01*
X467336Y14905D01*
X467382Y14996D01*
X467424Y15088D01*
X467463Y15181D01*
X467498Y15276D01*
X467530Y15373D01*
X467558Y15470D01*
X467582Y15568D01*
X467603Y15667D01*
X467620Y15767D01*
X467633Y15868D01*
X467642Y15969D01*
X467648Y16070D01*
X467650Y16171D01*
X467650Y21590D01*
X467648Y21691D01*
X467642Y21792D01*
X467633Y21893D01*
X467620Y21994D01*
X467603Y22094D01*
X467582Y22193D01*
X467558Y22291D01*
X467530Y22388D01*
X467498Y22485D01*
X467463Y22580D01*
X467424Y22673D01*
X467382Y22765D01*
X467336Y22856D01*
X467287Y22945D01*
X467235Y23031D01*
X467179Y23116D01*
X467121Y23199D01*
X467059Y23279D01*
X466994Y23357D01*
X466927Y23433D01*
X466857Y23506D01*
X466784Y23576D01*
X466708Y23643D01*
X466630Y23708D01*
X466550Y23770D01*
X466467Y23828D01*
X466382Y23884D01*
X466296Y23936D01*
X466207Y23985D01*
X466116Y24031D01*
X466024Y24073D01*
X465931Y24112D01*
X465836Y24147D01*
X465739Y24179D01*
X465642Y24207D01*
X465544Y24231D01*
X465445Y24252D01*
X465345Y24269D01*
X465244Y24282D01*
X465143Y24291D01*
X465042Y24297D01*
X464941Y24299D01*
X460426Y24299D01*
X460426Y10753D01*
X460428Y10652D01*
X460434Y10551D01*
X460443Y10450D01*
X460456Y10349D01*
X460473Y10249D01*
X460494Y10150D01*
X460518Y10052D01*
X460546Y9955D01*
X460578Y9858D01*
X460613Y9763D01*
X460652Y9670D01*
X460694Y9578D01*
X460740Y9487D01*
X460789Y9398D01*
X460841Y9312D01*
X460897Y9227D01*
X460955Y9144D01*
X461017Y9064D01*
X461082Y8986D01*
X461149Y8910D01*
X461219Y8837D01*
X461292Y8767D01*
X461368Y8700D01*
X461446Y8635D01*
X461526Y8573D01*
X461609Y8515D01*
X461694Y8459D01*
X461781Y8407D01*
X461869Y8358D01*
X461960Y8312D01*
X462052Y8270D01*
X462145Y8231D01*
X462240Y8196D01*
X462337Y8164D01*
X462434Y8136D01*
X462532Y8112D01*
X462631Y8091D01*
X462731Y8074D01*
X462832Y8061D01*
X462933Y8052D01*
X463034Y8046D01*
X463135Y8044D01*
X463135Y8043D02*
X466747Y8043D01*
X444512Y17978D02*
X444512Y29718D01*
X444513Y17978D02*
X444511Y17845D01*
X444505Y17713D01*
X444495Y17581D01*
X444482Y17449D01*
X444464Y17317D01*
X444443Y17187D01*
X444418Y17056D01*
X444389Y16927D01*
X444356Y16799D01*
X444320Y16671D01*
X444280Y16545D01*
X444236Y16420D01*
X444188Y16296D01*
X444137Y16174D01*
X444082Y16053D01*
X444024Y15934D01*
X443962Y15816D01*
X443897Y15701D01*
X443828Y15587D01*
X443757Y15476D01*
X443681Y15367D01*
X443603Y15260D01*
X443522Y15155D01*
X443437Y15053D01*
X443350Y14953D01*
X443260Y14856D01*
X443167Y14761D01*
X443071Y14670D01*
X442973Y14581D01*
X442872Y14495D01*
X442768Y14412D01*
X442662Y14332D01*
X442554Y14256D01*
X442444Y14182D01*
X442331Y14112D01*
X442217Y14045D01*
X442100Y13982D01*
X441982Y13922D01*
X441862Y13865D01*
X441740Y13812D01*
X441617Y13763D01*
X441493Y13717D01*
X441367Y13675D01*
X441240Y13637D01*
X441112Y13602D01*
X440983Y13571D01*
X440854Y13544D01*
X440723Y13521D01*
X440592Y13501D01*
X440460Y13486D01*
X440328Y13474D01*
X440196Y13466D01*
X440063Y13462D01*
X439931Y13462D01*
X439798Y13466D01*
X439666Y13474D01*
X439534Y13486D01*
X439402Y13501D01*
X439271Y13521D01*
X439140Y13544D01*
X439011Y13571D01*
X438882Y13602D01*
X438754Y13637D01*
X438627Y13675D01*
X438501Y13717D01*
X438377Y13763D01*
X438254Y13812D01*
X438132Y13865D01*
X438012Y13922D01*
X437894Y13982D01*
X437777Y14045D01*
X437663Y14112D01*
X437550Y14182D01*
X437440Y14256D01*
X437332Y14332D01*
X437226Y14412D01*
X437122Y14495D01*
X437021Y14581D01*
X436923Y14670D01*
X436827Y14761D01*
X436734Y14856D01*
X436644Y14953D01*
X436557Y15053D01*
X436472Y15155D01*
X436391Y15260D01*
X436313Y15367D01*
X436237Y15476D01*
X436166Y15587D01*
X436097Y15701D01*
X436032Y15816D01*
X435970Y15934D01*
X435912Y16053D01*
X435857Y16174D01*
X435806Y16296D01*
X435758Y16420D01*
X435714Y16545D01*
X435674Y16671D01*
X435638Y16799D01*
X435605Y16927D01*
X435576Y17056D01*
X435551Y17187D01*
X435530Y17317D01*
X435512Y17449D01*
X435499Y17581D01*
X435489Y17713D01*
X435483Y17845D01*
X435481Y17978D01*
X435481Y29718D01*
X427809Y29718D02*
X427809Y13462D01*
X420584Y13462D01*
X414292Y13462D02*
X414292Y29718D01*
X405261Y13462D01*
X405261Y29718D01*
X393173Y29718D02*
X393048Y29716D01*
X392923Y29710D01*
X392798Y29701D01*
X392674Y29687D01*
X392550Y29670D01*
X392426Y29649D01*
X392304Y29624D01*
X392182Y29595D01*
X392061Y29563D01*
X391941Y29527D01*
X391822Y29487D01*
X391705Y29444D01*
X391589Y29397D01*
X391474Y29346D01*
X391362Y29292D01*
X391250Y29234D01*
X391141Y29174D01*
X391034Y29109D01*
X390928Y29042D01*
X390825Y28971D01*
X390724Y28897D01*
X390625Y28820D01*
X390529Y28740D01*
X390435Y28657D01*
X390344Y28572D01*
X390255Y28483D01*
X390170Y28392D01*
X390087Y28298D01*
X390007Y28202D01*
X389930Y28103D01*
X389856Y28002D01*
X389785Y27899D01*
X389718Y27793D01*
X389653Y27686D01*
X389593Y27577D01*
X389535Y27465D01*
X389481Y27353D01*
X389430Y27238D01*
X389383Y27122D01*
X389340Y27005D01*
X389300Y26886D01*
X389264Y26766D01*
X389232Y26645D01*
X389203Y26523D01*
X389178Y26401D01*
X389157Y26277D01*
X389140Y26153D01*
X389126Y26029D01*
X389117Y25904D01*
X389111Y25779D01*
X389109Y25654D01*
X393173Y29718D02*
X393316Y29716D01*
X393458Y29710D01*
X393601Y29700D01*
X393743Y29687D01*
X393884Y29669D01*
X394026Y29648D01*
X394166Y29623D01*
X394306Y29594D01*
X394445Y29561D01*
X394583Y29524D01*
X394720Y29484D01*
X394855Y29440D01*
X394990Y29392D01*
X395123Y29340D01*
X395255Y29285D01*
X395385Y29226D01*
X395513Y29164D01*
X395640Y29098D01*
X395765Y29029D01*
X395888Y28957D01*
X396009Y28881D01*
X396127Y28802D01*
X396244Y28719D01*
X396358Y28634D01*
X396470Y28545D01*
X396579Y28454D01*
X396686Y28359D01*
X396791Y28262D01*
X396892Y28161D01*
X396991Y28058D01*
X397087Y27953D01*
X397180Y27844D01*
X397270Y27733D01*
X397357Y27620D01*
X397441Y27505D01*
X397521Y27387D01*
X397599Y27267D01*
X397673Y27145D01*
X397743Y27021D01*
X397811Y26895D01*
X397874Y26767D01*
X397935Y26638D01*
X397992Y26507D01*
X398045Y26375D01*
X398094Y26241D01*
X398140Y26106D01*
X390464Y22493D02*
X390370Y22585D01*
X390280Y22679D01*
X390192Y22776D01*
X390107Y22876D01*
X390025Y22978D01*
X389946Y23083D01*
X389871Y23190D01*
X389799Y23299D01*
X389730Y23410D01*
X389664Y23524D01*
X389602Y23639D01*
X389543Y23756D01*
X389488Y23875D01*
X389437Y23995D01*
X389389Y24117D01*
X389344Y24240D01*
X389304Y24364D01*
X389267Y24490D01*
X389234Y24617D01*
X389205Y24744D01*
X389179Y24873D01*
X389158Y25002D01*
X389140Y25132D01*
X389127Y25262D01*
X389117Y25392D01*
X389111Y25523D01*
X389109Y25654D01*
X390463Y22493D02*
X398140Y13462D01*
X389109Y13462D01*
X382508Y21590D02*
X382504Y21910D01*
X382493Y22229D01*
X382474Y22549D01*
X382447Y22867D01*
X382413Y23185D01*
X382371Y23502D01*
X382321Y23818D01*
X382264Y24133D01*
X382200Y24446D01*
X382128Y24758D01*
X382049Y25068D01*
X381962Y25375D01*
X381868Y25681D01*
X381767Y25984D01*
X381658Y26285D01*
X381543Y26583D01*
X381420Y26879D01*
X381290Y27171D01*
X381153Y27460D01*
X381154Y27461D02*
X381115Y27569D01*
X381072Y27676D01*
X381026Y27781D01*
X380975Y27885D01*
X380922Y27987D01*
X380865Y28087D01*
X380804Y28185D01*
X380740Y28280D01*
X380673Y28374D01*
X380602Y28465D01*
X380529Y28554D01*
X380452Y28640D01*
X380373Y28723D01*
X380291Y28804D01*
X380206Y28882D01*
X380118Y28956D01*
X380028Y29028D01*
X379936Y29096D01*
X379841Y29162D01*
X379744Y29224D01*
X379645Y29282D01*
X379543Y29338D01*
X379441Y29389D01*
X379336Y29437D01*
X379230Y29482D01*
X379122Y29523D01*
X379013Y29560D01*
X378903Y29593D01*
X378791Y29622D01*
X378679Y29648D01*
X378566Y29670D01*
X378452Y29687D01*
X378338Y29701D01*
X378223Y29711D01*
X378108Y29717D01*
X377993Y29719D01*
X377993Y29718D02*
X377878Y29716D01*
X377763Y29710D01*
X377648Y29700D01*
X377534Y29686D01*
X377420Y29669D01*
X377307Y29647D01*
X377195Y29621D01*
X377083Y29592D01*
X376973Y29559D01*
X376864Y29522D01*
X376756Y29481D01*
X376650Y29436D01*
X376546Y29388D01*
X376443Y29337D01*
X376342Y29281D01*
X376242Y29223D01*
X376145Y29161D01*
X376051Y29096D01*
X375958Y29027D01*
X375868Y28955D01*
X375780Y28881D01*
X375695Y28803D01*
X375613Y28722D01*
X375534Y28639D01*
X375457Y28553D01*
X375384Y28464D01*
X375313Y28373D01*
X375246Y28279D01*
X375182Y28184D01*
X375121Y28086D01*
X375064Y27986D01*
X375011Y27884D01*
X374960Y27780D01*
X374914Y27675D01*
X374871Y27568D01*
X374832Y27460D01*
X374833Y27460D02*
X374696Y27171D01*
X374566Y26879D01*
X374443Y26583D01*
X374328Y26285D01*
X374219Y25984D01*
X374118Y25681D01*
X374024Y25375D01*
X373937Y25068D01*
X373858Y24758D01*
X373786Y24446D01*
X373722Y24133D01*
X373665Y23818D01*
X373615Y23502D01*
X373573Y23185D01*
X373539Y22867D01*
X373512Y22549D01*
X373493Y22229D01*
X373482Y21910D01*
X373478Y21590D01*
X382508Y21590D02*
X382504Y21270D01*
X382493Y20951D01*
X382474Y20631D01*
X382447Y20313D01*
X382413Y19995D01*
X382371Y19678D01*
X382321Y19362D01*
X382264Y19047D01*
X382200Y18734D01*
X382128Y18422D01*
X382049Y18112D01*
X381962Y17805D01*
X381868Y17499D01*
X381767Y17196D01*
X381658Y16895D01*
X381543Y16597D01*
X381420Y16301D01*
X381290Y16009D01*
X381153Y15720D01*
X381154Y15720D02*
X381115Y15612D01*
X381072Y15505D01*
X381026Y15400D01*
X380975Y15296D01*
X380922Y15194D01*
X380865Y15094D01*
X380804Y14996D01*
X380740Y14901D01*
X380673Y14807D01*
X380602Y14716D01*
X380529Y14627D01*
X380452Y14541D01*
X380373Y14458D01*
X380291Y14377D01*
X380206Y14299D01*
X380118Y14225D01*
X380028Y14153D01*
X379935Y14084D01*
X379841Y14019D01*
X379744Y13957D01*
X379644Y13899D01*
X379543Y13843D01*
X379441Y13792D01*
X379336Y13744D01*
X379230Y13699D01*
X379122Y13658D01*
X379013Y13621D01*
X378903Y13588D01*
X378791Y13559D01*
X378679Y13533D01*
X378566Y13511D01*
X378452Y13494D01*
X378338Y13480D01*
X378223Y13470D01*
X378108Y13464D01*
X377993Y13462D01*
X374833Y15720D02*
X374696Y16009D01*
X374566Y16301D01*
X374443Y16597D01*
X374328Y16895D01*
X374219Y17196D01*
X374118Y17499D01*
X374024Y17805D01*
X373937Y18112D01*
X373858Y18422D01*
X373786Y18734D01*
X373722Y19047D01*
X373665Y19362D01*
X373615Y19678D01*
X373573Y19995D01*
X373539Y20313D01*
X373512Y20631D01*
X373493Y20951D01*
X373482Y21270D01*
X373478Y21590D01*
X374832Y15720D02*
X374871Y15612D01*
X374914Y15505D01*
X374960Y15400D01*
X375011Y15296D01*
X375064Y15194D01*
X375122Y15094D01*
X375182Y14996D01*
X375246Y14901D01*
X375313Y14807D01*
X375384Y14716D01*
X375457Y14627D01*
X375534Y14541D01*
X375613Y14458D01*
X375695Y14377D01*
X375780Y14299D01*
X375868Y14225D01*
X375958Y14153D01*
X376051Y14084D01*
X376145Y14019D01*
X376242Y13957D01*
X376342Y13899D01*
X376443Y13843D01*
X376546Y13792D01*
X376650Y13744D01*
X376756Y13699D01*
X376864Y13658D01*
X376973Y13621D01*
X377083Y13588D01*
X377195Y13559D01*
X377307Y13533D01*
X377420Y13511D01*
X377534Y13494D01*
X377648Y13480D01*
X377763Y13470D01*
X377878Y13464D01*
X377993Y13462D01*
X381605Y17074D02*
X374380Y26106D01*
X366877Y21590D02*
X366873Y21910D01*
X366862Y22229D01*
X366843Y22549D01*
X366816Y22867D01*
X366782Y23185D01*
X366740Y23502D01*
X366690Y23818D01*
X366633Y24133D01*
X366569Y24446D01*
X366497Y24758D01*
X366418Y25068D01*
X366331Y25375D01*
X366237Y25681D01*
X366136Y25984D01*
X366027Y26285D01*
X365912Y26583D01*
X365789Y26879D01*
X365659Y27171D01*
X365522Y27460D01*
X365523Y27461D02*
X365484Y27569D01*
X365441Y27676D01*
X365395Y27781D01*
X365344Y27885D01*
X365291Y27987D01*
X365234Y28087D01*
X365173Y28185D01*
X365109Y28280D01*
X365042Y28374D01*
X364971Y28465D01*
X364898Y28554D01*
X364821Y28640D01*
X364742Y28723D01*
X364660Y28804D01*
X364575Y28882D01*
X364487Y28956D01*
X364397Y29028D01*
X364305Y29096D01*
X364210Y29162D01*
X364113Y29224D01*
X364014Y29282D01*
X363912Y29338D01*
X363810Y29389D01*
X363705Y29437D01*
X363599Y29482D01*
X363491Y29523D01*
X363382Y29560D01*
X363272Y29593D01*
X363160Y29622D01*
X363048Y29648D01*
X362935Y29670D01*
X362821Y29687D01*
X362707Y29701D01*
X362592Y29711D01*
X362477Y29717D01*
X362362Y29719D01*
X362362Y29718D02*
X362247Y29716D01*
X362132Y29710D01*
X362017Y29700D01*
X361903Y29686D01*
X361789Y29669D01*
X361676Y29647D01*
X361564Y29621D01*
X361452Y29592D01*
X361342Y29559D01*
X361233Y29522D01*
X361125Y29481D01*
X361019Y29436D01*
X360915Y29388D01*
X360812Y29337D01*
X360711Y29281D01*
X360611Y29223D01*
X360514Y29161D01*
X360420Y29096D01*
X360327Y29027D01*
X360237Y28955D01*
X360149Y28881D01*
X360064Y28803D01*
X359982Y28722D01*
X359903Y28639D01*
X359826Y28553D01*
X359753Y28464D01*
X359682Y28373D01*
X359615Y28279D01*
X359551Y28184D01*
X359490Y28086D01*
X359433Y27986D01*
X359380Y27884D01*
X359329Y27780D01*
X359283Y27675D01*
X359240Y27568D01*
X359201Y27460D01*
X359064Y27171D01*
X358934Y26879D01*
X358811Y26583D01*
X358696Y26285D01*
X358587Y25984D01*
X358486Y25681D01*
X358392Y25375D01*
X358305Y25068D01*
X358226Y24758D01*
X358154Y24446D01*
X358090Y24133D01*
X358033Y23818D01*
X357983Y23502D01*
X357941Y23185D01*
X357907Y22867D01*
X357880Y22549D01*
X357861Y22229D01*
X357850Y21910D01*
X357846Y21590D01*
X366877Y21590D02*
X366873Y21270D01*
X366862Y20951D01*
X366843Y20631D01*
X366816Y20313D01*
X366782Y19995D01*
X366740Y19678D01*
X366690Y19362D01*
X366633Y19047D01*
X366569Y18734D01*
X366497Y18422D01*
X366418Y18112D01*
X366331Y17805D01*
X366237Y17499D01*
X366136Y17196D01*
X366027Y16895D01*
X365912Y16597D01*
X365789Y16301D01*
X365659Y16009D01*
X365522Y15720D01*
X365523Y15720D02*
X365484Y15612D01*
X365441Y15505D01*
X365395Y15400D01*
X365344Y15296D01*
X365291Y15194D01*
X365234Y15094D01*
X365173Y14996D01*
X365109Y14901D01*
X365042Y14807D01*
X364971Y14716D01*
X364898Y14627D01*
X364821Y14541D01*
X364742Y14458D01*
X364660Y14377D01*
X364575Y14299D01*
X364487Y14225D01*
X364397Y14153D01*
X364304Y14084D01*
X364210Y14019D01*
X364113Y13957D01*
X364013Y13899D01*
X363912Y13843D01*
X363810Y13792D01*
X363705Y13744D01*
X363599Y13699D01*
X363491Y13658D01*
X363382Y13621D01*
X363272Y13588D01*
X363160Y13559D01*
X363048Y13533D01*
X362935Y13511D01*
X362821Y13494D01*
X362707Y13480D01*
X362592Y13470D01*
X362477Y13464D01*
X362362Y13462D01*
X359202Y15720D02*
X359065Y16009D01*
X358935Y16301D01*
X358812Y16597D01*
X358697Y16895D01*
X358588Y17196D01*
X358487Y17499D01*
X358393Y17805D01*
X358306Y18112D01*
X358227Y18422D01*
X358155Y18734D01*
X358091Y19047D01*
X358034Y19362D01*
X357984Y19678D01*
X357942Y19995D01*
X357908Y20313D01*
X357881Y20631D01*
X357862Y20951D01*
X357851Y21270D01*
X357847Y21590D01*
X359201Y15720D02*
X359240Y15612D01*
X359283Y15505D01*
X359329Y15400D01*
X359380Y15296D01*
X359433Y15194D01*
X359491Y15094D01*
X359551Y14996D01*
X359615Y14901D01*
X359682Y14807D01*
X359753Y14716D01*
X359826Y14627D01*
X359903Y14541D01*
X359982Y14458D01*
X360064Y14377D01*
X360149Y14299D01*
X360237Y14225D01*
X360327Y14153D01*
X360420Y14084D01*
X360514Y14019D01*
X360611Y13957D01*
X360711Y13899D01*
X360812Y13843D01*
X360915Y13792D01*
X361019Y13744D01*
X361125Y13699D01*
X361233Y13658D01*
X361342Y13621D01*
X361452Y13588D01*
X361564Y13559D01*
X361676Y13533D01*
X361789Y13511D01*
X361903Y13494D01*
X362017Y13480D01*
X362132Y13470D01*
X362247Y13464D01*
X362362Y13462D01*
X365974Y17074D02*
X358749Y26106D01*
X351246Y13462D02*
X346731Y13462D01*
X346598Y13464D01*
X346466Y13470D01*
X346334Y13480D01*
X346202Y13493D01*
X346070Y13511D01*
X345940Y13532D01*
X345809Y13557D01*
X345680Y13586D01*
X345552Y13619D01*
X345424Y13655D01*
X345298Y13695D01*
X345173Y13739D01*
X345049Y13787D01*
X344927Y13838D01*
X344806Y13893D01*
X344687Y13951D01*
X344569Y14013D01*
X344454Y14078D01*
X344340Y14147D01*
X344229Y14218D01*
X344120Y14294D01*
X344013Y14372D01*
X343908Y14453D01*
X343806Y14538D01*
X343706Y14625D01*
X343609Y14715D01*
X343514Y14808D01*
X343423Y14904D01*
X343334Y15002D01*
X343248Y15103D01*
X343165Y15207D01*
X343085Y15313D01*
X343009Y15421D01*
X342935Y15531D01*
X342865Y15644D01*
X342798Y15758D01*
X342735Y15875D01*
X342675Y15993D01*
X342618Y16113D01*
X342565Y16235D01*
X342516Y16358D01*
X342470Y16482D01*
X342428Y16608D01*
X342390Y16735D01*
X342355Y16863D01*
X342324Y16992D01*
X342297Y17121D01*
X342274Y17252D01*
X342254Y17383D01*
X342239Y17515D01*
X342227Y17647D01*
X342219Y17779D01*
X342215Y17912D01*
X342215Y18044D01*
X342219Y18177D01*
X342227Y18309D01*
X342239Y18441D01*
X342254Y18573D01*
X342274Y18704D01*
X342297Y18835D01*
X342324Y18964D01*
X342355Y19093D01*
X342390Y19221D01*
X342428Y19348D01*
X342470Y19474D01*
X342516Y19598D01*
X342565Y19721D01*
X342618Y19843D01*
X342675Y19963D01*
X342735Y20081D01*
X342798Y20198D01*
X342865Y20312D01*
X342935Y20425D01*
X343009Y20535D01*
X343085Y20643D01*
X343165Y20749D01*
X343248Y20853D01*
X343334Y20954D01*
X343423Y21052D01*
X343514Y21148D01*
X343609Y21241D01*
X343706Y21331D01*
X343806Y21418D01*
X343908Y21503D01*
X344013Y21584D01*
X344120Y21662D01*
X344229Y21738D01*
X344340Y21809D01*
X344454Y21878D01*
X344569Y21943D01*
X344687Y22005D01*
X344806Y22063D01*
X344927Y22118D01*
X345049Y22169D01*
X345173Y22217D01*
X345298Y22261D01*
X345424Y22301D01*
X345552Y22337D01*
X345680Y22370D01*
X345809Y22399D01*
X345940Y22424D01*
X346070Y22445D01*
X346202Y22463D01*
X346334Y22476D01*
X346466Y22486D01*
X346598Y22492D01*
X346731Y22494D01*
X345827Y29718D02*
X351246Y29718D01*
X345827Y29718D02*
X345708Y29716D01*
X345588Y29710D01*
X345469Y29700D01*
X345351Y29686D01*
X345232Y29669D01*
X345115Y29647D01*
X344998Y29622D01*
X344883Y29592D01*
X344768Y29559D01*
X344654Y29522D01*
X344542Y29482D01*
X344431Y29437D01*
X344322Y29389D01*
X344214Y29338D01*
X344108Y29283D01*
X344004Y29224D01*
X343902Y29162D01*
X343802Y29097D01*
X343704Y29028D01*
X343608Y28956D01*
X343515Y28881D01*
X343425Y28804D01*
X343337Y28723D01*
X343252Y28639D01*
X343170Y28552D01*
X343090Y28463D01*
X343014Y28371D01*
X342940Y28277D01*
X342870Y28180D01*
X342803Y28082D01*
X342739Y27981D01*
X342679Y27877D01*
X342622Y27772D01*
X342569Y27665D01*
X342519Y27557D01*
X342473Y27447D01*
X342431Y27335D01*
X342392Y27222D01*
X342357Y27108D01*
X342326Y26993D01*
X342298Y26876D01*
X342275Y26759D01*
X342255Y26642D01*
X342239Y26523D01*
X342227Y26404D01*
X342219Y26285D01*
X342215Y26166D01*
X342215Y26046D01*
X342219Y25927D01*
X342227Y25808D01*
X342239Y25689D01*
X342255Y25570D01*
X342275Y25453D01*
X342298Y25336D01*
X342326Y25219D01*
X342357Y25104D01*
X342392Y24990D01*
X342431Y24877D01*
X342473Y24765D01*
X342519Y24655D01*
X342569Y24547D01*
X342622Y24440D01*
X342679Y24335D01*
X342739Y24231D01*
X342803Y24130D01*
X342870Y24032D01*
X342940Y23935D01*
X343014Y23841D01*
X343090Y23749D01*
X343170Y23660D01*
X343252Y23573D01*
X343337Y23489D01*
X343425Y23408D01*
X343515Y23331D01*
X343608Y23256D01*
X343704Y23184D01*
X343802Y23115D01*
X343902Y23050D01*
X344004Y22988D01*
X344108Y22929D01*
X344214Y22874D01*
X344322Y22823D01*
X344431Y22775D01*
X344542Y22730D01*
X344654Y22690D01*
X344768Y22653D01*
X344883Y22620D01*
X344998Y22590D01*
X345115Y22565D01*
X345232Y22543D01*
X345351Y22526D01*
X345469Y22512D01*
X345588Y22502D01*
X345708Y22496D01*
X345827Y22494D01*
X345827Y22493D02*
X349440Y22493D01*
X336518Y13462D02*
X331099Y29718D01*
X325681Y13462D01*
X327035Y17526D02*
X335163Y17526D01*
X1383538Y230632D02*
X1383538Y246888D01*
X1379022Y246888D01*
X1378889Y246886D01*
X1378757Y246880D01*
X1378625Y246870D01*
X1378493Y246857D01*
X1378361Y246839D01*
X1378231Y246818D01*
X1378100Y246793D01*
X1377971Y246764D01*
X1377843Y246731D01*
X1377715Y246695D01*
X1377589Y246655D01*
X1377464Y246611D01*
X1377340Y246563D01*
X1377218Y246512D01*
X1377097Y246457D01*
X1376978Y246399D01*
X1376860Y246337D01*
X1376745Y246272D01*
X1376631Y246203D01*
X1376520Y246132D01*
X1376411Y246056D01*
X1376304Y245978D01*
X1376199Y245897D01*
X1376097Y245812D01*
X1375997Y245725D01*
X1375900Y245635D01*
X1375805Y245542D01*
X1375714Y245446D01*
X1375625Y245348D01*
X1375539Y245247D01*
X1375456Y245143D01*
X1375376Y245037D01*
X1375300Y244929D01*
X1375226Y244819D01*
X1375156Y244706D01*
X1375089Y244592D01*
X1375026Y244475D01*
X1374966Y244357D01*
X1374909Y244237D01*
X1374856Y244115D01*
X1374807Y243992D01*
X1374761Y243868D01*
X1374719Y243742D01*
X1374681Y243615D01*
X1374646Y243487D01*
X1374615Y243358D01*
X1374588Y243229D01*
X1374565Y243098D01*
X1374545Y242967D01*
X1374530Y242835D01*
X1374518Y242703D01*
X1374510Y242571D01*
X1374506Y242438D01*
X1374506Y242306D01*
X1374510Y242173D01*
X1374518Y242041D01*
X1374530Y241909D01*
X1374545Y241777D01*
X1374565Y241646D01*
X1374588Y241515D01*
X1374615Y241386D01*
X1374646Y241257D01*
X1374681Y241129D01*
X1374719Y241002D01*
X1374761Y240876D01*
X1374807Y240752D01*
X1374856Y240629D01*
X1374909Y240507D01*
X1374966Y240387D01*
X1375026Y240269D01*
X1375089Y240152D01*
X1375156Y240038D01*
X1375226Y239925D01*
X1375300Y239815D01*
X1375376Y239707D01*
X1375456Y239601D01*
X1375539Y239497D01*
X1375625Y239396D01*
X1375714Y239298D01*
X1375805Y239202D01*
X1375900Y239109D01*
X1375997Y239019D01*
X1376097Y238932D01*
X1376199Y238847D01*
X1376304Y238766D01*
X1376411Y238688D01*
X1376520Y238612D01*
X1376631Y238541D01*
X1376745Y238472D01*
X1376860Y238407D01*
X1376978Y238345D01*
X1377097Y238287D01*
X1377218Y238232D01*
X1377340Y238181D01*
X1377464Y238133D01*
X1377589Y238089D01*
X1377715Y238049D01*
X1377843Y238013D01*
X1377971Y237980D01*
X1378100Y237951D01*
X1378231Y237926D01*
X1378361Y237905D01*
X1378493Y237887D01*
X1378625Y237874D01*
X1378757Y237864D01*
X1378889Y237858D01*
X1379022Y237856D01*
X1379022Y237857D02*
X1383538Y237857D01*
X1378119Y237857D02*
X1374507Y230632D01*
X1367998Y243276D02*
X1363483Y246888D01*
X1363483Y230632D01*
X1367998Y230632D02*
X1358967Y230632D01*
X1353046Y230632D02*
X1352143Y230632D01*
X1353046Y230632D02*
X1353046Y231535D01*
X1352143Y231535D01*
X1352143Y230632D01*
X1353497Y227020D01*
X1345502Y230632D02*
X1345502Y246888D01*
X1340986Y246888D01*
X1340853Y246886D01*
X1340721Y246880D01*
X1340589Y246870D01*
X1340457Y246857D01*
X1340325Y246839D01*
X1340195Y246818D01*
X1340064Y246793D01*
X1339935Y246764D01*
X1339807Y246731D01*
X1339679Y246695D01*
X1339553Y246655D01*
X1339428Y246611D01*
X1339304Y246563D01*
X1339182Y246512D01*
X1339061Y246457D01*
X1338942Y246399D01*
X1338824Y246337D01*
X1338709Y246272D01*
X1338595Y246203D01*
X1338484Y246132D01*
X1338375Y246056D01*
X1338268Y245978D01*
X1338163Y245897D01*
X1338061Y245812D01*
X1337961Y245725D01*
X1337864Y245635D01*
X1337769Y245542D01*
X1337678Y245446D01*
X1337589Y245348D01*
X1337503Y245247D01*
X1337420Y245143D01*
X1337340Y245037D01*
X1337264Y244929D01*
X1337190Y244819D01*
X1337120Y244706D01*
X1337053Y244592D01*
X1336990Y244475D01*
X1336930Y244357D01*
X1336873Y244237D01*
X1336820Y244115D01*
X1336771Y243992D01*
X1336725Y243868D01*
X1336683Y243742D01*
X1336645Y243615D01*
X1336610Y243487D01*
X1336579Y243358D01*
X1336552Y243229D01*
X1336529Y243098D01*
X1336509Y242967D01*
X1336494Y242835D01*
X1336482Y242703D01*
X1336474Y242571D01*
X1336470Y242438D01*
X1336470Y242306D01*
X1336474Y242173D01*
X1336482Y242041D01*
X1336494Y241909D01*
X1336509Y241777D01*
X1336529Y241646D01*
X1336552Y241515D01*
X1336579Y241386D01*
X1336610Y241257D01*
X1336645Y241129D01*
X1336683Y241002D01*
X1336725Y240876D01*
X1336771Y240752D01*
X1336820Y240629D01*
X1336873Y240507D01*
X1336930Y240387D01*
X1336990Y240269D01*
X1337053Y240152D01*
X1337120Y240038D01*
X1337190Y239925D01*
X1337264Y239815D01*
X1337340Y239707D01*
X1337420Y239601D01*
X1337503Y239497D01*
X1337589Y239396D01*
X1337678Y239298D01*
X1337769Y239202D01*
X1337864Y239109D01*
X1337961Y239019D01*
X1338061Y238932D01*
X1338163Y238847D01*
X1338268Y238766D01*
X1338375Y238688D01*
X1338484Y238612D01*
X1338595Y238541D01*
X1338709Y238472D01*
X1338824Y238407D01*
X1338942Y238345D01*
X1339061Y238287D01*
X1339182Y238232D01*
X1339304Y238181D01*
X1339428Y238133D01*
X1339553Y238089D01*
X1339679Y238049D01*
X1339807Y238013D01*
X1339935Y237980D01*
X1340064Y237951D01*
X1340195Y237926D01*
X1340325Y237905D01*
X1340457Y237887D01*
X1340589Y237874D01*
X1340721Y237864D01*
X1340853Y237858D01*
X1340986Y237856D01*
X1340986Y237857D02*
X1345502Y237857D01*
X1340083Y237857D02*
X1336471Y230632D01*
X1320931Y242824D02*
X1320933Y242949D01*
X1320939Y243074D01*
X1320948Y243199D01*
X1320962Y243323D01*
X1320979Y243447D01*
X1321000Y243571D01*
X1321025Y243693D01*
X1321054Y243815D01*
X1321086Y243936D01*
X1321122Y244056D01*
X1321162Y244175D01*
X1321205Y244292D01*
X1321252Y244408D01*
X1321303Y244523D01*
X1321357Y244635D01*
X1321415Y244747D01*
X1321475Y244856D01*
X1321540Y244963D01*
X1321607Y245069D01*
X1321678Y245172D01*
X1321752Y245273D01*
X1321829Y245372D01*
X1321909Y245468D01*
X1321992Y245562D01*
X1322077Y245653D01*
X1322166Y245742D01*
X1322257Y245827D01*
X1322351Y245910D01*
X1322447Y245990D01*
X1322546Y246067D01*
X1322647Y246141D01*
X1322750Y246212D01*
X1322856Y246279D01*
X1322963Y246344D01*
X1323072Y246404D01*
X1323184Y246462D01*
X1323296Y246516D01*
X1323411Y246567D01*
X1323527Y246614D01*
X1323644Y246657D01*
X1323763Y246697D01*
X1323883Y246733D01*
X1324004Y246765D01*
X1324126Y246794D01*
X1324248Y246819D01*
X1324372Y246840D01*
X1324496Y246857D01*
X1324620Y246871D01*
X1324745Y246880D01*
X1324870Y246886D01*
X1324995Y246888D01*
X1325138Y246886D01*
X1325280Y246880D01*
X1325423Y246870D01*
X1325565Y246857D01*
X1325706Y246839D01*
X1325848Y246818D01*
X1325988Y246793D01*
X1326128Y246764D01*
X1326267Y246731D01*
X1326405Y246694D01*
X1326542Y246654D01*
X1326677Y246610D01*
X1326812Y246562D01*
X1326945Y246510D01*
X1327077Y246455D01*
X1327207Y246396D01*
X1327335Y246334D01*
X1327462Y246268D01*
X1327587Y246199D01*
X1327710Y246127D01*
X1327831Y246051D01*
X1327949Y245972D01*
X1328066Y245889D01*
X1328180Y245804D01*
X1328292Y245715D01*
X1328401Y245624D01*
X1328508Y245529D01*
X1328613Y245432D01*
X1328714Y245331D01*
X1328813Y245228D01*
X1328909Y245123D01*
X1329002Y245014D01*
X1329092Y244903D01*
X1329179Y244790D01*
X1329263Y244675D01*
X1329343Y244557D01*
X1329421Y244437D01*
X1329495Y244315D01*
X1329565Y244191D01*
X1329633Y244065D01*
X1329696Y243937D01*
X1329757Y243808D01*
X1329814Y243677D01*
X1329867Y243545D01*
X1329916Y243411D01*
X1329962Y243276D01*
X1322286Y239663D02*
X1322192Y239755D01*
X1322102Y239849D01*
X1322014Y239946D01*
X1321929Y240046D01*
X1321847Y240148D01*
X1321768Y240253D01*
X1321693Y240360D01*
X1321621Y240469D01*
X1321552Y240580D01*
X1321486Y240694D01*
X1321424Y240809D01*
X1321365Y240926D01*
X1321310Y241045D01*
X1321259Y241165D01*
X1321211Y241287D01*
X1321166Y241410D01*
X1321126Y241534D01*
X1321089Y241660D01*
X1321056Y241787D01*
X1321027Y241914D01*
X1321001Y242043D01*
X1320980Y242172D01*
X1320962Y242302D01*
X1320949Y242432D01*
X1320939Y242562D01*
X1320933Y242693D01*
X1320931Y242824D01*
X1322286Y239663D02*
X1329962Y230632D01*
X1320931Y230632D01*
X1315010Y230632D02*
X1314107Y230632D01*
X1315010Y230632D02*
X1315010Y231535D01*
X1314107Y231535D01*
X1314107Y230632D01*
X1315461Y227020D01*
X1307466Y230632D02*
X1307466Y246888D01*
X1302950Y246888D01*
X1302817Y246886D01*
X1302685Y246880D01*
X1302553Y246870D01*
X1302421Y246857D01*
X1302289Y246839D01*
X1302159Y246818D01*
X1302028Y246793D01*
X1301899Y246764D01*
X1301771Y246731D01*
X1301643Y246695D01*
X1301517Y246655D01*
X1301392Y246611D01*
X1301268Y246563D01*
X1301146Y246512D01*
X1301025Y246457D01*
X1300906Y246399D01*
X1300788Y246337D01*
X1300673Y246272D01*
X1300559Y246203D01*
X1300448Y246132D01*
X1300339Y246056D01*
X1300232Y245978D01*
X1300127Y245897D01*
X1300025Y245812D01*
X1299925Y245725D01*
X1299828Y245635D01*
X1299733Y245542D01*
X1299642Y245446D01*
X1299553Y245348D01*
X1299467Y245247D01*
X1299384Y245143D01*
X1299304Y245037D01*
X1299228Y244929D01*
X1299154Y244819D01*
X1299084Y244706D01*
X1299017Y244592D01*
X1298954Y244475D01*
X1298894Y244357D01*
X1298837Y244237D01*
X1298784Y244115D01*
X1298735Y243992D01*
X1298689Y243868D01*
X1298647Y243742D01*
X1298609Y243615D01*
X1298574Y243487D01*
X1298543Y243358D01*
X1298516Y243229D01*
X1298493Y243098D01*
X1298473Y242967D01*
X1298458Y242835D01*
X1298446Y242703D01*
X1298438Y242571D01*
X1298434Y242438D01*
X1298434Y242306D01*
X1298438Y242173D01*
X1298446Y242041D01*
X1298458Y241909D01*
X1298473Y241777D01*
X1298493Y241646D01*
X1298516Y241515D01*
X1298543Y241386D01*
X1298574Y241257D01*
X1298609Y241129D01*
X1298647Y241002D01*
X1298689Y240876D01*
X1298735Y240752D01*
X1298784Y240629D01*
X1298837Y240507D01*
X1298894Y240387D01*
X1298954Y240269D01*
X1299017Y240152D01*
X1299084Y240038D01*
X1299154Y239925D01*
X1299228Y239815D01*
X1299304Y239707D01*
X1299384Y239601D01*
X1299467Y239497D01*
X1299553Y239396D01*
X1299642Y239298D01*
X1299733Y239202D01*
X1299828Y239109D01*
X1299925Y239019D01*
X1300025Y238932D01*
X1300127Y238847D01*
X1300232Y238766D01*
X1300339Y238688D01*
X1300448Y238612D01*
X1300559Y238541D01*
X1300673Y238472D01*
X1300788Y238407D01*
X1300906Y238345D01*
X1301025Y238287D01*
X1301146Y238232D01*
X1301268Y238181D01*
X1301392Y238133D01*
X1301517Y238089D01*
X1301643Y238049D01*
X1301771Y238013D01*
X1301899Y237980D01*
X1302028Y237951D01*
X1302159Y237926D01*
X1302289Y237905D01*
X1302421Y237887D01*
X1302553Y237874D01*
X1302685Y237864D01*
X1302817Y237858D01*
X1302950Y237856D01*
X1302950Y237857D02*
X1307466Y237857D01*
X1302047Y237857D02*
X1298435Y230632D01*
X1291926Y230632D02*
X1287411Y230632D01*
X1287278Y230634D01*
X1287146Y230640D01*
X1287014Y230650D01*
X1286882Y230663D01*
X1286750Y230681D01*
X1286620Y230702D01*
X1286489Y230727D01*
X1286360Y230756D01*
X1286232Y230789D01*
X1286104Y230825D01*
X1285978Y230865D01*
X1285853Y230909D01*
X1285729Y230957D01*
X1285607Y231008D01*
X1285486Y231063D01*
X1285367Y231121D01*
X1285249Y231183D01*
X1285134Y231248D01*
X1285020Y231317D01*
X1284909Y231388D01*
X1284800Y231464D01*
X1284693Y231542D01*
X1284588Y231623D01*
X1284486Y231708D01*
X1284386Y231795D01*
X1284289Y231885D01*
X1284194Y231978D01*
X1284103Y232074D01*
X1284014Y232172D01*
X1283928Y232273D01*
X1283845Y232377D01*
X1283765Y232483D01*
X1283689Y232591D01*
X1283615Y232701D01*
X1283545Y232814D01*
X1283478Y232928D01*
X1283415Y233045D01*
X1283355Y233163D01*
X1283298Y233283D01*
X1283245Y233405D01*
X1283196Y233528D01*
X1283150Y233652D01*
X1283108Y233778D01*
X1283070Y233905D01*
X1283035Y234033D01*
X1283004Y234162D01*
X1282977Y234291D01*
X1282954Y234422D01*
X1282934Y234553D01*
X1282919Y234685D01*
X1282907Y234817D01*
X1282899Y234949D01*
X1282895Y235082D01*
X1282895Y235214D01*
X1282899Y235347D01*
X1282907Y235479D01*
X1282919Y235611D01*
X1282934Y235743D01*
X1282954Y235874D01*
X1282977Y236005D01*
X1283004Y236134D01*
X1283035Y236263D01*
X1283070Y236391D01*
X1283108Y236518D01*
X1283150Y236644D01*
X1283196Y236768D01*
X1283245Y236891D01*
X1283298Y237013D01*
X1283355Y237133D01*
X1283415Y237251D01*
X1283478Y237368D01*
X1283545Y237482D01*
X1283615Y237595D01*
X1283689Y237705D01*
X1283765Y237813D01*
X1283845Y237919D01*
X1283928Y238023D01*
X1284014Y238124D01*
X1284103Y238222D01*
X1284194Y238318D01*
X1284289Y238411D01*
X1284386Y238501D01*
X1284486Y238588D01*
X1284588Y238673D01*
X1284693Y238754D01*
X1284800Y238832D01*
X1284909Y238908D01*
X1285020Y238979D01*
X1285134Y239048D01*
X1285249Y239113D01*
X1285367Y239175D01*
X1285486Y239233D01*
X1285607Y239288D01*
X1285729Y239339D01*
X1285853Y239387D01*
X1285978Y239431D01*
X1286104Y239471D01*
X1286232Y239507D01*
X1286360Y239540D01*
X1286489Y239569D01*
X1286620Y239594D01*
X1286750Y239615D01*
X1286882Y239633D01*
X1287014Y239646D01*
X1287146Y239656D01*
X1287278Y239662D01*
X1287411Y239664D01*
X1286508Y246888D02*
X1291926Y246888D01*
X1286508Y246888D02*
X1286389Y246886D01*
X1286269Y246880D01*
X1286150Y246870D01*
X1286032Y246856D01*
X1285913Y246839D01*
X1285796Y246817D01*
X1285679Y246792D01*
X1285564Y246762D01*
X1285449Y246729D01*
X1285335Y246692D01*
X1285223Y246652D01*
X1285112Y246607D01*
X1285003Y246559D01*
X1284895Y246508D01*
X1284789Y246453D01*
X1284685Y246394D01*
X1284583Y246332D01*
X1284483Y246267D01*
X1284385Y246198D01*
X1284289Y246126D01*
X1284196Y246051D01*
X1284106Y245974D01*
X1284018Y245893D01*
X1283933Y245809D01*
X1283851Y245722D01*
X1283771Y245633D01*
X1283695Y245541D01*
X1283621Y245447D01*
X1283551Y245350D01*
X1283484Y245252D01*
X1283420Y245151D01*
X1283360Y245047D01*
X1283303Y244942D01*
X1283250Y244835D01*
X1283200Y244727D01*
X1283154Y244617D01*
X1283112Y244505D01*
X1283073Y244392D01*
X1283038Y244278D01*
X1283007Y244163D01*
X1282979Y244046D01*
X1282956Y243929D01*
X1282936Y243812D01*
X1282920Y243693D01*
X1282908Y243574D01*
X1282900Y243455D01*
X1282896Y243336D01*
X1282896Y243216D01*
X1282900Y243097D01*
X1282908Y242978D01*
X1282920Y242859D01*
X1282936Y242740D01*
X1282956Y242623D01*
X1282979Y242506D01*
X1283007Y242389D01*
X1283038Y242274D01*
X1283073Y242160D01*
X1283112Y242047D01*
X1283154Y241935D01*
X1283200Y241825D01*
X1283250Y241717D01*
X1283303Y241610D01*
X1283360Y241505D01*
X1283420Y241401D01*
X1283484Y241300D01*
X1283551Y241202D01*
X1283621Y241105D01*
X1283695Y241011D01*
X1283771Y240919D01*
X1283851Y240830D01*
X1283933Y240743D01*
X1284018Y240659D01*
X1284106Y240578D01*
X1284196Y240501D01*
X1284289Y240426D01*
X1284385Y240354D01*
X1284483Y240285D01*
X1284583Y240220D01*
X1284685Y240158D01*
X1284789Y240099D01*
X1284895Y240044D01*
X1285003Y239993D01*
X1285112Y239945D01*
X1285223Y239900D01*
X1285335Y239860D01*
X1285449Y239823D01*
X1285564Y239790D01*
X1285679Y239760D01*
X1285796Y239735D01*
X1285913Y239713D01*
X1286032Y239696D01*
X1286150Y239682D01*
X1286269Y239672D01*
X1286389Y239666D01*
X1286508Y239664D01*
X1286508Y239663D02*
X1290120Y239663D01*
X1276974Y230632D02*
X1276071Y230632D01*
X1276974Y230632D02*
X1276974Y231535D01*
X1276071Y231535D01*
X1276071Y230632D01*
X1277425Y227020D01*
X1269430Y230632D02*
X1269430Y246888D01*
X1264914Y246888D01*
X1264781Y246886D01*
X1264649Y246880D01*
X1264517Y246870D01*
X1264385Y246857D01*
X1264253Y246839D01*
X1264123Y246818D01*
X1263992Y246793D01*
X1263863Y246764D01*
X1263735Y246731D01*
X1263607Y246695D01*
X1263481Y246655D01*
X1263356Y246611D01*
X1263232Y246563D01*
X1263110Y246512D01*
X1262989Y246457D01*
X1262870Y246399D01*
X1262752Y246337D01*
X1262637Y246272D01*
X1262523Y246203D01*
X1262412Y246132D01*
X1262303Y246056D01*
X1262196Y245978D01*
X1262091Y245897D01*
X1261989Y245812D01*
X1261889Y245725D01*
X1261792Y245635D01*
X1261697Y245542D01*
X1261606Y245446D01*
X1261517Y245348D01*
X1261431Y245247D01*
X1261348Y245143D01*
X1261268Y245037D01*
X1261192Y244929D01*
X1261118Y244819D01*
X1261048Y244706D01*
X1260981Y244592D01*
X1260918Y244475D01*
X1260858Y244357D01*
X1260801Y244237D01*
X1260748Y244115D01*
X1260699Y243992D01*
X1260653Y243868D01*
X1260611Y243742D01*
X1260573Y243615D01*
X1260538Y243487D01*
X1260507Y243358D01*
X1260480Y243229D01*
X1260457Y243098D01*
X1260437Y242967D01*
X1260422Y242835D01*
X1260410Y242703D01*
X1260402Y242571D01*
X1260398Y242438D01*
X1260398Y242306D01*
X1260402Y242173D01*
X1260410Y242041D01*
X1260422Y241909D01*
X1260437Y241777D01*
X1260457Y241646D01*
X1260480Y241515D01*
X1260507Y241386D01*
X1260538Y241257D01*
X1260573Y241129D01*
X1260611Y241002D01*
X1260653Y240876D01*
X1260699Y240752D01*
X1260748Y240629D01*
X1260801Y240507D01*
X1260858Y240387D01*
X1260918Y240269D01*
X1260981Y240152D01*
X1261048Y240038D01*
X1261118Y239925D01*
X1261192Y239815D01*
X1261268Y239707D01*
X1261348Y239601D01*
X1261431Y239497D01*
X1261517Y239396D01*
X1261606Y239298D01*
X1261697Y239202D01*
X1261792Y239109D01*
X1261889Y239019D01*
X1261989Y238932D01*
X1262091Y238847D01*
X1262196Y238766D01*
X1262303Y238688D01*
X1262412Y238612D01*
X1262523Y238541D01*
X1262637Y238472D01*
X1262752Y238407D01*
X1262870Y238345D01*
X1262989Y238287D01*
X1263110Y238232D01*
X1263232Y238181D01*
X1263356Y238133D01*
X1263481Y238089D01*
X1263607Y238049D01*
X1263735Y238013D01*
X1263863Y237980D01*
X1263992Y237951D01*
X1264123Y237926D01*
X1264253Y237905D01*
X1264385Y237887D01*
X1264517Y237874D01*
X1264649Y237864D01*
X1264781Y237858D01*
X1264914Y237856D01*
X1264914Y237857D02*
X1269430Y237857D01*
X1264011Y237857D02*
X1260399Y230632D01*
X1253890Y234244D02*
X1250278Y246888D01*
X1253890Y234244D02*
X1244859Y234244D01*
X1247569Y230632D02*
X1247569Y237857D01*
X1238938Y230632D02*
X1238035Y230632D01*
X1238938Y230632D02*
X1238938Y231535D01*
X1238035Y231535D01*
X1238035Y230632D01*
X1239389Y227020D01*
X1231394Y230632D02*
X1231394Y246888D01*
X1226878Y246888D01*
X1226745Y246886D01*
X1226613Y246880D01*
X1226481Y246870D01*
X1226349Y246857D01*
X1226217Y246839D01*
X1226087Y246818D01*
X1225956Y246793D01*
X1225827Y246764D01*
X1225699Y246731D01*
X1225571Y246695D01*
X1225445Y246655D01*
X1225320Y246611D01*
X1225196Y246563D01*
X1225074Y246512D01*
X1224953Y246457D01*
X1224834Y246399D01*
X1224716Y246337D01*
X1224601Y246272D01*
X1224487Y246203D01*
X1224376Y246132D01*
X1224267Y246056D01*
X1224160Y245978D01*
X1224055Y245897D01*
X1223953Y245812D01*
X1223853Y245725D01*
X1223756Y245635D01*
X1223661Y245542D01*
X1223570Y245446D01*
X1223481Y245348D01*
X1223395Y245247D01*
X1223312Y245143D01*
X1223232Y245037D01*
X1223156Y244929D01*
X1223082Y244819D01*
X1223012Y244706D01*
X1222945Y244592D01*
X1222882Y244475D01*
X1222822Y244357D01*
X1222765Y244237D01*
X1222712Y244115D01*
X1222663Y243992D01*
X1222617Y243868D01*
X1222575Y243742D01*
X1222537Y243615D01*
X1222502Y243487D01*
X1222471Y243358D01*
X1222444Y243229D01*
X1222421Y243098D01*
X1222401Y242967D01*
X1222386Y242835D01*
X1222374Y242703D01*
X1222366Y242571D01*
X1222362Y242438D01*
X1222362Y242306D01*
X1222366Y242173D01*
X1222374Y242041D01*
X1222386Y241909D01*
X1222401Y241777D01*
X1222421Y241646D01*
X1222444Y241515D01*
X1222471Y241386D01*
X1222502Y241257D01*
X1222537Y241129D01*
X1222575Y241002D01*
X1222617Y240876D01*
X1222663Y240752D01*
X1222712Y240629D01*
X1222765Y240507D01*
X1222822Y240387D01*
X1222882Y240269D01*
X1222945Y240152D01*
X1223012Y240038D01*
X1223082Y239925D01*
X1223156Y239815D01*
X1223232Y239707D01*
X1223312Y239601D01*
X1223395Y239497D01*
X1223481Y239396D01*
X1223570Y239298D01*
X1223661Y239202D01*
X1223756Y239109D01*
X1223853Y239019D01*
X1223953Y238932D01*
X1224055Y238847D01*
X1224160Y238766D01*
X1224267Y238688D01*
X1224376Y238612D01*
X1224487Y238541D01*
X1224601Y238472D01*
X1224716Y238407D01*
X1224834Y238345D01*
X1224953Y238287D01*
X1225074Y238232D01*
X1225196Y238181D01*
X1225320Y238133D01*
X1225445Y238089D01*
X1225571Y238049D01*
X1225699Y238013D01*
X1225827Y237980D01*
X1225956Y237951D01*
X1226087Y237926D01*
X1226217Y237905D01*
X1226349Y237887D01*
X1226481Y237874D01*
X1226613Y237864D01*
X1226745Y237858D01*
X1226878Y237856D01*
X1226878Y237857D02*
X1231394Y237857D01*
X1225975Y237857D02*
X1222363Y230632D01*
X1215854Y230632D02*
X1210436Y230632D01*
X1210318Y230634D01*
X1210200Y230640D01*
X1210082Y230649D01*
X1209965Y230663D01*
X1209848Y230680D01*
X1209731Y230701D01*
X1209616Y230726D01*
X1209501Y230755D01*
X1209387Y230788D01*
X1209275Y230824D01*
X1209164Y230864D01*
X1209054Y230907D01*
X1208945Y230954D01*
X1208838Y231004D01*
X1208733Y231059D01*
X1208630Y231116D01*
X1208529Y231177D01*
X1208429Y231241D01*
X1208332Y231308D01*
X1208237Y231378D01*
X1208145Y231452D01*
X1208054Y231528D01*
X1207967Y231608D01*
X1207882Y231690D01*
X1207800Y231775D01*
X1207720Y231862D01*
X1207644Y231953D01*
X1207570Y232045D01*
X1207500Y232140D01*
X1207433Y232237D01*
X1207369Y232337D01*
X1207308Y232438D01*
X1207251Y232541D01*
X1207196Y232646D01*
X1207146Y232753D01*
X1207099Y232862D01*
X1207056Y232972D01*
X1207016Y233083D01*
X1206980Y233195D01*
X1206947Y233309D01*
X1206918Y233424D01*
X1206893Y233539D01*
X1206872Y233656D01*
X1206855Y233773D01*
X1206841Y233890D01*
X1206832Y234008D01*
X1206826Y234126D01*
X1206824Y234244D01*
X1206823Y234244D02*
X1206823Y236051D01*
X1206824Y236051D02*
X1206826Y236169D01*
X1206832Y236287D01*
X1206841Y236405D01*
X1206855Y236522D01*
X1206872Y236639D01*
X1206893Y236756D01*
X1206918Y236871D01*
X1206947Y236986D01*
X1206980Y237100D01*
X1207016Y237212D01*
X1207056Y237323D01*
X1207099Y237433D01*
X1207146Y237542D01*
X1207196Y237649D01*
X1207251Y237754D01*
X1207308Y237857D01*
X1207369Y237958D01*
X1207433Y238058D01*
X1207500Y238155D01*
X1207570Y238250D01*
X1207644Y238342D01*
X1207720Y238433D01*
X1207800Y238520D01*
X1207882Y238605D01*
X1207967Y238687D01*
X1208054Y238767D01*
X1208145Y238843D01*
X1208237Y238917D01*
X1208332Y238987D01*
X1208429Y239054D01*
X1208529Y239118D01*
X1208630Y239179D01*
X1208733Y239236D01*
X1208838Y239291D01*
X1208945Y239341D01*
X1209054Y239388D01*
X1209164Y239431D01*
X1209275Y239471D01*
X1209387Y239507D01*
X1209501Y239540D01*
X1209616Y239569D01*
X1209731Y239594D01*
X1209848Y239615D01*
X1209965Y239632D01*
X1210082Y239646D01*
X1210200Y239655D01*
X1210318Y239661D01*
X1210436Y239663D01*
X1215854Y239663D01*
X1215854Y246888D01*
X1206823Y246888D01*
X1200902Y230632D02*
X1199999Y230632D01*
X1200902Y230632D02*
X1200902Y231535D01*
X1199999Y231535D01*
X1199999Y230632D01*
X1201353Y227020D01*
X1193358Y230632D02*
X1193358Y246888D01*
X1188842Y246888D01*
X1188709Y246886D01*
X1188577Y246880D01*
X1188445Y246870D01*
X1188313Y246857D01*
X1188181Y246839D01*
X1188051Y246818D01*
X1187920Y246793D01*
X1187791Y246764D01*
X1187663Y246731D01*
X1187535Y246695D01*
X1187409Y246655D01*
X1187284Y246611D01*
X1187160Y246563D01*
X1187038Y246512D01*
X1186917Y246457D01*
X1186798Y246399D01*
X1186680Y246337D01*
X1186565Y246272D01*
X1186451Y246203D01*
X1186340Y246132D01*
X1186231Y246056D01*
X1186124Y245978D01*
X1186019Y245897D01*
X1185917Y245812D01*
X1185817Y245725D01*
X1185720Y245635D01*
X1185625Y245542D01*
X1185534Y245446D01*
X1185445Y245348D01*
X1185359Y245247D01*
X1185276Y245143D01*
X1185196Y245037D01*
X1185120Y244929D01*
X1185046Y244819D01*
X1184976Y244706D01*
X1184909Y244592D01*
X1184846Y244475D01*
X1184786Y244357D01*
X1184729Y244237D01*
X1184676Y244115D01*
X1184627Y243992D01*
X1184581Y243868D01*
X1184539Y243742D01*
X1184501Y243615D01*
X1184466Y243487D01*
X1184435Y243358D01*
X1184408Y243229D01*
X1184385Y243098D01*
X1184365Y242967D01*
X1184350Y242835D01*
X1184338Y242703D01*
X1184330Y242571D01*
X1184326Y242438D01*
X1184326Y242306D01*
X1184330Y242173D01*
X1184338Y242041D01*
X1184350Y241909D01*
X1184365Y241777D01*
X1184385Y241646D01*
X1184408Y241515D01*
X1184435Y241386D01*
X1184466Y241257D01*
X1184501Y241129D01*
X1184539Y241002D01*
X1184581Y240876D01*
X1184627Y240752D01*
X1184676Y240629D01*
X1184729Y240507D01*
X1184786Y240387D01*
X1184846Y240269D01*
X1184909Y240152D01*
X1184976Y240038D01*
X1185046Y239925D01*
X1185120Y239815D01*
X1185196Y239707D01*
X1185276Y239601D01*
X1185359Y239497D01*
X1185445Y239396D01*
X1185534Y239298D01*
X1185625Y239202D01*
X1185720Y239109D01*
X1185817Y239019D01*
X1185917Y238932D01*
X1186019Y238847D01*
X1186124Y238766D01*
X1186231Y238688D01*
X1186340Y238612D01*
X1186451Y238541D01*
X1186565Y238472D01*
X1186680Y238407D01*
X1186798Y238345D01*
X1186917Y238287D01*
X1187038Y238232D01*
X1187160Y238181D01*
X1187284Y238133D01*
X1187409Y238089D01*
X1187535Y238049D01*
X1187663Y238013D01*
X1187791Y237980D01*
X1187920Y237951D01*
X1188051Y237926D01*
X1188181Y237905D01*
X1188313Y237887D01*
X1188445Y237874D01*
X1188577Y237864D01*
X1188709Y237858D01*
X1188842Y237856D01*
X1188842Y237857D02*
X1193358Y237857D01*
X1187939Y237857D02*
X1184327Y230632D01*
X1177818Y239663D02*
X1172400Y239663D01*
X1172282Y239661D01*
X1172164Y239655D01*
X1172046Y239646D01*
X1171929Y239632D01*
X1171812Y239615D01*
X1171695Y239594D01*
X1171580Y239569D01*
X1171465Y239540D01*
X1171351Y239507D01*
X1171239Y239471D01*
X1171128Y239431D01*
X1171018Y239388D01*
X1170909Y239341D01*
X1170802Y239291D01*
X1170697Y239236D01*
X1170594Y239179D01*
X1170493Y239118D01*
X1170393Y239054D01*
X1170296Y238987D01*
X1170201Y238917D01*
X1170109Y238843D01*
X1170018Y238767D01*
X1169931Y238687D01*
X1169846Y238605D01*
X1169764Y238520D01*
X1169684Y238433D01*
X1169608Y238342D01*
X1169534Y238250D01*
X1169464Y238155D01*
X1169397Y238058D01*
X1169333Y237958D01*
X1169272Y237857D01*
X1169215Y237754D01*
X1169160Y237649D01*
X1169110Y237542D01*
X1169063Y237433D01*
X1169020Y237323D01*
X1168980Y237212D01*
X1168944Y237100D01*
X1168911Y236986D01*
X1168882Y236871D01*
X1168857Y236756D01*
X1168836Y236639D01*
X1168819Y236522D01*
X1168805Y236405D01*
X1168796Y236287D01*
X1168790Y236169D01*
X1168788Y236051D01*
X1168787Y236051D02*
X1168787Y235148D01*
X1168789Y235015D01*
X1168795Y234883D01*
X1168805Y234751D01*
X1168818Y234619D01*
X1168836Y234487D01*
X1168857Y234357D01*
X1168882Y234226D01*
X1168911Y234097D01*
X1168944Y233969D01*
X1168980Y233841D01*
X1169020Y233715D01*
X1169064Y233590D01*
X1169112Y233466D01*
X1169163Y233344D01*
X1169218Y233223D01*
X1169276Y233104D01*
X1169338Y232986D01*
X1169403Y232871D01*
X1169472Y232757D01*
X1169543Y232646D01*
X1169619Y232537D01*
X1169697Y232430D01*
X1169778Y232325D01*
X1169863Y232223D01*
X1169950Y232123D01*
X1170040Y232026D01*
X1170133Y231931D01*
X1170229Y231840D01*
X1170327Y231751D01*
X1170428Y231665D01*
X1170532Y231582D01*
X1170638Y231502D01*
X1170746Y231426D01*
X1170856Y231352D01*
X1170969Y231282D01*
X1171083Y231215D01*
X1171200Y231152D01*
X1171318Y231092D01*
X1171438Y231035D01*
X1171560Y230982D01*
X1171683Y230933D01*
X1171807Y230887D01*
X1171933Y230845D01*
X1172060Y230807D01*
X1172188Y230772D01*
X1172317Y230741D01*
X1172446Y230714D01*
X1172577Y230691D01*
X1172708Y230671D01*
X1172840Y230656D01*
X1172972Y230644D01*
X1173104Y230636D01*
X1173237Y230632D01*
X1173369Y230632D01*
X1173502Y230636D01*
X1173634Y230644D01*
X1173766Y230656D01*
X1173898Y230671D01*
X1174029Y230691D01*
X1174160Y230714D01*
X1174289Y230741D01*
X1174418Y230772D01*
X1174546Y230807D01*
X1174673Y230845D01*
X1174799Y230887D01*
X1174923Y230933D01*
X1175046Y230982D01*
X1175168Y231035D01*
X1175288Y231092D01*
X1175406Y231152D01*
X1175523Y231215D01*
X1175637Y231282D01*
X1175750Y231352D01*
X1175860Y231426D01*
X1175968Y231502D01*
X1176074Y231582D01*
X1176178Y231665D01*
X1176279Y231751D01*
X1176377Y231840D01*
X1176473Y231931D01*
X1176566Y232026D01*
X1176656Y232123D01*
X1176743Y232223D01*
X1176828Y232325D01*
X1176909Y232430D01*
X1176987Y232537D01*
X1177063Y232646D01*
X1177134Y232757D01*
X1177203Y232871D01*
X1177268Y232986D01*
X1177330Y233104D01*
X1177388Y233223D01*
X1177443Y233344D01*
X1177494Y233466D01*
X1177542Y233590D01*
X1177586Y233715D01*
X1177626Y233841D01*
X1177662Y233969D01*
X1177695Y234097D01*
X1177724Y234226D01*
X1177749Y234357D01*
X1177770Y234487D01*
X1177788Y234619D01*
X1177801Y234751D01*
X1177811Y234883D01*
X1177817Y235015D01*
X1177819Y235148D01*
X1177818Y235148D02*
X1177818Y239663D01*
X1177816Y239838D01*
X1177810Y240012D01*
X1177799Y240186D01*
X1177784Y240360D01*
X1177765Y240534D01*
X1177742Y240707D01*
X1177715Y240879D01*
X1177683Y241051D01*
X1177648Y241222D01*
X1177608Y241392D01*
X1177564Y241561D01*
X1177516Y241729D01*
X1177464Y241896D01*
X1177408Y242061D01*
X1177348Y242225D01*
X1177285Y242388D01*
X1177217Y242548D01*
X1177145Y242708D01*
X1177070Y242865D01*
X1176990Y243021D01*
X1176907Y243174D01*
X1176821Y243326D01*
X1176730Y243475D01*
X1176636Y243622D01*
X1176539Y243767D01*
X1176438Y243910D01*
X1176334Y244050D01*
X1176226Y244187D01*
X1176115Y244322D01*
X1176001Y244454D01*
X1175884Y244583D01*
X1175763Y244710D01*
X1175640Y244833D01*
X1175513Y244954D01*
X1175384Y245071D01*
X1175252Y245185D01*
X1175117Y245296D01*
X1174980Y245404D01*
X1174840Y245508D01*
X1174697Y245609D01*
X1174552Y245706D01*
X1174405Y245800D01*
X1174256Y245891D01*
X1174104Y245977D01*
X1173951Y246060D01*
X1173795Y246140D01*
X1173638Y246215D01*
X1173478Y246287D01*
X1173318Y246355D01*
X1173155Y246418D01*
X1172991Y246478D01*
X1172826Y246534D01*
X1172659Y246586D01*
X1172491Y246634D01*
X1172322Y246678D01*
X1172152Y246718D01*
X1171981Y246753D01*
X1171809Y246785D01*
X1171637Y246812D01*
X1171464Y246835D01*
X1171290Y246854D01*
X1171116Y246869D01*
X1170942Y246880D01*
X1170768Y246886D01*
X1170593Y246888D01*
X1162866Y230632D02*
X1161963Y230632D01*
X1162866Y230632D02*
X1162866Y231535D01*
X1161963Y231535D01*
X1161963Y230632D01*
X1163317Y227020D01*
X1155322Y230632D02*
X1155322Y246888D01*
X1150806Y246888D01*
X1150673Y246886D01*
X1150541Y246880D01*
X1150409Y246870D01*
X1150277Y246857D01*
X1150145Y246839D01*
X1150015Y246818D01*
X1149884Y246793D01*
X1149755Y246764D01*
X1149627Y246731D01*
X1149499Y246695D01*
X1149373Y246655D01*
X1149248Y246611D01*
X1149124Y246563D01*
X1149002Y246512D01*
X1148881Y246457D01*
X1148762Y246399D01*
X1148644Y246337D01*
X1148529Y246272D01*
X1148415Y246203D01*
X1148304Y246132D01*
X1148195Y246056D01*
X1148088Y245978D01*
X1147983Y245897D01*
X1147881Y245812D01*
X1147781Y245725D01*
X1147684Y245635D01*
X1147589Y245542D01*
X1147498Y245446D01*
X1147409Y245348D01*
X1147323Y245247D01*
X1147240Y245143D01*
X1147160Y245037D01*
X1147084Y244929D01*
X1147010Y244819D01*
X1146940Y244706D01*
X1146873Y244592D01*
X1146810Y244475D01*
X1146750Y244357D01*
X1146693Y244237D01*
X1146640Y244115D01*
X1146591Y243992D01*
X1146545Y243868D01*
X1146503Y243742D01*
X1146465Y243615D01*
X1146430Y243487D01*
X1146399Y243358D01*
X1146372Y243229D01*
X1146349Y243098D01*
X1146329Y242967D01*
X1146314Y242835D01*
X1146302Y242703D01*
X1146294Y242571D01*
X1146290Y242438D01*
X1146290Y242306D01*
X1146294Y242173D01*
X1146302Y242041D01*
X1146314Y241909D01*
X1146329Y241777D01*
X1146349Y241646D01*
X1146372Y241515D01*
X1146399Y241386D01*
X1146430Y241257D01*
X1146465Y241129D01*
X1146503Y241002D01*
X1146545Y240876D01*
X1146591Y240752D01*
X1146640Y240629D01*
X1146693Y240507D01*
X1146750Y240387D01*
X1146810Y240269D01*
X1146873Y240152D01*
X1146940Y240038D01*
X1147010Y239925D01*
X1147084Y239815D01*
X1147160Y239707D01*
X1147240Y239601D01*
X1147323Y239497D01*
X1147409Y239396D01*
X1147498Y239298D01*
X1147589Y239202D01*
X1147684Y239109D01*
X1147781Y239019D01*
X1147881Y238932D01*
X1147983Y238847D01*
X1148088Y238766D01*
X1148195Y238688D01*
X1148304Y238612D01*
X1148415Y238541D01*
X1148529Y238472D01*
X1148644Y238407D01*
X1148762Y238345D01*
X1148881Y238287D01*
X1149002Y238232D01*
X1149124Y238181D01*
X1149248Y238133D01*
X1149373Y238089D01*
X1149499Y238049D01*
X1149627Y238013D01*
X1149755Y237980D01*
X1149884Y237951D01*
X1150015Y237926D01*
X1150145Y237905D01*
X1150277Y237887D01*
X1150409Y237874D01*
X1150541Y237864D01*
X1150673Y237858D01*
X1150806Y237856D01*
X1150806Y237857D02*
X1155322Y237857D01*
X1149903Y237857D02*
X1146291Y230632D01*
X1139782Y245082D02*
X1139782Y246888D01*
X1130751Y246888D01*
X1135267Y230632D01*
X1115676Y236954D02*
X1104838Y236954D01*
X1097960Y241469D02*
X1087123Y236954D01*
X1097960Y232438D01*
X1072047Y243276D02*
X1067532Y246888D01*
X1067532Y230632D01*
X1072047Y230632D02*
X1063016Y230632D01*
X1055684Y230632D02*
X1055684Y246888D01*
X1046653Y246888D02*
X1055684Y236954D01*
X1052071Y240566D02*
X1046653Y230632D01*
X1040785Y235148D02*
X1040785Y242372D01*
X1040783Y242505D01*
X1040777Y242637D01*
X1040767Y242769D01*
X1040754Y242901D01*
X1040736Y243033D01*
X1040715Y243163D01*
X1040690Y243294D01*
X1040661Y243423D01*
X1040628Y243551D01*
X1040592Y243679D01*
X1040552Y243805D01*
X1040508Y243930D01*
X1040460Y244054D01*
X1040409Y244176D01*
X1040354Y244297D01*
X1040296Y244416D01*
X1040234Y244534D01*
X1040169Y244649D01*
X1040100Y244763D01*
X1040029Y244874D01*
X1039953Y244983D01*
X1039875Y245090D01*
X1039794Y245195D01*
X1039709Y245297D01*
X1039622Y245397D01*
X1039532Y245494D01*
X1039439Y245589D01*
X1039343Y245680D01*
X1039245Y245769D01*
X1039144Y245855D01*
X1039040Y245938D01*
X1038934Y246018D01*
X1038826Y246094D01*
X1038716Y246168D01*
X1038603Y246238D01*
X1038489Y246305D01*
X1038372Y246368D01*
X1038254Y246428D01*
X1038134Y246485D01*
X1038012Y246538D01*
X1037889Y246587D01*
X1037765Y246633D01*
X1037639Y246675D01*
X1037512Y246713D01*
X1037384Y246748D01*
X1037255Y246779D01*
X1037126Y246806D01*
X1036995Y246829D01*
X1036864Y246849D01*
X1036732Y246864D01*
X1036600Y246876D01*
X1036468Y246884D01*
X1036335Y246888D01*
X1036203Y246888D01*
X1036070Y246884D01*
X1035938Y246876D01*
X1035806Y246864D01*
X1035674Y246849D01*
X1035543Y246829D01*
X1035412Y246806D01*
X1035283Y246779D01*
X1035154Y246748D01*
X1035026Y246713D01*
X1034899Y246675D01*
X1034773Y246633D01*
X1034649Y246587D01*
X1034526Y246538D01*
X1034404Y246485D01*
X1034284Y246428D01*
X1034166Y246368D01*
X1034049Y246305D01*
X1033935Y246238D01*
X1033822Y246168D01*
X1033712Y246094D01*
X1033604Y246018D01*
X1033498Y245938D01*
X1033394Y245855D01*
X1033293Y245769D01*
X1033195Y245680D01*
X1033099Y245589D01*
X1033006Y245494D01*
X1032916Y245397D01*
X1032829Y245297D01*
X1032744Y245195D01*
X1032663Y245090D01*
X1032585Y244983D01*
X1032509Y244874D01*
X1032438Y244763D01*
X1032369Y244649D01*
X1032304Y244534D01*
X1032242Y244416D01*
X1032184Y244297D01*
X1032129Y244176D01*
X1032078Y244054D01*
X1032030Y243930D01*
X1031986Y243805D01*
X1031946Y243679D01*
X1031910Y243551D01*
X1031877Y243423D01*
X1031848Y243294D01*
X1031823Y243163D01*
X1031802Y243033D01*
X1031784Y242901D01*
X1031771Y242769D01*
X1031761Y242637D01*
X1031755Y242505D01*
X1031753Y242372D01*
X1031754Y242372D02*
X1031754Y235148D01*
X1031753Y235148D02*
X1031755Y235015D01*
X1031761Y234883D01*
X1031771Y234751D01*
X1031784Y234619D01*
X1031802Y234487D01*
X1031823Y234357D01*
X1031848Y234226D01*
X1031877Y234097D01*
X1031910Y233969D01*
X1031946Y233841D01*
X1031986Y233715D01*
X1032030Y233590D01*
X1032078Y233466D01*
X1032129Y233344D01*
X1032184Y233223D01*
X1032242Y233104D01*
X1032304Y232986D01*
X1032369Y232871D01*
X1032438Y232757D01*
X1032509Y232646D01*
X1032585Y232537D01*
X1032663Y232430D01*
X1032744Y232325D01*
X1032829Y232223D01*
X1032916Y232123D01*
X1033006Y232026D01*
X1033099Y231931D01*
X1033195Y231840D01*
X1033293Y231751D01*
X1033394Y231665D01*
X1033498Y231582D01*
X1033604Y231502D01*
X1033712Y231426D01*
X1033822Y231352D01*
X1033935Y231282D01*
X1034049Y231215D01*
X1034166Y231152D01*
X1034284Y231092D01*
X1034404Y231035D01*
X1034526Y230982D01*
X1034649Y230933D01*
X1034773Y230887D01*
X1034899Y230845D01*
X1035026Y230807D01*
X1035154Y230772D01*
X1035283Y230741D01*
X1035412Y230714D01*
X1035543Y230691D01*
X1035674Y230671D01*
X1035806Y230656D01*
X1035938Y230644D01*
X1036070Y230636D01*
X1036203Y230632D01*
X1036335Y230632D01*
X1036468Y230636D01*
X1036600Y230644D01*
X1036732Y230656D01*
X1036864Y230671D01*
X1036995Y230691D01*
X1037126Y230714D01*
X1037255Y230741D01*
X1037384Y230772D01*
X1037512Y230807D01*
X1037639Y230845D01*
X1037765Y230887D01*
X1037889Y230933D01*
X1038012Y230982D01*
X1038134Y231035D01*
X1038254Y231092D01*
X1038372Y231152D01*
X1038489Y231215D01*
X1038603Y231282D01*
X1038716Y231352D01*
X1038826Y231426D01*
X1038934Y231502D01*
X1039040Y231582D01*
X1039144Y231665D01*
X1039245Y231751D01*
X1039343Y231840D01*
X1039439Y231931D01*
X1039532Y232026D01*
X1039622Y232123D01*
X1039709Y232223D01*
X1039794Y232325D01*
X1039875Y232430D01*
X1039953Y232537D01*
X1040029Y232646D01*
X1040100Y232757D01*
X1040169Y232871D01*
X1040234Y232986D01*
X1040296Y233104D01*
X1040354Y233223D01*
X1040409Y233344D01*
X1040460Y233466D01*
X1040508Y233590D01*
X1040552Y233715D01*
X1040592Y233841D01*
X1040628Y233969D01*
X1040661Y234097D01*
X1040690Y234226D01*
X1040715Y234357D01*
X1040736Y234487D01*
X1040754Y234619D01*
X1040767Y234751D01*
X1040777Y234883D01*
X1040783Y235015D01*
X1040785Y235148D01*
X1024632Y230632D02*
X1024632Y246888D01*
X1024632Y239663D02*
X1015601Y239663D01*
X1015601Y246888D02*
X1015601Y230632D01*
X1007820Y230632D02*
X1007820Y246888D01*
X1002401Y237857D01*
X996983Y246888D01*
X996983Y230632D01*
X1383538Y220218D02*
X1383538Y203962D01*
X1376313Y203962D01*
X1369991Y203962D02*
X1362766Y203962D01*
X1369991Y203962D02*
X1369991Y220218D01*
X1362766Y220218D01*
X1364572Y212993D02*
X1369991Y212993D01*
X1356474Y220218D02*
X1356474Y203962D01*
X1356474Y220218D02*
X1351958Y220218D01*
X1351827Y220216D01*
X1351695Y220210D01*
X1351564Y220201D01*
X1351434Y220187D01*
X1351303Y220170D01*
X1351174Y220149D01*
X1351045Y220125D01*
X1350917Y220096D01*
X1350789Y220064D01*
X1350663Y220028D01*
X1350538Y219989D01*
X1350413Y219946D01*
X1350291Y219899D01*
X1350169Y219849D01*
X1350049Y219795D01*
X1349931Y219738D01*
X1349815Y219677D01*
X1349700Y219613D01*
X1349587Y219546D01*
X1349476Y219475D01*
X1349368Y219401D01*
X1349261Y219324D01*
X1349157Y219244D01*
X1349055Y219161D01*
X1348956Y219076D01*
X1348859Y218987D01*
X1348765Y218895D01*
X1348673Y218801D01*
X1348584Y218704D01*
X1348499Y218605D01*
X1348416Y218503D01*
X1348336Y218399D01*
X1348259Y218292D01*
X1348185Y218184D01*
X1348114Y218073D01*
X1348047Y217960D01*
X1347983Y217845D01*
X1347922Y217729D01*
X1347865Y217611D01*
X1347811Y217491D01*
X1347761Y217369D01*
X1347714Y217247D01*
X1347671Y217122D01*
X1347632Y216997D01*
X1347596Y216871D01*
X1347564Y216743D01*
X1347535Y216615D01*
X1347511Y216486D01*
X1347490Y216357D01*
X1347473Y216226D01*
X1347459Y216096D01*
X1347450Y215965D01*
X1347444Y215833D01*
X1347442Y215702D01*
X1347443Y215702D02*
X1347443Y208478D01*
X1347442Y208478D02*
X1347444Y208347D01*
X1347450Y208215D01*
X1347459Y208084D01*
X1347473Y207954D01*
X1347490Y207823D01*
X1347511Y207694D01*
X1347535Y207565D01*
X1347564Y207437D01*
X1347596Y207309D01*
X1347632Y207183D01*
X1347671Y207058D01*
X1347714Y206933D01*
X1347761Y206811D01*
X1347811Y206689D01*
X1347865Y206569D01*
X1347922Y206451D01*
X1347983Y206335D01*
X1348047Y206220D01*
X1348114Y206107D01*
X1348185Y205996D01*
X1348259Y205888D01*
X1348336Y205781D01*
X1348416Y205677D01*
X1348499Y205575D01*
X1348584Y205476D01*
X1348673Y205379D01*
X1348765Y205285D01*
X1348859Y205193D01*
X1348956Y205104D01*
X1349055Y205019D01*
X1349157Y204936D01*
X1349261Y204856D01*
X1349368Y204779D01*
X1349476Y204705D01*
X1349587Y204634D01*
X1349700Y204567D01*
X1349815Y204503D01*
X1349931Y204442D01*
X1350049Y204385D01*
X1350169Y204331D01*
X1350291Y204281D01*
X1350413Y204234D01*
X1350538Y204191D01*
X1350663Y204152D01*
X1350789Y204116D01*
X1350917Y204084D01*
X1351045Y204055D01*
X1351174Y204031D01*
X1351303Y204010D01*
X1351434Y203993D01*
X1351564Y203979D01*
X1351695Y203970D01*
X1351827Y203964D01*
X1351958Y203962D01*
X1356474Y203962D01*
X1331846Y210284D02*
X1321008Y210284D01*
X1314130Y214799D02*
X1303293Y210284D01*
X1314130Y205768D01*
X1288217Y203962D02*
X1282799Y203962D01*
X1282681Y203964D01*
X1282563Y203970D01*
X1282445Y203979D01*
X1282328Y203993D01*
X1282211Y204010D01*
X1282094Y204031D01*
X1281979Y204056D01*
X1281864Y204085D01*
X1281750Y204118D01*
X1281638Y204154D01*
X1281527Y204194D01*
X1281417Y204237D01*
X1281308Y204284D01*
X1281201Y204334D01*
X1281096Y204389D01*
X1280993Y204446D01*
X1280892Y204507D01*
X1280792Y204571D01*
X1280695Y204638D01*
X1280600Y204708D01*
X1280508Y204782D01*
X1280417Y204858D01*
X1280330Y204938D01*
X1280245Y205020D01*
X1280163Y205105D01*
X1280083Y205192D01*
X1280007Y205283D01*
X1279933Y205375D01*
X1279863Y205470D01*
X1279796Y205567D01*
X1279732Y205667D01*
X1279671Y205768D01*
X1279614Y205871D01*
X1279559Y205976D01*
X1279509Y206083D01*
X1279462Y206192D01*
X1279419Y206302D01*
X1279379Y206413D01*
X1279343Y206525D01*
X1279310Y206639D01*
X1279281Y206754D01*
X1279256Y206869D01*
X1279235Y206986D01*
X1279218Y207103D01*
X1279204Y207220D01*
X1279195Y207338D01*
X1279189Y207456D01*
X1279187Y207574D01*
X1279186Y207574D02*
X1279186Y209381D01*
X1279187Y209381D02*
X1279189Y209499D01*
X1279195Y209617D01*
X1279204Y209735D01*
X1279218Y209852D01*
X1279235Y209969D01*
X1279256Y210086D01*
X1279281Y210201D01*
X1279310Y210316D01*
X1279343Y210430D01*
X1279379Y210542D01*
X1279419Y210653D01*
X1279462Y210763D01*
X1279509Y210872D01*
X1279559Y210979D01*
X1279614Y211084D01*
X1279671Y211187D01*
X1279732Y211288D01*
X1279796Y211388D01*
X1279863Y211485D01*
X1279933Y211580D01*
X1280007Y211672D01*
X1280083Y211763D01*
X1280163Y211850D01*
X1280245Y211935D01*
X1280330Y212017D01*
X1280417Y212097D01*
X1280508Y212173D01*
X1280600Y212247D01*
X1280695Y212317D01*
X1280792Y212384D01*
X1280892Y212448D01*
X1280993Y212509D01*
X1281096Y212566D01*
X1281201Y212621D01*
X1281308Y212671D01*
X1281417Y212718D01*
X1281527Y212761D01*
X1281638Y212801D01*
X1281750Y212837D01*
X1281864Y212870D01*
X1281979Y212899D01*
X1282094Y212924D01*
X1282211Y212945D01*
X1282328Y212962D01*
X1282445Y212976D01*
X1282563Y212985D01*
X1282681Y212991D01*
X1282799Y212993D01*
X1288217Y212993D01*
X1288217Y220218D01*
X1279186Y220218D01*
X1271926Y214799D02*
X1271926Y203962D01*
X1271926Y214799D02*
X1263798Y214799D01*
X1263697Y214797D01*
X1263596Y214791D01*
X1263495Y214782D01*
X1263394Y214769D01*
X1263294Y214752D01*
X1263195Y214731D01*
X1263097Y214707D01*
X1263000Y214679D01*
X1262903Y214647D01*
X1262808Y214612D01*
X1262715Y214573D01*
X1262623Y214531D01*
X1262532Y214485D01*
X1262444Y214436D01*
X1262357Y214384D01*
X1262272Y214328D01*
X1262189Y214270D01*
X1262109Y214208D01*
X1262031Y214143D01*
X1261955Y214076D01*
X1261882Y214006D01*
X1261812Y213933D01*
X1261745Y213857D01*
X1261680Y213779D01*
X1261618Y213699D01*
X1261560Y213616D01*
X1261504Y213531D01*
X1261452Y213445D01*
X1261403Y213356D01*
X1261357Y213265D01*
X1261315Y213173D01*
X1261276Y213080D01*
X1261241Y212985D01*
X1261209Y212888D01*
X1261181Y212791D01*
X1261157Y212693D01*
X1261136Y212594D01*
X1261119Y212494D01*
X1261106Y212393D01*
X1261097Y212292D01*
X1261091Y212191D01*
X1261089Y212090D01*
X1261089Y203962D01*
X1266507Y203962D02*
X1266507Y214799D01*
X1253169Y214799D02*
X1253169Y203962D01*
X1253169Y214799D02*
X1245041Y214799D01*
X1244940Y214797D01*
X1244839Y214791D01*
X1244738Y214782D01*
X1244637Y214769D01*
X1244537Y214752D01*
X1244438Y214731D01*
X1244340Y214707D01*
X1244243Y214679D01*
X1244146Y214647D01*
X1244051Y214612D01*
X1243958Y214573D01*
X1243866Y214531D01*
X1243775Y214485D01*
X1243687Y214436D01*
X1243600Y214384D01*
X1243515Y214328D01*
X1243432Y214270D01*
X1243352Y214208D01*
X1243274Y214143D01*
X1243198Y214076D01*
X1243125Y214006D01*
X1243055Y213933D01*
X1242988Y213857D01*
X1242923Y213779D01*
X1242861Y213699D01*
X1242803Y213616D01*
X1242747Y213531D01*
X1242695Y213445D01*
X1242646Y213356D01*
X1242600Y213265D01*
X1242558Y213173D01*
X1242519Y213080D01*
X1242484Y212985D01*
X1242452Y212888D01*
X1242424Y212791D01*
X1242400Y212693D01*
X1242379Y212594D01*
X1242362Y212494D01*
X1242349Y212393D01*
X1242340Y212292D01*
X1242334Y212191D01*
X1242332Y212090D01*
X1242331Y212090D02*
X1242331Y203962D01*
X1247750Y203962D02*
X1247750Y214799D01*
D11*
X1370300Y374400D02*
X1525300Y374400D01*
X1525300Y565400D01*
X1370300Y565400D01*
X1370300Y374400D01*
D12*
X1507990Y367900D02*
X1507992Y367963D01*
X1507998Y368025D01*
X1508008Y368087D01*
X1508021Y368149D01*
X1508039Y368209D01*
X1508060Y368268D01*
X1508085Y368326D01*
X1508114Y368382D01*
X1508146Y368436D01*
X1508181Y368488D01*
X1508219Y368537D01*
X1508261Y368585D01*
X1508305Y368629D01*
X1508353Y368671D01*
X1508402Y368709D01*
X1508454Y368744D01*
X1508508Y368776D01*
X1508564Y368805D01*
X1508622Y368830D01*
X1508681Y368851D01*
X1508741Y368869D01*
X1508803Y368882D01*
X1508865Y368892D01*
X1508927Y368898D01*
X1508990Y368900D01*
X1509053Y368898D01*
X1509115Y368892D01*
X1509177Y368882D01*
X1509239Y368869D01*
X1509299Y368851D01*
X1509358Y368830D01*
X1509416Y368805D01*
X1509472Y368776D01*
X1509526Y368744D01*
X1509578Y368709D01*
X1509627Y368671D01*
X1509675Y368629D01*
X1509719Y368585D01*
X1509761Y368537D01*
X1509799Y368488D01*
X1509834Y368436D01*
X1509866Y368382D01*
X1509895Y368326D01*
X1509920Y368268D01*
X1509941Y368209D01*
X1509959Y368149D01*
X1509972Y368087D01*
X1509982Y368025D01*
X1509988Y367963D01*
X1509990Y367900D01*
X1509988Y367837D01*
X1509982Y367775D01*
X1509972Y367713D01*
X1509959Y367651D01*
X1509941Y367591D01*
X1509920Y367532D01*
X1509895Y367474D01*
X1509866Y367418D01*
X1509834Y367364D01*
X1509799Y367312D01*
X1509761Y367263D01*
X1509719Y367215D01*
X1509675Y367171D01*
X1509627Y367129D01*
X1509578Y367091D01*
X1509526Y367056D01*
X1509472Y367024D01*
X1509416Y366995D01*
X1509358Y366970D01*
X1509299Y366949D01*
X1509239Y366931D01*
X1509177Y366918D01*
X1509115Y366908D01*
X1509053Y366902D01*
X1508990Y366900D01*
X1508927Y366902D01*
X1508865Y366908D01*
X1508803Y366918D01*
X1508741Y366931D01*
X1508681Y366949D01*
X1508622Y366970D01*
X1508564Y366995D01*
X1508508Y367024D01*
X1508454Y367056D01*
X1508402Y367091D01*
X1508353Y367129D01*
X1508305Y367171D01*
X1508261Y367215D01*
X1508219Y367263D01*
X1508181Y367312D01*
X1508146Y367364D01*
X1508114Y367418D01*
X1508085Y367474D01*
X1508060Y367532D01*
X1508039Y367591D01*
X1508021Y367651D01*
X1508008Y367713D01*
X1507998Y367775D01*
X1507992Y367837D01*
X1507990Y367900D01*
D13*
X1530316Y372399D02*
X1542001Y372399D01*
X1542001Y375645D01*
X1541999Y375758D01*
X1541993Y375871D01*
X1541983Y375984D01*
X1541969Y376097D01*
X1541952Y376209D01*
X1541930Y376320D01*
X1541905Y376430D01*
X1541875Y376540D01*
X1541842Y376648D01*
X1541805Y376755D01*
X1541765Y376861D01*
X1541720Y376965D01*
X1541672Y377068D01*
X1541621Y377169D01*
X1541566Y377268D01*
X1541508Y377365D01*
X1541446Y377460D01*
X1541381Y377553D01*
X1541313Y377643D01*
X1541242Y377731D01*
X1541167Y377817D01*
X1541090Y377900D01*
X1541010Y377980D01*
X1540927Y378057D01*
X1540841Y378132D01*
X1540753Y378203D01*
X1540663Y378271D01*
X1540570Y378336D01*
X1540475Y378398D01*
X1540378Y378456D01*
X1540279Y378511D01*
X1540178Y378562D01*
X1540075Y378610D01*
X1539971Y378655D01*
X1539865Y378695D01*
X1539758Y378732D01*
X1539650Y378765D01*
X1539540Y378795D01*
X1539430Y378820D01*
X1539319Y378842D01*
X1539207Y378859D01*
X1539094Y378873D01*
X1538981Y378883D01*
X1538868Y378889D01*
X1538755Y378891D01*
X1538642Y378889D01*
X1538529Y378883D01*
X1538416Y378873D01*
X1538303Y378859D01*
X1538191Y378842D01*
X1538080Y378820D01*
X1537970Y378795D01*
X1537860Y378765D01*
X1537752Y378732D01*
X1537645Y378695D01*
X1537539Y378655D01*
X1537435Y378610D01*
X1537332Y378562D01*
X1537231Y378511D01*
X1537132Y378456D01*
X1537035Y378398D01*
X1536940Y378336D01*
X1536847Y378271D01*
X1536757Y378203D01*
X1536669Y378132D01*
X1536583Y378057D01*
X1536500Y377980D01*
X1536420Y377900D01*
X1536343Y377817D01*
X1536268Y377731D01*
X1536197Y377643D01*
X1536129Y377553D01*
X1536064Y377460D01*
X1536002Y377365D01*
X1535944Y377268D01*
X1535889Y377169D01*
X1535838Y377068D01*
X1535790Y376965D01*
X1535745Y376861D01*
X1535705Y376755D01*
X1535668Y376648D01*
X1535635Y376540D01*
X1535605Y376430D01*
X1535580Y376320D01*
X1535558Y376209D01*
X1535541Y376097D01*
X1535527Y375984D01*
X1535517Y375871D01*
X1535511Y375758D01*
X1535509Y375645D01*
X1535509Y372399D01*
X1535509Y376294D02*
X1530316Y378890D01*
X1530316Y384160D02*
X1530316Y389353D01*
X1530316Y384160D02*
X1542001Y384160D01*
X1542001Y389353D01*
X1536808Y388055D02*
X1536808Y384160D01*
X1542001Y394067D02*
X1530316Y394067D01*
X1530316Y399260D01*
X1530316Y402921D02*
X1542001Y406816D01*
X1530316Y410711D01*
X1533237Y409737D02*
X1533237Y403894D01*
X1542001Y414352D02*
X1536483Y418247D01*
X1542001Y422142D01*
X1536483Y418247D02*
X1530316Y418247D01*
X1539404Y426432D02*
X1542001Y429678D01*
X1530316Y429678D01*
X1530316Y426432D02*
X1530316Y432924D01*
D11*
X1309400Y374400D02*
X1154400Y374400D01*
X1309400Y374400D02*
X1309400Y565400D01*
X1154400Y565400D01*
X1154400Y374400D01*
D12*
X1292090Y367900D02*
X1292092Y367963D01*
X1292098Y368025D01*
X1292108Y368087D01*
X1292121Y368149D01*
X1292139Y368209D01*
X1292160Y368268D01*
X1292185Y368326D01*
X1292214Y368382D01*
X1292246Y368436D01*
X1292281Y368488D01*
X1292319Y368537D01*
X1292361Y368585D01*
X1292405Y368629D01*
X1292453Y368671D01*
X1292502Y368709D01*
X1292554Y368744D01*
X1292608Y368776D01*
X1292664Y368805D01*
X1292722Y368830D01*
X1292781Y368851D01*
X1292841Y368869D01*
X1292903Y368882D01*
X1292965Y368892D01*
X1293027Y368898D01*
X1293090Y368900D01*
X1293153Y368898D01*
X1293215Y368892D01*
X1293277Y368882D01*
X1293339Y368869D01*
X1293399Y368851D01*
X1293458Y368830D01*
X1293516Y368805D01*
X1293572Y368776D01*
X1293626Y368744D01*
X1293678Y368709D01*
X1293727Y368671D01*
X1293775Y368629D01*
X1293819Y368585D01*
X1293861Y368537D01*
X1293899Y368488D01*
X1293934Y368436D01*
X1293966Y368382D01*
X1293995Y368326D01*
X1294020Y368268D01*
X1294041Y368209D01*
X1294059Y368149D01*
X1294072Y368087D01*
X1294082Y368025D01*
X1294088Y367963D01*
X1294090Y367900D01*
X1294088Y367837D01*
X1294082Y367775D01*
X1294072Y367713D01*
X1294059Y367651D01*
X1294041Y367591D01*
X1294020Y367532D01*
X1293995Y367474D01*
X1293966Y367418D01*
X1293934Y367364D01*
X1293899Y367312D01*
X1293861Y367263D01*
X1293819Y367215D01*
X1293775Y367171D01*
X1293727Y367129D01*
X1293678Y367091D01*
X1293626Y367056D01*
X1293572Y367024D01*
X1293516Y366995D01*
X1293458Y366970D01*
X1293399Y366949D01*
X1293339Y366931D01*
X1293277Y366918D01*
X1293215Y366908D01*
X1293153Y366902D01*
X1293090Y366900D01*
X1293027Y366902D01*
X1292965Y366908D01*
X1292903Y366918D01*
X1292841Y366931D01*
X1292781Y366949D01*
X1292722Y366970D01*
X1292664Y366995D01*
X1292608Y367024D01*
X1292554Y367056D01*
X1292502Y367091D01*
X1292453Y367129D01*
X1292405Y367171D01*
X1292361Y367215D01*
X1292319Y367263D01*
X1292281Y367312D01*
X1292246Y367364D01*
X1292214Y367418D01*
X1292185Y367474D01*
X1292160Y367532D01*
X1292139Y367591D01*
X1292121Y367651D01*
X1292108Y367713D01*
X1292098Y367775D01*
X1292092Y367837D01*
X1292090Y367900D01*
D13*
X1314416Y372399D02*
X1326101Y372399D01*
X1326101Y375645D01*
X1326099Y375758D01*
X1326093Y375871D01*
X1326083Y375984D01*
X1326069Y376097D01*
X1326052Y376209D01*
X1326030Y376320D01*
X1326005Y376430D01*
X1325975Y376540D01*
X1325942Y376648D01*
X1325905Y376755D01*
X1325865Y376861D01*
X1325820Y376965D01*
X1325772Y377068D01*
X1325721Y377169D01*
X1325666Y377268D01*
X1325608Y377365D01*
X1325546Y377460D01*
X1325481Y377553D01*
X1325413Y377643D01*
X1325342Y377731D01*
X1325267Y377817D01*
X1325190Y377900D01*
X1325110Y377980D01*
X1325027Y378057D01*
X1324941Y378132D01*
X1324853Y378203D01*
X1324763Y378271D01*
X1324670Y378336D01*
X1324575Y378398D01*
X1324478Y378456D01*
X1324379Y378511D01*
X1324278Y378562D01*
X1324175Y378610D01*
X1324071Y378655D01*
X1323965Y378695D01*
X1323858Y378732D01*
X1323750Y378765D01*
X1323640Y378795D01*
X1323530Y378820D01*
X1323419Y378842D01*
X1323307Y378859D01*
X1323194Y378873D01*
X1323081Y378883D01*
X1322968Y378889D01*
X1322855Y378891D01*
X1322742Y378889D01*
X1322629Y378883D01*
X1322516Y378873D01*
X1322403Y378859D01*
X1322291Y378842D01*
X1322180Y378820D01*
X1322070Y378795D01*
X1321960Y378765D01*
X1321852Y378732D01*
X1321745Y378695D01*
X1321639Y378655D01*
X1321535Y378610D01*
X1321432Y378562D01*
X1321331Y378511D01*
X1321232Y378456D01*
X1321135Y378398D01*
X1321040Y378336D01*
X1320947Y378271D01*
X1320857Y378203D01*
X1320769Y378132D01*
X1320683Y378057D01*
X1320600Y377980D01*
X1320520Y377900D01*
X1320443Y377817D01*
X1320368Y377731D01*
X1320297Y377643D01*
X1320229Y377553D01*
X1320164Y377460D01*
X1320102Y377365D01*
X1320044Y377268D01*
X1319989Y377169D01*
X1319938Y377068D01*
X1319890Y376965D01*
X1319845Y376861D01*
X1319805Y376755D01*
X1319768Y376648D01*
X1319735Y376540D01*
X1319705Y376430D01*
X1319680Y376320D01*
X1319658Y376209D01*
X1319641Y376097D01*
X1319627Y375984D01*
X1319617Y375871D01*
X1319611Y375758D01*
X1319609Y375645D01*
X1319609Y372399D01*
X1319609Y376294D02*
X1314416Y378890D01*
X1314416Y384160D02*
X1314416Y389353D01*
X1314416Y384160D02*
X1326101Y384160D01*
X1326101Y389353D01*
X1320908Y388055D02*
X1320908Y384160D01*
X1326101Y394067D02*
X1314416Y394067D01*
X1314416Y399260D01*
X1314416Y402921D02*
X1326101Y406816D01*
X1314416Y410711D01*
X1317337Y409737D02*
X1317337Y403894D01*
X1326101Y414352D02*
X1320583Y418247D01*
X1326101Y422142D01*
X1320583Y418247D02*
X1314416Y418247D01*
X1326101Y430002D02*
X1326099Y430109D01*
X1326093Y430215D01*
X1326083Y430322D01*
X1326070Y430427D01*
X1326052Y430533D01*
X1326031Y430637D01*
X1326006Y430741D01*
X1325977Y430844D01*
X1325945Y430945D01*
X1325908Y431046D01*
X1325868Y431144D01*
X1325825Y431242D01*
X1325778Y431338D01*
X1325727Y431432D01*
X1325673Y431524D01*
X1325616Y431614D01*
X1325556Y431702D01*
X1325492Y431787D01*
X1325425Y431871D01*
X1325355Y431951D01*
X1325283Y432029D01*
X1325207Y432105D01*
X1325129Y432177D01*
X1325048Y432247D01*
X1324965Y432314D01*
X1324880Y432378D01*
X1324792Y432438D01*
X1324702Y432495D01*
X1324610Y432549D01*
X1324516Y432600D01*
X1324420Y432647D01*
X1324322Y432690D01*
X1324223Y432730D01*
X1324123Y432767D01*
X1324022Y432799D01*
X1323919Y432828D01*
X1323815Y432853D01*
X1323711Y432874D01*
X1323605Y432892D01*
X1323499Y432905D01*
X1323393Y432915D01*
X1323287Y432921D01*
X1323180Y432923D01*
X1326101Y430002D02*
X1326099Y429881D01*
X1326093Y429760D01*
X1326083Y429640D01*
X1326070Y429519D01*
X1326052Y429400D01*
X1326031Y429280D01*
X1326006Y429162D01*
X1325977Y429045D01*
X1325944Y428928D01*
X1325908Y428813D01*
X1325867Y428699D01*
X1325824Y428586D01*
X1325776Y428474D01*
X1325725Y428365D01*
X1325670Y428257D01*
X1325612Y428150D01*
X1325551Y428046D01*
X1325486Y427944D01*
X1325418Y427844D01*
X1325347Y427746D01*
X1325273Y427650D01*
X1325196Y427557D01*
X1325115Y427467D01*
X1325032Y427379D01*
X1324946Y427294D01*
X1324857Y427211D01*
X1324766Y427132D01*
X1324672Y427055D01*
X1324576Y426982D01*
X1324478Y426912D01*
X1324377Y426845D01*
X1324274Y426781D01*
X1324169Y426721D01*
X1324062Y426663D01*
X1323954Y426610D01*
X1323844Y426560D01*
X1323732Y426514D01*
X1323619Y426471D01*
X1323504Y426432D01*
X1320908Y431950D02*
X1320985Y432029D01*
X1321066Y432105D01*
X1321149Y432178D01*
X1321234Y432248D01*
X1321322Y432315D01*
X1321412Y432379D01*
X1321504Y432439D01*
X1321599Y432496D01*
X1321695Y432550D01*
X1321793Y432601D01*
X1321893Y432648D01*
X1321995Y432692D01*
X1322098Y432732D01*
X1322202Y432768D01*
X1322308Y432800D01*
X1322414Y432829D01*
X1322522Y432854D01*
X1322630Y432876D01*
X1322740Y432893D01*
X1322849Y432907D01*
X1322959Y432916D01*
X1323070Y432922D01*
X1323180Y432924D01*
X1320908Y431950D02*
X1314416Y426432D01*
X1314416Y432924D01*
D11*
X1093500Y374400D02*
X938500Y374400D01*
X1093500Y374400D02*
X1093500Y565400D01*
X938500Y565400D01*
X938500Y374400D01*
D12*
X1076190Y367900D02*
X1076192Y367963D01*
X1076198Y368025D01*
X1076208Y368087D01*
X1076221Y368149D01*
X1076239Y368209D01*
X1076260Y368268D01*
X1076285Y368326D01*
X1076314Y368382D01*
X1076346Y368436D01*
X1076381Y368488D01*
X1076419Y368537D01*
X1076461Y368585D01*
X1076505Y368629D01*
X1076553Y368671D01*
X1076602Y368709D01*
X1076654Y368744D01*
X1076708Y368776D01*
X1076764Y368805D01*
X1076822Y368830D01*
X1076881Y368851D01*
X1076941Y368869D01*
X1077003Y368882D01*
X1077065Y368892D01*
X1077127Y368898D01*
X1077190Y368900D01*
X1077253Y368898D01*
X1077315Y368892D01*
X1077377Y368882D01*
X1077439Y368869D01*
X1077499Y368851D01*
X1077558Y368830D01*
X1077616Y368805D01*
X1077672Y368776D01*
X1077726Y368744D01*
X1077778Y368709D01*
X1077827Y368671D01*
X1077875Y368629D01*
X1077919Y368585D01*
X1077961Y368537D01*
X1077999Y368488D01*
X1078034Y368436D01*
X1078066Y368382D01*
X1078095Y368326D01*
X1078120Y368268D01*
X1078141Y368209D01*
X1078159Y368149D01*
X1078172Y368087D01*
X1078182Y368025D01*
X1078188Y367963D01*
X1078190Y367900D01*
X1078188Y367837D01*
X1078182Y367775D01*
X1078172Y367713D01*
X1078159Y367651D01*
X1078141Y367591D01*
X1078120Y367532D01*
X1078095Y367474D01*
X1078066Y367418D01*
X1078034Y367364D01*
X1077999Y367312D01*
X1077961Y367263D01*
X1077919Y367215D01*
X1077875Y367171D01*
X1077827Y367129D01*
X1077778Y367091D01*
X1077726Y367056D01*
X1077672Y367024D01*
X1077616Y366995D01*
X1077558Y366970D01*
X1077499Y366949D01*
X1077439Y366931D01*
X1077377Y366918D01*
X1077315Y366908D01*
X1077253Y366902D01*
X1077190Y366900D01*
X1077127Y366902D01*
X1077065Y366908D01*
X1077003Y366918D01*
X1076941Y366931D01*
X1076881Y366949D01*
X1076822Y366970D01*
X1076764Y366995D01*
X1076708Y367024D01*
X1076654Y367056D01*
X1076602Y367091D01*
X1076553Y367129D01*
X1076505Y367171D01*
X1076461Y367215D01*
X1076419Y367263D01*
X1076381Y367312D01*
X1076346Y367364D01*
X1076314Y367418D01*
X1076285Y367474D01*
X1076260Y367532D01*
X1076239Y367591D01*
X1076221Y367651D01*
X1076208Y367713D01*
X1076198Y367775D01*
X1076192Y367837D01*
X1076190Y367900D01*
D13*
X1098516Y372399D02*
X1110201Y372399D01*
X1110201Y375645D01*
X1110199Y375758D01*
X1110193Y375871D01*
X1110183Y375984D01*
X1110169Y376097D01*
X1110152Y376209D01*
X1110130Y376320D01*
X1110105Y376430D01*
X1110075Y376540D01*
X1110042Y376648D01*
X1110005Y376755D01*
X1109965Y376861D01*
X1109920Y376965D01*
X1109872Y377068D01*
X1109821Y377169D01*
X1109766Y377268D01*
X1109708Y377365D01*
X1109646Y377460D01*
X1109581Y377553D01*
X1109513Y377643D01*
X1109442Y377731D01*
X1109367Y377817D01*
X1109290Y377900D01*
X1109210Y377980D01*
X1109127Y378057D01*
X1109041Y378132D01*
X1108953Y378203D01*
X1108863Y378271D01*
X1108770Y378336D01*
X1108675Y378398D01*
X1108578Y378456D01*
X1108479Y378511D01*
X1108378Y378562D01*
X1108275Y378610D01*
X1108171Y378655D01*
X1108065Y378695D01*
X1107958Y378732D01*
X1107850Y378765D01*
X1107740Y378795D01*
X1107630Y378820D01*
X1107519Y378842D01*
X1107407Y378859D01*
X1107294Y378873D01*
X1107181Y378883D01*
X1107068Y378889D01*
X1106955Y378891D01*
X1106842Y378889D01*
X1106729Y378883D01*
X1106616Y378873D01*
X1106503Y378859D01*
X1106391Y378842D01*
X1106280Y378820D01*
X1106170Y378795D01*
X1106060Y378765D01*
X1105952Y378732D01*
X1105845Y378695D01*
X1105739Y378655D01*
X1105635Y378610D01*
X1105532Y378562D01*
X1105431Y378511D01*
X1105332Y378456D01*
X1105235Y378398D01*
X1105140Y378336D01*
X1105047Y378271D01*
X1104957Y378203D01*
X1104869Y378132D01*
X1104783Y378057D01*
X1104700Y377980D01*
X1104620Y377900D01*
X1104543Y377817D01*
X1104468Y377731D01*
X1104397Y377643D01*
X1104329Y377553D01*
X1104264Y377460D01*
X1104202Y377365D01*
X1104144Y377268D01*
X1104089Y377169D01*
X1104038Y377068D01*
X1103990Y376965D01*
X1103945Y376861D01*
X1103905Y376755D01*
X1103868Y376648D01*
X1103835Y376540D01*
X1103805Y376430D01*
X1103780Y376320D01*
X1103758Y376209D01*
X1103741Y376097D01*
X1103727Y375984D01*
X1103717Y375871D01*
X1103711Y375758D01*
X1103709Y375645D01*
X1103709Y372399D01*
X1103709Y376294D02*
X1098516Y378890D01*
X1098516Y384160D02*
X1098516Y389353D01*
X1098516Y384160D02*
X1110201Y384160D01*
X1110201Y389353D01*
X1105008Y388055D02*
X1105008Y384160D01*
X1110201Y394067D02*
X1098516Y394067D01*
X1098516Y399260D01*
X1098516Y402921D02*
X1110201Y406816D01*
X1098516Y410711D01*
X1101437Y409737D02*
X1101437Y403894D01*
X1110201Y414352D02*
X1104683Y418247D01*
X1110201Y422142D01*
X1104683Y418247D02*
X1098516Y418247D01*
X1098516Y426432D02*
X1098516Y429678D01*
X1098518Y429791D01*
X1098524Y429904D01*
X1098534Y430017D01*
X1098548Y430130D01*
X1098565Y430242D01*
X1098587Y430353D01*
X1098612Y430463D01*
X1098642Y430573D01*
X1098675Y430681D01*
X1098712Y430788D01*
X1098752Y430894D01*
X1098797Y430998D01*
X1098845Y431101D01*
X1098896Y431202D01*
X1098951Y431301D01*
X1099009Y431398D01*
X1099071Y431493D01*
X1099136Y431586D01*
X1099204Y431676D01*
X1099275Y431764D01*
X1099350Y431850D01*
X1099427Y431933D01*
X1099507Y432013D01*
X1099590Y432090D01*
X1099676Y432165D01*
X1099764Y432236D01*
X1099854Y432304D01*
X1099947Y432369D01*
X1100042Y432431D01*
X1100139Y432489D01*
X1100238Y432544D01*
X1100339Y432595D01*
X1100442Y432643D01*
X1100546Y432688D01*
X1100652Y432728D01*
X1100759Y432765D01*
X1100867Y432798D01*
X1100977Y432828D01*
X1101087Y432853D01*
X1101198Y432875D01*
X1101310Y432892D01*
X1101423Y432906D01*
X1101536Y432916D01*
X1101649Y432922D01*
X1101762Y432924D01*
X1101875Y432922D01*
X1101988Y432916D01*
X1102101Y432906D01*
X1102214Y432892D01*
X1102326Y432875D01*
X1102437Y432853D01*
X1102547Y432828D01*
X1102657Y432798D01*
X1102765Y432765D01*
X1102872Y432728D01*
X1102978Y432688D01*
X1103082Y432643D01*
X1103185Y432595D01*
X1103286Y432544D01*
X1103385Y432489D01*
X1103482Y432431D01*
X1103577Y432369D01*
X1103670Y432304D01*
X1103760Y432236D01*
X1103848Y432165D01*
X1103934Y432090D01*
X1104017Y432013D01*
X1104097Y431933D01*
X1104174Y431850D01*
X1104249Y431764D01*
X1104320Y431676D01*
X1104388Y431586D01*
X1104453Y431493D01*
X1104515Y431398D01*
X1104573Y431301D01*
X1104628Y431202D01*
X1104679Y431101D01*
X1104727Y430998D01*
X1104772Y430894D01*
X1104812Y430788D01*
X1104849Y430681D01*
X1104882Y430573D01*
X1104912Y430463D01*
X1104937Y430353D01*
X1104959Y430242D01*
X1104976Y430130D01*
X1104990Y430017D01*
X1105000Y429904D01*
X1105006Y429791D01*
X1105008Y429678D01*
X1110201Y430327D02*
X1110201Y426432D01*
X1110201Y430327D02*
X1110199Y430428D01*
X1110193Y430528D01*
X1110183Y430628D01*
X1110170Y430728D01*
X1110152Y430827D01*
X1110131Y430926D01*
X1110106Y431023D01*
X1110077Y431120D01*
X1110044Y431215D01*
X1110008Y431309D01*
X1109968Y431402D01*
X1109925Y431493D01*
X1109878Y431582D01*
X1109827Y431669D01*
X1109774Y431754D01*
X1109717Y431837D01*
X1109657Y431918D01*
X1109593Y431996D01*
X1109527Y432072D01*
X1109458Y432145D01*
X1109386Y432216D01*
X1109312Y432284D01*
X1109234Y432348D01*
X1109155Y432410D01*
X1109073Y432469D01*
X1108989Y432524D01*
X1108903Y432576D01*
X1108814Y432625D01*
X1108724Y432670D01*
X1108633Y432712D01*
X1108539Y432750D01*
X1108445Y432784D01*
X1108349Y432815D01*
X1108252Y432842D01*
X1108154Y432865D01*
X1108055Y432885D01*
X1107955Y432900D01*
X1107855Y432912D01*
X1107755Y432920D01*
X1107654Y432924D01*
X1107554Y432924D01*
X1107453Y432920D01*
X1107353Y432912D01*
X1107253Y432900D01*
X1107153Y432885D01*
X1107054Y432865D01*
X1106956Y432842D01*
X1106859Y432815D01*
X1106763Y432784D01*
X1106669Y432750D01*
X1106575Y432712D01*
X1106484Y432670D01*
X1106394Y432625D01*
X1106306Y432576D01*
X1106219Y432524D01*
X1106135Y432469D01*
X1106053Y432410D01*
X1105974Y432348D01*
X1105896Y432284D01*
X1105822Y432216D01*
X1105750Y432145D01*
X1105681Y432072D01*
X1105615Y431996D01*
X1105551Y431918D01*
X1105491Y431837D01*
X1105434Y431754D01*
X1105381Y431669D01*
X1105330Y431582D01*
X1105283Y431493D01*
X1105240Y431402D01*
X1105200Y431309D01*
X1105164Y431215D01*
X1105131Y431120D01*
X1105102Y431023D01*
X1105077Y430926D01*
X1105056Y430827D01*
X1105038Y430728D01*
X1105025Y430628D01*
X1105015Y430528D01*
X1105009Y430428D01*
X1105007Y430327D01*
X1105008Y430327D02*
X1105008Y427730D01*
D11*
X877600Y374400D02*
X722600Y374400D01*
X877600Y374400D02*
X877600Y565400D01*
X722600Y565400D01*
X722600Y374400D01*
D12*
X860290Y367900D02*
X860292Y367963D01*
X860298Y368025D01*
X860308Y368087D01*
X860321Y368149D01*
X860339Y368209D01*
X860360Y368268D01*
X860385Y368326D01*
X860414Y368382D01*
X860446Y368436D01*
X860481Y368488D01*
X860519Y368537D01*
X860561Y368585D01*
X860605Y368629D01*
X860653Y368671D01*
X860702Y368709D01*
X860754Y368744D01*
X860808Y368776D01*
X860864Y368805D01*
X860922Y368830D01*
X860981Y368851D01*
X861041Y368869D01*
X861103Y368882D01*
X861165Y368892D01*
X861227Y368898D01*
X861290Y368900D01*
X861353Y368898D01*
X861415Y368892D01*
X861477Y368882D01*
X861539Y368869D01*
X861599Y368851D01*
X861658Y368830D01*
X861716Y368805D01*
X861772Y368776D01*
X861826Y368744D01*
X861878Y368709D01*
X861927Y368671D01*
X861975Y368629D01*
X862019Y368585D01*
X862061Y368537D01*
X862099Y368488D01*
X862134Y368436D01*
X862166Y368382D01*
X862195Y368326D01*
X862220Y368268D01*
X862241Y368209D01*
X862259Y368149D01*
X862272Y368087D01*
X862282Y368025D01*
X862288Y367963D01*
X862290Y367900D01*
X862288Y367837D01*
X862282Y367775D01*
X862272Y367713D01*
X862259Y367651D01*
X862241Y367591D01*
X862220Y367532D01*
X862195Y367474D01*
X862166Y367418D01*
X862134Y367364D01*
X862099Y367312D01*
X862061Y367263D01*
X862019Y367215D01*
X861975Y367171D01*
X861927Y367129D01*
X861878Y367091D01*
X861826Y367056D01*
X861772Y367024D01*
X861716Y366995D01*
X861658Y366970D01*
X861599Y366949D01*
X861539Y366931D01*
X861477Y366918D01*
X861415Y366908D01*
X861353Y366902D01*
X861290Y366900D01*
X861227Y366902D01*
X861165Y366908D01*
X861103Y366918D01*
X861041Y366931D01*
X860981Y366949D01*
X860922Y366970D01*
X860864Y366995D01*
X860808Y367024D01*
X860754Y367056D01*
X860702Y367091D01*
X860653Y367129D01*
X860605Y367171D01*
X860561Y367215D01*
X860519Y367263D01*
X860481Y367312D01*
X860446Y367364D01*
X860414Y367418D01*
X860385Y367474D01*
X860360Y367532D01*
X860339Y367591D01*
X860321Y367651D01*
X860308Y367713D01*
X860298Y367775D01*
X860292Y367837D01*
X860290Y367900D01*
D13*
X882616Y372399D02*
X894301Y372399D01*
X894301Y375645D01*
X894299Y375758D01*
X894293Y375871D01*
X894283Y375984D01*
X894269Y376097D01*
X894252Y376209D01*
X894230Y376320D01*
X894205Y376430D01*
X894175Y376540D01*
X894142Y376648D01*
X894105Y376755D01*
X894065Y376861D01*
X894020Y376965D01*
X893972Y377068D01*
X893921Y377169D01*
X893866Y377268D01*
X893808Y377365D01*
X893746Y377460D01*
X893681Y377553D01*
X893613Y377643D01*
X893542Y377731D01*
X893467Y377817D01*
X893390Y377900D01*
X893310Y377980D01*
X893227Y378057D01*
X893141Y378132D01*
X893053Y378203D01*
X892963Y378271D01*
X892870Y378336D01*
X892775Y378398D01*
X892678Y378456D01*
X892579Y378511D01*
X892478Y378562D01*
X892375Y378610D01*
X892271Y378655D01*
X892165Y378695D01*
X892058Y378732D01*
X891950Y378765D01*
X891840Y378795D01*
X891730Y378820D01*
X891619Y378842D01*
X891507Y378859D01*
X891394Y378873D01*
X891281Y378883D01*
X891168Y378889D01*
X891055Y378891D01*
X890942Y378889D01*
X890829Y378883D01*
X890716Y378873D01*
X890603Y378859D01*
X890491Y378842D01*
X890380Y378820D01*
X890270Y378795D01*
X890160Y378765D01*
X890052Y378732D01*
X889945Y378695D01*
X889839Y378655D01*
X889735Y378610D01*
X889632Y378562D01*
X889531Y378511D01*
X889432Y378456D01*
X889335Y378398D01*
X889240Y378336D01*
X889147Y378271D01*
X889057Y378203D01*
X888969Y378132D01*
X888883Y378057D01*
X888800Y377980D01*
X888720Y377900D01*
X888643Y377817D01*
X888568Y377731D01*
X888497Y377643D01*
X888429Y377553D01*
X888364Y377460D01*
X888302Y377365D01*
X888244Y377268D01*
X888189Y377169D01*
X888138Y377068D01*
X888090Y376965D01*
X888045Y376861D01*
X888005Y376755D01*
X887968Y376648D01*
X887935Y376540D01*
X887905Y376430D01*
X887880Y376320D01*
X887858Y376209D01*
X887841Y376097D01*
X887827Y375984D01*
X887817Y375871D01*
X887811Y375758D01*
X887809Y375645D01*
X887809Y372399D01*
X887809Y376294D02*
X882616Y378890D01*
X882616Y384160D02*
X882616Y389353D01*
X882616Y384160D02*
X894301Y384160D01*
X894301Y389353D01*
X889108Y388055D02*
X889108Y384160D01*
X894301Y394067D02*
X882616Y394067D01*
X882616Y399260D01*
X882616Y402921D02*
X894301Y406816D01*
X882616Y410711D01*
X885537Y409737D02*
X885537Y403894D01*
X894301Y414352D02*
X888783Y418247D01*
X894301Y422142D01*
X888783Y418247D02*
X882616Y418247D01*
X885213Y426432D02*
X894301Y429029D01*
X885213Y426432D02*
X885213Y432924D01*
X887809Y430976D02*
X882616Y430976D01*
D11*
X661700Y374400D02*
X506700Y374400D01*
X661700Y374400D02*
X661700Y565400D01*
X506700Y565400D01*
X506700Y374400D01*
D12*
X644390Y367900D02*
X644392Y367963D01*
X644398Y368025D01*
X644408Y368087D01*
X644421Y368149D01*
X644439Y368209D01*
X644460Y368268D01*
X644485Y368326D01*
X644514Y368382D01*
X644546Y368436D01*
X644581Y368488D01*
X644619Y368537D01*
X644661Y368585D01*
X644705Y368629D01*
X644753Y368671D01*
X644802Y368709D01*
X644854Y368744D01*
X644908Y368776D01*
X644964Y368805D01*
X645022Y368830D01*
X645081Y368851D01*
X645141Y368869D01*
X645203Y368882D01*
X645265Y368892D01*
X645327Y368898D01*
X645390Y368900D01*
X645453Y368898D01*
X645515Y368892D01*
X645577Y368882D01*
X645639Y368869D01*
X645699Y368851D01*
X645758Y368830D01*
X645816Y368805D01*
X645872Y368776D01*
X645926Y368744D01*
X645978Y368709D01*
X646027Y368671D01*
X646075Y368629D01*
X646119Y368585D01*
X646161Y368537D01*
X646199Y368488D01*
X646234Y368436D01*
X646266Y368382D01*
X646295Y368326D01*
X646320Y368268D01*
X646341Y368209D01*
X646359Y368149D01*
X646372Y368087D01*
X646382Y368025D01*
X646388Y367963D01*
X646390Y367900D01*
X646388Y367837D01*
X646382Y367775D01*
X646372Y367713D01*
X646359Y367651D01*
X646341Y367591D01*
X646320Y367532D01*
X646295Y367474D01*
X646266Y367418D01*
X646234Y367364D01*
X646199Y367312D01*
X646161Y367263D01*
X646119Y367215D01*
X646075Y367171D01*
X646027Y367129D01*
X645978Y367091D01*
X645926Y367056D01*
X645872Y367024D01*
X645816Y366995D01*
X645758Y366970D01*
X645699Y366949D01*
X645639Y366931D01*
X645577Y366918D01*
X645515Y366908D01*
X645453Y366902D01*
X645390Y366900D01*
X645327Y366902D01*
X645265Y366908D01*
X645203Y366918D01*
X645141Y366931D01*
X645081Y366949D01*
X645022Y366970D01*
X644964Y366995D01*
X644908Y367024D01*
X644854Y367056D01*
X644802Y367091D01*
X644753Y367129D01*
X644705Y367171D01*
X644661Y367215D01*
X644619Y367263D01*
X644581Y367312D01*
X644546Y367364D01*
X644514Y367418D01*
X644485Y367474D01*
X644460Y367532D01*
X644439Y367591D01*
X644421Y367651D01*
X644408Y367713D01*
X644398Y367775D01*
X644392Y367837D01*
X644390Y367900D01*
D13*
X666716Y372399D02*
X678401Y372399D01*
X678401Y375645D01*
X678399Y375758D01*
X678393Y375871D01*
X678383Y375984D01*
X678369Y376097D01*
X678352Y376209D01*
X678330Y376320D01*
X678305Y376430D01*
X678275Y376540D01*
X678242Y376648D01*
X678205Y376755D01*
X678165Y376861D01*
X678120Y376965D01*
X678072Y377068D01*
X678021Y377169D01*
X677966Y377268D01*
X677908Y377365D01*
X677846Y377460D01*
X677781Y377553D01*
X677713Y377643D01*
X677642Y377731D01*
X677567Y377817D01*
X677490Y377900D01*
X677410Y377980D01*
X677327Y378057D01*
X677241Y378132D01*
X677153Y378203D01*
X677063Y378271D01*
X676970Y378336D01*
X676875Y378398D01*
X676778Y378456D01*
X676679Y378511D01*
X676578Y378562D01*
X676475Y378610D01*
X676371Y378655D01*
X676265Y378695D01*
X676158Y378732D01*
X676050Y378765D01*
X675940Y378795D01*
X675830Y378820D01*
X675719Y378842D01*
X675607Y378859D01*
X675494Y378873D01*
X675381Y378883D01*
X675268Y378889D01*
X675155Y378891D01*
X675042Y378889D01*
X674929Y378883D01*
X674816Y378873D01*
X674703Y378859D01*
X674591Y378842D01*
X674480Y378820D01*
X674370Y378795D01*
X674260Y378765D01*
X674152Y378732D01*
X674045Y378695D01*
X673939Y378655D01*
X673835Y378610D01*
X673732Y378562D01*
X673631Y378511D01*
X673532Y378456D01*
X673435Y378398D01*
X673340Y378336D01*
X673247Y378271D01*
X673157Y378203D01*
X673069Y378132D01*
X672983Y378057D01*
X672900Y377980D01*
X672820Y377900D01*
X672743Y377817D01*
X672668Y377731D01*
X672597Y377643D01*
X672529Y377553D01*
X672464Y377460D01*
X672402Y377365D01*
X672344Y377268D01*
X672289Y377169D01*
X672238Y377068D01*
X672190Y376965D01*
X672145Y376861D01*
X672105Y376755D01*
X672068Y376648D01*
X672035Y376540D01*
X672005Y376430D01*
X671980Y376320D01*
X671958Y376209D01*
X671941Y376097D01*
X671927Y375984D01*
X671917Y375871D01*
X671911Y375758D01*
X671909Y375645D01*
X671909Y372399D01*
X671909Y376294D02*
X666716Y378890D01*
X666716Y384160D02*
X666716Y389353D01*
X666716Y384160D02*
X678401Y384160D01*
X678401Y389353D01*
X673208Y388055D02*
X673208Y384160D01*
X678401Y394067D02*
X666716Y394067D01*
X666716Y399260D01*
X666716Y402921D02*
X678401Y406816D01*
X666716Y410711D01*
X669637Y409737D02*
X669637Y403894D01*
X678401Y414352D02*
X672883Y418247D01*
X678401Y422142D01*
X672883Y418247D02*
X666716Y418247D01*
X666716Y426432D02*
X666716Y430327D01*
X666718Y430426D01*
X666724Y430526D01*
X666733Y430625D01*
X666746Y430723D01*
X666764Y430821D01*
X666784Y430919D01*
X666809Y431015D01*
X666837Y431111D01*
X666869Y431205D01*
X666904Y431298D01*
X666943Y431389D01*
X666986Y431479D01*
X667032Y431568D01*
X667081Y431654D01*
X667133Y431739D01*
X667189Y431821D01*
X667248Y431901D01*
X667309Y431979D01*
X667374Y432055D01*
X667442Y432128D01*
X667512Y432198D01*
X667585Y432266D01*
X667661Y432331D01*
X667739Y432392D01*
X667819Y432451D01*
X667901Y432507D01*
X667986Y432559D01*
X668072Y432608D01*
X668161Y432654D01*
X668251Y432697D01*
X668342Y432736D01*
X668435Y432771D01*
X668529Y432803D01*
X668625Y432831D01*
X668721Y432856D01*
X668819Y432876D01*
X668917Y432894D01*
X669015Y432907D01*
X669114Y432916D01*
X669214Y432922D01*
X669313Y432924D01*
X670611Y432924D01*
X670710Y432922D01*
X670810Y432916D01*
X670909Y432907D01*
X671007Y432894D01*
X671105Y432876D01*
X671203Y432856D01*
X671299Y432831D01*
X671395Y432803D01*
X671489Y432771D01*
X671582Y432736D01*
X671673Y432697D01*
X671763Y432654D01*
X671852Y432608D01*
X671938Y432559D01*
X672023Y432507D01*
X672105Y432451D01*
X672185Y432392D01*
X672263Y432331D01*
X672339Y432266D01*
X672412Y432198D01*
X672482Y432128D01*
X672550Y432055D01*
X672615Y431979D01*
X672676Y431901D01*
X672735Y431821D01*
X672791Y431739D01*
X672843Y431654D01*
X672892Y431568D01*
X672938Y431479D01*
X672981Y431389D01*
X673020Y431298D01*
X673055Y431205D01*
X673087Y431111D01*
X673115Y431015D01*
X673140Y430919D01*
X673160Y430821D01*
X673178Y430723D01*
X673191Y430625D01*
X673200Y430526D01*
X673206Y430426D01*
X673208Y430327D01*
X673208Y426432D01*
X678401Y426432D01*
X678401Y432924D01*
D11*
X445800Y374400D02*
X290800Y374400D01*
X445800Y374400D02*
X445800Y565400D01*
X290800Y565400D01*
X290800Y374400D01*
D12*
X428490Y367900D02*
X428492Y367963D01*
X428498Y368025D01*
X428508Y368087D01*
X428521Y368149D01*
X428539Y368209D01*
X428560Y368268D01*
X428585Y368326D01*
X428614Y368382D01*
X428646Y368436D01*
X428681Y368488D01*
X428719Y368537D01*
X428761Y368585D01*
X428805Y368629D01*
X428853Y368671D01*
X428902Y368709D01*
X428954Y368744D01*
X429008Y368776D01*
X429064Y368805D01*
X429122Y368830D01*
X429181Y368851D01*
X429241Y368869D01*
X429303Y368882D01*
X429365Y368892D01*
X429427Y368898D01*
X429490Y368900D01*
X429553Y368898D01*
X429615Y368892D01*
X429677Y368882D01*
X429739Y368869D01*
X429799Y368851D01*
X429858Y368830D01*
X429916Y368805D01*
X429972Y368776D01*
X430026Y368744D01*
X430078Y368709D01*
X430127Y368671D01*
X430175Y368629D01*
X430219Y368585D01*
X430261Y368537D01*
X430299Y368488D01*
X430334Y368436D01*
X430366Y368382D01*
X430395Y368326D01*
X430420Y368268D01*
X430441Y368209D01*
X430459Y368149D01*
X430472Y368087D01*
X430482Y368025D01*
X430488Y367963D01*
X430490Y367900D01*
X430488Y367837D01*
X430482Y367775D01*
X430472Y367713D01*
X430459Y367651D01*
X430441Y367591D01*
X430420Y367532D01*
X430395Y367474D01*
X430366Y367418D01*
X430334Y367364D01*
X430299Y367312D01*
X430261Y367263D01*
X430219Y367215D01*
X430175Y367171D01*
X430127Y367129D01*
X430078Y367091D01*
X430026Y367056D01*
X429972Y367024D01*
X429916Y366995D01*
X429858Y366970D01*
X429799Y366949D01*
X429739Y366931D01*
X429677Y366918D01*
X429615Y366908D01*
X429553Y366902D01*
X429490Y366900D01*
X429427Y366902D01*
X429365Y366908D01*
X429303Y366918D01*
X429241Y366931D01*
X429181Y366949D01*
X429122Y366970D01*
X429064Y366995D01*
X429008Y367024D01*
X428954Y367056D01*
X428902Y367091D01*
X428853Y367129D01*
X428805Y367171D01*
X428761Y367215D01*
X428719Y367263D01*
X428681Y367312D01*
X428646Y367364D01*
X428614Y367418D01*
X428585Y367474D01*
X428560Y367532D01*
X428539Y367591D01*
X428521Y367651D01*
X428508Y367713D01*
X428498Y367775D01*
X428492Y367837D01*
X428490Y367900D01*
D13*
X450816Y372399D02*
X462501Y372399D01*
X462501Y375645D01*
X462499Y375758D01*
X462493Y375871D01*
X462483Y375984D01*
X462469Y376097D01*
X462452Y376209D01*
X462430Y376320D01*
X462405Y376430D01*
X462375Y376540D01*
X462342Y376648D01*
X462305Y376755D01*
X462265Y376861D01*
X462220Y376965D01*
X462172Y377068D01*
X462121Y377169D01*
X462066Y377268D01*
X462008Y377365D01*
X461946Y377460D01*
X461881Y377553D01*
X461813Y377643D01*
X461742Y377731D01*
X461667Y377817D01*
X461590Y377900D01*
X461510Y377980D01*
X461427Y378057D01*
X461341Y378132D01*
X461253Y378203D01*
X461163Y378271D01*
X461070Y378336D01*
X460975Y378398D01*
X460878Y378456D01*
X460779Y378511D01*
X460678Y378562D01*
X460575Y378610D01*
X460471Y378655D01*
X460365Y378695D01*
X460258Y378732D01*
X460150Y378765D01*
X460040Y378795D01*
X459930Y378820D01*
X459819Y378842D01*
X459707Y378859D01*
X459594Y378873D01*
X459481Y378883D01*
X459368Y378889D01*
X459255Y378891D01*
X459142Y378889D01*
X459029Y378883D01*
X458916Y378873D01*
X458803Y378859D01*
X458691Y378842D01*
X458580Y378820D01*
X458470Y378795D01*
X458360Y378765D01*
X458252Y378732D01*
X458145Y378695D01*
X458039Y378655D01*
X457935Y378610D01*
X457832Y378562D01*
X457731Y378511D01*
X457632Y378456D01*
X457535Y378398D01*
X457440Y378336D01*
X457347Y378271D01*
X457257Y378203D01*
X457169Y378132D01*
X457083Y378057D01*
X457000Y377980D01*
X456920Y377900D01*
X456843Y377817D01*
X456768Y377731D01*
X456697Y377643D01*
X456629Y377553D01*
X456564Y377460D01*
X456502Y377365D01*
X456444Y377268D01*
X456389Y377169D01*
X456338Y377068D01*
X456290Y376965D01*
X456245Y376861D01*
X456205Y376755D01*
X456168Y376648D01*
X456135Y376540D01*
X456105Y376430D01*
X456080Y376320D01*
X456058Y376209D01*
X456041Y376097D01*
X456027Y375984D01*
X456017Y375871D01*
X456011Y375758D01*
X456009Y375645D01*
X456009Y372399D01*
X456009Y376294D02*
X450816Y378890D01*
X450816Y384160D02*
X450816Y389353D01*
X450816Y384160D02*
X462501Y384160D01*
X462501Y389353D01*
X457308Y388055D02*
X457308Y384160D01*
X462501Y394067D02*
X450816Y394067D01*
X450816Y399260D01*
X450816Y402921D02*
X462501Y406816D01*
X450816Y410711D01*
X453737Y409737D02*
X453737Y403894D01*
X462501Y414352D02*
X456983Y418247D01*
X462501Y422142D01*
X456983Y418247D02*
X450816Y418247D01*
X457308Y426432D02*
X457308Y430327D01*
X457306Y430426D01*
X457300Y430526D01*
X457291Y430625D01*
X457278Y430723D01*
X457260Y430821D01*
X457240Y430919D01*
X457215Y431015D01*
X457187Y431111D01*
X457155Y431205D01*
X457120Y431298D01*
X457081Y431389D01*
X457038Y431479D01*
X456992Y431568D01*
X456943Y431654D01*
X456891Y431739D01*
X456835Y431821D01*
X456776Y431901D01*
X456715Y431979D01*
X456650Y432055D01*
X456582Y432128D01*
X456512Y432198D01*
X456439Y432266D01*
X456363Y432331D01*
X456285Y432392D01*
X456205Y432451D01*
X456123Y432507D01*
X456038Y432559D01*
X455952Y432608D01*
X455863Y432654D01*
X455773Y432697D01*
X455682Y432736D01*
X455589Y432771D01*
X455495Y432803D01*
X455399Y432831D01*
X455303Y432856D01*
X455205Y432876D01*
X455107Y432894D01*
X455009Y432907D01*
X454910Y432916D01*
X454810Y432922D01*
X454711Y432924D01*
X454062Y432924D01*
X453949Y432922D01*
X453836Y432916D01*
X453723Y432906D01*
X453610Y432892D01*
X453498Y432875D01*
X453387Y432853D01*
X453277Y432828D01*
X453167Y432798D01*
X453059Y432765D01*
X452952Y432728D01*
X452846Y432688D01*
X452742Y432643D01*
X452639Y432595D01*
X452538Y432544D01*
X452439Y432489D01*
X452342Y432431D01*
X452247Y432369D01*
X452154Y432304D01*
X452064Y432236D01*
X451976Y432165D01*
X451890Y432090D01*
X451807Y432013D01*
X451727Y431933D01*
X451650Y431850D01*
X451575Y431764D01*
X451504Y431676D01*
X451436Y431586D01*
X451371Y431493D01*
X451309Y431398D01*
X451251Y431301D01*
X451196Y431202D01*
X451145Y431101D01*
X451097Y430998D01*
X451052Y430894D01*
X451012Y430788D01*
X450975Y430681D01*
X450942Y430573D01*
X450912Y430463D01*
X450887Y430353D01*
X450865Y430242D01*
X450848Y430130D01*
X450834Y430017D01*
X450824Y429904D01*
X450818Y429791D01*
X450816Y429678D01*
X450818Y429565D01*
X450824Y429452D01*
X450834Y429339D01*
X450848Y429226D01*
X450865Y429114D01*
X450887Y429003D01*
X450912Y428893D01*
X450942Y428783D01*
X450975Y428675D01*
X451012Y428568D01*
X451052Y428462D01*
X451097Y428358D01*
X451145Y428255D01*
X451196Y428154D01*
X451251Y428055D01*
X451309Y427958D01*
X451371Y427863D01*
X451436Y427770D01*
X451504Y427680D01*
X451575Y427592D01*
X451650Y427506D01*
X451727Y427423D01*
X451807Y427343D01*
X451890Y427266D01*
X451976Y427191D01*
X452064Y427120D01*
X452154Y427052D01*
X452247Y426987D01*
X452342Y426925D01*
X452439Y426867D01*
X452538Y426812D01*
X452639Y426761D01*
X452742Y426713D01*
X452846Y426668D01*
X452952Y426628D01*
X453059Y426591D01*
X453167Y426558D01*
X453277Y426528D01*
X453387Y426503D01*
X453498Y426481D01*
X453610Y426464D01*
X453723Y426450D01*
X453836Y426440D01*
X453949Y426434D01*
X454062Y426432D01*
X457308Y426432D01*
X457451Y426434D01*
X457594Y426440D01*
X457737Y426450D01*
X457879Y426464D01*
X458021Y426481D01*
X458163Y426503D01*
X458304Y426528D01*
X458444Y426558D01*
X458583Y426591D01*
X458721Y426628D01*
X458858Y426669D01*
X458994Y426713D01*
X459129Y426762D01*
X459262Y426814D01*
X459394Y426869D01*
X459524Y426929D01*
X459653Y426992D01*
X459780Y427058D01*
X459904Y427128D01*
X460027Y427201D01*
X460148Y427278D01*
X460267Y427358D01*
X460383Y427441D01*
X460498Y427527D01*
X460609Y427616D01*
X460719Y427709D01*
X460825Y427804D01*
X460929Y427903D01*
X461030Y428004D01*
X461129Y428108D01*
X461224Y428214D01*
X461317Y428324D01*
X461406Y428435D01*
X461492Y428550D01*
X461575Y428666D01*
X461655Y428785D01*
X461732Y428906D01*
X461805Y429028D01*
X461875Y429153D01*
X461941Y429280D01*
X462004Y429409D01*
X462064Y429539D01*
X462119Y429671D01*
X462171Y429804D01*
X462220Y429939D01*
X462264Y430075D01*
X462305Y430212D01*
X462342Y430350D01*
X462375Y430489D01*
X462405Y430629D01*
X462430Y430770D01*
X462452Y430912D01*
X462469Y431054D01*
X462483Y431196D01*
X462493Y431339D01*
X462499Y431482D01*
X462501Y431625D01*
D11*
X229900Y374400D02*
X74900Y374400D01*
X229900Y374400D02*
X229900Y565400D01*
X74900Y565400D01*
X74900Y374400D01*
D12*
X212590Y367900D02*
X212592Y367963D01*
X212598Y368025D01*
X212608Y368087D01*
X212621Y368149D01*
X212639Y368209D01*
X212660Y368268D01*
X212685Y368326D01*
X212714Y368382D01*
X212746Y368436D01*
X212781Y368488D01*
X212819Y368537D01*
X212861Y368585D01*
X212905Y368629D01*
X212953Y368671D01*
X213002Y368709D01*
X213054Y368744D01*
X213108Y368776D01*
X213164Y368805D01*
X213222Y368830D01*
X213281Y368851D01*
X213341Y368869D01*
X213403Y368882D01*
X213465Y368892D01*
X213527Y368898D01*
X213590Y368900D01*
X213653Y368898D01*
X213715Y368892D01*
X213777Y368882D01*
X213839Y368869D01*
X213899Y368851D01*
X213958Y368830D01*
X214016Y368805D01*
X214072Y368776D01*
X214126Y368744D01*
X214178Y368709D01*
X214227Y368671D01*
X214275Y368629D01*
X214319Y368585D01*
X214361Y368537D01*
X214399Y368488D01*
X214434Y368436D01*
X214466Y368382D01*
X214495Y368326D01*
X214520Y368268D01*
X214541Y368209D01*
X214559Y368149D01*
X214572Y368087D01*
X214582Y368025D01*
X214588Y367963D01*
X214590Y367900D01*
X214588Y367837D01*
X214582Y367775D01*
X214572Y367713D01*
X214559Y367651D01*
X214541Y367591D01*
X214520Y367532D01*
X214495Y367474D01*
X214466Y367418D01*
X214434Y367364D01*
X214399Y367312D01*
X214361Y367263D01*
X214319Y367215D01*
X214275Y367171D01*
X214227Y367129D01*
X214178Y367091D01*
X214126Y367056D01*
X214072Y367024D01*
X214016Y366995D01*
X213958Y366970D01*
X213899Y366949D01*
X213839Y366931D01*
X213777Y366918D01*
X213715Y366908D01*
X213653Y366902D01*
X213590Y366900D01*
X213527Y366902D01*
X213465Y366908D01*
X213403Y366918D01*
X213341Y366931D01*
X213281Y366949D01*
X213222Y366970D01*
X213164Y366995D01*
X213108Y367024D01*
X213054Y367056D01*
X213002Y367091D01*
X212953Y367129D01*
X212905Y367171D01*
X212861Y367215D01*
X212819Y367263D01*
X212781Y367312D01*
X212746Y367364D01*
X212714Y367418D01*
X212685Y367474D01*
X212660Y367532D01*
X212639Y367591D01*
X212621Y367651D01*
X212608Y367713D01*
X212598Y367775D01*
X212592Y367837D01*
X212590Y367900D01*
D13*
X234916Y372399D02*
X246601Y372399D01*
X246601Y375645D01*
X246599Y375758D01*
X246593Y375871D01*
X246583Y375984D01*
X246569Y376097D01*
X246552Y376209D01*
X246530Y376320D01*
X246505Y376430D01*
X246475Y376540D01*
X246442Y376648D01*
X246405Y376755D01*
X246365Y376861D01*
X246320Y376965D01*
X246272Y377068D01*
X246221Y377169D01*
X246166Y377268D01*
X246108Y377365D01*
X246046Y377460D01*
X245981Y377553D01*
X245913Y377643D01*
X245842Y377731D01*
X245767Y377817D01*
X245690Y377900D01*
X245610Y377980D01*
X245527Y378057D01*
X245441Y378132D01*
X245353Y378203D01*
X245263Y378271D01*
X245170Y378336D01*
X245075Y378398D01*
X244978Y378456D01*
X244879Y378511D01*
X244778Y378562D01*
X244675Y378610D01*
X244571Y378655D01*
X244465Y378695D01*
X244358Y378732D01*
X244250Y378765D01*
X244140Y378795D01*
X244030Y378820D01*
X243919Y378842D01*
X243807Y378859D01*
X243694Y378873D01*
X243581Y378883D01*
X243468Y378889D01*
X243355Y378891D01*
X243242Y378889D01*
X243129Y378883D01*
X243016Y378873D01*
X242903Y378859D01*
X242791Y378842D01*
X242680Y378820D01*
X242570Y378795D01*
X242460Y378765D01*
X242352Y378732D01*
X242245Y378695D01*
X242139Y378655D01*
X242035Y378610D01*
X241932Y378562D01*
X241831Y378511D01*
X241732Y378456D01*
X241635Y378398D01*
X241540Y378336D01*
X241447Y378271D01*
X241357Y378203D01*
X241269Y378132D01*
X241183Y378057D01*
X241100Y377980D01*
X241020Y377900D01*
X240943Y377817D01*
X240868Y377731D01*
X240797Y377643D01*
X240729Y377553D01*
X240664Y377460D01*
X240602Y377365D01*
X240544Y377268D01*
X240489Y377169D01*
X240438Y377068D01*
X240390Y376965D01*
X240345Y376861D01*
X240305Y376755D01*
X240268Y376648D01*
X240235Y376540D01*
X240205Y376430D01*
X240180Y376320D01*
X240158Y376209D01*
X240141Y376097D01*
X240127Y375984D01*
X240117Y375871D01*
X240111Y375758D01*
X240109Y375645D01*
X240109Y372399D01*
X240109Y376294D02*
X234916Y378890D01*
X234916Y384160D02*
X234916Y389353D01*
X234916Y384160D02*
X246601Y384160D01*
X246601Y389353D01*
X241408Y388055D02*
X241408Y384160D01*
X246601Y394067D02*
X234916Y394067D01*
X234916Y399260D01*
X234916Y402921D02*
X246601Y406816D01*
X234916Y410711D01*
X237837Y409737D02*
X237837Y403894D01*
X246601Y414352D02*
X241083Y418247D01*
X246601Y422142D01*
X241083Y418247D02*
X234916Y418247D01*
X245303Y426432D02*
X246601Y426432D01*
X246601Y432924D01*
X234916Y429678D01*
M02*
