G04 EAGLE Gerber RS-274X export*
G75*
%MOMM*%
%FSLAX34Y34*%
%LPD*%
%INSoldermask Bottom*%
%IPPOS*%
%AMOC8*
5,1,8,0,0,1.08239X$1,22.5*%
G01*
%ADD10C,5.203200*%
%ADD11R,1.511200X1.511200*%
%ADD12C,1.511200*%
%ADD13C,2.003200*%
%ADD14C,1.727200*%
%ADD15P,2.034460X8X22.500000*%
%ADD16P,1.649562X8X22.500000*%
%ADD17R,2.183200X2.183200*%
%ADD18C,2.138200*%
%ADD19C,2.183200*%


D10*
X1587500Y38100D03*
X1587500Y711200D03*
X38100Y711200D03*
X38100Y38100D03*
D11*
X723900Y88900D03*
D12*
X749300Y88900D03*
X774700Y88900D03*
X800100Y88900D03*
X825500Y88900D03*
X850900Y88900D03*
X876300Y88900D03*
X901700Y88900D03*
X901700Y165100D03*
X876300Y165100D03*
X850900Y165100D03*
X825500Y165100D03*
X800100Y165100D03*
X774700Y165100D03*
X749300Y165100D03*
X723900Y165100D03*
D13*
X1511300Y101600D03*
X1511300Y50800D03*
D14*
X723900Y45720D02*
X723900Y30480D01*
X749300Y30480D02*
X749300Y45720D01*
X774700Y45720D02*
X774700Y30480D01*
X800100Y30480D02*
X800100Y45720D01*
X825500Y45720D02*
X825500Y30480D01*
X850900Y30480D02*
X850900Y45720D01*
X876300Y45720D02*
X876300Y30480D01*
X901700Y30480D02*
X901700Y45720D01*
D15*
X1435100Y292100D03*
X1460500Y292100D03*
X1219200Y292100D03*
X1244600Y292100D03*
X1003300Y292100D03*
X1028700Y292100D03*
X787400Y292100D03*
X812800Y292100D03*
X571500Y292100D03*
X596900Y292100D03*
X355600Y292100D03*
X381000Y292100D03*
X139700Y292100D03*
X165100Y292100D03*
D16*
X1409700Y342900D03*
X1485900Y342900D03*
X1193800Y342900D03*
X1270000Y342900D03*
X977900Y342900D03*
X1054100Y342900D03*
X762000Y342900D03*
X838200Y342900D03*
X546100Y342900D03*
X622300Y342900D03*
X330200Y342900D03*
X406400Y342900D03*
X114300Y342900D03*
X190500Y342900D03*
D17*
X1507800Y408900D03*
D18*
X1447800Y388900D03*
D19*
X1387800Y408900D03*
X1387800Y530900D03*
X1507800Y530900D03*
D17*
X1291900Y408900D03*
D18*
X1231900Y388900D03*
D19*
X1171900Y408900D03*
X1171900Y530900D03*
X1291900Y530900D03*
D17*
X1076000Y408900D03*
D18*
X1016000Y388900D03*
D19*
X956000Y408900D03*
X956000Y530900D03*
X1076000Y530900D03*
D17*
X860100Y408900D03*
D18*
X800100Y388900D03*
D19*
X740100Y408900D03*
X740100Y530900D03*
X860100Y530900D03*
D17*
X644200Y408900D03*
D18*
X584200Y388900D03*
D19*
X524200Y408900D03*
X524200Y530900D03*
X644200Y530900D03*
D17*
X428300Y408900D03*
D18*
X368300Y388900D03*
D19*
X308300Y408900D03*
X308300Y530900D03*
X428300Y530900D03*
D17*
X212400Y408900D03*
D18*
X152400Y388900D03*
D19*
X92400Y408900D03*
X92400Y530900D03*
X212400Y530900D03*
D13*
X1397000Y635000D03*
X1447800Y635000D03*
X1498600Y635000D03*
X1181100Y635000D03*
X1231900Y635000D03*
X1282700Y635000D03*
X965200Y635000D03*
X1016000Y635000D03*
X1066800Y635000D03*
X749300Y635000D03*
X800100Y635000D03*
X850900Y635000D03*
X533400Y635000D03*
X584200Y635000D03*
X635000Y635000D03*
X317500Y635000D03*
X368300Y635000D03*
X419100Y635000D03*
X101600Y635000D03*
X152400Y635000D03*
X203200Y635000D03*
M02*
